<?xml version="1.0" standalone="no"?>
<!DOCTYPE svg PUBLIC "-//W3C//DTD SVG 1.1//EN" "http://www.w3.org/Graphics/SVG/1.1/DTD/svg11.dtd">
<svg width="292" height="198" viewBox="0 -198 292 198" xmlns="http://www.w3.org/2000/svg" version="1.1">
<title>OpenSCAD Model</title>
<path d="
M 118,-198 L 0,-198 L 0,-100 L 118,-100 z
M 110,-182 L 110,-190 L 104,-190 L 104,-193 L 113,-193 L 113,-182
 z
M 92,-190 L 92,-193 L 98,-193 L 98,-190 z
M 80,-190 L 80,-193 L 86,-193 L 86,-190 z
M 68,-190 L 68,-193 L 74,-193 L 74,-190 z
M 56,-190 L 56,-193 L 62,-193 L 62,-190 z
M 5,-182 L 5,-193 L 14,-193 L 14,-190 L 8,-190 L 8,-182
 z
M 44,-190 L 44,-193 L 50,-193 L 50,-190 z
M 32,-190 L 32,-193 L 38,-193 L 38,-190 z
M 20,-190 L 20,-193 L 26,-193 L 26,-190 z
M 18.7653,-177.518 L 18.5365,-177.573 L 18.319,-177.663 L 18.1183,-177.786 L 17.9393,-177.939 L 17.7865,-178.118
 L 17.6635,-178.319 L 17.5734,-178.536 L 17.5185,-178.765 L 17.5,-179 L 17.5185,-179.235 L 17.5734,-179.464
 L 17.6635,-179.681 L 17.7865,-179.882 L 17.9393,-180.061 L 18.1183,-180.214 L 18.319,-180.337 L 18.5365,-180.427
 L 18.7653,-180.482 L 19,-180.5 L 19.2346,-180.482 L 19.4635,-180.427 L 19.681,-180.337 L 19.8817,-180.214
 L 20.0607,-180.061 L 20.2135,-179.882 L 20.3365,-179.681 L 20.4266,-179.464 L 20.4815,-179.235 L 20.5,-179
 L 20.4815,-178.765 L 20.4266,-178.536 L 20.3365,-178.319 L 20.2135,-178.118 L 20.0607,-177.939 L 19.8817,-177.786
 L 19.681,-177.663 L 19.4635,-177.573 L 19.2346,-177.518 L 19,-177.5 z
M 110,-170 L 110,-176 L 113,-176 L 113,-170 z
M 5,-170 L 5,-176 L 8,-176 L 8,-170 z
M 88.7653,-167.518 L 88.5365,-167.573 L 88.319,-167.663 L 88.1183,-167.786 L 87.9393,-167.939 L 87.7865,-168.118
 L 87.6635,-168.319 L 87.5734,-168.536 L 87.5185,-168.765 L 87.5,-169 L 87.5185,-169.235 L 87.5734,-169.464
 L 87.6635,-169.681 L 87.7865,-169.882 L 87.9393,-170.061 L 88.1183,-170.214 L 88.319,-170.337 L 88.5365,-170.427
 L 88.7653,-170.482 L 89,-170.5 L 89.2346,-170.482 L 89.4635,-170.427 L 89.681,-170.337 L 89.8817,-170.214
 L 90.0607,-170.061 L 90.2135,-169.882 L 90.3365,-169.681 L 90.4266,-169.464 L 90.4815,-169.235 L 90.5,-169
 L 90.4815,-168.765 L 90.4266,-168.536 L 90.3365,-168.319 L 90.2135,-168.118 L 90.0607,-167.939 L 89.8817,-167.786
 L 89.681,-167.663 L 89.4635,-167.573 L 89.2346,-167.518 L 89,-167.5 z
M 5,-158 L 5,-164 L 8,-164 L 8,-158 z
M 110,-158 L 110,-164 L 113,-164 L 113,-158 z
M 110,-146 L 110,-152 L 113,-152 L 113,-146 z
M 5,-146 L 5,-152 L 8,-152 L 8,-146 z
M 110,-134 L 110,-140 L 113,-140 L 113,-134 z
M 5,-134 L 5,-140 L 8,-140 L 8,-134 z
M 14,-124 L 14,-134 L 44,-134 L 44,-124 z
M 110,-122 L 110,-128 L 113,-128 L 113,-122 z
M 5,-122 L 5,-128 L 8,-128 L 8,-122 z
M 93.7653,-122.518 L 93.5365,-122.573 L 93.319,-122.663 L 93.1183,-122.786 L 92.9393,-122.939 L 92.7865,-123.118
 L 92.6635,-123.319 L 92.5734,-123.536 L 92.5185,-123.765 L 92.5,-124 L 92.5185,-124.235 L 92.5734,-124.464
 L 92.6635,-124.681 L 92.7865,-124.882 L 92.9393,-125.061 L 93.1183,-125.214 L 93.319,-125.337 L 93.5365,-125.427
 L 93.7653,-125.482 L 94,-125.5 L 94.2346,-125.482 L 94.4635,-125.427 L 94.681,-125.337 L 94.8817,-125.214
 L 95.0607,-125.061 L 95.2135,-124.882 L 95.3365,-124.681 L 95.4266,-124.464 L 95.4815,-124.235 L 95.5,-124
 L 95.4815,-123.765 L 95.4266,-123.536 L 95.3365,-123.319 L 95.2135,-123.118 L 95.0607,-122.939 L 94.8817,-122.786
 L 94.681,-122.663 L 94.4635,-122.573 L 94.2346,-122.518 L 94,-122.5 z
M 5,-105 L 5,-116 L 8,-116 L 8,-108 L 14,-108 L 14,-105
 z
M 104,-105 L 104,-108 L 110,-108 L 110,-116 L 113,-116 L 113,-105
 z
M 13.7653,-112.518 L 13.5365,-112.573 L 13.319,-112.663 L 13.1183,-112.786 L 12.9393,-112.939 L 12.7865,-113.118
 L 12.6635,-113.319 L 12.5734,-113.536 L 12.5185,-113.765 L 12.5,-114 L 12.5185,-114.235 L 12.5734,-114.464
 L 12.6635,-114.681 L 12.7865,-114.882 L 12.9393,-115.061 L 13.1183,-115.214 L 13.319,-115.337 L 13.5365,-115.427
 L 13.7653,-115.482 L 14,-115.5 L 14.2346,-115.482 L 14.4635,-115.427 L 14.681,-115.337 L 14.8817,-115.214
 L 15.0607,-115.061 L 15.2135,-114.882 L 15.3365,-114.681 L 15.4266,-114.464 L 15.4815,-114.235 L 15.5,-114
 L 15.4815,-113.765 L 15.4266,-113.536 L 15.3365,-113.319 L 15.2135,-113.118 L 15.0607,-112.939 L 14.8817,-112.786
 L 14.681,-112.663 L 14.4635,-112.573 L 14.2346,-112.518 L 14,-112.5 z
M 92,-105 L 92,-108 L 98,-108 L 98,-105 z
M 80,-105 L 80,-108 L 86,-108 L 86,-105 z
M 68,-105 L 68,-108 L 74,-108 L 74,-105 z
M 56,-105 L 56,-108 L 62,-108 L 62,-105 z
M 44,-105 L 44,-108 L 50,-108 L 50,-105 z
M 32,-105 L 32,-108 L 38,-108 L 38,-105 z
M 20,-105 L 20,-108 L 26,-108 L 26,-105 z
M 239.8,-93 L 245.8,-93 L 245.8,-90 L 251.8,-90 L 251.8,-93 L 257.8,-93
 L 257.8,-90 L 263.8,-90 L 263.8,-93 L 269.8,-93 L 269.8,-90 L 275.8,-90
 L 275.8,-93 L 281.8,-93 L 281.8,-90 L 291.6,-90 L 291.6,-101 L 288.6,-101
 L 288.6,-107 L 291.6,-107 L 291.6,-113 L 288.6,-113 L 288.6,-119 L 291.6,-119
 L 291.6,-125 L 288.6,-125 L 288.6,-131 L 291.6,-131 L 291.6,-137 L 288.6,-137
 L 288.6,-143 L 291.6,-143 L 291.6,-149 L 288.6,-149 L 288.6,-155 L 291.6,-155
 L 291.6,-161 L 288.6,-161 L 288.6,-167 L 291.6,-167 L 291.6,-178 L 281.8,-178
 L 281.8,-175 L 275.8,-175 L 275.8,-178 L 269.8,-178 L 269.8,-175 L 263.8,-175
 L 263.8,-178 L 257.8,-178 L 257.8,-175 L 251.8,-175 L 251.8,-178 L 245.8,-178
 L 245.8,-175 L 239.8,-175 L 239.8,-178 L 230,-178 L 230,-167 L 233,-167
 L 233,-161 L 230,-161 L 230,-155 L 233,-155 L 233,-149 L 230,-149
 L 230,-143 L 233,-143 L 233,-137 L 230,-137 L 230,-131 L 233,-131
 L 233,-125 L 230,-125 L 230,-119 L 233,-119 L 233,-113 L 230,-113
 L 230,-107 L 233,-107 L 233,-101 L 230,-101 L 230,-90 L 239.8,-90
 z
M 240,-129 L 240,-139 L 250,-139 L 250,-129 z
M 251.6,-129 L 251.6,-139 L 261.6,-139 L 261.6,-129 z
M 247.109,-111.531 L 246.727,-111.622 L 246.365,-111.772 L 246.031,-111.977 L 245.732,-112.232 L 245.477,-112.531
 L 245.272,-112.865 L 245.122,-113.227 L 245.031,-113.609 L 245,-114 L 245.031,-114.391 L 245.122,-114.773
 L 245.272,-115.135 L 245.477,-115.469 L 245.732,-115.768 L 246.031,-116.023 L 246.365,-116.228 L 246.727,-116.378
 L 247.109,-116.469 L 247.5,-116.5 L 247.891,-116.469 L 248.273,-116.378 L 248.635,-116.228 L 248.969,-116.023
 L 249.268,-115.768 L 249.523,-115.469 L 249.728,-115.135 L 249.878,-114.773 L 249.969,-114.391 L 250,-114
 L 249.969,-113.609 L 249.878,-113.227 L 249.728,-112.865 L 249.523,-112.531 L 249.268,-112.232 L 248.969,-111.977
 L 248.635,-111.772 L 248.273,-111.622 L 247.891,-111.531 L 247.5,-111.5 z
M 253.709,-111.531 L 253.327,-111.622 L 252.965,-111.772 L 252.631,-111.977 L 252.332,-112.232 L 252.077,-112.531
 L 251.872,-112.865 L 251.722,-113.227 L 251.631,-113.609 L 251.6,-114 L 251.631,-114.391 L 251.722,-114.773
 L 251.872,-115.135 L 252.077,-115.469 L 252.332,-115.768 L 252.631,-116.023 L 252.965,-116.228 L 253.327,-116.378
 L 253.709,-116.469 L 254.1,-116.5 L 254.491,-116.469 L 254.873,-116.378 L 255.235,-116.228 L 255.569,-116.023
 L 255.868,-115.768 L 256.123,-115.469 L 256.328,-115.135 L 256.478,-114.773 L 256.569,-114.391 L 256.6,-114
 L 256.569,-113.609 L 256.478,-113.227 L 256.328,-112.865 L 256.123,-112.531 L 255.868,-112.232 L 255.569,-111.977
 L 255.235,-111.772 L 254.873,-111.622 L 254.491,-111.531 L 254.1,-111.5 z
M 129,-66.6 L 135,-66.6 L 135,-63.6 L 141,-63.6 L 141,-66.6 L 147,-66.6
 L 147,-63.6 L 153,-63.6 L 153,-66.6 L 159,-66.6 L 159,-63.6 L 165,-63.6
 L 165,-66.6 L 171,-66.6 L 171,-63.6 L 177,-63.6 L 177,-66.6 L 183,-66.6
 L 183,-63.6 L 189,-63.6 L 189,-66.6 L 195,-66.6 L 195,-63.6 L 201,-63.6
 L 201,-66.6 L 207,-66.6 L 207,-63.6 L 213,-63.6 L 213,-66.6 L 219,-66.6
 L 219,-63.6 L 225,-63.6 L 225,-73.4 L 228,-73.4 L 228,-79.4 L 225,-79.4
 L 225,-85.4 L 228,-85.4 L 228,-91.4 L 225,-91.4 L 225,-97.4 L 228,-97.4
 L 228,-103.4 L 225,-103.4 L 225,-109.4 L 228,-109.4 L 228,-115.4 L 225,-115.4
 L 225,-125.2 L 219,-125.2 L 219,-122.2 L 213,-122.2 L 213,-125.2 L 207,-125.2
 L 207,-122.2 L 201,-122.2 L 201,-125.2 L 195,-125.2 L 195,-122.2 L 189,-122.2
 L 189,-125.2 L 183,-125.2 L 183,-122.2 L 177,-122.2 L 177,-125.2 L 171,-125.2
 L 171,-122.2 L 165,-122.2 L 165,-125.2 L 159,-125.2 L 159,-122.2 L 153,-122.2
 L 153,-125.2 L 147,-125.2 L 147,-122.2 L 141,-122.2 L 141,-125.2 L 135,-125.2
 L 135,-122.2 L 129,-122.2 L 129,-125.2 L 123,-125.2 L 123,-115.4 L 120,-115.4
 L 120,-109.4 L 123,-109.4 L 123,-103.4 L 120,-103.4 L 120,-97.4 L 123,-97.4
 L 123,-91.4 L 120,-91.4 L 120,-85.4 L 123,-85.4 L 123,-79.4 L 120,-79.4
 L 120,-73.4 L 123,-73.4 L 123,-63.6 L 129,-63.6 z
M 159,-85.2 L 159,-95.2 L 169,-95.2 L 169,-85.2 z
M 143.609,-85.2308 L 143.227,-85.3223 L 142.865,-85.4725 L 142.531,-85.6774 L 142.232,-85.9322 L 141.977,-86.2305
 L 141.772,-86.565 L 141.622,-86.9274 L 141.531,-87.3089 L 141.5,-87.7 L 141.531,-88.0911 L 141.622,-88.4725
 L 141.772,-88.835 L 141.977,-89.1694 L 142.232,-89.4677 L 142.531,-89.7225 L 142.865,-89.9275 L 143.227,-90.0776
 L 143.609,-90.1692 L 144,-90.2 L 144.391,-90.1692 L 144.773,-90.0776 L 145.135,-89.9275 L 145.469,-89.7225
 L 145.768,-89.4677 L 146.023,-89.1694 L 146.228,-88.835 L 146.378,-88.4725 L 146.469,-88.0911 L 146.5,-87.7
 L 146.469,-87.3089 L 146.378,-86.9274 L 146.228,-86.565 L 146.023,-86.2305 L 145.768,-85.9322 L 145.469,-85.6774
 L 145.135,-85.4725 L 144.773,-85.3223 L 144.391,-85.2308 L 144,-85.2 z
M 143.609,-78.6308 L 143.227,-78.7223 L 142.865,-78.8725 L 142.531,-79.0774 L 142.232,-79.3322 L 141.977,-79.6305
 L 141.772,-79.965 L 141.622,-80.3274 L 141.531,-80.7089 L 141.5,-81.1 L 141.531,-81.4911 L 141.622,-81.8725
 L 141.772,-82.235 L 141.977,-82.5694 L 142.232,-82.8678 L 142.531,-83.1225 L 142.865,-83.3275 L 143.227,-83.4776
 L 143.609,-83.5692 L 144,-83.6 L 144.391,-83.5692 L 144.773,-83.4776 L 145.135,-83.3275 L 145.469,-83.1225
 L 145.768,-82.8678 L 146.023,-82.5694 L 146.228,-82.235 L 146.378,-81.8725 L 146.469,-81.4911 L 146.5,-81.1
 L 146.469,-80.7089 L 146.378,-80.3274 L 146.228,-79.965 L 146.023,-79.6305 L 145.768,-79.3322 L 145.469,-79.0774
 L 145.135,-78.8725 L 144.773,-78.7223 L 144.391,-78.6308 L 144,-78.6 z
M 159,-73.6 L 159,-83.6 L 169,-83.6 L 169,-73.6 z
M 118,-98 L 0,-98 L 0,-0 L 118,-0 z
M 110,-82 L 110,-90 L 104,-90 L 104,-93 L 113,-93 L 113,-82
 z
M 20,-90 L 20,-93 L 26,-93 L 26,-90 z
M 5,-82 L 5,-93 L 14,-93 L 14,-90 L 8,-90 L 8,-82
 z
M 32,-90 L 32,-93 L 38,-93 L 38,-90 z
M 44,-90 L 44,-93 L 50,-93 L 50,-90 z
M 56,-90 L 56,-93 L 62,-93 L 62,-90 z
M 68,-90 L 68,-93 L 74,-93 L 74,-90 z
M 92,-90 L 92,-93 L 98,-93 L 98,-90 z
M 80,-90 L 80,-93 L 86,-93 L 86,-90 z
M 98.7653,-77.5185 L 98.5365,-77.5734 L 98.319,-77.6635 L 98.1183,-77.7865 L 97.9393,-77.9393 L 97.7865,-78.1183
 L 97.6635,-78.319 L 97.5734,-78.5365 L 97.5185,-78.7653 L 97.5,-79 L 97.5185,-79.2346 L 97.5734,-79.4635
 L 97.6635,-79.681 L 97.7865,-79.8817 L 97.9393,-80.0607 L 98.1183,-80.2135 L 98.319,-80.3365 L 98.5365,-80.4266
 L 98.7653,-80.4815 L 99,-80.5 L 99.2346,-80.4815 L 99.4635,-80.4266 L 99.681,-80.3365 L 99.8817,-80.2135
 L 100.061,-80.0607 L 100.214,-79.8817 L 100.337,-79.681 L 100.427,-79.4635 L 100.482,-79.2346 L 100.5,-79
 L 100.482,-78.7653 L 100.427,-78.5365 L 100.337,-78.319 L 100.214,-78.1183 L 100.061,-77.9393 L 99.8817,-77.7865
 L 99.681,-77.6635 L 99.4635,-77.5734 L 99.2346,-77.5185 L 99,-77.5 z
M 5,-70 L 5,-76 L 8,-76 L 8,-70 z
M 110,-70 L 110,-76 L 113,-76 L 113,-70 z
M 28.7653,-67.5185 L 28.5365,-67.5734 L 28.319,-67.6635 L 28.1183,-67.7865 L 27.9393,-67.9393 L 27.7865,-68.1183
 L 27.6635,-68.319 L 27.5734,-68.5365 L 27.5185,-68.7653 L 27.5,-69 L 27.5185,-69.2346 L 27.5734,-69.4635
 L 27.6635,-69.681 L 27.7865,-69.8817 L 27.9393,-70.0607 L 28.1183,-70.2135 L 28.319,-70.3365 L 28.5365,-70.4266
 L 28.7653,-70.4815 L 29,-70.5 L 29.2346,-70.4815 L 29.4635,-70.4266 L 29.681,-70.3365 L 29.8817,-70.2135
 L 30.0607,-70.0607 L 30.2135,-69.8817 L 30.3365,-69.681 L 30.4266,-69.4635 L 30.4815,-69.2346 L 30.5,-69
 L 30.4815,-68.7653 L 30.4266,-68.5365 L 30.3365,-68.319 L 30.2135,-68.1183 L 30.0607,-67.9393 L 29.8817,-67.7865
 L 29.681,-67.6635 L 29.4635,-67.5734 L 29.2346,-67.5185 L 29,-67.5 z
M 110,-58 L 110,-64 L 113,-64 L 113,-58 z
M 5,-58 L 5,-64 L 8,-64 L 8,-58 z
M 68.2178,-44.0616 L 67.4549,-44.2447 L 66.73,-44.545 L 66.0611,-44.9549 L 65.4645,-45.4645 L 64.9549,-46.0611
 L 64.545,-46.73 L 64.2447,-47.4549 L 64.0616,-48.2178 L 64,-49 L 64.0616,-49.7822 L 64.2447,-50.5451
 L 64.545,-51.2699 L 64.9549,-51.9389 L 65.4645,-52.5355 L 66.0611,-53.0451 L 66.73,-53.455 L 67.4549,-53.7553
 L 68.2178,-53.9384 L 69,-54 L 69.7822,-53.9384 L 70.5451,-53.7553 L 71.2699,-53.455 L 71.9389,-53.0451
 L 72.5355,-52.5355 L 73.0451,-51.9389 L 73.455,-51.2699 L 73.7553,-50.5451 L 73.9384,-49.7822 L 74,-49
 L 73.9384,-48.2178 L 73.7553,-47.4549 L 73.455,-46.73 L 73.0451,-46.0611 L 72.5355,-45.4645 L 71.9389,-44.9549
 L 71.2699,-44.545 L 70.5451,-44.2447 L 69.7822,-44.0616 L 69,-44 z
M 110,-46 L 110,-52 L 113,-52 L 113,-46 z
M 5,-46 L 5,-52 L 8,-52 L 8,-46 z
M 5,-34 L 5,-40 L 8,-40 L 8,-34 z
M 110,-34 L 110,-40 L 113,-40 L 113,-34 z
M 86.5,-26.5 L 86.5,-31.5 L 91.5,-31.5 L 91.5,-26.5 z
M 110,-22 L 110,-28 L 113,-28 L 113,-22 z
M 5,-22 L 5,-28 L 8,-28 L 8,-22 z
M 23.7653,-22.5185 L 23.5365,-22.5734 L 23.319,-22.6635 L 23.1183,-22.7865 L 22.9393,-22.9393 L 22.7865,-23.1183
 L 22.6635,-23.319 L 22.5734,-23.5365 L 22.5185,-23.7653 L 22.5,-24 L 22.5185,-24.2346 L 22.5734,-24.4635
 L 22.6635,-24.681 L 22.7865,-24.8817 L 22.9393,-25.0607 L 23.1183,-25.2135 L 23.319,-25.3365 L 23.5365,-25.4266
 L 23.7653,-25.4815 L 24,-25.5 L 24.2346,-25.4815 L 24.4635,-25.4266 L 24.681,-25.3365 L 24.8817,-25.2135
 L 25.0607,-25.0607 L 25.2135,-24.8817 L 25.3365,-24.681 L 25.4266,-24.4635 L 25.4815,-24.2346 L 25.5,-24
 L 25.4815,-23.7653 L 25.4266,-23.5365 L 25.3365,-23.319 L 25.2135,-23.1183 L 25.0607,-22.9393 L 24.8817,-22.7865
 L 24.681,-22.6635 L 24.4635,-22.5734 L 24.2346,-22.5185 L 24,-22.5 z
M 104,-5 L 104,-8 L 110,-8 L 110,-16 L 113,-16 L 113,-5
 z
M 5,-5 L 5,-16 L 8,-16 L 8,-8 L 14,-8 L 14,-5
 z
M 103.765,-12.5185 L 103.536,-12.5734 L 103.319,-12.6635 L 103.118,-12.7865 L 102.939,-12.9393 L 102.786,-13.1183
 L 102.663,-13.319 L 102.573,-13.5365 L 102.518,-13.7653 L 102.5,-14 L 102.518,-14.2346 L 102.573,-14.4635
 L 102.663,-14.681 L 102.786,-14.8817 L 102.939,-15.0607 L 103.118,-15.2135 L 103.319,-15.3365 L 103.536,-15.4266
 L 103.765,-15.4815 L 104,-15.5 L 104.235,-15.4815 L 104.464,-15.4266 L 104.681,-15.3365 L 104.882,-15.2135
 L 105.061,-15.0607 L 105.214,-14.8817 L 105.337,-14.681 L 105.427,-14.4635 L 105.482,-14.2346 L 105.5,-14
 L 105.482,-13.7653 L 105.427,-13.5365 L 105.337,-13.319 L 105.214,-13.1183 L 105.061,-12.9393 L 104.882,-12.7865
 L 104.681,-12.6635 L 104.464,-12.5734 L 104.235,-12.5185 L 104,-12.5 z
M 20,-5 L 20,-8 L 26,-8 L 26,-5 z
M 32,-5 L 32,-8 L 38,-8 L 38,-5 z
M 44,-5 L 44,-8 L 50,-8 L 50,-5 z
M 56,-5 L 56,-8 L 62,-8 L 62,-5 z
M 68,-5 L 68,-8 L 74,-8 L 74,-5 z
M 80,-5 L 80,-8 L 86,-8 L 86,-5 z
M 92,-5 L 92,-8 L 98,-8 L 98,-5 z
M 239.8,-3 L 245.8,-3 L 245.8,-0 L 251.8,-0 L 251.8,-3 L 257.8,-3
 L 257.8,-0 L 263.8,-0 L 263.8,-3 L 269.8,-3 L 269.8,-0 L 275.8,-0
 L 275.8,-3 L 281.8,-3 L 281.8,-0 L 291.6,-0 L 291.6,-11 L 288.6,-11
 L 288.6,-17 L 291.6,-17 L 291.6,-23 L 288.6,-23 L 288.6,-29 L 291.6,-29
 L 291.6,-35 L 288.6,-35 L 288.6,-41 L 291.6,-41 L 291.6,-47 L 288.6,-47
 L 288.6,-53 L 291.6,-53 L 291.6,-59 L 288.6,-59 L 288.6,-65 L 291.6,-65
 L 291.6,-71 L 288.6,-71 L 288.6,-77 L 291.6,-77 L 291.6,-88 L 281.8,-88
 L 281.8,-85 L 275.8,-85 L 275.8,-88 L 269.8,-88 L 269.8,-85 L 263.8,-85
 L 263.8,-88 L 257.8,-88 L 257.8,-85 L 251.8,-85 L 251.8,-88 L 245.8,-88
 L 245.8,-85 L 239.8,-85 L 239.8,-88 L 230,-88 L 230,-77 L 233,-77
 L 233,-71 L 230,-71 L 230,-65 L 233,-65 L 233,-59 L 230,-59
 L 230,-53 L 233,-53 L 233,-47 L 230,-47 L 230,-41 L 233,-41
 L 233,-35 L 230,-35 L 230,-29 L 233,-29 L 233,-23 L 230,-23
 L 230,-17 L 233,-17 L 233,-11 L 230,-11 L 230,-0 L 239.8,-0
 z
M 271.6,-39 L 271.6,-49 L 281.6,-49 L 281.6,-39 z
M 260,-39 L 260,-49 L 270,-49 L 270,-39 z
M 267.109,-21.5308 L 266.727,-21.6223 L 266.365,-21.7725 L 266.031,-21.9774 L 265.732,-22.2322 L 265.477,-22.5305
 L 265.272,-22.865 L 265.122,-23.2274 L 265.031,-23.6089 L 265,-24 L 265.031,-24.3911 L 265.122,-24.7725
 L 265.272,-25.135 L 265.477,-25.4695 L 265.732,-25.7678 L 266.031,-26.0225 L 266.365,-26.2275 L 266.727,-26.3776
 L 267.109,-26.4692 L 267.5,-26.5 L 267.891,-26.4692 L 268.273,-26.3776 L 268.635,-26.2275 L 268.969,-26.0225
 L 269.268,-25.7678 L 269.523,-25.4695 L 269.728,-25.135 L 269.878,-24.7725 L 269.969,-24.3911 L 270,-24
 L 269.969,-23.6089 L 269.878,-23.2274 L 269.728,-22.865 L 269.523,-22.5305 L 269.268,-22.2322 L 268.969,-21.9774
 L 268.635,-21.7725 L 268.273,-21.6223 L 267.891,-21.5308 L 267.5,-21.5 z
M 273.709,-21.5308 L 273.327,-21.6223 L 272.965,-21.7725 L 272.631,-21.9774 L 272.332,-22.2322 L 272.077,-22.5305
 L 271.872,-22.865 L 271.722,-23.2274 L 271.631,-23.6089 L 271.6,-24 L 271.631,-24.3911 L 271.722,-24.7725
 L 271.872,-25.135 L 272.077,-25.4695 L 272.332,-25.7678 L 272.631,-26.0225 L 272.965,-26.2275 L 273.327,-26.3776
 L 273.709,-26.4692 L 274.1,-26.5 L 274.491,-26.4692 L 274.873,-26.3776 L 275.235,-26.2275 L 275.569,-26.0225
 L 275.868,-25.7678 L 276.123,-25.4695 L 276.328,-25.135 L 276.478,-24.7725 L 276.569,-24.3911 L 276.6,-24
 L 276.569,-23.6089 L 276.478,-23.2274 L 276.328,-22.865 L 276.123,-22.5305 L 275.868,-22.2322 L 275.569,-21.9774
 L 275.235,-21.7725 L 274.873,-21.6223 L 274.491,-21.5308 L 274.1,-21.5 z
M 129,-3 L 135,-3 L 135,-0 L 141,-0 L 141,-3 L 147,-3
 L 147,-0 L 153,-0 L 153,-3 L 159,-3 L 159,-0 L 165,-0
 L 165,-3 L 171,-3 L 171,-0 L 177,-0 L 177,-3 L 183,-3
 L 183,-0 L 189,-0 L 189,-3 L 195,-3 L 195,-0 L 201,-0
 L 201,-3 L 207,-3 L 207,-0 L 213,-0 L 213,-3 L 219,-3
 L 219,-0 L 225,-0 L 225,-9.79999 L 228,-9.79999 L 228,-15.8 L 225,-15.8
 L 225,-21.8 L 228,-21.8 L 228,-27.8 L 225,-27.8 L 225,-33.8 L 228,-33.8
 L 228,-39.8 L 225,-39.8 L 225,-45.8 L 228,-45.8 L 228,-51.8 L 225,-51.8
 L 225,-61.6 L 219,-61.6 L 219,-58.6 L 213,-58.6 L 213,-61.6 L 207,-61.6
 L 207,-58.6 L 201,-58.6 L 201,-61.6 L 195,-61.6 L 195,-58.6 L 189,-58.6
 L 189,-61.6 L 183,-61.6 L 183,-58.6 L 177,-58.6 L 177,-61.6 L 171,-61.6
 L 171,-58.6 L 165,-58.6 L 165,-61.6 L 159,-61.6 L 159,-58.6 L 153,-58.6
 L 153,-61.6 L 147,-61.6 L 147,-58.6 L 141,-58.6 L 141,-61.6 L 135,-61.6
 L 135,-58.6 L 129,-58.6 L 129,-61.6 L 123,-61.6 L 123,-51.8 L 120,-51.8
 L 120,-45.8 L 123,-45.8 L 123,-39.8 L 120,-39.8 L 120,-33.8 L 123,-33.8
 L 123,-27.8 L 120,-27.8 L 120,-21.8 L 123,-21.8 L 123,-15.8 L 120,-15.8
 L 120,-9.79999 L 123,-9.79999 L 123,-0 L 129,-0 z
M 159,-41.6 L 159,-51.6 L 169,-51.6 L 169,-41.6 z
M 143.609,-41.6308 L 143.227,-41.7224 L 142.865,-41.8725 L 142.531,-42.0775 L 142.232,-42.3322 L 141.977,-42.6305
 L 141.772,-42.965 L 141.622,-43.3275 L 141.531,-43.7089 L 141.5,-44.1 L 141.531,-44.4911 L 141.622,-44.8725
 L 141.772,-45.235 L 141.977,-45.5695 L 142.232,-45.8678 L 142.531,-46.1225 L 142.865,-46.3275 L 143.227,-46.4776
 L 143.609,-46.5692 L 144,-46.6 L 144.391,-46.5692 L 144.773,-46.4776 L 145.135,-46.3275 L 145.469,-46.1225
 L 145.768,-45.8678 L 146.023,-45.5695 L 146.228,-45.235 L 146.378,-44.8725 L 146.469,-44.4911 L 146.5,-44.1
 L 146.469,-43.7089 L 146.378,-43.3275 L 146.228,-42.965 L 146.023,-42.6305 L 145.768,-42.3322 L 145.469,-42.0775
 L 145.135,-41.8725 L 144.773,-41.7224 L 144.391,-41.6308 L 144,-41.6 z
M 143.609,-35.0308 L 143.227,-35.1223 L 142.865,-35.2725 L 142.531,-35.4774 L 142.232,-35.7322 L 141.977,-36.0305
 L 141.772,-36.365 L 141.622,-36.7274 L 141.531,-37.1089 L 141.5,-37.5 L 141.531,-37.8911 L 141.622,-38.2725
 L 141.772,-38.635 L 141.977,-38.9695 L 142.232,-39.2678 L 142.531,-39.5225 L 142.865,-39.7275 L 143.227,-39.8776
 L 143.609,-39.9692 L 144,-40 L 144.391,-39.9692 L 144.773,-39.8776 L 145.135,-39.7275 L 145.469,-39.5225
 L 145.768,-39.2678 L 146.023,-38.9695 L 146.228,-38.635 L 146.378,-38.2725 L 146.469,-37.8911 L 146.5,-37.5
 L 146.469,-37.1089 L 146.378,-36.7274 L 146.228,-36.365 L 146.023,-36.0305 L 145.768,-35.7322 L 145.469,-35.4774
 L 145.135,-35.2725 L 144.773,-35.1223 L 144.391,-35.0308 L 144,-35 z
M 159,-30 L 159,-40 L 169,-40 L 169,-30 z
" stroke="black" fill="lightgray" stroke-width="0.5"/></svg>
