<?xml version="1.0" standalone="no"?>
<!DOCTYPE svg PUBLIC "-//W3C//DTD SVG 1.1//EN" "http://www.w3.org/Graphics/SVG/1.1/DTD/svg11.dtd">
<svg width="850mm" height="402mm" viewBox="0 -402 850 402" xmlns="http://www.w3.org/2000/svg" version="1.1">
<title>OpenSCAD Model</title>
<path d="
M 667.6,-401.2 L 468,-401.2 L 468,-201.6 L 667.6,-201.6 z
M 478,-356.4 L 478,-391.2 L 512.8,-391.2 L 512.8,-386 L 483.2,-386 L 483.2,-356.4
 z
M 652.4,-356.4 L 652.4,-386 L 622.8,-386 L 622.8,-391.2 L 657.6,-391.2 L 657.6,-356.4
 z
M 534.8,-386 L 534.8,-391.2 L 556.8,-391.2 L 556.8,-386 z
M 578.8,-386 L 578.8,-391.2 L 600.8,-391.2 L 600.8,-386 z
M 489.887,-377.025 L 489.582,-377.098 L 489.292,-377.218 L 489.024,-377.382 L 488.786,-377.586 L 488.582,-377.824
 L 488.418,-378.092 L 488.298,-378.382 L 488.225,-378.687 L 488.2,-379 L 488.225,-379.313 L 488.298,-379.618
 L 488.418,-379.908 L 488.582,-380.176 L 488.786,-380.414 L 489.024,-380.618 L 489.292,-380.782 L 489.582,-380.902
 L 489.887,-380.975 L 490.2,-381 L 490.513,-380.975 L 490.818,-380.902 L 491.108,-380.782 L 491.376,-380.618
 L 491.614,-380.414 L 491.818,-380.176 L 491.982,-379.908 L 492.102,-379.618 L 492.175,-379.313 L 492.2,-379
 L 492.175,-378.687 L 492.102,-378.382 L 491.982,-378.092 L 491.818,-377.824 L 491.614,-377.586 L 491.376,-377.382
 L 491.108,-377.218 L 490.818,-377.098 L 490.513,-377.025 L 490.2,-377 z
M 645.087,-377.025 L 644.782,-377.098 L 644.492,-377.218 L 644.224,-377.382 L 643.986,-377.586 L 643.782,-377.824
 L 643.618,-378.092 L 643.498,-378.382 L 643.425,-378.687 L 643.4,-379 L 643.425,-379.313 L 643.498,-379.618
 L 643.618,-379.908 L 643.782,-380.176 L 643.986,-380.414 L 644.224,-380.618 L 644.492,-380.782 L 644.782,-380.902
 L 645.087,-380.975 L 645.4,-381 L 645.713,-380.975 L 646.018,-380.902 L 646.308,-380.782 L 646.576,-380.618
 L 646.814,-380.414 L 647.018,-380.176 L 647.182,-379.908 L 647.302,-379.618 L 647.375,-379.313 L 647.4,-379
 L 647.375,-378.687 L 647.302,-378.382 L 647.182,-378.092 L 647.018,-377.824 L 646.814,-377.586 L 646.576,-377.382
 L 646.308,-377.218 L 646.018,-377.098 L 645.713,-377.025 L 645.4,-377 z
M 554.842,-352.07 L 554.59,-352.131 L 554.351,-352.23 L 554.13,-352.365 L 553.933,-352.533 L 553.765,-352.73
 L 553.63,-352.951 L 553.531,-353.19 L 553.47,-353.442 L 553.45,-353.7 L 553.47,-353.958 L 553.531,-354.21
 L 553.63,-354.449 L 553.765,-354.67 L 553.933,-354.867 L 554.13,-355.035 L 554.351,-355.17 L 554.59,-355.269
 L 554.842,-355.33 L 555.1,-355.35 L 555.358,-355.33 L 555.61,-355.269 L 555.849,-355.17 L 556.07,-355.035
 L 556.267,-354.867 L 556.435,-354.67 L 556.57,-354.449 L 556.669,-354.21 L 556.73,-353.958 L 556.75,-353.7
 L 556.73,-353.442 L 556.669,-353.19 L 556.57,-352.951 L 556.435,-352.73 L 556.267,-352.533 L 556.07,-352.365
 L 555.849,-352.23 L 555.61,-352.131 L 555.358,-352.07 L 555.1,-352.05 z
M 580.242,-352.07 L 579.99,-352.131 L 579.751,-352.23 L 579.53,-352.365 L 579.333,-352.533 L 579.165,-352.73
 L 579.03,-352.951 L 578.931,-353.19 L 578.87,-353.442 L 578.85,-353.7 L 578.87,-353.958 L 578.931,-354.21
 L 579.03,-354.449 L 579.165,-354.67 L 579.333,-354.867 L 579.53,-355.035 L 579.751,-355.17 L 579.99,-355.269
 L 580.242,-355.33 L 580.5,-355.35 L 580.758,-355.33 L 581.01,-355.269 L 581.249,-355.17 L 581.47,-355.035
 L 581.667,-354.867 L 581.835,-354.67 L 581.97,-354.449 L 582.069,-354.21 L 582.13,-353.958 L 582.15,-353.7
 L 582.13,-353.442 L 582.069,-353.19 L 581.97,-352.951 L 581.835,-352.73 L 581.667,-352.533 L 581.47,-352.365
 L 581.249,-352.23 L 581.01,-352.131 L 580.758,-352.07 L 580.5,-352.05 z
M 631.978,-335.233 L 631.566,-335.332 L 631.174,-335.494 L 630.813,-335.716 L 630.491,-335.991 L 630.216,-336.313
 L 629.994,-336.674 L 629.832,-337.066 L 629.733,-337.478 L 629.7,-337.9 L 629.733,-338.322 L 629.832,-338.734
 L 629.994,-339.126 L 630.216,-339.487 L 630.491,-339.809 L 630.813,-340.084 L 631.174,-340.306 L 631.566,-340.468
 L 631.978,-340.567 L 632.4,-340.6 L 632.822,-340.567 L 633.234,-340.468 L 633.626,-340.306 L 633.987,-340.084
 L 634.309,-339.809 L 634.584,-339.487 L 634.806,-339.126 L 634.968,-338.734 L 635.067,-338.322 L 635.1,-337.9
 L 635.067,-337.478 L 634.968,-337.066 L 634.806,-336.674 L 634.584,-336.313 L 634.309,-335.991 L 633.987,-335.716
 L 633.626,-335.494 L 633.234,-335.332 L 632.822,-335.233 L 632.4,-335.2 z
M 502.778,-335.233 L 502.366,-335.332 L 501.974,-335.494 L 501.613,-335.716 L 501.291,-335.991 L 501.016,-336.313
 L 500.794,-336.674 L 500.632,-337.066 L 500.533,-337.478 L 500.5,-337.9 L 500.533,-338.322 L 500.632,-338.734
 L 500.794,-339.126 L 501.016,-339.487 L 501.291,-339.809 L 501.613,-340.084 L 501.974,-340.306 L 502.366,-340.468
 L 502.778,-340.567 L 503.2,-340.6 L 503.622,-340.567 L 504.034,-340.468 L 504.426,-340.306 L 504.787,-340.084
 L 505.109,-339.809 L 505.384,-339.487 L 505.606,-339.126 L 505.768,-338.734 L 505.867,-338.322 L 505.9,-337.9
 L 505.867,-337.478 L 505.768,-337.066 L 505.606,-336.674 L 505.384,-336.313 L 505.109,-335.991 L 504.787,-335.716
 L 504.426,-335.494 L 504.034,-335.332 L 503.622,-335.233 L 503.2,-335.2 z
M 492.887,-335.925 L 492.582,-335.998 L 492.292,-336.118 L 492.024,-336.282 L 491.786,-336.486 L 491.582,-336.724
 L 491.418,-336.992 L 491.298,-337.282 L 491.225,-337.587 L 491.2,-337.9 L 491.225,-338.213 L 491.298,-338.518
 L 491.418,-338.808 L 491.582,-339.076 L 491.786,-339.314 L 492.024,-339.518 L 492.292,-339.682 L 492.582,-339.802
 L 492.887,-339.875 L 493.2,-339.9 L 493.513,-339.875 L 493.818,-339.802 L 494.108,-339.682 L 494.376,-339.518
 L 494.614,-339.314 L 494.818,-339.076 L 494.982,-338.808 L 495.102,-338.518 L 495.175,-338.213 L 495.2,-337.9
 L 495.175,-337.587 L 495.102,-337.282 L 494.982,-336.992 L 494.818,-336.724 L 494.614,-336.486 L 494.376,-336.282
 L 494.108,-336.118 L 493.818,-335.998 L 493.513,-335.925 L 493.2,-335.9 z
M 622.087,-335.925 L 621.782,-335.998 L 621.492,-336.118 L 621.224,-336.282 L 620.986,-336.486 L 620.782,-336.724
 L 620.618,-336.992 L 620.498,-337.282 L 620.425,-337.587 L 620.4,-337.9 L 620.425,-338.213 L 620.498,-338.518
 L 620.618,-338.808 L 620.782,-339.076 L 620.986,-339.314 L 621.224,-339.518 L 621.492,-339.682 L 621.782,-339.802
 L 622.087,-339.875 L 622.4,-339.9 L 622.713,-339.875 L 623.018,-339.802 L 623.308,-339.682 L 623.576,-339.518
 L 623.814,-339.314 L 624.018,-339.076 L 624.182,-338.808 L 624.302,-338.518 L 624.375,-338.213 L 624.4,-337.9
 L 624.375,-337.587 L 624.302,-337.282 L 624.182,-336.992 L 624.018,-336.724 L 623.814,-336.486 L 623.576,-336.282
 L 623.308,-336.118 L 623.018,-335.998 L 622.713,-335.925 L 622.4,-335.9 z
M 652.4,-312.4 L 652.4,-334.4 L 657.6,-334.4 L 657.6,-312.4 z
M 478,-312.4 L 478,-334.4 L 483.2,-334.4 L 483.2,-312.4 z
M 554.842,-326.67 L 554.59,-326.731 L 554.351,-326.83 L 554.13,-326.965 L 553.933,-327.133 L 553.765,-327.33
 L 553.63,-327.551 L 553.531,-327.79 L 553.47,-328.042 L 553.45,-328.3 L 553.47,-328.558 L 553.531,-328.81
 L 553.63,-329.049 L 553.765,-329.27 L 553.933,-329.467 L 554.13,-329.635 L 554.351,-329.77 L 554.59,-329.869
 L 554.842,-329.93 L 555.1,-329.95 L 555.358,-329.93 L 555.61,-329.869 L 555.849,-329.77 L 556.07,-329.635
 L 556.267,-329.467 L 556.435,-329.27 L 556.57,-329.049 L 556.669,-328.81 L 556.73,-328.558 L 556.75,-328.3
 L 556.73,-328.042 L 556.669,-327.79 L 556.57,-327.551 L 556.435,-327.33 L 556.267,-327.133 L 556.07,-326.965
 L 555.849,-326.83 L 555.61,-326.731 L 555.358,-326.67 L 555.1,-326.65 z
M 580.242,-326.67 L 579.99,-326.731 L 579.751,-326.83 L 579.53,-326.965 L 579.333,-327.133 L 579.165,-327.33
 L 579.03,-327.551 L 578.931,-327.79 L 578.87,-328.042 L 578.85,-328.3 L 578.87,-328.558 L 578.931,-328.81
 L 579.03,-329.049 L 579.165,-329.27 L 579.333,-329.467 L 579.53,-329.635 L 579.751,-329.77 L 579.99,-329.869
 L 580.242,-329.93 L 580.5,-329.95 L 580.758,-329.93 L 581.01,-329.869 L 581.249,-329.77 L 581.47,-329.635
 L 581.667,-329.467 L 581.835,-329.27 L 581.97,-329.049 L 582.069,-328.81 L 582.13,-328.558 L 582.15,-328.3
 L 582.13,-328.042 L 582.069,-327.79 L 581.97,-327.551 L 581.835,-327.33 L 581.667,-327.133 L 581.47,-326.965
 L 581.249,-326.83 L 581.01,-326.731 L 580.758,-326.67 L 580.5,-326.65 z
M 502.778,-320.233 L 502.366,-320.332 L 501.974,-320.494 L 501.613,-320.716 L 501.291,-320.991 L 501.016,-321.313
 L 500.794,-321.674 L 500.632,-322.066 L 500.533,-322.478 L 500.5,-322.9 L 500.533,-323.322 L 500.632,-323.734
 L 500.794,-324.126 L 501.016,-324.487 L 501.291,-324.809 L 501.613,-325.084 L 501.974,-325.306 L 502.366,-325.468
 L 502.778,-325.567 L 503.2,-325.6 L 503.622,-325.567 L 504.034,-325.468 L 504.426,-325.306 L 504.787,-325.084
 L 505.109,-324.809 L 505.384,-324.487 L 505.606,-324.126 L 505.768,-323.734 L 505.867,-323.322 L 505.9,-322.9
 L 505.867,-322.478 L 505.768,-322.066 L 505.606,-321.674 L 505.384,-321.313 L 505.109,-320.991 L 504.787,-320.716
 L 504.426,-320.494 L 504.034,-320.332 L 503.622,-320.233 L 503.2,-320.2 z
M 631.978,-320.233 L 631.566,-320.332 L 631.174,-320.494 L 630.813,-320.716 L 630.491,-320.991 L 630.216,-321.313
 L 629.994,-321.674 L 629.832,-322.066 L 629.733,-322.478 L 629.7,-322.9 L 629.733,-323.322 L 629.832,-323.734
 L 629.994,-324.126 L 630.216,-324.487 L 630.491,-324.809 L 630.813,-325.084 L 631.174,-325.306 L 631.566,-325.468
 L 631.978,-325.567 L 632.4,-325.6 L 632.822,-325.567 L 633.234,-325.468 L 633.626,-325.306 L 633.987,-325.084
 L 634.309,-324.809 L 634.584,-324.487 L 634.806,-324.126 L 634.968,-323.734 L 635.067,-323.322 L 635.1,-322.9
 L 635.067,-322.478 L 634.968,-322.066 L 634.806,-321.674 L 634.584,-321.313 L 634.309,-320.991 L 633.987,-320.716
 L 633.626,-320.494 L 633.234,-320.332 L 632.822,-320.233 L 632.4,-320.2 z
M 583.042,-315.27 L 582.79,-315.331 L 582.551,-315.43 L 582.33,-315.565 L 582.133,-315.733 L 581.965,-315.93
 L 581.83,-316.151 L 581.731,-316.39 L 581.67,-316.642 L 581.65,-316.9 L 581.67,-317.158 L 581.731,-317.41
 L 581.83,-317.649 L 581.965,-317.87 L 582.133,-318.067 L 582.33,-318.235 L 582.551,-318.37 L 582.79,-318.469
 L 583.042,-318.53 L 583.3,-318.55 L 583.558,-318.53 L 583.81,-318.469 L 584.049,-318.37 L 584.27,-318.235
 L 584.467,-318.067 L 584.635,-317.87 L 584.77,-317.649 L 584.869,-317.41 L 584.93,-317.158 L 584.95,-316.9
 L 584.93,-316.642 L 584.869,-316.39 L 584.77,-316.151 L 584.635,-315.93 L 584.467,-315.733 L 584.27,-315.565
 L 584.049,-315.43 L 583.81,-315.331 L 583.558,-315.27 L 583.3,-315.25 z
M 552.042,-315.27 L 551.79,-315.331 L 551.551,-315.43 L 551.33,-315.565 L 551.133,-315.733 L 550.965,-315.93
 L 550.83,-316.151 L 550.731,-316.39 L 550.67,-316.642 L 550.65,-316.9 L 550.67,-317.158 L 550.731,-317.41
 L 550.83,-317.649 L 550.965,-317.87 L 551.133,-318.067 L 551.33,-318.235 L 551.551,-318.37 L 551.79,-318.469
 L 552.042,-318.53 L 552.3,-318.55 L 552.558,-318.53 L 552.81,-318.469 L 553.049,-318.37 L 553.27,-318.235
 L 553.467,-318.067 L 553.635,-317.87 L 553.77,-317.649 L 553.869,-317.41 L 553.93,-317.158 L 553.95,-316.9
 L 553.93,-316.642 L 553.869,-316.39 L 553.77,-316.151 L 553.635,-315.93 L 553.467,-315.733 L 553.27,-315.565
 L 553.049,-315.43 L 552.81,-315.331 L 552.558,-315.27 L 552.3,-315.25 z
M 566.627,-293.992 L 565.482,-294.267 L 564.395,-294.717 L 563.392,-295.332 L 562.497,-296.097 L 561.732,-296.992
 L 561.117,-297.995 L 560.667,-299.082 L 560.392,-300.227 L 560.3,-301.4 L 560.392,-302.573 L 560.667,-303.718
 L 561.117,-304.805 L 561.732,-305.808 L 562.497,-306.703 L 563.392,-307.468 L 564.395,-308.083 L 565.482,-308.533
 L 566.627,-308.808 L 567.8,-308.9 L 568.973,-308.808 L 570.118,-308.533 L 571.205,-308.083 L 572.208,-307.468
 L 573.103,-306.703 L 573.868,-305.808 L 574.483,-304.805 L 574.933,-303.718 L 575.208,-302.573 L 575.3,-301.4
 L 575.208,-300.227 L 574.933,-299.082 L 574.483,-297.995 L 573.868,-296.992 L 573.103,-296.097 L 572.208,-295.332
 L 571.205,-294.717 L 570.118,-294.267 L 568.973,-293.992 L 567.8,-293.9 z
M 652.4,-268.4 L 652.4,-290.4 L 657.6,-290.4 L 657.6,-268.4 z
M 478,-268.4 L 478,-290.4 L 483.2,-290.4 L 483.2,-268.4 z
M 583.042,-284.27 L 582.79,-284.331 L 582.551,-284.43 L 582.33,-284.565 L 582.133,-284.733 L 581.965,-284.93
 L 581.83,-285.151 L 581.731,-285.39 L 581.67,-285.642 L 581.65,-285.9 L 581.67,-286.158 L 581.731,-286.41
 L 581.83,-286.649 L 581.965,-286.87 L 582.133,-287.067 L 582.33,-287.235 L 582.551,-287.37 L 582.79,-287.469
 L 583.042,-287.53 L 583.3,-287.55 L 583.558,-287.53 L 583.81,-287.469 L 584.049,-287.37 L 584.27,-287.235
 L 584.467,-287.067 L 584.635,-286.87 L 584.77,-286.649 L 584.869,-286.41 L 584.93,-286.158 L 584.95,-285.9
 L 584.93,-285.642 L 584.869,-285.39 L 584.77,-285.151 L 584.635,-284.93 L 584.467,-284.733 L 584.27,-284.565
 L 584.049,-284.43 L 583.81,-284.331 L 583.558,-284.27 L 583.3,-284.25 z
M 552.042,-284.27 L 551.79,-284.331 L 551.551,-284.43 L 551.33,-284.565 L 551.133,-284.733 L 550.965,-284.93
 L 550.83,-285.151 L 550.731,-285.39 L 550.67,-285.642 L 550.65,-285.9 L 550.67,-286.158 L 550.731,-286.41
 L 550.83,-286.649 L 550.965,-286.87 L 551.133,-287.067 L 551.33,-287.235 L 551.551,-287.37 L 551.79,-287.469
 L 552.042,-287.53 L 552.3,-287.55 L 552.558,-287.53 L 552.81,-287.469 L 553.049,-287.37 L 553.27,-287.235
 L 553.467,-287.067 L 553.635,-286.87 L 553.77,-286.649 L 553.869,-286.41 L 553.93,-286.158 L 553.95,-285.9
 L 553.93,-285.642 L 553.869,-285.39 L 553.77,-285.151 L 553.635,-284.93 L 553.467,-284.733 L 553.27,-284.565
 L 553.049,-284.43 L 552.81,-284.331 L 552.558,-284.27 L 552.3,-284.25 z
M 502.778,-277.233 L 502.366,-277.332 L 501.974,-277.494 L 501.613,-277.716 L 501.291,-277.991 L 501.016,-278.313
 L 500.794,-278.674 L 500.632,-279.066 L 500.533,-279.478 L 500.5,-279.9 L 500.533,-280.322 L 500.632,-280.734
 L 500.794,-281.126 L 501.016,-281.487 L 501.291,-281.809 L 501.613,-282.084 L 501.974,-282.306 L 502.366,-282.468
 L 502.778,-282.567 L 503.2,-282.6 L 503.622,-282.567 L 504.034,-282.468 L 504.426,-282.306 L 504.787,-282.084
 L 505.109,-281.809 L 505.384,-281.487 L 505.606,-281.126 L 505.768,-280.734 L 505.867,-280.322 L 505.9,-279.9
 L 505.867,-279.478 L 505.768,-279.066 L 505.606,-278.674 L 505.384,-278.313 L 505.109,-277.991 L 504.787,-277.716
 L 504.426,-277.494 L 504.034,-277.332 L 503.622,-277.233 L 503.2,-277.2 z
M 631.978,-277.233 L 631.566,-277.332 L 631.174,-277.494 L 630.813,-277.716 L 630.491,-277.991 L 630.216,-278.313
 L 629.994,-278.674 L 629.832,-279.066 L 629.733,-279.478 L 629.7,-279.9 L 629.733,-280.322 L 629.832,-280.734
 L 629.994,-281.126 L 630.216,-281.487 L 630.491,-281.809 L 630.813,-282.084 L 631.174,-282.306 L 631.566,-282.468
 L 631.978,-282.567 L 632.4,-282.6 L 632.822,-282.567 L 633.234,-282.468 L 633.626,-282.306 L 633.987,-282.084
 L 634.309,-281.809 L 634.584,-281.487 L 634.806,-281.126 L 634.968,-280.734 L 635.067,-280.322 L 635.1,-279.9
 L 635.067,-279.478 L 634.968,-279.066 L 634.806,-278.674 L 634.584,-278.313 L 634.309,-277.991 L 633.987,-277.716
 L 633.626,-277.494 L 633.234,-277.332 L 632.822,-277.233 L 632.4,-277.2 z
M 502.778,-262.233 L 502.366,-262.332 L 501.974,-262.494 L 501.613,-262.716 L 501.291,-262.991 L 501.016,-263.313
 L 500.794,-263.674 L 500.632,-264.066 L 500.533,-264.478 L 500.5,-264.9 L 500.533,-265.322 L 500.632,-265.734
 L 500.794,-266.126 L 501.016,-266.487 L 501.291,-266.809 L 501.613,-267.084 L 501.974,-267.306 L 502.366,-267.468
 L 502.778,-267.567 L 503.2,-267.6 L 503.622,-267.567 L 504.034,-267.468 L 504.426,-267.306 L 504.787,-267.084
 L 505.109,-266.809 L 505.384,-266.487 L 505.606,-266.126 L 505.768,-265.734 L 505.867,-265.322 L 505.9,-264.9
 L 505.867,-264.478 L 505.768,-264.066 L 505.606,-263.674 L 505.384,-263.313 L 505.109,-262.991 L 504.787,-262.716
 L 504.426,-262.494 L 504.034,-262.332 L 503.622,-262.233 L 503.2,-262.2 z
M 631.978,-262.233 L 631.566,-262.332 L 631.174,-262.494 L 630.813,-262.716 L 630.491,-262.991 L 630.216,-263.313
 L 629.994,-263.674 L 629.832,-264.066 L 629.733,-264.478 L 629.7,-264.9 L 629.733,-265.322 L 629.832,-265.734
 L 629.994,-266.126 L 630.216,-266.487 L 630.491,-266.809 L 630.813,-267.084 L 631.174,-267.306 L 631.566,-267.468
 L 631.978,-267.567 L 632.4,-267.6 L 632.822,-267.567 L 633.234,-267.468 L 633.626,-267.306 L 633.987,-267.084
 L 634.309,-266.809 L 634.584,-266.487 L 634.806,-266.126 L 634.968,-265.734 L 635.067,-265.322 L 635.1,-264.9
 L 635.067,-264.478 L 634.968,-264.066 L 634.806,-263.674 L 634.584,-263.313 L 634.309,-262.991 L 633.987,-262.716
 L 633.626,-262.494 L 633.234,-262.332 L 632.822,-262.233 L 632.4,-262.2 z
M 642.087,-262.925 L 641.782,-262.998 L 641.492,-263.118 L 641.224,-263.282 L 640.986,-263.486 L 640.782,-263.724
 L 640.618,-263.992 L 640.498,-264.282 L 640.425,-264.587 L 640.4,-264.9 L 640.425,-265.213 L 640.498,-265.518
 L 640.618,-265.808 L 640.782,-266.076 L 640.986,-266.314 L 641.224,-266.518 L 641.492,-266.682 L 641.782,-266.802
 L 642.087,-266.875 L 642.4,-266.9 L 642.713,-266.875 L 643.018,-266.802 L 643.308,-266.682 L 643.576,-266.518
 L 643.814,-266.314 L 644.018,-266.076 L 644.182,-265.808 L 644.302,-265.518 L 644.375,-265.213 L 644.4,-264.9
 L 644.375,-264.587 L 644.302,-264.282 L 644.182,-263.992 L 644.018,-263.724 L 643.814,-263.486 L 643.576,-263.282
 L 643.308,-263.118 L 643.018,-262.998 L 642.713,-262.925 L 642.4,-262.9 z
M 512.887,-262.925 L 512.582,-262.998 L 512.292,-263.118 L 512.024,-263.282 L 511.786,-263.486 L 511.582,-263.724
 L 511.418,-263.992 L 511.298,-264.282 L 511.225,-264.587 L 511.2,-264.9 L 511.225,-265.213 L 511.298,-265.518
 L 511.418,-265.808 L 511.582,-266.076 L 511.786,-266.314 L 512.024,-266.518 L 512.292,-266.682 L 512.582,-266.802
 L 512.887,-266.875 L 513.2,-266.9 L 513.513,-266.875 L 513.818,-266.802 L 514.108,-266.682 L 514.376,-266.518
 L 514.614,-266.314 L 514.818,-266.076 L 514.982,-265.808 L 515.102,-265.518 L 515.175,-265.213 L 515.2,-264.9
 L 515.175,-264.587 L 515.102,-264.282 L 514.982,-263.992 L 514.818,-263.724 L 514.614,-263.486 L 514.376,-263.282
 L 514.108,-263.118 L 513.818,-262.998 L 513.513,-262.925 L 513.2,-262.9 z
M 622.8,-211.6 L 622.8,-216.8 L 652.4,-216.8 L 652.4,-246.4 L 657.6,-246.4 L 657.6,-211.6
 z
M 478,-211.6 L 478,-246.4 L 483.2,-246.4 L 483.2,-216.8 L 512.8,-216.8 L 512.8,-211.6
 z
M 552.8,-224.3 L 552.8,-239.3 L 582.8,-239.3 L 582.8,-224.3 z
M 489.887,-221.825 L 489.582,-221.898 L 489.292,-222.018 L 489.024,-222.182 L 488.786,-222.386 L 488.582,-222.624
 L 488.418,-222.892 L 488.298,-223.182 L 488.225,-223.487 L 488.2,-223.8 L 488.225,-224.113 L 488.298,-224.418
 L 488.418,-224.708 L 488.582,-224.976 L 488.786,-225.214 L 489.024,-225.418 L 489.292,-225.582 L 489.582,-225.702
 L 489.887,-225.775 L 490.2,-225.8 L 490.513,-225.775 L 490.818,-225.702 L 491.108,-225.582 L 491.376,-225.418
 L 491.614,-225.214 L 491.818,-224.976 L 491.982,-224.708 L 492.102,-224.418 L 492.175,-224.113 L 492.2,-223.8
 L 492.175,-223.487 L 492.102,-223.182 L 491.982,-222.892 L 491.818,-222.624 L 491.614,-222.386 L 491.376,-222.182
 L 491.108,-222.018 L 490.818,-221.898 L 490.513,-221.825 L 490.2,-221.8 z
M 645.087,-221.825 L 644.782,-221.898 L 644.492,-222.018 L 644.224,-222.182 L 643.986,-222.386 L 643.782,-222.624
 L 643.618,-222.892 L 643.498,-223.182 L 643.425,-223.487 L 643.4,-223.8 L 643.425,-224.113 L 643.498,-224.418
 L 643.618,-224.708 L 643.782,-224.976 L 643.986,-225.214 L 644.224,-225.418 L 644.492,-225.582 L 644.782,-225.702
 L 645.087,-225.775 L 645.4,-225.8 L 645.713,-225.775 L 646.018,-225.702 L 646.308,-225.582 L 646.576,-225.418
 L 646.814,-225.214 L 647.018,-224.976 L 647.182,-224.708 L 647.302,-224.418 L 647.375,-224.113 L 647.4,-223.8
 L 647.375,-223.487 L 647.302,-223.182 L 647.182,-222.892 L 647.018,-222.624 L 646.814,-222.386 L 646.576,-222.182
 L 646.308,-222.018 L 646.018,-221.898 L 645.713,-221.825 L 645.4,-221.8 z
M 578.8,-211.6 L 578.8,-216.8 L 600.8,-216.8 L 600.8,-211.6 z
M 534.8,-211.6 L 534.8,-216.8 L 556.8,-216.8 L 556.8,-211.6 z
M 704.4,-267.4 L 726.4,-267.4 L 726.4,-262.2 L 748.4,-262.2 L 748.4,-267.4 L 770.4,-267.4
 L 770.4,-262.2 L 792.4,-262.2 L 792.4,-267.4 L 814.4,-267.4 L 814.4,-262.2 L 849.2,-262.2
 L 849.2,-293.9 L 844,-293.9 L 844,-315.9 L 849.2,-315.9 L 849.2,-347.6 L 814.4,-347.6
 L 814.4,-342.4 L 792.4,-342.4 L 792.4,-347.6 L 770.4,-347.6 L 770.4,-342.4 L 748.4,-342.4
 L 748.4,-347.6 L 726.4,-347.6 L 726.4,-342.4 L 704.4,-342.4 L 704.4,-347.6 L 669.6,-347.6
 L 669.6,-315.9 L 674.8,-315.9 L 674.8,-293.9 L 669.6,-293.9 L 669.6,-262.2 L 704.4,-262.2
 z
M 790.25,-321.15 L 790.25,-327.068 L 790.48,-327.123 L 794,-327.4 L 797.52,-327.123 L 797.75,-327.068
 L 797.75,-321.15 z
M 773.742,-323.27 L 773.49,-323.331 L 773.251,-323.43 L 773.03,-323.565 L 772.833,-323.733 L 772.665,-323.93
 L 772.53,-324.151 L 772.431,-324.39 L 772.37,-324.642 L 772.35,-324.9 L 772.37,-325.158 L 772.431,-325.41
 L 772.53,-325.649 L 772.665,-325.87 L 772.833,-326.067 L 773.03,-326.235 L 773.251,-326.37 L 773.49,-326.469
 L 773.742,-326.53 L 774,-326.55 L 774.258,-326.53 L 774.51,-326.469 L 774.749,-326.37 L 774.97,-326.235
 L 775.167,-326.067 L 775.335,-325.87 L 775.47,-325.649 L 775.569,-325.41 L 775.63,-325.158 L 775.65,-324.9
 L 775.63,-324.642 L 775.569,-324.39 L 775.47,-324.151 L 775.335,-323.93 L 775.167,-323.733 L 774.97,-323.565
 L 774.749,-323.43 L 774.51,-323.331 L 774.258,-323.27 L 774,-323.25 z
M 813.742,-323.27 L 813.49,-323.331 L 813.251,-323.43 L 813.03,-323.565 L 812.833,-323.733 L 812.665,-323.93
 L 812.53,-324.151 L 812.431,-324.39 L 812.37,-324.642 L 812.35,-324.9 L 812.37,-325.158 L 812.431,-325.41
 L 812.53,-325.649 L 812.665,-325.87 L 812.833,-326.067 L 813.03,-326.235 L 813.251,-326.37 L 813.49,-326.469
 L 813.742,-326.53 L 814,-326.55 L 814.258,-326.53 L 814.51,-326.469 L 814.749,-326.37 L 814.97,-326.235
 L 815.167,-326.067 L 815.335,-325.87 L 815.47,-325.649 L 815.569,-325.41 L 815.63,-325.158 L 815.65,-324.9
 L 815.63,-324.642 L 815.569,-324.39 L 815.47,-324.151 L 815.335,-323.93 L 815.167,-323.733 L 814.97,-323.565
 L 814.749,-323.43 L 814.51,-323.331 L 814.258,-323.27 L 814,-323.25 z
M 800.25,-321.15 L 800.25,-326.467 L 800.953,-326.299 L 804.215,-324.948 L 807.225,-323.103 L 807.75,-322.655
 L 807.75,-321.15 z
M 780.25,-321.15 L 780.25,-322.655 L 780.775,-323.103 L 783.785,-324.948 L 787.047,-326.299 L 787.75,-326.467
 L 787.75,-321.15 z
M 702.378,-316.977 L 702.123,-317.024 L 701.879,-317.11 L 701.651,-317.234 L 701.446,-317.391 L 701.268,-317.579
 L 701.121,-317.793 L 701.01,-318.026 L 700.936,-318.275 L 700.902,-318.531 L 700.909,-318.79 L 700.956,-319.045
 L 701.043,-319.289 L 701.166,-319.516 L 701.324,-319.722 L 701.512,-319.9 L 701.725,-320.047 L 701.959,-320.158
 L 702.207,-320.232 L 702.464,-320.265 L 702.722,-320.259 L 702.977,-320.211 L 703.221,-320.125 L 703.449,-320.001
 L 703.654,-319.844 L 703.832,-319.656 L 703.979,-319.443 L 704.09,-319.209 L 704.164,-318.961 L 704.198,-318.704
 L 704.191,-318.445 L 704.144,-318.191 L 704.057,-317.946 L 703.934,-317.719 L 703.776,-317.514 L 703.588,-317.335
 L 703.375,-317.189 L 703.141,-317.077 L 702.893,-317.004 L 702.636,-316.97 z
M 780.25,-311.15 L 780.25,-318.65 L 787.75,-318.65 L 787.75,-311.15 z
M 790.25,-311.15 L 790.25,-318.65 L 797.75,-318.65 L 797.75,-311.15 z
M 800.25,-311.15 L 800.25,-318.65 L 807.75,-318.65 L 807.75,-311.15 z
M 810.25,-311.15 L 810.25,-318.65 L 811.755,-318.65 L 812.203,-318.125 L 814.048,-315.115 L 815.399,-311.853
 L 815.567,-311.15 z
M 772.432,-311.15 L 772.601,-311.853 L 773.952,-315.115 L 775.797,-318.125 L 776.245,-318.65 L 777.75,-318.65
 L 777.75,-311.15 z
M 713.284,-282.979 L 711.047,-283.394 L 708.902,-284.154 L 706.903,-285.239 L 705.098,-286.624 L 703.531,-288.275
 L 702.243,-290.15 L 701.263,-292.204 L 700.617,-294.385 L 700.32,-296.641 L 700.379,-298.916 L 700.794,-301.153
 L 701.554,-303.298 L 702.639,-305.297 L 704.024,-307.102 L 705.675,-308.669 L 707.55,-309.957 L 709.604,-310.937
 L 711.785,-311.583 L 714.041,-311.88 L 716.316,-311.821 L 718.553,-311.406 L 720.698,-310.646 L 722.697,-309.561
 L 724.502,-308.176 L 726.069,-306.525 L 727.357,-304.65 L 728.337,-302.596 L 728.983,-300.415 L 729.28,-298.159
 L 729.221,-295.884 L 728.806,-293.647 L 728.046,-291.502 L 726.961,-289.503 L 725.576,-287.698 L 723.925,-286.131
 L 722.05,-284.843 L 719.996,-283.863 L 717.815,-283.217 L 715.559,-282.92 z
M 800.25,-301.15 L 800.25,-308.65 L 807.75,-308.65 L 807.75,-301.15 z
M 780.25,-301.15 L 780.25,-308.65 L 787.75,-308.65 L 787.75,-301.15 z
M 771.832,-301.15 L 771.777,-301.38 L 771.5,-304.9 L 771.777,-308.42 L 771.832,-308.65 L 777.75,-308.65
 L 777.75,-301.15 z
M 810.25,-301.15 L 810.25,-308.65 L 816.168,-308.65 L 816.223,-308.42 L 816.5,-304.9 L 816.223,-301.38
 L 816.168,-301.15 z
M 790.25,-301.15 L 790.25,-308.65 L 797.75,-308.65 L 797.75,-301.15 z
M 776.245,-291.15 L 775.797,-291.675 L 773.952,-294.685 L 772.601,-297.947 L 772.432,-298.65 L 777.75,-298.65
 L 777.75,-291.15 z
M 810.25,-291.15 L 810.25,-298.65 L 815.567,-298.65 L 815.399,-297.947 L 814.048,-294.685 L 812.203,-291.675
 L 811.755,-291.15 z
M 790.25,-291.15 L 790.25,-298.65 L 797.75,-298.65 L 797.75,-291.15 z
M 800.25,-291.15 L 800.25,-298.65 L 807.75,-298.65 L 807.75,-291.15 z
M 780.25,-291.15 L 780.25,-298.65 L 787.75,-298.65 L 787.75,-291.15 z
M 800.25,-288.65 L 807.75,-288.65 L 807.75,-287.145 L 807.225,-286.697 L 804.215,-284.852 L 800.953,-283.501
 L 800.25,-283.332 z
M 787.047,-283.501 L 783.785,-284.852 L 780.775,-286.697 L 780.25,-287.145 L 780.25,-288.65 L 787.75,-288.65
 L 787.75,-283.332 z
M 790.48,-282.677 L 790.25,-282.732 L 790.25,-288.65 L 797.75,-288.65 L 797.75,-282.732 L 797.52,-282.677
 L 794,-282.4 z
M 813.742,-283.27 L 813.49,-283.331 L 813.251,-283.43 L 813.03,-283.565 L 812.833,-283.733 L 812.665,-283.93
 L 812.53,-284.151 L 812.431,-284.39 L 812.37,-284.642 L 812.35,-284.9 L 812.37,-285.158 L 812.431,-285.41
 L 812.53,-285.649 L 812.665,-285.87 L 812.833,-286.067 L 813.03,-286.235 L 813.251,-286.37 L 813.49,-286.469
 L 813.742,-286.53 L 814,-286.55 L 814.258,-286.53 L 814.51,-286.469 L 814.749,-286.37 L 814.97,-286.235
 L 815.167,-286.067 L 815.335,-285.87 L 815.47,-285.649 L 815.569,-285.41 L 815.63,-285.158 L 815.65,-284.9
 L 815.63,-284.642 L 815.569,-284.39 L 815.47,-284.151 L 815.335,-283.93 L 815.167,-283.733 L 814.97,-283.565
 L 814.749,-283.43 L 814.51,-283.331 L 814.258,-283.27 L 814,-283.25 z
M 773.742,-283.27 L 773.49,-283.331 L 773.251,-283.43 L 773.03,-283.565 L 772.833,-283.733 L 772.665,-283.93
 L 772.53,-284.151 L 772.431,-284.39 L 772.37,-284.642 L 772.35,-284.9 L 772.37,-285.158 L 772.431,-285.41
 L 772.53,-285.649 L 772.665,-285.87 L 772.833,-286.067 L 773.03,-286.235 L 773.251,-286.37 L 773.49,-286.469
 L 773.742,-286.53 L 774,-286.55 L 774.258,-286.53 L 774.51,-286.469 L 774.749,-286.37 L 774.97,-286.235
 L 775.167,-286.067 L 775.335,-285.87 L 775.47,-285.649 L 775.569,-285.41 L 775.63,-285.158 L 775.65,-284.9
 L 775.63,-284.642 L 775.569,-284.39 L 775.47,-284.151 L 775.335,-283.93 L 775.167,-283.733 L 774.97,-283.565
 L 774.749,-283.43 L 774.51,-283.331 L 774.258,-283.27 L 774,-283.25 z
M 726.878,-274.541 L 726.623,-274.589 L 726.379,-274.675 L 726.151,-274.799 L 725.946,-274.956 L 725.768,-275.144
 L 725.621,-275.357 L 725.51,-275.591 L 725.436,-275.839 L 725.402,-276.096 L 725.409,-276.355 L 725.456,-276.609
 L 725.543,-276.854 L 725.666,-277.081 L 725.824,-277.286 L 726.012,-277.465 L 726.225,-277.611 L 726.459,-277.723
 L 726.707,-277.796 L 726.964,-277.83 L 727.222,-277.823 L 727.477,-277.776 L 727.721,-277.69 L 727.949,-277.566
 L 728.154,-277.409 L 728.332,-277.221 L 728.479,-277.007 L 728.59,-276.774 L 728.664,-276.525 L 728.698,-276.269
 L 728.691,-276.01 L 728.644,-275.755 L 728.557,-275.511 L 728.434,-275.284 L 728.276,-275.078 L 728.088,-274.9
 L 727.875,-274.753 L 727.641,-274.642 L 727.393,-274.568 L 727.136,-274.535 z
M 704.4,-180 L 726.4,-180 L 726.4,-174.8 L 748.4,-174.8 L 748.4,-180 L 770.4,-180
 L 770.4,-174.8 L 792.4,-174.8 L 792.4,-180 L 814.4,-180 L 814.4,-174.8 L 849.2,-174.8
 L 849.2,-206.5 L 844,-206.5 L 844,-228.5 L 849.2,-228.5 L 849.2,-260.2 L 814.4,-260.2
 L 814.4,-255 L 792.4,-255 L 792.4,-260.2 L 770.4,-260.2 L 770.4,-255 L 748.4,-255
 L 748.4,-260.2 L 726.4,-260.2 L 726.4,-255 L 704.4,-255 L 704.4,-260.2 L 669.6,-260.2
 L 669.6,-228.5 L 674.8,-228.5 L 674.8,-206.5 L 669.6,-206.5 L 669.6,-174.8 L 704.4,-174.8
 z
M 726.707,-229.604 L 726.459,-229.677 L 726.225,-229.789 L 726.012,-229.935 L 725.824,-230.114 L 725.666,-230.319
 L 725.543,-230.546 L 725.456,-230.791 L 725.409,-231.045 L 725.402,-231.304 L 725.436,-231.561 L 725.51,-231.809
 L 725.621,-232.043 L 725.768,-232.256 L 725.946,-232.444 L 726.151,-232.601 L 726.379,-232.725 L 726.623,-232.811
 L 726.878,-232.859 L 727.136,-232.865 L 727.393,-232.832 L 727.641,-232.758 L 727.875,-232.647 L 728.088,-232.5
 L 728.276,-232.322 L 728.434,-232.116 L 728.557,-231.889 L 728.644,-231.645 L 728.691,-231.39 L 728.698,-231.131
 L 728.664,-230.875 L 728.59,-230.626 L 728.479,-230.393 L 728.332,-230.179 L 728.154,-229.991 L 727.949,-229.834
 L 727.721,-229.71 L 727.477,-229.624 L 727.222,-229.577 L 726.964,-229.57 z
M 711.785,-195.817 L 709.604,-196.463 L 707.55,-197.443 L 705.675,-198.731 L 704.024,-200.298 L 702.639,-202.103
 L 701.554,-204.102 L 700.794,-206.247 L 700.379,-208.484 L 700.32,-210.759 L 700.617,-213.015 L 701.263,-215.196
 L 702.243,-217.25 L 703.531,-219.125 L 705.098,-220.776 L 706.903,-222.161 L 708.902,-223.246 L 711.047,-224.006
 L 713.284,-224.421 L 715.559,-224.48 L 717.815,-224.183 L 719.996,-223.537 L 722.05,-222.557 L 723.925,-221.269
 L 725.576,-219.702 L 726.961,-217.897 L 728.046,-215.898 L 728.806,-213.753 L 729.221,-211.516 L 729.28,-209.241
 L 728.983,-206.985 L 728.337,-204.804 L 727.357,-202.75 L 726.069,-200.875 L 724.502,-199.224 L 722.697,-197.839
 L 720.698,-196.754 L 718.553,-195.994 L 716.316,-195.579 L 714.041,-195.52 z
M 702.207,-187.168 L 701.959,-187.242 L 701.725,-187.353 L 701.512,-187.5 L 701.324,-187.678 L 701.166,-187.884
 L 701.043,-188.111 L 700.956,-188.355 L 700.909,-188.61 L 700.902,-188.869 L 700.936,-189.125 L 701.01,-189.374
 L 701.121,-189.607 L 701.268,-189.821 L 701.446,-190.009 L 701.651,-190.166 L 701.879,-190.29 L 702.123,-190.376
 L 702.378,-190.423 L 702.636,-190.43 L 702.893,-190.396 L 703.141,-190.323 L 703.375,-190.211 L 703.588,-190.065
 L 703.776,-189.886 L 703.934,-189.681 L 704.057,-189.453 L 704.144,-189.209 L 704.191,-188.955 L 704.198,-188.696
 L 704.164,-188.439 L 704.09,-188.191 L 703.979,-187.957 L 703.832,-187.744 L 703.654,-187.556 L 703.449,-187.399
 L 703.221,-187.275 L 702.977,-187.189 L 702.722,-187.141 L 702.464,-187.135 z
M 234,-234 L 0,-234 L 0,-0 L 234,-0 z
M 10,-209.5 L 10,-224 L 24.5,-224 L 24.5,-218.8 L 15.2,-218.8 L 15.2,-209.5
 z
M 179.5,-218.8 L 179.5,-224 L 184.5,-224 L 184.5,-218.8 z
M 119.5,-218.8 L 119.5,-224 L 124.5,-224 L 124.5,-218.8 z
M 109.5,-218.8 L 109.5,-224 L 114.5,-224 L 114.5,-218.8 z
M 99.5,-218.8 L 99.5,-224 L 104.5,-224 L 104.5,-218.8 z
M 89.5,-218.8 L 89.5,-224 L 94.5,-224 L 94.5,-218.8 z
M 79.5,-218.8 L 79.5,-224 L 84.5,-224 L 84.5,-218.8 z
M 69.5,-218.8 L 69.5,-224 L 74.5,-224 L 74.5,-218.8 z
M 59.5,-218.8 L 59.5,-224 L 64.5,-224 L 64.5,-218.8 z
M 49.5,-218.8 L 49.5,-224 L 54.5,-224 L 54.5,-218.8 z
M 39.5,-218.8 L 39.5,-224 L 44.5,-224 L 44.5,-218.8 z
M 29.5,-218.8 L 29.5,-224 L 34.5,-224 L 34.5,-218.8 z
M 189.5,-218.8 L 189.5,-224 L 194.5,-224 L 194.5,-218.8 z
M 218.8,-209.5 L 218.8,-218.8 L 209.5,-218.8 L 209.5,-224 L 224,-224 L 224,-209.5
 z
M 129.5,-218.8 L 129.5,-224 L 134.5,-224 L 134.5,-218.8 z
M 139.5,-218.8 L 139.5,-224 L 144.5,-224 L 144.5,-218.8 z
M 149.5,-218.8 L 149.5,-224 L 154.5,-224 L 154.5,-218.8 z
M 159.5,-218.8 L 159.5,-224 L 164.5,-224 L 164.5,-218.8 z
M 169.5,-218.8 L 169.5,-224 L 174.5,-224 L 174.5,-218.8 z
M 199.5,-218.8 L 199.5,-224 L 204.5,-224 L 204.5,-218.8 z
M 218.8,-199.5 L 218.8,-204.5 L 224,-204.5 L 224,-199.5 z
M 10,-199.5 L 10,-204.5 L 15.2,-204.5 L 15.2,-199.5 z
M 87,-19.7 L 87,-30 L 30,-30 L 30,-204 L 204,-204 L 204,-30
 L 147,-30 L 147,-19.7 z
M 218.8,-189.5 L 218.8,-194.5 L 224,-194.5 L 224,-189.5 z
M 10,-189.5 L 10,-194.5 L 15.2,-194.5 L 15.2,-189.5 z
M 218.8,-179.5 L 218.8,-184.5 L 224,-184.5 L 224,-179.5 z
M 10,-179.5 L 10,-184.5 L 15.2,-184.5 L 15.2,-179.5 z
M 10,-169.5 L 10,-174.5 L 15.2,-174.5 L 15.2,-169.5 z
M 218.8,-169.5 L 218.8,-174.5 L 224,-174.5 L 224,-169.5 z
M 10,-159.5 L 10,-164.5 L 15.2,-164.5 L 15.2,-159.5 z
M 218.8,-159.5 L 218.8,-164.5 L 224,-164.5 L 224,-159.5 z
M 218.8,-149.5 L 218.8,-154.5 L 224,-154.5 L 224,-149.5 z
M 10,-149.5 L 10,-154.5 L 15.2,-154.5 L 15.2,-149.5 z
M 10,-139.5 L 10,-144.5 L 15.2,-144.5 L 15.2,-139.5 z
M 218.8,-139.5 L 218.8,-144.5 L 224,-144.5 L 224,-139.5 z
M 10,-129.5 L 10,-134.5 L 15.2,-134.5 L 15.2,-129.5 z
M 218.8,-129.5 L 218.8,-134.5 L 224,-134.5 L 224,-129.5 z
M 218.8,-119.5 L 218.8,-124.5 L 224,-124.5 L 224,-119.5 z
M 10,-119.5 L 10,-124.5 L 15.2,-124.5 L 15.2,-119.5 z
M 218.8,-109.5 L 218.8,-114.5 L 224,-114.5 L 224,-109.5 z
M 10,-109.5 L 10,-114.5 L 15.2,-114.5 L 15.2,-109.5 z
M 218.8,-99.5 L 218.8,-104.5 L 224,-104.5 L 224,-99.5 z
M 10,-99.5 L 10,-104.5 L 15.2,-104.5 L 15.2,-99.5 z
M 218.8,-89.5 L 218.8,-94.5 L 224,-94.5 L 224,-89.5 z
M 10,-89.5 L 10,-94.5 L 15.2,-94.5 L 15.2,-89.5 z
M 10,-79.5 L 10,-84.5 L 15.2,-84.5 L 15.2,-79.5 z
M 218.8,-79.5 L 218.8,-84.5 L 224,-84.5 L 224,-79.5 z
M 10,-69.5 L 10,-74.5 L 15.2,-74.5 L 15.2,-69.5 z
M 218.8,-69.5 L 218.8,-74.5 L 224,-74.5 L 224,-69.5 z
M 10,-59.5 L 10,-64.5 L 15.2,-64.5 L 15.2,-59.5 z
M 218.8,-59.5 L 218.8,-64.5 L 224,-64.5 L 224,-59.5 z
M 10,-49.5 L 10,-54.5 L 15.2,-54.5 L 15.2,-49.5 z
M 218.8,-49.5 L 218.8,-54.5 L 224,-54.5 L 224,-49.5 z
M 10,-39.5 L 10,-44.5 L 15.2,-44.5 L 15.2,-39.5 z
M 218.8,-39.5 L 218.8,-44.5 L 224,-44.5 L 224,-39.5 z
M 10,-29.5 L 10,-34.5 L 15.2,-34.5 L 15.2,-29.5 z
M 218.8,-29.5 L 218.8,-34.5 L 224,-34.5 L 224,-29.5 z
M 10,-10 L 10,-24.5 L 15.2,-24.5 L 15.2,-15.2 L 24.5,-15.2 L 24.5,-10
 z
M 209.5,-10 L 209.5,-15.2 L 218.8,-15.2 L 218.8,-24.5 L 224,-24.5 L 224,-10
 z
M 69.5,-10 L 69.5,-15.2 L 74.5,-15.2 L 74.5,-10 z
M 79.5,-10 L 79.5,-15.2 L 84.5,-15.2 L 84.5,-10 z
M 89.5,-10 L 89.5,-15.2 L 94.5,-15.2 L 94.5,-10 z
M 99.5,-10 L 99.5,-15.2 L 104.5,-15.2 L 104.5,-10 z
M 109.5,-10 L 109.5,-15.2 L 114.5,-15.2 L 114.5,-10 z
M 119.5,-10 L 119.5,-15.2 L 124.5,-15.2 L 124.5,-10 z
M 199.5,-10 L 199.5,-15.2 L 204.5,-15.2 L 204.5,-10 z
M 29.5,-10 L 29.5,-15.2 L 34.5,-15.2 L 34.5,-10 z
M 39.5,-10 L 39.5,-15.2 L 44.5,-15.2 L 44.5,-10 z
M 59.5,-10 L 59.5,-15.2 L 64.5,-15.2 L 64.5,-10 z
M 49.5,-10 L 49.5,-15.2 L 54.5,-15.2 L 54.5,-10 z
M 149.5,-10 L 149.5,-15.2 L 154.5,-15.2 L 154.5,-10 z
M 139.5,-10 L 139.5,-15.2 L 144.5,-15.2 L 144.5,-10 z
M 159.5,-10 L 159.5,-15.2 L 164.5,-15.2 L 164.5,-10 z
M 129.5,-10 L 129.5,-15.2 L 134.5,-15.2 L 134.5,-10 z
M 179.5,-10 L 179.5,-15.2 L 184.5,-15.2 L 184.5,-10 z
M 189.5,-10 L 189.5,-15.2 L 194.5,-15.2 L 194.5,-10 z
M 169.5,-10 L 169.5,-15.2 L 174.5,-15.2 L 174.5,-10 z
M 667.6,-199.6 L 468,-199.6 L 468,-0 L 667.6,-0 z
M 578.8,-184.4 L 578.8,-189.6 L 600.8,-189.6 L 600.8,-184.4 z
M 652.4,-154.8 L 652.4,-184.4 L 622.8,-184.4 L 622.8,-189.6 L 657.6,-189.6 L 657.6,-154.8
 z
M 478,-154.8 L 478,-189.6 L 512.8,-189.6 L 512.8,-184.4 L 483.2,-184.4 L 483.2,-154.8
 z
M 534.8,-184.4 L 534.8,-189.6 L 556.8,-189.6 L 556.8,-184.4 z
M 645.087,-175.425 L 644.782,-175.498 L 644.492,-175.618 L 644.224,-175.782 L 643.986,-175.986 L 643.782,-176.224
 L 643.618,-176.492 L 643.498,-176.782 L 643.425,-177.087 L 643.4,-177.4 L 643.425,-177.713 L 643.498,-178.018
 L 643.618,-178.308 L 643.782,-178.576 L 643.986,-178.814 L 644.224,-179.018 L 644.492,-179.182 L 644.782,-179.302
 L 645.087,-179.375 L 645.4,-179.4 L 645.713,-179.375 L 646.018,-179.302 L 646.308,-179.182 L 646.576,-179.018
 L 646.814,-178.814 L 647.018,-178.576 L 647.182,-178.308 L 647.302,-178.018 L 647.375,-177.713 L 647.4,-177.4
 L 647.375,-177.087 L 647.302,-176.782 L 647.182,-176.492 L 647.018,-176.224 L 646.814,-175.986 L 646.576,-175.782
 L 646.308,-175.618 L 646.018,-175.498 L 645.713,-175.425 L 645.4,-175.4 z
M 489.887,-175.425 L 489.582,-175.498 L 489.292,-175.618 L 489.024,-175.782 L 488.786,-175.986 L 488.582,-176.224
 L 488.418,-176.492 L 488.298,-176.782 L 488.225,-177.087 L 488.2,-177.4 L 488.225,-177.713 L 488.298,-178.018
 L 488.418,-178.308 L 488.582,-178.576 L 488.786,-178.814 L 489.024,-179.018 L 489.292,-179.182 L 489.582,-179.302
 L 489.887,-179.375 L 490.2,-179.4 L 490.513,-179.375 L 490.818,-179.302 L 491.108,-179.182 L 491.376,-179.018
 L 491.614,-178.814 L 491.818,-178.576 L 491.982,-178.308 L 492.102,-178.018 L 492.175,-177.713 L 492.2,-177.4
 L 492.175,-177.087 L 492.102,-176.782 L 491.982,-176.492 L 491.818,-176.224 L 491.614,-175.986 L 491.376,-175.782
 L 491.108,-175.618 L 490.818,-175.498 L 490.513,-175.425 L 490.2,-175.4 z
M 524.042,-174.21 L 523.79,-174.271 L 523.551,-174.37 L 523.33,-174.505 L 523.133,-174.673 L 522.965,-174.87
 L 522.83,-175.091 L 522.731,-175.33 L 522.67,-175.582 L 522.65,-175.84 L 522.67,-176.098 L 522.731,-176.35
 L 522.83,-176.589 L 522.965,-176.81 L 523.133,-177.007 L 523.33,-177.175 L 523.551,-177.31 L 523.79,-177.409
 L 524.042,-177.47 L 524.3,-177.49 L 524.558,-177.47 L 524.81,-177.409 L 525.049,-177.31 L 525.27,-177.175
 L 525.467,-177.007 L 525.635,-176.81 L 525.77,-176.589 L 525.869,-176.35 L 525.93,-176.098 L 525.95,-175.84
 L 525.93,-175.582 L 525.869,-175.33 L 525.77,-175.091 L 525.635,-174.87 L 525.467,-174.673 L 525.27,-174.505
 L 525.049,-174.37 L 524.81,-174.271 L 524.558,-174.21 L 524.3,-174.19 z
M 615.482,-174.21 L 615.23,-174.271 L 614.991,-174.37 L 614.77,-174.505 L 614.573,-174.673 L 614.405,-174.87
 L 614.27,-175.091 L 614.171,-175.33 L 614.11,-175.582 L 614.09,-175.84 L 614.11,-176.098 L 614.171,-176.35
 L 614.27,-176.589 L 614.405,-176.81 L 614.573,-177.007 L 614.77,-177.175 L 614.991,-177.31 L 615.23,-177.409
 L 615.482,-177.47 L 615.74,-177.49 L 615.998,-177.47 L 616.25,-177.409 L 616.489,-177.31 L 616.71,-177.175
 L 616.907,-177.007 L 617.075,-176.81 L 617.21,-176.589 L 617.309,-176.35 L 617.37,-176.098 L 617.39,-175.84
 L 617.37,-175.582 L 617.309,-175.33 L 617.21,-175.091 L 617.075,-174.87 L 616.907,-174.673 L 616.71,-174.505
 L 616.489,-174.37 L 616.25,-174.271 L 615.998,-174.21 L 615.74,-174.19 z
M 652.4,-110.8 L 652.4,-132.8 L 657.6,-132.8 L 657.6,-110.8 z
M 478,-110.8 L 478,-132.8 L 483.2,-132.8 L 483.2,-110.8 z
M 524.042,-95.7703 L 523.79,-95.8307 L 523.551,-95.9298 L 523.33,-96.0651 L 523.133,-96.2333 L 522.965,-96.4301
 L 522.83,-96.6509 L 522.731,-96.8901 L 522.67,-97.1419 L 522.65,-97.4 L 522.67,-97.6581 L 522.731,-97.9099
 L 522.83,-98.1491 L 522.965,-98.3698 L 523.133,-98.5667 L 523.33,-98.7349 L 523.551,-98.8701 L 523.79,-98.9692
 L 524.042,-99.0297 L 524.3,-99.05 L 524.558,-99.0297 L 524.81,-98.9692 L 525.049,-98.8701 L 525.27,-98.7349
 L 525.467,-98.5667 L 525.635,-98.3698 L 525.77,-98.1491 L 525.869,-97.9099 L 525.93,-97.6581 L 525.95,-97.4
 L 525.93,-97.1419 L 525.869,-96.8901 L 525.77,-96.6509 L 525.635,-96.4301 L 525.467,-96.2333 L 525.27,-96.0651
 L 525.049,-95.9298 L 524.81,-95.8307 L 524.558,-95.7703 L 524.3,-95.75 z
M 615.482,-95.7703 L 615.23,-95.8307 L 614.991,-95.9298 L 614.77,-96.0651 L 614.573,-96.2333 L 614.405,-96.4301
 L 614.27,-96.6509 L 614.171,-96.8901 L 614.11,-97.1419 L 614.09,-97.4 L 614.11,-97.6581 L 614.171,-97.9099
 L 614.27,-98.1491 L 614.405,-98.3698 L 614.573,-98.5667 L 614.77,-98.7349 L 614.991,-98.8701 L 615.23,-98.9692
 L 615.482,-99.0297 L 615.74,-99.05 L 615.998,-99.0297 L 616.25,-98.9692 L 616.489,-98.8701 L 616.71,-98.7349
 L 616.907,-98.5667 L 617.075,-98.3698 L 617.21,-98.1491 L 617.309,-97.9099 L 617.37,-97.6581 L 617.39,-97.4
 L 617.37,-97.1419 L 617.309,-96.8901 L 617.21,-96.6509 L 617.075,-96.4301 L 616.907,-96.2333 L 616.71,-96.0651
 L 616.489,-95.9298 L 616.25,-95.8307 L 615.998,-95.7703 L 615.74,-95.75 z
M 652.4,-66.8 L 652.4,-88.8 L 657.6,-88.8 L 657.6,-66.8 z
M 478,-66.8 L 478,-88.8 L 483.2,-88.8 L 483.2,-66.8 z
M 622.8,-10 L 622.8,-15.2 L 652.4,-15.2 L 652.4,-44.8 L 657.6,-44.8 L 657.6,-10
 z
M 478,-10 L 478,-44.8 L 483.2,-44.8 L 483.2,-15.2 L 512.8,-15.2 L 512.8,-10
 z
M 645.087,-20.2246 L 644.782,-20.2979 L 644.492,-20.418 L 644.224,-20.582 L 643.986,-20.7858 L 643.782,-21.0244
 L 643.618,-21.292 L 643.498,-21.582 L 643.425,-21.8871 L 643.4,-22.2 L 643.425,-22.5129 L 643.498,-22.818
 L 643.618,-23.108 L 643.782,-23.3756 L 643.986,-23.6142 L 644.224,-23.818 L 644.492,-23.982 L 644.782,-24.1021
 L 645.087,-24.1754 L 645.4,-24.2 L 645.713,-24.1754 L 646.018,-24.1021 L 646.308,-23.982 L 646.576,-23.818
 L 646.814,-23.6142 L 647.018,-23.3756 L 647.182,-23.108 L 647.302,-22.818 L 647.375,-22.5129 L 647.4,-22.2
 L 647.375,-21.8871 L 647.302,-21.582 L 647.182,-21.292 L 647.018,-21.0244 L 646.814,-20.7858 L 646.576,-20.582
 L 646.308,-20.418 L 646.018,-20.2979 L 645.713,-20.2246 L 645.4,-20.2 z
M 489.887,-20.2246 L 489.582,-20.2979 L 489.292,-20.418 L 489.024,-20.582 L 488.786,-20.7858 L 488.582,-21.0244
 L 488.418,-21.292 L 488.298,-21.582 L 488.225,-21.8871 L 488.2,-22.2 L 488.225,-22.5129 L 488.298,-22.818
 L 488.418,-23.108 L 488.582,-23.3756 L 488.786,-23.6142 L 489.024,-23.818 L 489.292,-23.982 L 489.582,-24.1021
 L 489.887,-24.1754 L 490.2,-24.2 L 490.513,-24.1754 L 490.818,-24.1021 L 491.108,-23.982 L 491.376,-23.818
 L 491.614,-23.6142 L 491.818,-23.3756 L 491.982,-23.108 L 492.102,-22.818 L 492.175,-22.5129 L 492.2,-22.2
 L 492.175,-21.8871 L 492.102,-21.582 L 491.982,-21.292 L 491.818,-21.0244 L 491.614,-20.7858 L 491.376,-20.582
 L 491.108,-20.418 L 490.818,-20.2979 L 490.513,-20.2246 L 490.2,-20.2 z
M 534.8,-10 L 534.8,-15.2 L 556.8,-15.2 L 556.8,-10 z
M 578.8,-10 L 578.8,-15.2 L 600.8,-15.2 L 600.8,-10 z
M 704.4,-92.6 L 726.4,-92.6 L 726.4,-87.4 L 748.4,-87.4 L 748.4,-92.6 L 770.4,-92.6
 L 770.4,-87.4 L 792.4,-87.4 L 792.4,-92.6 L 814.4,-92.6 L 814.4,-87.4 L 844,-87.4
 L 844,-119.1 L 849.2,-119.1 L 849.2,-141.1 L 844,-141.1 L 844,-172.8 L 814.4,-172.8
 L 814.4,-167.6 L 792.4,-167.6 L 792.4,-172.8 L 770.4,-172.8 L 770.4,-167.6 L 748.4,-167.6
 L 748.4,-172.8 L 726.4,-172.8 L 726.4,-167.6 L 704.4,-167.6 L 704.4,-172.8 L 674.8,-172.8
 L 674.8,-141.1 L 669.6,-141.1 L 669.6,-119.1 L 674.8,-119.1 L 674.8,-87.4 L 704.4,-87.4
 z
M 713.68,-142.6 L 713.68,-158.6 L 798.52,-158.6 L 798.52,-142.6 z
M 250.5,-101.2 L 255.5,-101.2 L 255.5,-96 L 260.5,-96 L 260.5,-101.2 L 265.5,-101.2
 L 265.5,-96 L 270.5,-96 L 270.5,-101.2 L 275.5,-101.2 L 275.5,-96 L 280.5,-96
 L 280.5,-101.2 L 285.5,-101.2 L 285.5,-96 L 290.5,-96 L 290.5,-101.2 L 295.5,-101.2
 L 295.5,-96 L 300.5,-96 L 300.5,-101.2 L 305.5,-101.2 L 305.5,-96 L 310.5,-96
 L 310.5,-101.2 L 315.5,-101.2 L 315.5,-96 L 320.5,-96 L 320.5,-101.2 L 325.5,-101.2
 L 325.5,-96 L 330.5,-96 L 330.5,-101.2 L 335.5,-101.2 L 335.5,-96 L 340.5,-96
 L 340.5,-101.2 L 345.5,-101.2 L 345.5,-96 L 350.5,-96 L 350.5,-101.2 L 355.5,-101.2
 L 355.5,-96 L 360.5,-96 L 360.5,-101.2 L 365.5,-101.2 L 365.5,-96 L 370.5,-96
 L 370.5,-101.2 L 375.5,-101.2 L 375.5,-96 L 380.5,-96 L 380.5,-101.2 L 385.5,-101.2
 L 385.5,-96 L 390.5,-96 L 390.5,-101.2 L 395.5,-101.2 L 395.5,-96 L 400.5,-96
 L 400.5,-101.2 L 405.5,-101.2 L 405.5,-96 L 410.5,-96 L 410.5,-101.2 L 415.5,-101.2
 L 415.5,-96 L 420.5,-96 L 420.5,-101.2 L 425.5,-101.2 L 425.5,-96 L 430.5,-96
 L 430.5,-101.2 L 435.5,-101.2 L 435.5,-96 L 450,-96 L 450,-108.5 L 444.8,-108.5
 L 444.8,-113.5 L 450,-113.5 L 450,-126 L 236,-126 L 236,-113.5 L 241.2,-113.5
 L 241.2,-108.5 L 236,-108.5 L 236,-96 L 250.5,-96 z
M 450,-76.5 L 444.8,-76.5 L 444.8,-81.5 L 450,-81.5 L 450,-93.9999 L 435.5,-93.9999
 L 435.5,-88.8 L 430.5,-88.8 L 430.5,-93.9999 L 425.5,-93.9999 L 425.5,-88.8 L 420.5,-88.8
 L 420.5,-93.9999 L 415.5,-93.9999 L 415.5,-88.8 L 410.5,-88.8 L 410.5,-93.9999 L 405.5,-93.9999
 L 405.5,-88.8 L 400.5,-88.8 L 400.5,-93.9999 L 395.5,-93.9999 L 395.5,-88.8 L 390.5,-88.8
 L 390.5,-93.9999 L 385.5,-93.9999 L 385.5,-88.8 L 380.5,-88.8 L 380.5,-93.9999 L 375.5,-93.9999
 L 375.5,-88.8 L 370.5,-88.8 L 370.5,-93.9999 L 365.5,-93.9999 L 365.5,-88.8 L 360.5,-88.8
 L 360.5,-93.9999 L 355.5,-93.9999 L 355.5,-88.8 L 350.5,-88.8 L 350.5,-93.9999 L 345.5,-93.9999
 L 345.5,-88.8 L 340.5,-88.8 L 340.5,-93.9999 L 335.5,-93.9999 L 335.5,-88.8 L 330.5,-88.8
 L 330.5,-93.9999 L 325.5,-93.9999 L 325.5,-88.8 L 320.5,-88.8 L 320.5,-93.9999 L 315.5,-93.9999
 L 315.5,-88.8 L 310.5,-88.8 L 310.5,-93.9999 L 305.5,-93.9999 L 305.5,-88.8 L 300.5,-88.8
 L 300.5,-93.9999 L 295.5,-93.9999 L 295.5,-88.8 L 290.5,-88.8 L 290.5,-93.9999 L 285.5,-93.9999
 L 285.5,-88.8 L 280.5,-88.8 L 280.5,-93.9999 L 275.5,-93.9999 L 275.5,-88.8 L 270.5,-88.8
 L 270.5,-93.9999 L 265.5,-93.9999 L 265.5,-88.8 L 260.5,-88.8 L 260.5,-93.9999 L 255.5,-93.9999
 L 255.5,-88.8 L 250.5,-88.8 L 250.5,-93.9999 L 236,-93.9999 L 236,-81.5 L 241.2,-81.5
 L 241.2,-76.5 L 236,-76.5 L 236,-64 L 450,-64 z
M 704.4,-5.2 L 726.4,-5.2 L 726.4,-0 L 748.4,-0 L 748.4,-5.2 L 770.4,-5.2
 L 770.4,-0 L 792.4,-0 L 792.4,-5.2 L 814.4,-5.2 L 814.4,-0 L 844,-0
 L 844,-31.7 L 849.2,-31.7 L 849.2,-53.7 L 844,-53.7 L 844,-85.3999 L 814.4,-85.3999
 L 814.4,-80.2 L 792.4,-80.2 L 792.4,-85.3999 L 770.4,-85.3999 L 770.4,-80.2 L 748.4,-80.2
 L 748.4,-85.3999 L 726.4,-85.3999 L 726.4,-80.2 L 704.4,-80.2 L 704.4,-85.3999 L 674.8,-85.3999
 L 674.8,-53.7 L 669.6,-53.7 L 669.6,-31.7 L 674.8,-31.7 L 674.8,-0 L 704.4,-0
 z
M 444.8,-44.5 L 450,-44.5 L 450,-49.5 L 444.8,-49.5 L 444.8,-61.9999 L 435.5,-61.9999
 L 435.5,-56.8 L 430.5,-56.8 L 430.5,-61.9999 L 425.5,-61.9999 L 425.5,-56.8 L 420.5,-56.8
 L 420.5,-61.9999 L 415.5,-61.9999 L 415.5,-56.8 L 410.5,-56.8 L 410.5,-61.9999 L 405.5,-61.9999
 L 405.5,-56.8 L 400.5,-56.8 L 400.5,-61.9999 L 395.5,-61.9999 L 395.5,-56.8 L 390.5,-56.8
 L 390.5,-61.9999 L 385.5,-61.9999 L 385.5,-56.8 L 380.5,-56.8 L 380.5,-61.9999 L 375.5,-61.9999
 L 375.5,-56.8 L 370.5,-56.8 L 370.5,-61.9999 L 365.5,-61.9999 L 365.5,-56.8 L 360.5,-56.8
 L 360.5,-61.9999 L 355.5,-61.9999 L 355.5,-56.8 L 350.5,-56.8 L 350.5,-61.9999 L 345.5,-61.9999
 L 345.5,-56.8 L 340.5,-56.8 L 340.5,-61.9999 L 335.5,-61.9999 L 335.5,-56.8 L 330.5,-56.8
 L 330.5,-61.9999 L 325.5,-61.9999 L 325.5,-56.8 L 320.5,-56.8 L 320.5,-61.9999 L 315.5,-61.9999
 L 315.5,-56.8 L 310.5,-56.8 L 310.5,-61.9999 L 305.5,-61.9999 L 305.5,-56.8 L 300.5,-56.8
 L 300.5,-61.9999 L 295.5,-61.9999 L 295.5,-56.8 L 290.5,-56.8 L 290.5,-61.9999 L 285.5,-61.9999
 L 285.5,-56.8 L 280.5,-56.8 L 280.5,-61.9999 L 275.5,-61.9999 L 275.5,-56.8 L 270.5,-56.8
 L 270.5,-61.9999 L 265.5,-61.9999 L 265.5,-56.8 L 260.5,-56.8 L 260.5,-61.9999 L 255.5,-61.9999
 L 255.5,-56.8 L 250.5,-56.8 L 250.5,-61.9999 L 241.2,-61.9999 L 241.2,-49.5 L 236,-49.5
 L 236,-44.5 L 241.2,-44.5 L 241.2,-32 L 444.8,-32 z
M 250.5,-5.2 L 255.5,-5.2 L 255.5,-0 L 260.5,-0 L 260.5,-5.2 L 265.5,-5.2
 L 265.5,-0 L 270.5,-0 L 270.5,-5.2 L 275.5,-5.2 L 275.5,-0 L 280.5,-0
 L 280.5,-5.2 L 285.5,-5.2 L 285.5,-0 L 290.5,-0 L 290.5,-5.2 L 295.5,-5.2
 L 295.5,-0 L 300.5,-0 L 300.5,-5.2 L 305.5,-5.2 L 305.5,-0 L 310.5,-0
 L 310.5,-5.2 L 315.5,-5.2 L 315.5,-0 L 320.5,-0 L 320.5,-5.2 L 325.5,-5.2
 L 325.5,-0 L 330.5,-0 L 330.5,-5.2 L 335.5,-5.2 L 335.5,-0 L 340.5,-0
 L 340.5,-5.2 L 345.5,-5.2 L 345.5,-0 L 350.5,-0 L 350.5,-5.2 L 355.5,-5.2
 L 355.5,-0 L 360.5,-0 L 360.5,-5.2 L 365.5,-5.2 L 365.5,-0 L 370.5,-0
 L 370.5,-5.2 L 375.5,-5.2 L 375.5,-0 L 380.5,-0 L 380.5,-5.2 L 385.5,-5.2
 L 385.5,-0 L 390.5,-0 L 390.5,-5.2 L 395.5,-5.2 L 395.5,-0 L 400.5,-0
 L 400.5,-5.2 L 405.5,-5.2 L 405.5,-0 L 410.5,-0 L 410.5,-5.2 L 415.5,-5.2
 L 415.5,-0 L 420.5,-0 L 420.5,-5.2 L 425.5,-5.2 L 425.5,-0 L 430.5,-0
 L 430.5,-5.2 L 435.5,-5.2 L 435.5,-0 L 444.8,-0 L 444.8,-12.5 L 450,-12.5
 L 450,-17.5 L 444.8,-17.5 L 444.8,-29.9999 L 241.2,-29.9999 L 241.2,-17.5 L 236,-17.5
 L 236,-12.5 L 241.2,-12.5 L 241.2,-0 L 250.5,-0 z
" stroke="black" fill="lightgray" stroke-width="0.5"/>
</svg>
