  0
SECTION
  2
BLOCKS
  0
ENDSEC
  0
SECTION
  2
ENTITIES
  0
LINE
  8
0
 10
88.95
 20
47
 11
91.9999
 21
47
  0
LINE
  8
0
 10
91.9999
 20
47
 11
91.9999
 21
52
  0
LINE
  8
0
 10
91.9999
 20
52
 11
88.95
 21
52
  0
LINE
  8
0
 10
88.95
 20
52
 11
88.95
 21
57
  0
LINE
  8
0
 10
88.95
 20
57
 11
91.9999
 21
57
  0
LINE
  8
0
 10
91.9999
 20
57
 11
91.9999
 21
62
  0
LINE
  8
0
 10
91.9999
 20
62
 11
88.95
 21
62
  0
LINE
  8
0
 10
88.95
 20
62
 11
88.95
 21
71.9999
  0
LINE
  8
0
 10
88.95
 20
71.9999
 11
82
 21
71.9999
  0
LINE
  8
0
 10
82
 20
71.9999
 11
82
 21
68.95
  0
LINE
  8
0
 10
82
 20
68.95
 11
77
 21
68.95
  0
LINE
  8
0
 10
77
 20
68.95
 11
77
 21
71.9999
  0
LINE
  8
0
 10
77
 20
71.9999
 11
72
 21
71.9999
  0
LINE
  8
0
 10
72
 20
71.9999
 11
72
 21
68.95
  0
LINE
  8
0
 10
72
 20
68.95
 11
67
 21
68.95
  0
LINE
  8
0
 10
67
 20
68.95
 11
67
 21
71.9999
  0
LINE
  8
0
 10
67
 20
71.9999
 11
62
 21
71.9999
  0
LINE
  8
0
 10
62
 20
71.9999
 11
62
 21
68.95
  0
LINE
  8
0
 10
62
 20
68.95
 11
57
 21
68.95
  0
LINE
  8
0
 10
57
 20
68.95
 11
57
 21
71.9999
  0
LINE
  8
0
 10
57
 20
71.9999
 11
50.05
 21
71.9999
  0
LINE
  8
0
 10
50.05
 20
71.9999
 11
50.05
 21
62
  0
LINE
  8
0
 10
50.05
 20
62
 11
47
 21
62
  0
LINE
  8
0
 10
47
 20
62
 11
47
 21
57
  0
LINE
  8
0
 10
47
 20
57
 11
50.05
 21
57
  0
LINE
  8
0
 10
50.05
 20
57
 11
50.05
 21
52
  0
LINE
  8
0
 10
50.05
 20
52
 11
47
 21
52
  0
LINE
  8
0
 10
47
 20
52
 11
47
 21
47
  0
LINE
  8
0
 10
47
 20
47
 11
50.05
 21
47
  0
LINE
  8
0
 10
50.05
 20
47
 11
50.05
 21
40.05
  0
LINE
  8
0
 10
50.05
 20
40.05
 11
88.95
 21
40.05
  0
LINE
  8
0
 10
88.95
 20
40.05
 11
88.95
 21
47
  0
LINE
  8
0
 10
104
 20
40.05
 11
109
 21
40.05
  0
LINE
  8
0
 10
109
 20
40.05
 11
109
 21
37
  0
LINE
  8
0
 10
109
 20
37
 11
114
 21
37
  0
LINE
  8
0
 10
114
 20
37
 11
114
 21
40.05
  0
LINE
  8
0
 10
114
 20
40.05
 11
119
 21
40.05
  0
LINE
  8
0
 10
119
 20
40.05
 11
119
 21
37
  0
LINE
  8
0
 10
119
 20
37
 11
124
 21
37
  0
LINE
  8
0
 10
124
 20
37
 11
124
 21
40.05
  0
LINE
  8
0
 10
124
 20
40.05
 11
129
 21
40.05
  0
LINE
  8
0
 10
129
 20
40.05
 11
129
 21
37
  0
LINE
  8
0
 10
129
 20
37
 11
139
 21
37
  0
LINE
  8
0
 10
139
 20
37
 11
139
 21
47
  0
LINE
  8
0
 10
139
 20
47
 11
135.95
 21
47
  0
LINE
  8
0
 10
135.95
 20
47
 11
135.95
 21
52
  0
LINE
  8
0
 10
135.95
 20
52
 11
139
 21
52
  0
LINE
  8
0
 10
139
 20
52
 11
139
 21
57
  0
LINE
  8
0
 10
139
 20
57
 11
135.95
 21
57
  0
LINE
  8
0
 10
135.95
 20
57
 11
135.95
 21
62
  0
LINE
  8
0
 10
135.95
 20
62
 11
139
 21
62
  0
LINE
  8
0
 10
139
 20
62
 11
139
 21
68.95
  0
LINE
  8
0
 10
139
 20
68.95
 11
94
 21
68.95
  0
LINE
  8
0
 10
94
 20
68.95
 11
94
 21
62
  0
LINE
  8
0
 10
94
 20
62
 11
97.05
 21
62
  0
LINE
  8
0
 10
97.05
 20
62
 11
97.05
 21
57
  0
LINE
  8
0
 10
97.05
 20
57
 11
94
 21
57
  0
LINE
  8
0
 10
94
 20
57
 11
94
 21
52
  0
LINE
  8
0
 10
94
 20
52
 11
97.05
 21
52
  0
LINE
  8
0
 10
97.05
 20
52
 11
97.05
 21
47
  0
LINE
  8
0
 10
97.05
 20
47
 11
94
 21
47
  0
LINE
  8
0
 10
94
 20
47
 11
94
 21
37
  0
LINE
  8
0
 10
94
 20
37
 11
104
 21
37
  0
LINE
  8
0
 10
104
 20
37
 11
104
 21
40.05
  0
LINE
  8
0
 10
15
 20
3.04999
 11
20
 21
3.04999
  0
LINE
  8
0
 10
20
 20
3.04999
 11
20
 21
0
  0
LINE
  8
0
 10
20
 20
0
 11
25
 21
0
  0
LINE
  8
0
 10
25
 20
0
 11
25
 21
3.04999
  0
LINE
  8
0
 10
25
 20
3.04999
 11
30
 21
3.04999
  0
LINE
  8
0
 10
30
 20
3.04999
 11
30
 21
0
  0
LINE
  8
0
 10
30
 20
0
 11
35
 21
0
  0
LINE
  8
0
 10
35
 20
0
 11
35
 21
3.04999
  0
LINE
  8
0
 10
35
 20
3.04999
 11
41.95
 21
3.04999
  0
LINE
  8
0
 10
41.95
 20
3.04999
 11
41.95
 21
10
  0
LINE
  8
0
 10
41.95
 20
10
 11
44.9999
 21
10
  0
LINE
  8
0
 10
44.9999
 20
10
 11
44.9999
 21
15
  0
LINE
  8
0
 10
44.9999
 20
15
 11
41.95
 21
15
  0
LINE
  8
0
 10
41.95
 20
15
 11
41.95
 21
20
  0
LINE
  8
0
 10
41.95
 20
20
 11
44.9999
 21
20
  0
LINE
  8
0
 10
44.9999
 20
20
 11
44.9999
 21
25
  0
LINE
  8
0
 10
44.9999
 20
25
 11
41.95
 21
25
  0
LINE
  8
0
 10
41.95
 20
25
 11
41.95
 21
30
  0
LINE
  8
0
 10
41.95
 20
30
 11
44.9999
 21
30
  0
LINE
  8
0
 10
44.9999
 20
30
 11
44.9999
 21
35
  0
LINE
  8
0
 10
44.9999
 20
35
 11
41.95
 21
35
  0
LINE
  8
0
 10
41.95
 20
35
 11
41.95
 21
41.95
  0
LINE
  8
0
 10
41.95
 20
41.95
 11
35
 21
41.95
  0
LINE
  8
0
 10
35
 20
41.95
 11
35
 21
44.9999
  0
LINE
  8
0
 10
35
 20
44.9999
 11
30
 21
44.9999
  0
LINE
  8
0
 10
30
 20
44.9999
 11
30
 21
41.95
  0
LINE
  8
0
 10
30
 20
41.95
 11
25
 21
41.95
  0
LINE
  8
0
 10
25
 20
41.95
 11
25
 21
44.9999
  0
LINE
  8
0
 10
25
 20
44.9999
 11
20
 21
44.9999
  0
LINE
  8
0
 10
20
 20
44.9999
 11
20
 21
41.95
  0
LINE
  8
0
 10
20
 20
41.95
 11
15
 21
41.95
  0
LINE
  8
0
 10
15
 20
41.95
 11
15
 21
44.9999
  0
LINE
  8
0
 10
15
 20
44.9999
 11
10
 21
44.9999
  0
LINE
  8
0
 10
10
 20
44.9999
 11
10
 21
41.95
  0
LINE
  8
0
 10
10
 20
41.95
 11
3.04999
 21
41.95
  0
LINE
  8
0
 10
3.04999
 20
41.95
 11
3.04999
 21
35
  0
LINE
  8
0
 10
3.04999
 20
35
 11
0
 21
35
  0
LINE
  8
0
 10
0
 20
35
 11
0
 21
30
  0
LINE
  8
0
 10
0
 20
30
 11
3.04999
 21
30
  0
LINE
  8
0
 10
3.04999
 20
30
 11
3.04999
 21
25
  0
LINE
  8
0
 10
3.04999
 20
25
 11
0
 21
25
  0
LINE
  8
0
 10
0
 20
25
 11
0
 21
20
  0
LINE
  8
0
 10
0
 20
20
 11
3.04999
 21
20
  0
LINE
  8
0
 10
3.04999
 20
20
 11
3.04999
 21
15
  0
LINE
  8
0
 10
3.04999
 20
15
 11
0
 21
15
  0
LINE
  8
0
 10
0
 20
15
 11
0
 21
10
  0
LINE
  8
0
 10
0
 20
10
 11
3.04999
 21
10
  0
LINE
  8
0
 10
3.04999
 20
10
 11
3.04999
 21
3.04999
  0
LINE
  8
0
 10
3.04999
 20
3.04999
 11
10
 21
3.04999
  0
LINE
  8
0
 10
10
 20
3.04999
 11
10
 21
0
  0
LINE
  8
0
 10
10
 20
0
 11
15
 21
0
  0
LINE
  8
0
 10
15
 20
0
 11
15
 21
3.04999
  0
LINE
  8
0
 10
139
 20
10
 11
135.95
 21
10
  0
LINE
  8
0
 10
135.95
 20
10
 11
135.95
 21
15
  0
LINE
  8
0
 10
135.95
 20
15
 11
139
 21
15
  0
LINE
  8
0
 10
139
 20
15
 11
139
 21
20
  0
LINE
  8
0
 10
139
 20
20
 11
135.95
 21
20
  0
LINE
  8
0
 10
135.95
 20
20
 11
135.95
 21
25
  0
LINE
  8
0
 10
135.95
 20
25
 11
139
 21
25
  0
LINE
  8
0
 10
139
 20
25
 11
139
 21
34.9999
  0
LINE
  8
0
 10
139
 20
34.9999
 11
129
 21
34.9999
  0
LINE
  8
0
 10
129
 20
34.9999
 11
129
 21
31.95
  0
LINE
  8
0
 10
129
 20
31.95
 11
124
 21
31.95
  0
LINE
  8
0
 10
124
 20
31.95
 11
124
 21
34.9999
  0
LINE
  8
0
 10
124
 20
34.9999
 11
119
 21
34.9999
  0
LINE
  8
0
 10
119
 20
34.9999
 11
119
 21
31.95
  0
LINE
  8
0
 10
119
 20
31.95
 11
114
 21
31.95
  0
LINE
  8
0
 10
114
 20
31.95
 11
114
 21
34.9999
  0
LINE
  8
0
 10
114
 20
34.9999
 11
109
 21
34.9999
  0
LINE
  8
0
 10
109
 20
34.9999
 11
109
 21
31.95
  0
LINE
  8
0
 10
109
 20
31.95
 11
104
 21
31.95
  0
LINE
  8
0
 10
104
 20
31.95
 11
104
 21
34.9999
  0
LINE
  8
0
 10
104
 20
34.9999
 11
94
 21
34.9999
  0
LINE
  8
0
 10
94
 20
34.9999
 11
94
 21
25
  0
LINE
  8
0
 10
94
 20
25
 11
97.05
 21
25
  0
LINE
  8
0
 10
97.05
 20
25
 11
97.05
 21
20
  0
LINE
  8
0
 10
97.05
 20
20
 11
94
 21
20
  0
LINE
  8
0
 10
94
 20
20
 11
94
 21
15
  0
LINE
  8
0
 10
94
 20
15
 11
97.05
 21
15
  0
LINE
  8
0
 10
97.05
 20
15
 11
97.05
 21
10
  0
LINE
  8
0
 10
97.05
 20
10
 11
94
 21
10
  0
LINE
  8
0
 10
94
 20
10
 11
94
 21
3.04999
  0
LINE
  8
0
 10
94
 20
3.04999
 11
139
 21
3.04999
  0
LINE
  8
0
 10
139
 20
3.04999
 11
139
 21
10
  0
LINE
  8
0
 10
57
 20
3.04999
 11
62
 21
3.04999
  0
LINE
  8
0
 10
62
 20
3.04999
 11
62
 21
0
  0
LINE
  8
0
 10
62
 20
0
 11
67
 21
0
  0
LINE
  8
0
 10
67
 20
0
 11
67
 21
3.04999
  0
LINE
  8
0
 10
67
 20
3.04999
 11
72
 21
3.04999
  0
LINE
  8
0
 10
72
 20
3.04999
 11
72
 21
0
  0
LINE
  8
0
 10
72
 20
0
 11
77
 21
0
  0
LINE
  8
0
 10
77
 20
0
 11
77
 21
3.04999
  0
LINE
  8
0
 10
77
 20
3.04999
 11
82
 21
3.04999
  0
LINE
  8
0
 10
82
 20
3.04999
 11
82
 21
0
  0
LINE
  8
0
 10
82
 20
0
 11
88.95
 21
0
  0
LINE
  8
0
 10
88.95
 20
0
 11
88.95
 21
10
  0
LINE
  8
0
 10
88.95
 20
10
 11
91.9999
 21
10
  0
LINE
  8
0
 10
91.9999
 20
10
 11
91.9999
 21
15
  0
LINE
  8
0
 10
91.9999
 20
15
 11
88.95
 21
15
  0
LINE
  8
0
 10
88.95
 20
15
 11
88.95
 21
20
  0
LINE
  8
0
 10
88.95
 20
20
 11
91.9999
 21
20
  0
LINE
  8
0
 10
91.9999
 20
20
 11
91.9999
 21
25
  0
LINE
  8
0
 10
91.9999
 20
25
 11
88.95
 21
25
  0
LINE
  8
0
 10
88.95
 20
25
 11
88.95
 21
31.95
  0
LINE
  8
0
 10
88.95
 20
31.95
 11
50.05
 21
31.95
  0
LINE
  8
0
 10
50.05
 20
31.95
 11
50.05
 21
25
  0
LINE
  8
0
 10
50.05
 20
25
 11
47
 21
25
  0
LINE
  8
0
 10
47
 20
25
 11
47
 21
20
  0
LINE
  8
0
 10
47
 20
20
 11
50.05
 21
20
  0
LINE
  8
0
 10
50.05
 20
20
 11
50.05
 21
15
  0
LINE
  8
0
 10
50.05
 20
15
 11
47
 21
15
  0
LINE
  8
0
 10
47
 20
15
 11
47
 21
10
  0
LINE
  8
0
 10
47
 20
10
 11
50.05
 21
10
  0
LINE
  8
0
 10
50.05
 20
10
 11
50.05
 21
0
  0
LINE
  8
0
 10
50.05
 20
0
 11
57
 21
0
  0
LINE
  8
0
 10
57
 20
0
 11
57
 21
3.04999
  0
ENDSEC
  0
SECTION
  2
OBJECTS
  0
DICTIONARY
  0
ENDSEC
  0
EOF
