<?xml version="1.0" standalone="no"?>
<!DOCTYPE svg PUBLIC "-//W3C//DTD SVG 1.1//EN" "http://www.w3.org/Graphics/SVG/1.1/DTD/svg11.dtd">
<svg width="624mm" height="102mm" viewBox="0 -102 624 102" xmlns="http://www.w3.org/2000/svg" version="1.1">
<title>OpenSCAD Model</title>
<path d="
M 528.95,-72 L 532,-72 L 532,-82 L 528.95,-82 L 528.95,-102 L 512,-102
 L 512,-98.95 L 502,-98.95 L 502,-102 L 492,-102 L 492,-98.95 L 482,-98.95
 L 482,-102 L 472,-102 L 472,-98.95 L 462,-98.95 L 462,-102 L 445.05,-102
 L 445.05,-82 L 442,-82 L 442,-72 L 445.05,-72 L 445.05,-55.05 L 528.95,-55.05
 z
M 268.95,-72 L 272,-72 L 272,-82 L 268.95,-82 L 268.95,-102 L 257,-102
 L 257,-98.95 L 247,-98.95 L 247,-102 L 237,-102 L 237,-98.95 L 227,-98.95
 L 227,-102 L 215.05,-102 L 215.05,-82 L 212,-82 L 212,-72 L 215.05,-72
 L 215.05,-55.05 L 268.95,-55.05 z
M 554,-55.05 L 564,-55.05 L 564,-52 L 574,-52 L 574,-55.05 L 584,-55.05
 L 584,-52 L 594,-52 L 594,-55.05 L 604,-55.05 L 604,-52 L 624,-52
 L 624,-72 L 620.95,-72 L 620.95,-82 L 624,-82 L 624,-98.95 L 534,-98.95
 L 534,-82 L 537.05,-82 L 537.05,-72 L 534,-72 L 534,-52 L 554,-52
 z
M 289,-55.05 L 299,-55.05 L 299,-52 L 309,-52 L 309,-55.05 L 319,-55.05
 L 319,-52 L 334,-52 L 334,-72 L 330.95,-72 L 330.95,-82 L 334,-82
 L 334,-98.95 L 274,-98.95 L 274,-82 L 277.05,-82 L 277.05,-72 L 274,-72
 L 274,-52 L 289,-52 z
M 380,-3.04999 L 390,-3.04999 L 390,-0 L 400,-0 L 400,-3.04999 L 410,-3.04999
 L 410,-0 L 420,-0 L 420,-3.04999 L 436.95,-3.04999 L 436.95,-20 L 440,-20
 L 440,-30 L 436.95,-30 L 436.95,-40 L 440,-40 L 440,-50 L 436.95,-50
 L 436.95,-60 L 440,-60 L 440,-70 L 436.95,-70 L 436.95,-86.95 L 420,-86.95
 L 420,-89.9999 L 410,-89.9999 L 410,-86.95 L 400,-86.95 L 400,-89.9999 L 390,-89.9999
 L 390,-86.95 L 380,-86.95 L 380,-89.9999 L 370,-89.9999 L 370,-86.95 L 353.05,-86.95
 L 353.05,-70 L 350,-70 L 350,-60 L 353.05,-60 L 353.05,-50 L 350,-50
 L 350,-40 L 353.05,-40 L 353.05,-30 L 350,-30 L 350,-20 L 353.05,-20
 L 353.05,-3.04999 L 370,-3.04999 L 370,-0 L 380,-0 z
M 88.95,-51.5 L 91.9999,-51.5 L 91.9999,-57.5 L 88.95,-57.5 L 88.95,-71.9999 L 78.5,-71.9999
 L 78.5,-68.95 L 72.5,-68.95 L 72.5,-71.9999 L 66.5,-71.9999 L 66.5,-68.95 L 60.5,-68.95
 L 60.5,-71.9999 L 50.05,-71.9999 L 50.05,-57.5 L 47,-57.5 L 47,-51.5 L 50.05,-51.5
 L 50.05,-40.05 L 88.95,-40.05 z
M 107.5,-40.05 L 113.5,-40.05 L 113.5,-37 L 119.5,-37 L 119.5,-40.05 L 125.5,-40.05
 L 125.5,-37 L 139,-37 L 139,-51.5 L 135.95,-51.5 L 135.95,-57.5 L 139,-57.5
 L 139,-68.95 L 94,-68.95 L 94,-57.5 L 97.05,-57.5 L 97.05,-51.5 L 94,-51.5
 L 94,-37 L 107.5,-37 z
M 175,-3.04999 L 185,-3.04999 L 185,-0 L 195,-0 L 195,-3.04999 L 206.95,-3.04999
 L 206.95,-15 L 210,-15 L 210,-25 L 206.95,-25 L 206.95,-35 L 210,-35
 L 210,-45 L 206.95,-45 L 206.95,-56.95 L 195,-56.95 L 195,-59.9999 L 185,-59.9999
 L 185,-56.95 L 175,-56.95 L 175,-59.9999 L 165,-59.9999 L 165,-56.95 L 153.05,-56.95
 L 153.05,-45 L 150,-45 L 150,-35 L 153.05,-35 L 153.05,-25 L 150,-25
 L 150,-15 L 153.05,-15 L 153.05,-3.04999 L 165,-3.04999 L 165,-0 L 175,-0
 z
M 334,-20 L 330.95,-20 L 330.95,-30 L 334,-30 L 334,-49.9999 L 319,-49.9999
 L 319,-46.95 L 309,-46.95 L 309,-49.9999 L 299,-49.9999 L 299,-46.95 L 289,-46.95
 L 289,-49.9999 L 274,-49.9999 L 274,-30 L 277.05,-30 L 277.05,-20 L 274,-20
 L 274,-3.04999 L 334,-3.04999 z
M 624,-20 L 620.95,-20 L 620.95,-30 L 624,-30 L 624,-49.9999 L 604,-49.9999
 L 604,-46.95 L 594,-46.95 L 594,-49.9999 L 584,-49.9999 L 584,-46.95 L 574,-46.95
 L 574,-49.9999 L 564,-49.9999 L 564,-46.95 L 554,-46.95 L 554,-49.9999 L 534,-49.9999
 L 534,-30 L 537.05,-30 L 537.05,-20 L 534,-20 L 534,-3.04999 L 624,-3.04999
 z
M 227,-3.04999 L 237,-3.04999 L 237,-0 L 247,-0 L 247,-3.04999 L 257,-3.04999
 L 257,-0 L 268.95,-0 L 268.95,-20 L 272,-20 L 272,-30 L 268.95,-30
 L 268.95,-46.95 L 215.05,-46.95 L 215.05,-30 L 212,-30 L 212,-20 L 215.05,-20
 L 215.05,-0 L 227,-0 z
M 462,-3.04999 L 472,-3.04999 L 472,-0 L 482,-0 L 482,-3.04999 L 492,-3.04999
 L 492,-0 L 502,-0 L 502,-3.04999 L 512,-3.04999 L 512,-0 L 528.95,-0
 L 528.95,-20 L 532,-20 L 532,-30 L 528.95,-30 L 528.95,-46.95 L 445.05,-46.95
 L 445.05,-30 L 442,-30 L 442,-20 L 445.05,-20 L 445.05,-0 L 462,-0
 z
M 19.5,-3.04999 L 25.5,-3.04999 L 25.5,-0 L 31.5,-0 L 31.5,-3.04999 L 41.95,-3.04999
 L 41.95,-13.5 L 44.9999,-13.5 L 44.9999,-19.5 L 41.95,-19.5 L 41.95,-25.5 L 44.9999,-25.5
 L 44.9999,-31.5 L 41.95,-31.5 L 41.95,-41.95 L 31.5,-41.95 L 31.5,-44.9999 L 25.5,-44.9999
 L 25.5,-41.95 L 19.5,-41.95 L 19.5,-44.9999 L 13.5,-44.9999 L 13.5,-41.95 L 3.04999,-41.95
 L 3.04999,-31.5 L 0,-31.5 L 0,-25.5 L 3.04999,-25.5 L 3.04999,-19.5 L 0,-19.5
 L 0,-13.5 L 3.04999,-13.5 L 3.04999,-3.04999 L 13.5,-3.04999 L 13.5,-0 L 19.5,-0
 z
M 139,-14.5 L 135.95,-14.5 L 135.95,-20.5 L 139,-20.5 L 139,-34.9999 L 125.5,-34.9999
 L 125.5,-31.95 L 119.5,-31.95 L 119.5,-34.9999 L 113.5,-34.9999 L 113.5,-31.95 L 107.5,-31.95
 L 107.5,-34.9999 L 94,-34.9999 L 94,-20.5 L 97.05,-20.5 L 97.05,-14.5 L 94,-14.5
 L 94,-3.04999 L 139,-3.04999 z
M 60.5,-3.04999 L 66.5,-3.04999 L 66.5,-0 L 72.5,-0 L 72.5,-3.04999 L 78.5,-3.04999
 L 78.5,-0 L 88.95,-0 L 88.95,-14.5 L 91.9999,-14.5 L 91.9999,-20.5 L 88.95,-20.5
 L 88.95,-31.95 L 50.05,-31.95 L 50.05,-20.5 L 47,-20.5 L 47,-14.5 L 50.05,-14.5
 L 50.05,-0 L 60.5,-0 z
" stroke="black" fill="lightgray" stroke-width="0.5"/>
</svg>
