  0
SECTION
  2
BLOCKS
  0
ENDSEC
  0
SECTION
  2
ENTITIES
  0
LINE
  8
0
 10
667.6
 20
401.2
 11
468
 21
401.2
  0
LINE
  8
0
 10
468
 20
401.2
 11
468
 21
201.6
  0
LINE
  8
0
 10
468
 20
201.6
 11
667.6
 21
201.6
  0
LINE
  8
0
 10
667.6
 20
201.6
 11
667.6
 21
401.2
  0
LINE
  8
0
 10
478
 20
356.4
 11
478
 21
391.2
  0
LINE
  8
0
 10
478
 20
391.2
 11
512.8
 21
391.2
  0
LINE
  8
0
 10
512.8
 20
391.2
 11
512.8
 21
386
  0
LINE
  8
0
 10
512.8
 20
386
 11
483.2
 21
386
  0
LINE
  8
0
 10
483.2
 20
386
 11
483.2
 21
356.4
  0
LINE
  8
0
 10
483.2
 20
356.4
 11
478
 21
356.4
  0
LINE
  8
0
 10
652.4
 20
356.4
 11
652.4
 21
386
  0
LINE
  8
0
 10
652.4
 20
386
 11
622.8
 21
386
  0
LINE
  8
0
 10
622.8
 20
386
 11
622.8
 21
391.2
  0
LINE
  8
0
 10
622.8
 20
391.2
 11
657.6
 21
391.2
  0
LINE
  8
0
 10
657.6
 20
391.2
 11
657.6
 21
356.4
  0
LINE
  8
0
 10
657.6
 20
356.4
 11
652.4
 21
356.4
  0
LINE
  8
0
 10
534.8
 20
386
 11
534.8
 21
391.2
  0
LINE
  8
0
 10
534.8
 20
391.2
 11
556.8
 21
391.2
  0
LINE
  8
0
 10
556.8
 20
391.2
 11
556.8
 21
386
  0
LINE
  8
0
 10
556.8
 20
386
 11
534.8
 21
386
  0
LINE
  8
0
 10
578.8
 20
386
 11
578.8
 21
391.2
  0
LINE
  8
0
 10
578.8
 20
391.2
 11
600.8
 21
391.2
  0
LINE
  8
0
 10
600.8
 20
391.2
 11
600.8
 21
386
  0
LINE
  8
0
 10
600.8
 20
386
 11
578.8
 21
386
  0
LINE
  8
0
 10
489.887
 20
377.025
 11
489.582
 21
377.098
  0
LINE
  8
0
 10
489.582
 20
377.098
 11
489.292
 21
377.218
  0
LINE
  8
0
 10
489.292
 20
377.218
 11
489.024
 21
377.382
  0
LINE
  8
0
 10
489.024
 20
377.382
 11
488.786
 21
377.586
  0
LINE
  8
0
 10
488.786
 20
377.586
 11
488.582
 21
377.824
  0
LINE
  8
0
 10
488.582
 20
377.824
 11
488.418
 21
378.092
  0
LINE
  8
0
 10
488.418
 20
378.092
 11
488.298
 21
378.382
  0
LINE
  8
0
 10
488.298
 20
378.382
 11
488.225
 21
378.687
  0
LINE
  8
0
 10
488.225
 20
378.687
 11
488.2
 21
379
  0
LINE
  8
0
 10
488.2
 20
379
 11
488.225
 21
379.313
  0
LINE
  8
0
 10
488.225
 20
379.313
 11
488.298
 21
379.618
  0
LINE
  8
0
 10
488.298
 20
379.618
 11
488.418
 21
379.908
  0
LINE
  8
0
 10
488.418
 20
379.908
 11
488.582
 21
380.176
  0
LINE
  8
0
 10
488.582
 20
380.176
 11
488.786
 21
380.414
  0
LINE
  8
0
 10
488.786
 20
380.414
 11
489.024
 21
380.618
  0
LINE
  8
0
 10
489.024
 20
380.618
 11
489.292
 21
380.782
  0
LINE
  8
0
 10
489.292
 20
380.782
 11
489.582
 21
380.902
  0
LINE
  8
0
 10
489.582
 20
380.902
 11
489.887
 21
380.975
  0
LINE
  8
0
 10
489.887
 20
380.975
 11
490.2
 21
381
  0
LINE
  8
0
 10
490.2
 20
381
 11
490.513
 21
380.975
  0
LINE
  8
0
 10
490.513
 20
380.975
 11
490.818
 21
380.902
  0
LINE
  8
0
 10
490.818
 20
380.902
 11
491.108
 21
380.782
  0
LINE
  8
0
 10
491.108
 20
380.782
 11
491.376
 21
380.618
  0
LINE
  8
0
 10
491.376
 20
380.618
 11
491.614
 21
380.414
  0
LINE
  8
0
 10
491.614
 20
380.414
 11
491.818
 21
380.176
  0
LINE
  8
0
 10
491.818
 20
380.176
 11
491.982
 21
379.908
  0
LINE
  8
0
 10
491.982
 20
379.908
 11
492.102
 21
379.618
  0
LINE
  8
0
 10
492.102
 20
379.618
 11
492.175
 21
379.313
  0
LINE
  8
0
 10
492.175
 20
379.313
 11
492.2
 21
379
  0
LINE
  8
0
 10
492.2
 20
379
 11
492.175
 21
378.687
  0
LINE
  8
0
 10
492.175
 20
378.687
 11
492.102
 21
378.382
  0
LINE
  8
0
 10
492.102
 20
378.382
 11
491.982
 21
378.092
  0
LINE
  8
0
 10
491.982
 20
378.092
 11
491.818
 21
377.824
  0
LINE
  8
0
 10
491.818
 20
377.824
 11
491.614
 21
377.586
  0
LINE
  8
0
 10
491.614
 20
377.586
 11
491.376
 21
377.382
  0
LINE
  8
0
 10
491.376
 20
377.382
 11
491.108
 21
377.218
  0
LINE
  8
0
 10
491.108
 20
377.218
 11
490.818
 21
377.098
  0
LINE
  8
0
 10
490.818
 20
377.098
 11
490.513
 21
377.025
  0
LINE
  8
0
 10
490.513
 20
377.025
 11
490.2
 21
377
  0
LINE
  8
0
 10
490.2
 20
377
 11
489.887
 21
377.025
  0
LINE
  8
0
 10
645.087
 20
377.025
 11
644.782
 21
377.098
  0
LINE
  8
0
 10
644.782
 20
377.098
 11
644.492
 21
377.218
  0
LINE
  8
0
 10
644.492
 20
377.218
 11
644.224
 21
377.382
  0
LINE
  8
0
 10
644.224
 20
377.382
 11
643.986
 21
377.586
  0
LINE
  8
0
 10
643.986
 20
377.586
 11
643.782
 21
377.824
  0
LINE
  8
0
 10
643.782
 20
377.824
 11
643.618
 21
378.092
  0
LINE
  8
0
 10
643.618
 20
378.092
 11
643.498
 21
378.382
  0
LINE
  8
0
 10
643.498
 20
378.382
 11
643.425
 21
378.687
  0
LINE
  8
0
 10
643.425
 20
378.687
 11
643.4
 21
379
  0
LINE
  8
0
 10
643.4
 20
379
 11
643.425
 21
379.313
  0
LINE
  8
0
 10
643.425
 20
379.313
 11
643.498
 21
379.618
  0
LINE
  8
0
 10
643.498
 20
379.618
 11
643.618
 21
379.908
  0
LINE
  8
0
 10
643.618
 20
379.908
 11
643.782
 21
380.176
  0
LINE
  8
0
 10
643.782
 20
380.176
 11
643.986
 21
380.414
  0
LINE
  8
0
 10
643.986
 20
380.414
 11
644.224
 21
380.618
  0
LINE
  8
0
 10
644.224
 20
380.618
 11
644.492
 21
380.782
  0
LINE
  8
0
 10
644.492
 20
380.782
 11
644.782
 21
380.902
  0
LINE
  8
0
 10
644.782
 20
380.902
 11
645.087
 21
380.975
  0
LINE
  8
0
 10
645.087
 20
380.975
 11
645.4
 21
381
  0
LINE
  8
0
 10
645.4
 20
381
 11
645.713
 21
380.975
  0
LINE
  8
0
 10
645.713
 20
380.975
 11
646.018
 21
380.902
  0
LINE
  8
0
 10
646.018
 20
380.902
 11
646.308
 21
380.782
  0
LINE
  8
0
 10
646.308
 20
380.782
 11
646.576
 21
380.618
  0
LINE
  8
0
 10
646.576
 20
380.618
 11
646.814
 21
380.414
  0
LINE
  8
0
 10
646.814
 20
380.414
 11
647.018
 21
380.176
  0
LINE
  8
0
 10
647.018
 20
380.176
 11
647.182
 21
379.908
  0
LINE
  8
0
 10
647.182
 20
379.908
 11
647.302
 21
379.618
  0
LINE
  8
0
 10
647.302
 20
379.618
 11
647.375
 21
379.313
  0
LINE
  8
0
 10
647.375
 20
379.313
 11
647.4
 21
379
  0
LINE
  8
0
 10
647.4
 20
379
 11
647.375
 21
378.687
  0
LINE
  8
0
 10
647.375
 20
378.687
 11
647.302
 21
378.382
  0
LINE
  8
0
 10
647.302
 20
378.382
 11
647.182
 21
378.092
  0
LINE
  8
0
 10
647.182
 20
378.092
 11
647.018
 21
377.824
  0
LINE
  8
0
 10
647.018
 20
377.824
 11
646.814
 21
377.586
  0
LINE
  8
0
 10
646.814
 20
377.586
 11
646.576
 21
377.382
  0
LINE
  8
0
 10
646.576
 20
377.382
 11
646.308
 21
377.218
  0
LINE
  8
0
 10
646.308
 20
377.218
 11
646.018
 21
377.098
  0
LINE
  8
0
 10
646.018
 20
377.098
 11
645.713
 21
377.025
  0
LINE
  8
0
 10
645.713
 20
377.025
 11
645.4
 21
377
  0
LINE
  8
0
 10
645.4
 20
377
 11
645.087
 21
377.025
  0
LINE
  8
0
 10
553.039
 20
360.377
 11
552.886
 21
360.414
  0
LINE
  8
0
 10
552.886
 20
360.414
 11
552.741
 21
360.474
  0
LINE
  8
0
 10
552.741
 20
360.474
 11
552.607
 21
360.556
  0
LINE
  8
0
 10
552.607
 20
360.556
 11
552.488
 21
360.658
  0
LINE
  8
0
 10
552.488
 20
360.658
 11
552.386
 21
360.777
  0
LINE
  8
0
 10
552.386
 20
360.777
 11
552.304
 21
360.911
  0
LINE
  8
0
 10
552.304
 20
360.911
 11
552.244
 21
361.056
  0
LINE
  8
0
 10
552.244
 20
361.056
 11
552.207
 21
361.209
  0
LINE
  8
0
 10
552.207
 20
361.209
 11
552.195
 21
361.365
  0
LINE
  8
0
 10
552.195
 20
361.365
 11
552.207
 21
361.521
  0
LINE
  8
0
 10
552.207
 20
361.521
 11
552.244
 21
361.674
  0
LINE
  8
0
 10
552.244
 20
361.674
 11
552.304
 21
361.819
  0
LINE
  8
0
 10
552.304
 20
361.819
 11
552.386
 21
361.953
  0
LINE
  8
0
 10
552.386
 20
361.953
 11
552.488
 21
362.072
  0
LINE
  8
0
 10
552.488
 20
362.072
 11
552.607
 21
362.174
  0
LINE
  8
0
 10
552.607
 20
362.174
 11
552.741
 21
362.256
  0
LINE
  8
0
 10
552.741
 20
362.256
 11
552.886
 21
362.316
  0
LINE
  8
0
 10
552.886
 20
362.316
 11
553.039
 21
362.353
  0
LINE
  8
0
 10
553.039
 20
362.353
 11
553.195
 21
362.365
  0
LINE
  8
0
 10
553.195
 20
362.365
 11
553.351
 21
362.353
  0
LINE
  8
0
 10
553.351
 20
362.353
 11
553.504
 21
362.316
  0
LINE
  8
0
 10
553.504
 20
362.316
 11
553.649
 21
362.256
  0
LINE
  8
0
 10
553.649
 20
362.256
 11
553.783
 21
362.174
  0
LINE
  8
0
 10
553.783
 20
362.174
 11
553.902
 21
362.072
  0
LINE
  8
0
 10
553.902
 20
362.072
 11
554.004
 21
361.953
  0
LINE
  8
0
 10
554.004
 20
361.953
 11
554.086
 21
361.819
  0
LINE
  8
0
 10
554.086
 20
361.819
 11
554.146
 21
361.674
  0
LINE
  8
0
 10
554.146
 20
361.674
 11
554.183
 21
361.521
  0
LINE
  8
0
 10
554.183
 20
361.521
 11
554.195
 21
361.365
  0
LINE
  8
0
 10
554.195
 20
361.365
 11
554.183
 21
361.209
  0
LINE
  8
0
 10
554.183
 20
361.209
 11
554.146
 21
361.056
  0
LINE
  8
0
 10
554.146
 20
361.056
 11
554.086
 21
360.911
  0
LINE
  8
0
 10
554.086
 20
360.911
 11
554.004
 21
360.777
  0
LINE
  8
0
 10
554.004
 20
360.777
 11
553.902
 21
360.658
  0
LINE
  8
0
 10
553.902
 20
360.658
 11
553.783
 21
360.556
  0
LINE
  8
0
 10
553.783
 20
360.556
 11
553.649
 21
360.474
  0
LINE
  8
0
 10
553.649
 20
360.474
 11
553.504
 21
360.414
  0
LINE
  8
0
 10
553.504
 20
360.414
 11
553.351
 21
360.377
  0
LINE
  8
0
 10
553.351
 20
360.377
 11
553.195
 21
360.365
  0
LINE
  8
0
 10
553.195
 20
360.365
 11
553.039
 21
360.377
  0
LINE
  8
0
 10
582.249
 20
360.377
 11
582.096
 21
360.414
  0
LINE
  8
0
 10
582.096
 20
360.414
 11
581.951
 21
360.474
  0
LINE
  8
0
 10
581.951
 20
360.474
 11
581.817
 21
360.556
  0
LINE
  8
0
 10
581.817
 20
360.556
 11
581.698
 21
360.658
  0
LINE
  8
0
 10
581.698
 20
360.658
 11
581.596
 21
360.777
  0
LINE
  8
0
 10
581.596
 20
360.777
 11
581.514
 21
360.911
  0
LINE
  8
0
 10
581.514
 20
360.911
 11
581.454
 21
361.056
  0
LINE
  8
0
 10
581.454
 20
361.056
 11
581.417
 21
361.209
  0
LINE
  8
0
 10
581.417
 20
361.209
 11
581.405
 21
361.365
  0
LINE
  8
0
 10
581.405
 20
361.365
 11
581.417
 21
361.521
  0
LINE
  8
0
 10
581.417
 20
361.521
 11
581.454
 21
361.674
  0
LINE
  8
0
 10
581.454
 20
361.674
 11
581.514
 21
361.819
  0
LINE
  8
0
 10
581.514
 20
361.819
 11
581.596
 21
361.953
  0
LINE
  8
0
 10
581.596
 20
361.953
 11
581.698
 21
362.072
  0
LINE
  8
0
 10
581.698
 20
362.072
 11
581.817
 21
362.174
  0
LINE
  8
0
 10
581.817
 20
362.174
 11
581.951
 21
362.256
  0
LINE
  8
0
 10
581.951
 20
362.256
 11
582.096
 21
362.316
  0
LINE
  8
0
 10
582.096
 20
362.316
 11
582.249
 21
362.353
  0
LINE
  8
0
 10
582.249
 20
362.353
 11
582.405
 21
362.365
  0
LINE
  8
0
 10
582.405
 20
362.365
 11
582.561
 21
362.353
  0
LINE
  8
0
 10
582.561
 20
362.353
 11
582.714
 21
362.316
  0
LINE
  8
0
 10
582.714
 20
362.316
 11
582.859
 21
362.256
  0
LINE
  8
0
 10
582.859
 20
362.256
 11
582.993
 21
362.174
  0
LINE
  8
0
 10
582.993
 20
362.174
 11
583.112
 21
362.072
  0
LINE
  8
0
 10
583.112
 20
362.072
 11
583.214
 21
361.953
  0
LINE
  8
0
 10
583.214
 20
361.953
 11
583.296
 21
361.819
  0
LINE
  8
0
 10
583.296
 20
361.819
 11
583.356
 21
361.674
  0
LINE
  8
0
 10
583.356
 20
361.674
 11
583.393
 21
361.521
  0
LINE
  8
0
 10
583.393
 20
361.521
 11
583.405
 21
361.365
  0
LINE
  8
0
 10
583.405
 20
361.365
 11
583.393
 21
361.209
  0
LINE
  8
0
 10
583.393
 20
361.209
 11
583.356
 21
361.056
  0
LINE
  8
0
 10
583.356
 20
361.056
 11
583.296
 21
360.911
  0
LINE
  8
0
 10
583.296
 20
360.911
 11
583.214
 21
360.777
  0
LINE
  8
0
 10
583.214
 20
360.777
 11
583.112
 21
360.658
  0
LINE
  8
0
 10
583.112
 20
360.658
 11
582.993
 21
360.556
  0
LINE
  8
0
 10
582.993
 20
360.556
 11
582.859
 21
360.474
  0
LINE
  8
0
 10
582.859
 20
360.474
 11
582.714
 21
360.414
  0
LINE
  8
0
 10
582.714
 20
360.414
 11
582.561
 21
360.377
  0
LINE
  8
0
 10
582.561
 20
360.377
 11
582.405
 21
360.365
  0
LINE
  8
0
 10
582.405
 20
360.365
 11
582.249
 21
360.377
  0
LINE
  8
0
 10
582.249
 20
341.967
 11
582.096
 21
342.004
  0
LINE
  8
0
 10
582.096
 20
342.004
 11
581.951
 21
342.064
  0
LINE
  8
0
 10
581.951
 20
342.064
 11
581.817
 21
342.146
  0
LINE
  8
0
 10
581.817
 20
342.146
 11
581.698
 21
342.248
  0
LINE
  8
0
 10
581.698
 20
342.248
 11
581.596
 21
342.367
  0
LINE
  8
0
 10
581.596
 20
342.367
 11
581.514
 21
342.501
  0
LINE
  8
0
 10
581.514
 20
342.501
 11
581.454
 21
342.646
  0
LINE
  8
0
 10
581.454
 20
342.646
 11
581.417
 21
342.799
  0
LINE
  8
0
 10
581.417
 20
342.799
 11
581.405
 21
342.955
  0
LINE
  8
0
 10
581.405
 20
342.955
 11
581.417
 21
343.111
  0
LINE
  8
0
 10
581.417
 20
343.111
 11
581.454
 21
343.264
  0
LINE
  8
0
 10
581.454
 20
343.264
 11
581.514
 21
343.409
  0
LINE
  8
0
 10
581.514
 20
343.409
 11
581.596
 21
343.543
  0
LINE
  8
0
 10
581.596
 20
343.543
 11
581.698
 21
343.662
  0
LINE
  8
0
 10
581.698
 20
343.662
 11
581.817
 21
343.764
  0
LINE
  8
0
 10
581.817
 20
343.764
 11
581.951
 21
343.846
  0
LINE
  8
0
 10
581.951
 20
343.846
 11
582.096
 21
343.906
  0
LINE
  8
0
 10
582.096
 20
343.906
 11
582.249
 21
343.943
  0
LINE
  8
0
 10
582.249
 20
343.943
 11
582.405
 21
343.955
  0
LINE
  8
0
 10
582.405
 20
343.955
 11
582.561
 21
343.943
  0
LINE
  8
0
 10
582.561
 20
343.943
 11
582.714
 21
343.906
  0
LINE
  8
0
 10
582.714
 20
343.906
 11
582.859
 21
343.846
  0
LINE
  8
0
 10
582.859
 20
343.846
 11
582.993
 21
343.764
  0
LINE
  8
0
 10
582.993
 20
343.764
 11
583.112
 21
343.662
  0
LINE
  8
0
 10
583.112
 20
343.662
 11
583.214
 21
343.543
  0
LINE
  8
0
 10
583.214
 20
343.543
 11
583.296
 21
343.409
  0
LINE
  8
0
 10
583.296
 20
343.409
 11
583.356
 21
343.264
  0
LINE
  8
0
 10
583.356
 20
343.264
 11
583.393
 21
343.111
  0
LINE
  8
0
 10
583.393
 20
343.111
 11
583.405
 21
342.955
  0
LINE
  8
0
 10
583.405
 20
342.955
 11
583.393
 21
342.799
  0
LINE
  8
0
 10
583.393
 20
342.799
 11
583.356
 21
342.646
  0
LINE
  8
0
 10
583.356
 20
342.646
 11
583.296
 21
342.501
  0
LINE
  8
0
 10
583.296
 20
342.501
 11
583.214
 21
342.367
  0
LINE
  8
0
 10
583.214
 20
342.367
 11
583.112
 21
342.248
  0
LINE
  8
0
 10
583.112
 20
342.248
 11
582.993
 21
342.146
  0
LINE
  8
0
 10
582.993
 20
342.146
 11
582.859
 21
342.064
  0
LINE
  8
0
 10
582.859
 20
342.064
 11
582.714
 21
342.004
  0
LINE
  8
0
 10
582.714
 20
342.004
 11
582.561
 21
341.967
  0
LINE
  8
0
 10
582.561
 20
341.967
 11
582.405
 21
341.955
  0
LINE
  8
0
 10
582.405
 20
341.955
 11
582.249
 21
341.967
  0
LINE
  8
0
 10
553.039
 20
341.967
 11
552.886
 21
342.004
  0
LINE
  8
0
 10
552.886
 20
342.004
 11
552.741
 21
342.064
  0
LINE
  8
0
 10
552.741
 20
342.064
 11
552.607
 21
342.146
  0
LINE
  8
0
 10
552.607
 20
342.146
 11
552.488
 21
342.248
  0
LINE
  8
0
 10
552.488
 20
342.248
 11
552.386
 21
342.367
  0
LINE
  8
0
 10
552.386
 20
342.367
 11
552.304
 21
342.501
  0
LINE
  8
0
 10
552.304
 20
342.501
 11
552.244
 21
342.646
  0
LINE
  8
0
 10
552.244
 20
342.646
 11
552.207
 21
342.799
  0
LINE
  8
0
 10
552.207
 20
342.799
 11
552.195
 21
342.955
  0
LINE
  8
0
 10
552.195
 20
342.955
 11
552.207
 21
343.111
  0
LINE
  8
0
 10
552.207
 20
343.111
 11
552.244
 21
343.264
  0
LINE
  8
0
 10
552.244
 20
343.264
 11
552.304
 21
343.409
  0
LINE
  8
0
 10
552.304
 20
343.409
 11
552.386
 21
343.543
  0
LINE
  8
0
 10
552.386
 20
343.543
 11
552.488
 21
343.662
  0
LINE
  8
0
 10
552.488
 20
343.662
 11
552.607
 21
343.764
  0
LINE
  8
0
 10
552.607
 20
343.764
 11
552.741
 21
343.846
  0
LINE
  8
0
 10
552.741
 20
343.846
 11
552.886
 21
343.906
  0
LINE
  8
0
 10
552.886
 20
343.906
 11
553.039
 21
343.943
  0
LINE
  8
0
 10
553.039
 20
343.943
 11
553.195
 21
343.955
  0
LINE
  8
0
 10
553.195
 20
343.955
 11
553.351
 21
343.943
  0
LINE
  8
0
 10
553.351
 20
343.943
 11
553.504
 21
343.906
  0
LINE
  8
0
 10
553.504
 20
343.906
 11
553.649
 21
343.846
  0
LINE
  8
0
 10
553.649
 20
343.846
 11
553.783
 21
343.764
  0
LINE
  8
0
 10
553.783
 20
343.764
 11
553.902
 21
343.662
  0
LINE
  8
0
 10
553.902
 20
343.662
 11
554.004
 21
343.543
  0
LINE
  8
0
 10
554.004
 20
343.543
 11
554.086
 21
343.409
  0
LINE
  8
0
 10
554.086
 20
343.409
 11
554.146
 21
343.264
  0
LINE
  8
0
 10
554.146
 20
343.264
 11
554.183
 21
343.111
  0
LINE
  8
0
 10
554.183
 20
343.111
 11
554.195
 21
342.955
  0
LINE
  8
0
 10
554.195
 20
342.955
 11
554.183
 21
342.799
  0
LINE
  8
0
 10
554.183
 20
342.799
 11
554.146
 21
342.646
  0
LINE
  8
0
 10
554.146
 20
342.646
 11
554.086
 21
342.501
  0
LINE
  8
0
 10
554.086
 20
342.501
 11
554.004
 21
342.367
  0
LINE
  8
0
 10
554.004
 20
342.367
 11
553.902
 21
342.248
  0
LINE
  8
0
 10
553.902
 20
342.248
 11
553.783
 21
342.146
  0
LINE
  8
0
 10
553.783
 20
342.146
 11
553.649
 21
342.064
  0
LINE
  8
0
 10
553.649
 20
342.064
 11
553.504
 21
342.004
  0
LINE
  8
0
 10
553.504
 20
342.004
 11
553.351
 21
341.967
  0
LINE
  8
0
 10
553.351
 20
341.967
 11
553.195
 21
341.955
  0
LINE
  8
0
 10
553.195
 20
341.955
 11
553.039
 21
341.967
  0
LINE
  8
0
 10
502.778
 20
335.233
 11
502.366
 21
335.332
  0
LINE
  8
0
 10
502.366
 20
335.332
 11
501.974
 21
335.494
  0
LINE
  8
0
 10
501.974
 20
335.494
 11
501.613
 21
335.716
  0
LINE
  8
0
 10
501.613
 20
335.716
 11
501.291
 21
335.991
  0
LINE
  8
0
 10
501.291
 20
335.991
 11
501.016
 21
336.313
  0
LINE
  8
0
 10
501.016
 20
336.313
 11
500.794
 21
336.674
  0
LINE
  8
0
 10
500.794
 20
336.674
 11
500.632
 21
337.066
  0
LINE
  8
0
 10
500.632
 20
337.066
 11
500.533
 21
337.478
  0
LINE
  8
0
 10
500.533
 20
337.478
 11
500.5
 21
337.9
  0
LINE
  8
0
 10
500.5
 20
337.9
 11
500.533
 21
338.322
  0
LINE
  8
0
 10
500.533
 20
338.322
 11
500.632
 21
338.734
  0
LINE
  8
0
 10
500.632
 20
338.734
 11
500.794
 21
339.126
  0
LINE
  8
0
 10
500.794
 20
339.126
 11
501.016
 21
339.487
  0
LINE
  8
0
 10
501.016
 20
339.487
 11
501.291
 21
339.809
  0
LINE
  8
0
 10
501.291
 20
339.809
 11
501.613
 21
340.084
  0
LINE
  8
0
 10
501.613
 20
340.084
 11
501.974
 21
340.306
  0
LINE
  8
0
 10
501.974
 20
340.306
 11
502.366
 21
340.468
  0
LINE
  8
0
 10
502.366
 20
340.468
 11
502.778
 21
340.567
  0
LINE
  8
0
 10
502.778
 20
340.567
 11
503.2
 21
340.6
  0
LINE
  8
0
 10
503.2
 20
340.6
 11
503.622
 21
340.567
  0
LINE
  8
0
 10
503.622
 20
340.567
 11
504.034
 21
340.468
  0
LINE
  8
0
 10
504.034
 20
340.468
 11
504.426
 21
340.306
  0
LINE
  8
0
 10
504.426
 20
340.306
 11
504.787
 21
340.084
  0
LINE
  8
0
 10
504.787
 20
340.084
 11
505.109
 21
339.809
  0
LINE
  8
0
 10
505.109
 20
339.809
 11
505.384
 21
339.487
  0
LINE
  8
0
 10
505.384
 20
339.487
 11
505.606
 21
339.126
  0
LINE
  8
0
 10
505.606
 20
339.126
 11
505.768
 21
338.734
  0
LINE
  8
0
 10
505.768
 20
338.734
 11
505.867
 21
338.322
  0
LINE
  8
0
 10
505.867
 20
338.322
 11
505.9
 21
337.9
  0
LINE
  8
0
 10
505.9
 20
337.9
 11
505.867
 21
337.478
  0
LINE
  8
0
 10
505.867
 20
337.478
 11
505.768
 21
337.066
  0
LINE
  8
0
 10
505.768
 20
337.066
 11
505.606
 21
336.674
  0
LINE
  8
0
 10
505.606
 20
336.674
 11
505.384
 21
336.313
  0
LINE
  8
0
 10
505.384
 20
336.313
 11
505.109
 21
335.991
  0
LINE
  8
0
 10
505.109
 20
335.991
 11
504.787
 21
335.716
  0
LINE
  8
0
 10
504.787
 20
335.716
 11
504.426
 21
335.494
  0
LINE
  8
0
 10
504.426
 20
335.494
 11
504.034
 21
335.332
  0
LINE
  8
0
 10
504.034
 20
335.332
 11
503.622
 21
335.233
  0
LINE
  8
0
 10
503.622
 20
335.233
 11
503.2
 21
335.2
  0
LINE
  8
0
 10
503.2
 20
335.2
 11
502.778
 21
335.233
  0
LINE
  8
0
 10
631.978
 20
335.233
 11
631.566
 21
335.332
  0
LINE
  8
0
 10
631.566
 20
335.332
 11
631.174
 21
335.494
  0
LINE
  8
0
 10
631.174
 20
335.494
 11
630.813
 21
335.716
  0
LINE
  8
0
 10
630.813
 20
335.716
 11
630.491
 21
335.991
  0
LINE
  8
0
 10
630.491
 20
335.991
 11
630.216
 21
336.313
  0
LINE
  8
0
 10
630.216
 20
336.313
 11
629.994
 21
336.674
  0
LINE
  8
0
 10
629.994
 20
336.674
 11
629.832
 21
337.066
  0
LINE
  8
0
 10
629.832
 20
337.066
 11
629.733
 21
337.478
  0
LINE
  8
0
 10
629.733
 20
337.478
 11
629.7
 21
337.9
  0
LINE
  8
0
 10
629.7
 20
337.9
 11
629.733
 21
338.322
  0
LINE
  8
0
 10
629.733
 20
338.322
 11
629.832
 21
338.734
  0
LINE
  8
0
 10
629.832
 20
338.734
 11
629.994
 21
339.126
  0
LINE
  8
0
 10
629.994
 20
339.126
 11
630.216
 21
339.487
  0
LINE
  8
0
 10
630.216
 20
339.487
 11
630.491
 21
339.809
  0
LINE
  8
0
 10
630.491
 20
339.809
 11
630.813
 21
340.084
  0
LINE
  8
0
 10
630.813
 20
340.084
 11
631.174
 21
340.306
  0
LINE
  8
0
 10
631.174
 20
340.306
 11
631.566
 21
340.468
  0
LINE
  8
0
 10
631.566
 20
340.468
 11
631.978
 21
340.567
  0
LINE
  8
0
 10
631.978
 20
340.567
 11
632.4
 21
340.6
  0
LINE
  8
0
 10
632.4
 20
340.6
 11
632.822
 21
340.567
  0
LINE
  8
0
 10
632.822
 20
340.567
 11
633.234
 21
340.468
  0
LINE
  8
0
 10
633.234
 20
340.468
 11
633.626
 21
340.306
  0
LINE
  8
0
 10
633.626
 20
340.306
 11
633.987
 21
340.084
  0
LINE
  8
0
 10
633.987
 20
340.084
 11
634.309
 21
339.809
  0
LINE
  8
0
 10
634.309
 20
339.809
 11
634.584
 21
339.487
  0
LINE
  8
0
 10
634.584
 20
339.487
 11
634.806
 21
339.126
  0
LINE
  8
0
 10
634.806
 20
339.126
 11
634.968
 21
338.734
  0
LINE
  8
0
 10
634.968
 20
338.734
 11
635.067
 21
338.322
  0
LINE
  8
0
 10
635.067
 20
338.322
 11
635.1
 21
337.9
  0
LINE
  8
0
 10
635.1
 20
337.9
 11
635.067
 21
337.478
  0
LINE
  8
0
 10
635.067
 20
337.478
 11
634.968
 21
337.066
  0
LINE
  8
0
 10
634.968
 20
337.066
 11
634.806
 21
336.674
  0
LINE
  8
0
 10
634.806
 20
336.674
 11
634.584
 21
336.313
  0
LINE
  8
0
 10
634.584
 20
336.313
 11
634.309
 21
335.991
  0
LINE
  8
0
 10
634.309
 20
335.991
 11
633.987
 21
335.716
  0
LINE
  8
0
 10
633.987
 20
335.716
 11
633.626
 21
335.494
  0
LINE
  8
0
 10
633.626
 20
335.494
 11
633.234
 21
335.332
  0
LINE
  8
0
 10
633.234
 20
335.332
 11
632.822
 21
335.233
  0
LINE
  8
0
 10
632.822
 20
335.233
 11
632.4
 21
335.2
  0
LINE
  8
0
 10
632.4
 20
335.2
 11
631.978
 21
335.233
  0
LINE
  8
0
 10
652.4
 20
312.4
 11
652.4
 21
334.4
  0
LINE
  8
0
 10
652.4
 20
334.4
 11
657.6
 21
334.4
  0
LINE
  8
0
 10
657.6
 20
334.4
 11
657.6
 21
312.4
  0
LINE
  8
0
 10
657.6
 20
312.4
 11
652.4
 21
312.4
  0
LINE
  8
0
 10
478
 20
312.4
 11
478
 21
334.4
  0
LINE
  8
0
 10
478
 20
334.4
 11
483.2
 21
334.4
  0
LINE
  8
0
 10
483.2
 20
334.4
 11
483.2
 21
312.4
  0
LINE
  8
0
 10
483.2
 20
312.4
 11
478
 21
312.4
  0
LINE
  8
0
 10
631.978
 20
320.233
 11
631.566
 21
320.332
  0
LINE
  8
0
 10
631.566
 20
320.332
 11
631.174
 21
320.494
  0
LINE
  8
0
 10
631.174
 20
320.494
 11
630.813
 21
320.716
  0
LINE
  8
0
 10
630.813
 20
320.716
 11
630.491
 21
320.991
  0
LINE
  8
0
 10
630.491
 20
320.991
 11
630.216
 21
321.313
  0
LINE
  8
0
 10
630.216
 20
321.313
 11
629.994
 21
321.674
  0
LINE
  8
0
 10
629.994
 20
321.674
 11
629.832
 21
322.066
  0
LINE
  8
0
 10
629.832
 20
322.066
 11
629.733
 21
322.478
  0
LINE
  8
0
 10
629.733
 20
322.478
 11
629.7
 21
322.9
  0
LINE
  8
0
 10
629.7
 20
322.9
 11
629.733
 21
323.322
  0
LINE
  8
0
 10
629.733
 20
323.322
 11
629.832
 21
323.734
  0
LINE
  8
0
 10
629.832
 20
323.734
 11
629.994
 21
324.126
  0
LINE
  8
0
 10
629.994
 20
324.126
 11
630.216
 21
324.487
  0
LINE
  8
0
 10
630.216
 20
324.487
 11
630.491
 21
324.809
  0
LINE
  8
0
 10
630.491
 20
324.809
 11
630.813
 21
325.084
  0
LINE
  8
0
 10
630.813
 20
325.084
 11
631.174
 21
325.306
  0
LINE
  8
0
 10
631.174
 20
325.306
 11
631.566
 21
325.468
  0
LINE
  8
0
 10
631.566
 20
325.468
 11
631.978
 21
325.567
  0
LINE
  8
0
 10
631.978
 20
325.567
 11
632.4
 21
325.6
  0
LINE
  8
0
 10
632.4
 20
325.6
 11
632.822
 21
325.567
  0
LINE
  8
0
 10
632.822
 20
325.567
 11
633.234
 21
325.468
  0
LINE
  8
0
 10
633.234
 20
325.468
 11
633.626
 21
325.306
  0
LINE
  8
0
 10
633.626
 20
325.306
 11
633.987
 21
325.084
  0
LINE
  8
0
 10
633.987
 20
325.084
 11
634.309
 21
324.809
  0
LINE
  8
0
 10
634.309
 20
324.809
 11
634.584
 21
324.487
  0
LINE
  8
0
 10
634.584
 20
324.487
 11
634.806
 21
324.126
  0
LINE
  8
0
 10
634.806
 20
324.126
 11
634.968
 21
323.734
  0
LINE
  8
0
 10
634.968
 20
323.734
 11
635.067
 21
323.322
  0
LINE
  8
0
 10
635.067
 20
323.322
 11
635.1
 21
322.9
  0
LINE
  8
0
 10
635.1
 20
322.9
 11
635.067
 21
322.478
  0
LINE
  8
0
 10
635.067
 20
322.478
 11
634.968
 21
322.066
  0
LINE
  8
0
 10
634.968
 20
322.066
 11
634.806
 21
321.674
  0
LINE
  8
0
 10
634.806
 20
321.674
 11
634.584
 21
321.313
  0
LINE
  8
0
 10
634.584
 20
321.313
 11
634.309
 21
320.991
  0
LINE
  8
0
 10
634.309
 20
320.991
 11
633.987
 21
320.716
  0
LINE
  8
0
 10
633.987
 20
320.716
 11
633.626
 21
320.494
  0
LINE
  8
0
 10
633.626
 20
320.494
 11
633.234
 21
320.332
  0
LINE
  8
0
 10
633.234
 20
320.332
 11
632.822
 21
320.233
  0
LINE
  8
0
 10
632.822
 20
320.233
 11
632.4
 21
320.2
  0
LINE
  8
0
 10
632.4
 20
320.2
 11
631.978
 21
320.233
  0
LINE
  8
0
 10
502.778
 20
320.233
 11
502.366
 21
320.332
  0
LINE
  8
0
 10
502.366
 20
320.332
 11
501.974
 21
320.494
  0
LINE
  8
0
 10
501.974
 20
320.494
 11
501.613
 21
320.716
  0
LINE
  8
0
 10
501.613
 20
320.716
 11
501.291
 21
320.991
  0
LINE
  8
0
 10
501.291
 20
320.991
 11
501.016
 21
321.313
  0
LINE
  8
0
 10
501.016
 20
321.313
 11
500.794
 21
321.674
  0
LINE
  8
0
 10
500.794
 20
321.674
 11
500.632
 21
322.066
  0
LINE
  8
0
 10
500.632
 20
322.066
 11
500.533
 21
322.478
  0
LINE
  8
0
 10
500.533
 20
322.478
 11
500.5
 21
322.9
  0
LINE
  8
0
 10
500.5
 20
322.9
 11
500.533
 21
323.322
  0
LINE
  8
0
 10
500.533
 20
323.322
 11
500.632
 21
323.734
  0
LINE
  8
0
 10
500.632
 20
323.734
 11
500.794
 21
324.126
  0
LINE
  8
0
 10
500.794
 20
324.126
 11
501.016
 21
324.487
  0
LINE
  8
0
 10
501.016
 20
324.487
 11
501.291
 21
324.809
  0
LINE
  8
0
 10
501.291
 20
324.809
 11
501.613
 21
325.084
  0
LINE
  8
0
 10
501.613
 20
325.084
 11
501.974
 21
325.306
  0
LINE
  8
0
 10
501.974
 20
325.306
 11
502.366
 21
325.468
  0
LINE
  8
0
 10
502.366
 20
325.468
 11
502.778
 21
325.567
  0
LINE
  8
0
 10
502.778
 20
325.567
 11
503.2
 21
325.6
  0
LINE
  8
0
 10
503.2
 20
325.6
 11
503.622
 21
325.567
  0
LINE
  8
0
 10
503.622
 20
325.567
 11
504.034
 21
325.468
  0
LINE
  8
0
 10
504.034
 20
325.468
 11
504.426
 21
325.306
  0
LINE
  8
0
 10
504.426
 20
325.306
 11
504.787
 21
325.084
  0
LINE
  8
0
 10
504.787
 20
325.084
 11
505.109
 21
324.809
  0
LINE
  8
0
 10
505.109
 20
324.809
 11
505.384
 21
324.487
  0
LINE
  8
0
 10
505.384
 20
324.487
 11
505.606
 21
324.126
  0
LINE
  8
0
 10
505.606
 20
324.126
 11
505.768
 21
323.734
  0
LINE
  8
0
 10
505.768
 20
323.734
 11
505.867
 21
323.322
  0
LINE
  8
0
 10
505.867
 20
323.322
 11
505.9
 21
322.9
  0
LINE
  8
0
 10
505.9
 20
322.9
 11
505.867
 21
322.478
  0
LINE
  8
0
 10
505.867
 20
322.478
 11
505.768
 21
322.066
  0
LINE
  8
0
 10
505.768
 20
322.066
 11
505.606
 21
321.674
  0
LINE
  8
0
 10
505.606
 20
321.674
 11
505.384
 21
321.313
  0
LINE
  8
0
 10
505.384
 20
321.313
 11
505.109
 21
320.991
  0
LINE
  8
0
 10
505.109
 20
320.991
 11
504.787
 21
320.716
  0
LINE
  8
0
 10
504.787
 20
320.716
 11
504.426
 21
320.494
  0
LINE
  8
0
 10
504.426
 20
320.494
 11
504.034
 21
320.332
  0
LINE
  8
0
 10
504.034
 20
320.332
 11
503.622
 21
320.233
  0
LINE
  8
0
 10
503.622
 20
320.233
 11
503.2
 21
320.2
  0
LINE
  8
0
 10
503.2
 20
320.2
 11
502.778
 21
320.233
  0
LINE
  8
0
 10
492.887
 20
320.925
 11
492.582
 21
320.998
  0
LINE
  8
0
 10
492.582
 20
320.998
 11
492.292
 21
321.118
  0
LINE
  8
0
 10
492.292
 20
321.118
 11
492.024
 21
321.282
  0
LINE
  8
0
 10
492.024
 20
321.282
 11
491.786
 21
321.486
  0
LINE
  8
0
 10
491.786
 20
321.486
 11
491.582
 21
321.724
  0
LINE
  8
0
 10
491.582
 20
321.724
 11
491.418
 21
321.992
  0
LINE
  8
0
 10
491.418
 20
321.992
 11
491.298
 21
322.282
  0
LINE
  8
0
 10
491.298
 20
322.282
 11
491.225
 21
322.587
  0
LINE
  8
0
 10
491.225
 20
322.587
 11
491.2
 21
322.9
  0
LINE
  8
0
 10
491.2
 20
322.9
 11
491.225
 21
323.213
  0
LINE
  8
0
 10
491.225
 20
323.213
 11
491.298
 21
323.518
  0
LINE
  8
0
 10
491.298
 20
323.518
 11
491.418
 21
323.808
  0
LINE
  8
0
 10
491.418
 20
323.808
 11
491.582
 21
324.076
  0
LINE
  8
0
 10
491.582
 20
324.076
 11
491.786
 21
324.314
  0
LINE
  8
0
 10
491.786
 20
324.314
 11
492.024
 21
324.518
  0
LINE
  8
0
 10
492.024
 20
324.518
 11
492.292
 21
324.682
  0
LINE
  8
0
 10
492.292
 20
324.682
 11
492.582
 21
324.802
  0
LINE
  8
0
 10
492.582
 20
324.802
 11
492.887
 21
324.875
  0
LINE
  8
0
 10
492.887
 20
324.875
 11
493.2
 21
324.9
  0
LINE
  8
0
 10
493.2
 20
324.9
 11
493.513
 21
324.875
  0
LINE
  8
0
 10
493.513
 20
324.875
 11
493.818
 21
324.802
  0
LINE
  8
0
 10
493.818
 20
324.802
 11
494.108
 21
324.682
  0
LINE
  8
0
 10
494.108
 20
324.682
 11
494.376
 21
324.518
  0
LINE
  8
0
 10
494.376
 20
324.518
 11
494.614
 21
324.314
  0
LINE
  8
0
 10
494.614
 20
324.314
 11
494.818
 21
324.076
  0
LINE
  8
0
 10
494.818
 20
324.076
 11
494.982
 21
323.808
  0
LINE
  8
0
 10
494.982
 20
323.808
 11
495.102
 21
323.518
  0
LINE
  8
0
 10
495.102
 20
323.518
 11
495.175
 21
323.213
  0
LINE
  8
0
 10
495.175
 20
323.213
 11
495.2
 21
322.9
  0
LINE
  8
0
 10
495.2
 20
322.9
 11
495.175
 21
322.587
  0
LINE
  8
0
 10
495.175
 20
322.587
 11
495.102
 21
322.282
  0
LINE
  8
0
 10
495.102
 20
322.282
 11
494.982
 21
321.992
  0
LINE
  8
0
 10
494.982
 20
321.992
 11
494.818
 21
321.724
  0
LINE
  8
0
 10
494.818
 20
321.724
 11
494.614
 21
321.486
  0
LINE
  8
0
 10
494.614
 20
321.486
 11
494.376
 21
321.282
  0
LINE
  8
0
 10
494.376
 20
321.282
 11
494.108
 21
321.118
  0
LINE
  8
0
 10
494.108
 20
321.118
 11
493.818
 21
320.998
  0
LINE
  8
0
 10
493.818
 20
320.998
 11
493.513
 21
320.925
  0
LINE
  8
0
 10
493.513
 20
320.925
 11
493.2
 21
320.9
  0
LINE
  8
0
 10
493.2
 20
320.9
 11
492.887
 21
320.925
  0
LINE
  8
0
 10
622.087
 20
320.925
 11
621.782
 21
320.998
  0
LINE
  8
0
 10
621.782
 20
320.998
 11
621.492
 21
321.118
  0
LINE
  8
0
 10
621.492
 20
321.118
 11
621.224
 21
321.282
  0
LINE
  8
0
 10
621.224
 20
321.282
 11
620.986
 21
321.486
  0
LINE
  8
0
 10
620.986
 20
321.486
 11
620.782
 21
321.724
  0
LINE
  8
0
 10
620.782
 20
321.724
 11
620.618
 21
321.992
  0
LINE
  8
0
 10
620.618
 20
321.992
 11
620.498
 21
322.282
  0
LINE
  8
0
 10
620.498
 20
322.282
 11
620.425
 21
322.587
  0
LINE
  8
0
 10
620.425
 20
322.587
 11
620.4
 21
322.9
  0
LINE
  8
0
 10
620.4
 20
322.9
 11
620.425
 21
323.213
  0
LINE
  8
0
 10
620.425
 20
323.213
 11
620.498
 21
323.518
  0
LINE
  8
0
 10
620.498
 20
323.518
 11
620.618
 21
323.808
  0
LINE
  8
0
 10
620.618
 20
323.808
 11
620.782
 21
324.076
  0
LINE
  8
0
 10
620.782
 20
324.076
 11
620.986
 21
324.314
  0
LINE
  8
0
 10
620.986
 20
324.314
 11
621.224
 21
324.518
  0
LINE
  8
0
 10
621.224
 20
324.518
 11
621.492
 21
324.682
  0
LINE
  8
0
 10
621.492
 20
324.682
 11
621.782
 21
324.802
  0
LINE
  8
0
 10
621.782
 20
324.802
 11
622.087
 21
324.875
  0
LINE
  8
0
 10
622.087
 20
324.875
 11
622.4
 21
324.9
  0
LINE
  8
0
 10
622.4
 20
324.9
 11
622.713
 21
324.875
  0
LINE
  8
0
 10
622.713
 20
324.875
 11
623.018
 21
324.802
  0
LINE
  8
0
 10
623.018
 20
324.802
 11
623.308
 21
324.682
  0
LINE
  8
0
 10
623.308
 20
324.682
 11
623.576
 21
324.518
  0
LINE
  8
0
 10
623.576
 20
324.518
 11
623.814
 21
324.314
  0
LINE
  8
0
 10
623.814
 20
324.314
 11
624.018
 21
324.076
  0
LINE
  8
0
 10
624.018
 20
324.076
 11
624.182
 21
323.808
  0
LINE
  8
0
 10
624.182
 20
323.808
 11
624.302
 21
323.518
  0
LINE
  8
0
 10
624.302
 20
323.518
 11
624.375
 21
323.213
  0
LINE
  8
0
 10
624.375
 20
323.213
 11
624.4
 21
322.9
  0
LINE
  8
0
 10
624.4
 20
322.9
 11
624.375
 21
322.587
  0
LINE
  8
0
 10
624.375
 20
322.587
 11
624.302
 21
322.282
  0
LINE
  8
0
 10
624.302
 20
322.282
 11
624.182
 21
321.992
  0
LINE
  8
0
 10
624.182
 20
321.992
 11
624.018
 21
321.724
  0
LINE
  8
0
 10
624.018
 20
321.724
 11
623.814
 21
321.486
  0
LINE
  8
0
 10
623.814
 20
321.486
 11
623.576
 21
321.282
  0
LINE
  8
0
 10
623.576
 20
321.282
 11
623.308
 21
321.118
  0
LINE
  8
0
 10
623.308
 20
321.118
 11
623.018
 21
320.998
  0
LINE
  8
0
 10
623.018
 20
320.998
 11
622.713
 21
320.925
  0
LINE
  8
0
 10
622.713
 20
320.925
 11
622.4
 21
320.9
  0
LINE
  8
0
 10
622.4
 20
320.9
 11
622.087
 21
320.925
  0
LINE
  8
0
 10
552.042
 20
315.27
 11
551.79
 21
315.331
  0
LINE
  8
0
 10
551.79
 20
315.331
 11
551.551
 21
315.43
  0
LINE
  8
0
 10
551.551
 20
315.43
 11
551.33
 21
315.565
  0
LINE
  8
0
 10
551.33
 20
315.565
 11
551.133
 21
315.733
  0
LINE
  8
0
 10
551.133
 20
315.733
 11
550.965
 21
315.93
  0
LINE
  8
0
 10
550.965
 20
315.93
 11
550.83
 21
316.151
  0
LINE
  8
0
 10
550.83
 20
316.151
 11
550.731
 21
316.39
  0
LINE
  8
0
 10
550.731
 20
316.39
 11
550.67
 21
316.642
  0
LINE
  8
0
 10
550.67
 20
316.642
 11
550.65
 21
316.9
  0
LINE
  8
0
 10
550.65
 20
316.9
 11
550.67
 21
317.158
  0
LINE
  8
0
 10
550.67
 20
317.158
 11
550.731
 21
317.41
  0
LINE
  8
0
 10
550.731
 20
317.41
 11
550.83
 21
317.649
  0
LINE
  8
0
 10
550.83
 20
317.649
 11
550.965
 21
317.87
  0
LINE
  8
0
 10
550.965
 20
317.87
 11
551.133
 21
318.067
  0
LINE
  8
0
 10
551.133
 20
318.067
 11
551.33
 21
318.235
  0
LINE
  8
0
 10
551.33
 20
318.235
 11
551.551
 21
318.37
  0
LINE
  8
0
 10
551.551
 20
318.37
 11
551.79
 21
318.469
  0
LINE
  8
0
 10
551.79
 20
318.469
 11
552.042
 21
318.53
  0
LINE
  8
0
 10
552.042
 20
318.53
 11
552.3
 21
318.55
  0
LINE
  8
0
 10
552.3
 20
318.55
 11
552.558
 21
318.53
  0
LINE
  8
0
 10
552.558
 20
318.53
 11
552.81
 21
318.469
  0
LINE
  8
0
 10
552.81
 20
318.469
 11
553.049
 21
318.37
  0
LINE
  8
0
 10
553.049
 20
318.37
 11
553.27
 21
318.235
  0
LINE
  8
0
 10
553.27
 20
318.235
 11
553.467
 21
318.067
  0
LINE
  8
0
 10
553.467
 20
318.067
 11
553.635
 21
317.87
  0
LINE
  8
0
 10
553.635
 20
317.87
 11
553.77
 21
317.649
  0
LINE
  8
0
 10
553.77
 20
317.649
 11
553.869
 21
317.41
  0
LINE
  8
0
 10
553.869
 20
317.41
 11
553.93
 21
317.158
  0
LINE
  8
0
 10
553.93
 20
317.158
 11
553.95
 21
316.9
  0
LINE
  8
0
 10
553.95
 20
316.9
 11
553.93
 21
316.642
  0
LINE
  8
0
 10
553.93
 20
316.642
 11
553.869
 21
316.39
  0
LINE
  8
0
 10
553.869
 20
316.39
 11
553.77
 21
316.151
  0
LINE
  8
0
 10
553.77
 20
316.151
 11
553.635
 21
315.93
  0
LINE
  8
0
 10
553.635
 20
315.93
 11
553.467
 21
315.733
  0
LINE
  8
0
 10
553.467
 20
315.733
 11
553.27
 21
315.565
  0
LINE
  8
0
 10
553.27
 20
315.565
 11
553.049
 21
315.43
  0
LINE
  8
0
 10
553.049
 20
315.43
 11
552.81
 21
315.331
  0
LINE
  8
0
 10
552.81
 20
315.331
 11
552.558
 21
315.27
  0
LINE
  8
0
 10
552.558
 20
315.27
 11
552.3
 21
315.25
  0
LINE
  8
0
 10
552.3
 20
315.25
 11
552.042
 21
315.27
  0
LINE
  8
0
 10
583.042
 20
315.27
 11
582.79
 21
315.331
  0
LINE
  8
0
 10
582.79
 20
315.331
 11
582.551
 21
315.43
  0
LINE
  8
0
 10
582.551
 20
315.43
 11
582.33
 21
315.565
  0
LINE
  8
0
 10
582.33
 20
315.565
 11
582.133
 21
315.733
  0
LINE
  8
0
 10
582.133
 20
315.733
 11
581.965
 21
315.93
  0
LINE
  8
0
 10
581.965
 20
315.93
 11
581.83
 21
316.151
  0
LINE
  8
0
 10
581.83
 20
316.151
 11
581.731
 21
316.39
  0
LINE
  8
0
 10
581.731
 20
316.39
 11
581.67
 21
316.642
  0
LINE
  8
0
 10
581.67
 20
316.642
 11
581.65
 21
316.9
  0
LINE
  8
0
 10
581.65
 20
316.9
 11
581.67
 21
317.158
  0
LINE
  8
0
 10
581.67
 20
317.158
 11
581.731
 21
317.41
  0
LINE
  8
0
 10
581.731
 20
317.41
 11
581.83
 21
317.649
  0
LINE
  8
0
 10
581.83
 20
317.649
 11
581.965
 21
317.87
  0
LINE
  8
0
 10
581.965
 20
317.87
 11
582.133
 21
318.067
  0
LINE
  8
0
 10
582.133
 20
318.067
 11
582.33
 21
318.235
  0
LINE
  8
0
 10
582.33
 20
318.235
 11
582.551
 21
318.37
  0
LINE
  8
0
 10
582.551
 20
318.37
 11
582.79
 21
318.469
  0
LINE
  8
0
 10
582.79
 20
318.469
 11
583.042
 21
318.53
  0
LINE
  8
0
 10
583.042
 20
318.53
 11
583.3
 21
318.55
  0
LINE
  8
0
 10
583.3
 20
318.55
 11
583.558
 21
318.53
  0
LINE
  8
0
 10
583.558
 20
318.53
 11
583.81
 21
318.469
  0
LINE
  8
0
 10
583.81
 20
318.469
 11
584.049
 21
318.37
  0
LINE
  8
0
 10
584.049
 20
318.37
 11
584.27
 21
318.235
  0
LINE
  8
0
 10
584.27
 20
318.235
 11
584.467
 21
318.067
  0
LINE
  8
0
 10
584.467
 20
318.067
 11
584.635
 21
317.87
  0
LINE
  8
0
 10
584.635
 20
317.87
 11
584.77
 21
317.649
  0
LINE
  8
0
 10
584.77
 20
317.649
 11
584.869
 21
317.41
  0
LINE
  8
0
 10
584.869
 20
317.41
 11
584.93
 21
317.158
  0
LINE
  8
0
 10
584.93
 20
317.158
 11
584.95
 21
316.9
  0
LINE
  8
0
 10
584.95
 20
316.9
 11
584.93
 21
316.642
  0
LINE
  8
0
 10
584.93
 20
316.642
 11
584.869
 21
316.39
  0
LINE
  8
0
 10
584.869
 20
316.39
 11
584.77
 21
316.151
  0
LINE
  8
0
 10
584.77
 20
316.151
 11
584.635
 21
315.93
  0
LINE
  8
0
 10
584.635
 20
315.93
 11
584.467
 21
315.733
  0
LINE
  8
0
 10
584.467
 20
315.733
 11
584.27
 21
315.565
  0
LINE
  8
0
 10
584.27
 20
315.565
 11
584.049
 21
315.43
  0
LINE
  8
0
 10
584.049
 20
315.43
 11
583.81
 21
315.331
  0
LINE
  8
0
 10
583.81
 20
315.331
 11
583.558
 21
315.27
  0
LINE
  8
0
 10
583.558
 20
315.27
 11
583.3
 21
315.25
  0
LINE
  8
0
 10
583.3
 20
315.25
 11
583.042
 21
315.27
  0
LINE
  8
0
 10
566.627
 20
293.992
 11
565.482
 21
294.267
  0
LINE
  8
0
 10
565.482
 20
294.267
 11
564.395
 21
294.717
  0
LINE
  8
0
 10
564.395
 20
294.717
 11
563.392
 21
295.332
  0
LINE
  8
0
 10
563.392
 20
295.332
 11
562.497
 21
296.097
  0
LINE
  8
0
 10
562.497
 20
296.097
 11
561.732
 21
296.992
  0
LINE
  8
0
 10
561.732
 20
296.992
 11
561.117
 21
297.995
  0
LINE
  8
0
 10
561.117
 20
297.995
 11
560.667
 21
299.082
  0
LINE
  8
0
 10
560.667
 20
299.082
 11
560.392
 21
300.227
  0
LINE
  8
0
 10
560.392
 20
300.227
 11
560.3
 21
301.4
  0
LINE
  8
0
 10
560.3
 20
301.4
 11
560.392
 21
302.573
  0
LINE
  8
0
 10
560.392
 20
302.573
 11
560.667
 21
303.718
  0
LINE
  8
0
 10
560.667
 20
303.718
 11
561.117
 21
304.805
  0
LINE
  8
0
 10
561.117
 20
304.805
 11
561.732
 21
305.808
  0
LINE
  8
0
 10
561.732
 20
305.808
 11
562.497
 21
306.703
  0
LINE
  8
0
 10
562.497
 20
306.703
 11
563.392
 21
307.468
  0
LINE
  8
0
 10
563.392
 20
307.468
 11
564.395
 21
308.083
  0
LINE
  8
0
 10
564.395
 20
308.083
 11
565.482
 21
308.533
  0
LINE
  8
0
 10
565.482
 20
308.533
 11
566.627
 21
308.808
  0
LINE
  8
0
 10
566.627
 20
308.808
 11
567.8
 21
308.9
  0
LINE
  8
0
 10
567.8
 20
308.9
 11
568.973
 21
308.808
  0
LINE
  8
0
 10
568.973
 20
308.808
 11
570.118
 21
308.533
  0
LINE
  8
0
 10
570.118
 20
308.533
 11
571.205
 21
308.083
  0
LINE
  8
0
 10
571.205
 20
308.083
 11
572.208
 21
307.468
  0
LINE
  8
0
 10
572.208
 20
307.468
 11
573.103
 21
306.703
  0
LINE
  8
0
 10
573.103
 20
306.703
 11
573.868
 21
305.808
  0
LINE
  8
0
 10
573.868
 20
305.808
 11
574.483
 21
304.805
  0
LINE
  8
0
 10
574.483
 20
304.805
 11
574.933
 21
303.718
  0
LINE
  8
0
 10
574.933
 20
303.718
 11
575.208
 21
302.573
  0
LINE
  8
0
 10
575.208
 20
302.573
 11
575.3
 21
301.4
  0
LINE
  8
0
 10
575.3
 20
301.4
 11
575.208
 21
300.227
  0
LINE
  8
0
 10
575.208
 20
300.227
 11
574.933
 21
299.082
  0
LINE
  8
0
 10
574.933
 20
299.082
 11
574.483
 21
297.995
  0
LINE
  8
0
 10
574.483
 20
297.995
 11
573.868
 21
296.992
  0
LINE
  8
0
 10
573.868
 20
296.992
 11
573.103
 21
296.097
  0
LINE
  8
0
 10
573.103
 20
296.097
 11
572.208
 21
295.332
  0
LINE
  8
0
 10
572.208
 20
295.332
 11
571.205
 21
294.717
  0
LINE
  8
0
 10
571.205
 20
294.717
 11
570.118
 21
294.267
  0
LINE
  8
0
 10
570.118
 20
294.267
 11
568.973
 21
293.992
  0
LINE
  8
0
 10
568.973
 20
293.992
 11
567.8
 21
293.9
  0
LINE
  8
0
 10
567.8
 20
293.9
 11
566.627
 21
293.992
  0
LINE
  8
0
 10
652.4
 20
268.4
 11
652.4
 21
290.4
  0
LINE
  8
0
 10
652.4
 20
290.4
 11
657.6
 21
290.4
  0
LINE
  8
0
 10
657.6
 20
290.4
 11
657.6
 21
268.4
  0
LINE
  8
0
 10
657.6
 20
268.4
 11
652.4
 21
268.4
  0
LINE
  8
0
 10
478
 20
268.4
 11
478
 21
290.4
  0
LINE
  8
0
 10
478
 20
290.4
 11
483.2
 21
290.4
  0
LINE
  8
0
 10
483.2
 20
290.4
 11
483.2
 21
268.4
  0
LINE
  8
0
 10
483.2
 20
268.4
 11
478
 21
268.4
  0
LINE
  8
0
 10
583.042
 20
284.27
 11
582.79
 21
284.331
  0
LINE
  8
0
 10
582.79
 20
284.331
 11
582.551
 21
284.43
  0
LINE
  8
0
 10
582.551
 20
284.43
 11
582.33
 21
284.565
  0
LINE
  8
0
 10
582.33
 20
284.565
 11
582.133
 21
284.733
  0
LINE
  8
0
 10
582.133
 20
284.733
 11
581.965
 21
284.93
  0
LINE
  8
0
 10
581.965
 20
284.93
 11
581.83
 21
285.151
  0
LINE
  8
0
 10
581.83
 20
285.151
 11
581.731
 21
285.39
  0
LINE
  8
0
 10
581.731
 20
285.39
 11
581.67
 21
285.642
  0
LINE
  8
0
 10
581.67
 20
285.642
 11
581.65
 21
285.9
  0
LINE
  8
0
 10
581.65
 20
285.9
 11
581.67
 21
286.158
  0
LINE
  8
0
 10
581.67
 20
286.158
 11
581.731
 21
286.41
  0
LINE
  8
0
 10
581.731
 20
286.41
 11
581.83
 21
286.649
  0
LINE
  8
0
 10
581.83
 20
286.649
 11
581.965
 21
286.87
  0
LINE
  8
0
 10
581.965
 20
286.87
 11
582.133
 21
287.067
  0
LINE
  8
0
 10
582.133
 20
287.067
 11
582.33
 21
287.235
  0
LINE
  8
0
 10
582.33
 20
287.235
 11
582.551
 21
287.37
  0
LINE
  8
0
 10
582.551
 20
287.37
 11
582.79
 21
287.469
  0
LINE
  8
0
 10
582.79
 20
287.469
 11
583.042
 21
287.53
  0
LINE
  8
0
 10
583.042
 20
287.53
 11
583.3
 21
287.55
  0
LINE
  8
0
 10
583.3
 20
287.55
 11
583.558
 21
287.53
  0
LINE
  8
0
 10
583.558
 20
287.53
 11
583.81
 21
287.469
  0
LINE
  8
0
 10
583.81
 20
287.469
 11
584.049
 21
287.37
  0
LINE
  8
0
 10
584.049
 20
287.37
 11
584.27
 21
287.235
  0
LINE
  8
0
 10
584.27
 20
287.235
 11
584.467
 21
287.067
  0
LINE
  8
0
 10
584.467
 20
287.067
 11
584.635
 21
286.87
  0
LINE
  8
0
 10
584.635
 20
286.87
 11
584.77
 21
286.649
  0
LINE
  8
0
 10
584.77
 20
286.649
 11
584.869
 21
286.41
  0
LINE
  8
0
 10
584.869
 20
286.41
 11
584.93
 21
286.158
  0
LINE
  8
0
 10
584.93
 20
286.158
 11
584.95
 21
285.9
  0
LINE
  8
0
 10
584.95
 20
285.9
 11
584.93
 21
285.642
  0
LINE
  8
0
 10
584.93
 20
285.642
 11
584.869
 21
285.39
  0
LINE
  8
0
 10
584.869
 20
285.39
 11
584.77
 21
285.151
  0
LINE
  8
0
 10
584.77
 20
285.151
 11
584.635
 21
284.93
  0
LINE
  8
0
 10
584.635
 20
284.93
 11
584.467
 21
284.733
  0
LINE
  8
0
 10
584.467
 20
284.733
 11
584.27
 21
284.565
  0
LINE
  8
0
 10
584.27
 20
284.565
 11
584.049
 21
284.43
  0
LINE
  8
0
 10
584.049
 20
284.43
 11
583.81
 21
284.331
  0
LINE
  8
0
 10
583.81
 20
284.331
 11
583.558
 21
284.27
  0
LINE
  8
0
 10
583.558
 20
284.27
 11
583.3
 21
284.25
  0
LINE
  8
0
 10
583.3
 20
284.25
 11
583.042
 21
284.27
  0
LINE
  8
0
 10
552.042
 20
284.27
 11
551.79
 21
284.331
  0
LINE
  8
0
 10
551.79
 20
284.331
 11
551.551
 21
284.43
  0
LINE
  8
0
 10
551.551
 20
284.43
 11
551.33
 21
284.565
  0
LINE
  8
0
 10
551.33
 20
284.565
 11
551.133
 21
284.733
  0
LINE
  8
0
 10
551.133
 20
284.733
 11
550.965
 21
284.93
  0
LINE
  8
0
 10
550.965
 20
284.93
 11
550.83
 21
285.151
  0
LINE
  8
0
 10
550.83
 20
285.151
 11
550.731
 21
285.39
  0
LINE
  8
0
 10
550.731
 20
285.39
 11
550.67
 21
285.642
  0
LINE
  8
0
 10
550.67
 20
285.642
 11
550.65
 21
285.9
  0
LINE
  8
0
 10
550.65
 20
285.9
 11
550.67
 21
286.158
  0
LINE
  8
0
 10
550.67
 20
286.158
 11
550.731
 21
286.41
  0
LINE
  8
0
 10
550.731
 20
286.41
 11
550.83
 21
286.649
  0
LINE
  8
0
 10
550.83
 20
286.649
 11
550.965
 21
286.87
  0
LINE
  8
0
 10
550.965
 20
286.87
 11
551.133
 21
287.067
  0
LINE
  8
0
 10
551.133
 20
287.067
 11
551.33
 21
287.235
  0
LINE
  8
0
 10
551.33
 20
287.235
 11
551.551
 21
287.37
  0
LINE
  8
0
 10
551.551
 20
287.37
 11
551.79
 21
287.469
  0
LINE
  8
0
 10
551.79
 20
287.469
 11
552.042
 21
287.53
  0
LINE
  8
0
 10
552.042
 20
287.53
 11
552.3
 21
287.55
  0
LINE
  8
0
 10
552.3
 20
287.55
 11
552.558
 21
287.53
  0
LINE
  8
0
 10
552.558
 20
287.53
 11
552.81
 21
287.469
  0
LINE
  8
0
 10
552.81
 20
287.469
 11
553.049
 21
287.37
  0
LINE
  8
0
 10
553.049
 20
287.37
 11
553.27
 21
287.235
  0
LINE
  8
0
 10
553.27
 20
287.235
 11
553.467
 21
287.067
  0
LINE
  8
0
 10
553.467
 20
287.067
 11
553.635
 21
286.87
  0
LINE
  8
0
 10
553.635
 20
286.87
 11
553.77
 21
286.649
  0
LINE
  8
0
 10
553.77
 20
286.649
 11
553.869
 21
286.41
  0
LINE
  8
0
 10
553.869
 20
286.41
 11
553.93
 21
286.158
  0
LINE
  8
0
 10
553.93
 20
286.158
 11
553.95
 21
285.9
  0
LINE
  8
0
 10
553.95
 20
285.9
 11
553.93
 21
285.642
  0
LINE
  8
0
 10
553.93
 20
285.642
 11
553.869
 21
285.39
  0
LINE
  8
0
 10
553.869
 20
285.39
 11
553.77
 21
285.151
  0
LINE
  8
0
 10
553.77
 20
285.151
 11
553.635
 21
284.93
  0
LINE
  8
0
 10
553.635
 20
284.93
 11
553.467
 21
284.733
  0
LINE
  8
0
 10
553.467
 20
284.733
 11
553.27
 21
284.565
  0
LINE
  8
0
 10
553.27
 20
284.565
 11
553.049
 21
284.43
  0
LINE
  8
0
 10
553.049
 20
284.43
 11
552.81
 21
284.331
  0
LINE
  8
0
 10
552.81
 20
284.331
 11
552.558
 21
284.27
  0
LINE
  8
0
 10
552.558
 20
284.27
 11
552.3
 21
284.25
  0
LINE
  8
0
 10
552.3
 20
284.25
 11
552.042
 21
284.27
  0
LINE
  8
0
 10
502.778
 20
277.233
 11
502.366
 21
277.332
  0
LINE
  8
0
 10
502.366
 20
277.332
 11
501.974
 21
277.494
  0
LINE
  8
0
 10
501.974
 20
277.494
 11
501.613
 21
277.716
  0
LINE
  8
0
 10
501.613
 20
277.716
 11
501.291
 21
277.991
  0
LINE
  8
0
 10
501.291
 20
277.991
 11
501.016
 21
278.313
  0
LINE
  8
0
 10
501.016
 20
278.313
 11
500.794
 21
278.674
  0
LINE
  8
0
 10
500.794
 20
278.674
 11
500.632
 21
279.066
  0
LINE
  8
0
 10
500.632
 20
279.066
 11
500.533
 21
279.478
  0
LINE
  8
0
 10
500.533
 20
279.478
 11
500.5
 21
279.9
  0
LINE
  8
0
 10
500.5
 20
279.9
 11
500.533
 21
280.322
  0
LINE
  8
0
 10
500.533
 20
280.322
 11
500.632
 21
280.734
  0
LINE
  8
0
 10
500.632
 20
280.734
 11
500.794
 21
281.126
  0
LINE
  8
0
 10
500.794
 20
281.126
 11
501.016
 21
281.487
  0
LINE
  8
0
 10
501.016
 20
281.487
 11
501.291
 21
281.809
  0
LINE
  8
0
 10
501.291
 20
281.809
 11
501.613
 21
282.084
  0
LINE
  8
0
 10
501.613
 20
282.084
 11
501.974
 21
282.306
  0
LINE
  8
0
 10
501.974
 20
282.306
 11
502.366
 21
282.468
  0
LINE
  8
0
 10
502.366
 20
282.468
 11
502.778
 21
282.567
  0
LINE
  8
0
 10
502.778
 20
282.567
 11
503.2
 21
282.6
  0
LINE
  8
0
 10
503.2
 20
282.6
 11
503.622
 21
282.567
  0
LINE
  8
0
 10
503.622
 20
282.567
 11
504.034
 21
282.468
  0
LINE
  8
0
 10
504.034
 20
282.468
 11
504.426
 21
282.306
  0
LINE
  8
0
 10
504.426
 20
282.306
 11
504.787
 21
282.084
  0
LINE
  8
0
 10
504.787
 20
282.084
 11
505.109
 21
281.809
  0
LINE
  8
0
 10
505.109
 20
281.809
 11
505.384
 21
281.487
  0
LINE
  8
0
 10
505.384
 20
281.487
 11
505.606
 21
281.126
  0
LINE
  8
0
 10
505.606
 20
281.126
 11
505.768
 21
280.734
  0
LINE
  8
0
 10
505.768
 20
280.734
 11
505.867
 21
280.322
  0
LINE
  8
0
 10
505.867
 20
280.322
 11
505.9
 21
279.9
  0
LINE
  8
0
 10
505.9
 20
279.9
 11
505.867
 21
279.478
  0
LINE
  8
0
 10
505.867
 20
279.478
 11
505.768
 21
279.066
  0
LINE
  8
0
 10
505.768
 20
279.066
 11
505.606
 21
278.674
  0
LINE
  8
0
 10
505.606
 20
278.674
 11
505.384
 21
278.313
  0
LINE
  8
0
 10
505.384
 20
278.313
 11
505.109
 21
277.991
  0
LINE
  8
0
 10
505.109
 20
277.991
 11
504.787
 21
277.716
  0
LINE
  8
0
 10
504.787
 20
277.716
 11
504.426
 21
277.494
  0
LINE
  8
0
 10
504.426
 20
277.494
 11
504.034
 21
277.332
  0
LINE
  8
0
 10
504.034
 20
277.332
 11
503.622
 21
277.233
  0
LINE
  8
0
 10
503.622
 20
277.233
 11
503.2
 21
277.2
  0
LINE
  8
0
 10
503.2
 20
277.2
 11
502.778
 21
277.233
  0
LINE
  8
0
 10
631.978
 20
277.233
 11
631.566
 21
277.332
  0
LINE
  8
0
 10
631.566
 20
277.332
 11
631.174
 21
277.494
  0
LINE
  8
0
 10
631.174
 20
277.494
 11
630.813
 21
277.716
  0
LINE
  8
0
 10
630.813
 20
277.716
 11
630.491
 21
277.991
  0
LINE
  8
0
 10
630.491
 20
277.991
 11
630.216
 21
278.313
  0
LINE
  8
0
 10
630.216
 20
278.313
 11
629.994
 21
278.674
  0
LINE
  8
0
 10
629.994
 20
278.674
 11
629.832
 21
279.066
  0
LINE
  8
0
 10
629.832
 20
279.066
 11
629.733
 21
279.478
  0
LINE
  8
0
 10
629.733
 20
279.478
 11
629.7
 21
279.9
  0
LINE
  8
0
 10
629.7
 20
279.9
 11
629.733
 21
280.322
  0
LINE
  8
0
 10
629.733
 20
280.322
 11
629.832
 21
280.734
  0
LINE
  8
0
 10
629.832
 20
280.734
 11
629.994
 21
281.126
  0
LINE
  8
0
 10
629.994
 20
281.126
 11
630.216
 21
281.487
  0
LINE
  8
0
 10
630.216
 20
281.487
 11
630.491
 21
281.809
  0
LINE
  8
0
 10
630.491
 20
281.809
 11
630.813
 21
282.084
  0
LINE
  8
0
 10
630.813
 20
282.084
 11
631.174
 21
282.306
  0
LINE
  8
0
 10
631.174
 20
282.306
 11
631.566
 21
282.468
  0
LINE
  8
0
 10
631.566
 20
282.468
 11
631.978
 21
282.567
  0
LINE
  8
0
 10
631.978
 20
282.567
 11
632.4
 21
282.6
  0
LINE
  8
0
 10
632.4
 20
282.6
 11
632.822
 21
282.567
  0
LINE
  8
0
 10
632.822
 20
282.567
 11
633.234
 21
282.468
  0
LINE
  8
0
 10
633.234
 20
282.468
 11
633.626
 21
282.306
  0
LINE
  8
0
 10
633.626
 20
282.306
 11
633.987
 21
282.084
  0
LINE
  8
0
 10
633.987
 20
282.084
 11
634.309
 21
281.809
  0
LINE
  8
0
 10
634.309
 20
281.809
 11
634.584
 21
281.487
  0
LINE
  8
0
 10
634.584
 20
281.487
 11
634.806
 21
281.126
  0
LINE
  8
0
 10
634.806
 20
281.126
 11
634.968
 21
280.734
  0
LINE
  8
0
 10
634.968
 20
280.734
 11
635.067
 21
280.322
  0
LINE
  8
0
 10
635.067
 20
280.322
 11
635.1
 21
279.9
  0
LINE
  8
0
 10
635.1
 20
279.9
 11
635.067
 21
279.478
  0
LINE
  8
0
 10
635.067
 20
279.478
 11
634.968
 21
279.066
  0
LINE
  8
0
 10
634.968
 20
279.066
 11
634.806
 21
278.674
  0
LINE
  8
0
 10
634.806
 20
278.674
 11
634.584
 21
278.313
  0
LINE
  8
0
 10
634.584
 20
278.313
 11
634.309
 21
277.991
  0
LINE
  8
0
 10
634.309
 20
277.991
 11
633.987
 21
277.716
  0
LINE
  8
0
 10
633.987
 20
277.716
 11
633.626
 21
277.494
  0
LINE
  8
0
 10
633.626
 20
277.494
 11
633.234
 21
277.332
  0
LINE
  8
0
 10
633.234
 20
277.332
 11
632.822
 21
277.233
  0
LINE
  8
0
 10
632.822
 20
277.233
 11
632.4
 21
277.2
  0
LINE
  8
0
 10
632.4
 20
277.2
 11
631.978
 21
277.233
  0
LINE
  8
0
 10
512.887
 20
277.925
 11
512.582
 21
277.998
  0
LINE
  8
0
 10
512.582
 20
277.998
 11
512.292
 21
278.118
  0
LINE
  8
0
 10
512.292
 20
278.118
 11
512.024
 21
278.282
  0
LINE
  8
0
 10
512.024
 20
278.282
 11
511.786
 21
278.486
  0
LINE
  8
0
 10
511.786
 20
278.486
 11
511.582
 21
278.724
  0
LINE
  8
0
 10
511.582
 20
278.724
 11
511.418
 21
278.992
  0
LINE
  8
0
 10
511.418
 20
278.992
 11
511.298
 21
279.282
  0
LINE
  8
0
 10
511.298
 20
279.282
 11
511.225
 21
279.587
  0
LINE
  8
0
 10
511.225
 20
279.587
 11
511.2
 21
279.9
  0
LINE
  8
0
 10
511.2
 20
279.9
 11
511.225
 21
280.213
  0
LINE
  8
0
 10
511.225
 20
280.213
 11
511.298
 21
280.518
  0
LINE
  8
0
 10
511.298
 20
280.518
 11
511.418
 21
280.808
  0
LINE
  8
0
 10
511.418
 20
280.808
 11
511.582
 21
281.076
  0
LINE
  8
0
 10
511.582
 20
281.076
 11
511.786
 21
281.314
  0
LINE
  8
0
 10
511.786
 20
281.314
 11
512.024
 21
281.518
  0
LINE
  8
0
 10
512.024
 20
281.518
 11
512.292
 21
281.682
  0
LINE
  8
0
 10
512.292
 20
281.682
 11
512.582
 21
281.802
  0
LINE
  8
0
 10
512.582
 20
281.802
 11
512.887
 21
281.875
  0
LINE
  8
0
 10
512.887
 20
281.875
 11
513.2
 21
281.9
  0
LINE
  8
0
 10
513.2
 20
281.9
 11
513.513
 21
281.875
  0
LINE
  8
0
 10
513.513
 20
281.875
 11
513.818
 21
281.802
  0
LINE
  8
0
 10
513.818
 20
281.802
 11
514.108
 21
281.682
  0
LINE
  8
0
 10
514.108
 20
281.682
 11
514.376
 21
281.518
  0
LINE
  8
0
 10
514.376
 20
281.518
 11
514.614
 21
281.314
  0
LINE
  8
0
 10
514.614
 20
281.314
 11
514.818
 21
281.076
  0
LINE
  8
0
 10
514.818
 20
281.076
 11
514.982
 21
280.808
  0
LINE
  8
0
 10
514.982
 20
280.808
 11
515.102
 21
280.518
  0
LINE
  8
0
 10
515.102
 20
280.518
 11
515.175
 21
280.213
  0
LINE
  8
0
 10
515.175
 20
280.213
 11
515.2
 21
279.9
  0
LINE
  8
0
 10
515.2
 20
279.9
 11
515.175
 21
279.587
  0
LINE
  8
0
 10
515.175
 20
279.587
 11
515.102
 21
279.282
  0
LINE
  8
0
 10
515.102
 20
279.282
 11
514.982
 21
278.992
  0
LINE
  8
0
 10
514.982
 20
278.992
 11
514.818
 21
278.724
  0
LINE
  8
0
 10
514.818
 20
278.724
 11
514.614
 21
278.486
  0
LINE
  8
0
 10
514.614
 20
278.486
 11
514.376
 21
278.282
  0
LINE
  8
0
 10
514.376
 20
278.282
 11
514.108
 21
278.118
  0
LINE
  8
0
 10
514.108
 20
278.118
 11
513.818
 21
277.998
  0
LINE
  8
0
 10
513.818
 20
277.998
 11
513.513
 21
277.925
  0
LINE
  8
0
 10
513.513
 20
277.925
 11
513.2
 21
277.9
  0
LINE
  8
0
 10
513.2
 20
277.9
 11
512.887
 21
277.925
  0
LINE
  8
0
 10
642.087
 20
277.925
 11
641.782
 21
277.998
  0
LINE
  8
0
 10
641.782
 20
277.998
 11
641.492
 21
278.118
  0
LINE
  8
0
 10
641.492
 20
278.118
 11
641.224
 21
278.282
  0
LINE
  8
0
 10
641.224
 20
278.282
 11
640.986
 21
278.486
  0
LINE
  8
0
 10
640.986
 20
278.486
 11
640.782
 21
278.724
  0
LINE
  8
0
 10
640.782
 20
278.724
 11
640.618
 21
278.992
  0
LINE
  8
0
 10
640.618
 20
278.992
 11
640.498
 21
279.282
  0
LINE
  8
0
 10
640.498
 20
279.282
 11
640.425
 21
279.587
  0
LINE
  8
0
 10
640.425
 20
279.587
 11
640.4
 21
279.9
  0
LINE
  8
0
 10
640.4
 20
279.9
 11
640.425
 21
280.213
  0
LINE
  8
0
 10
640.425
 20
280.213
 11
640.498
 21
280.518
  0
LINE
  8
0
 10
640.498
 20
280.518
 11
640.618
 21
280.808
  0
LINE
  8
0
 10
640.618
 20
280.808
 11
640.782
 21
281.076
  0
LINE
  8
0
 10
640.782
 20
281.076
 11
640.986
 21
281.314
  0
LINE
  8
0
 10
640.986
 20
281.314
 11
641.224
 21
281.518
  0
LINE
  8
0
 10
641.224
 20
281.518
 11
641.492
 21
281.682
  0
LINE
  8
0
 10
641.492
 20
281.682
 11
641.782
 21
281.802
  0
LINE
  8
0
 10
641.782
 20
281.802
 11
642.087
 21
281.875
  0
LINE
  8
0
 10
642.087
 20
281.875
 11
642.4
 21
281.9
  0
LINE
  8
0
 10
642.4
 20
281.9
 11
642.713
 21
281.875
  0
LINE
  8
0
 10
642.713
 20
281.875
 11
643.018
 21
281.802
  0
LINE
  8
0
 10
643.018
 20
281.802
 11
643.308
 21
281.682
  0
LINE
  8
0
 10
643.308
 20
281.682
 11
643.576
 21
281.518
  0
LINE
  8
0
 10
643.576
 20
281.518
 11
643.814
 21
281.314
  0
LINE
  8
0
 10
643.814
 20
281.314
 11
644.018
 21
281.076
  0
LINE
  8
0
 10
644.018
 20
281.076
 11
644.182
 21
280.808
  0
LINE
  8
0
 10
644.182
 20
280.808
 11
644.302
 21
280.518
  0
LINE
  8
0
 10
644.302
 20
280.518
 11
644.375
 21
280.213
  0
LINE
  8
0
 10
644.375
 20
280.213
 11
644.4
 21
279.9
  0
LINE
  8
0
 10
644.4
 20
279.9
 11
644.375
 21
279.587
  0
LINE
  8
0
 10
644.375
 20
279.587
 11
644.302
 21
279.282
  0
LINE
  8
0
 10
644.302
 20
279.282
 11
644.182
 21
278.992
  0
LINE
  8
0
 10
644.182
 20
278.992
 11
644.018
 21
278.724
  0
LINE
  8
0
 10
644.018
 20
278.724
 11
643.814
 21
278.486
  0
LINE
  8
0
 10
643.814
 20
278.486
 11
643.576
 21
278.282
  0
LINE
  8
0
 10
643.576
 20
278.282
 11
643.308
 21
278.118
  0
LINE
  8
0
 10
643.308
 20
278.118
 11
643.018
 21
277.998
  0
LINE
  8
0
 10
643.018
 20
277.998
 11
642.713
 21
277.925
  0
LINE
  8
0
 10
642.713
 20
277.925
 11
642.4
 21
277.9
  0
LINE
  8
0
 10
642.4
 20
277.9
 11
642.087
 21
277.925
  0
LINE
  8
0
 10
631.978
 20
262.233
 11
631.566
 21
262.332
  0
LINE
  8
0
 10
631.566
 20
262.332
 11
631.174
 21
262.494
  0
LINE
  8
0
 10
631.174
 20
262.494
 11
630.813
 21
262.716
  0
LINE
  8
0
 10
630.813
 20
262.716
 11
630.491
 21
262.991
  0
LINE
  8
0
 10
630.491
 20
262.991
 11
630.216
 21
263.313
  0
LINE
  8
0
 10
630.216
 20
263.313
 11
629.994
 21
263.674
  0
LINE
  8
0
 10
629.994
 20
263.674
 11
629.832
 21
264.066
  0
LINE
  8
0
 10
629.832
 20
264.066
 11
629.733
 21
264.478
  0
LINE
  8
0
 10
629.733
 20
264.478
 11
629.7
 21
264.9
  0
LINE
  8
0
 10
629.7
 20
264.9
 11
629.733
 21
265.322
  0
LINE
  8
0
 10
629.733
 20
265.322
 11
629.832
 21
265.734
  0
LINE
  8
0
 10
629.832
 20
265.734
 11
629.994
 21
266.126
  0
LINE
  8
0
 10
629.994
 20
266.126
 11
630.216
 21
266.487
  0
LINE
  8
0
 10
630.216
 20
266.487
 11
630.491
 21
266.809
  0
LINE
  8
0
 10
630.491
 20
266.809
 11
630.813
 21
267.084
  0
LINE
  8
0
 10
630.813
 20
267.084
 11
631.174
 21
267.306
  0
LINE
  8
0
 10
631.174
 20
267.306
 11
631.566
 21
267.468
  0
LINE
  8
0
 10
631.566
 20
267.468
 11
631.978
 21
267.567
  0
LINE
  8
0
 10
631.978
 20
267.567
 11
632.4
 21
267.6
  0
LINE
  8
0
 10
632.4
 20
267.6
 11
632.822
 21
267.567
  0
LINE
  8
0
 10
632.822
 20
267.567
 11
633.234
 21
267.468
  0
LINE
  8
0
 10
633.234
 20
267.468
 11
633.626
 21
267.306
  0
LINE
  8
0
 10
633.626
 20
267.306
 11
633.987
 21
267.084
  0
LINE
  8
0
 10
633.987
 20
267.084
 11
634.309
 21
266.809
  0
LINE
  8
0
 10
634.309
 20
266.809
 11
634.584
 21
266.487
  0
LINE
  8
0
 10
634.584
 20
266.487
 11
634.806
 21
266.126
  0
LINE
  8
0
 10
634.806
 20
266.126
 11
634.968
 21
265.734
  0
LINE
  8
0
 10
634.968
 20
265.734
 11
635.067
 21
265.322
  0
LINE
  8
0
 10
635.067
 20
265.322
 11
635.1
 21
264.9
  0
LINE
  8
0
 10
635.1
 20
264.9
 11
635.067
 21
264.478
  0
LINE
  8
0
 10
635.067
 20
264.478
 11
634.968
 21
264.066
  0
LINE
  8
0
 10
634.968
 20
264.066
 11
634.806
 21
263.674
  0
LINE
  8
0
 10
634.806
 20
263.674
 11
634.584
 21
263.313
  0
LINE
  8
0
 10
634.584
 20
263.313
 11
634.309
 21
262.991
  0
LINE
  8
0
 10
634.309
 20
262.991
 11
633.987
 21
262.716
  0
LINE
  8
0
 10
633.987
 20
262.716
 11
633.626
 21
262.494
  0
LINE
  8
0
 10
633.626
 20
262.494
 11
633.234
 21
262.332
  0
LINE
  8
0
 10
633.234
 20
262.332
 11
632.822
 21
262.233
  0
LINE
  8
0
 10
632.822
 20
262.233
 11
632.4
 21
262.2
  0
LINE
  8
0
 10
632.4
 20
262.2
 11
631.978
 21
262.233
  0
LINE
  8
0
 10
502.778
 20
262.233
 11
502.366
 21
262.332
  0
LINE
  8
0
 10
502.366
 20
262.332
 11
501.974
 21
262.494
  0
LINE
  8
0
 10
501.974
 20
262.494
 11
501.613
 21
262.716
  0
LINE
  8
0
 10
501.613
 20
262.716
 11
501.291
 21
262.991
  0
LINE
  8
0
 10
501.291
 20
262.991
 11
501.016
 21
263.313
  0
LINE
  8
0
 10
501.016
 20
263.313
 11
500.794
 21
263.674
  0
LINE
  8
0
 10
500.794
 20
263.674
 11
500.632
 21
264.066
  0
LINE
  8
0
 10
500.632
 20
264.066
 11
500.533
 21
264.478
  0
LINE
  8
0
 10
500.533
 20
264.478
 11
500.5
 21
264.9
  0
LINE
  8
0
 10
500.5
 20
264.9
 11
500.533
 21
265.322
  0
LINE
  8
0
 10
500.533
 20
265.322
 11
500.632
 21
265.734
  0
LINE
  8
0
 10
500.632
 20
265.734
 11
500.794
 21
266.126
  0
LINE
  8
0
 10
500.794
 20
266.126
 11
501.016
 21
266.487
  0
LINE
  8
0
 10
501.016
 20
266.487
 11
501.291
 21
266.809
  0
LINE
  8
0
 10
501.291
 20
266.809
 11
501.613
 21
267.084
  0
LINE
  8
0
 10
501.613
 20
267.084
 11
501.974
 21
267.306
  0
LINE
  8
0
 10
501.974
 20
267.306
 11
502.366
 21
267.468
  0
LINE
  8
0
 10
502.366
 20
267.468
 11
502.778
 21
267.567
  0
LINE
  8
0
 10
502.778
 20
267.567
 11
503.2
 21
267.6
  0
LINE
  8
0
 10
503.2
 20
267.6
 11
503.622
 21
267.567
  0
LINE
  8
0
 10
503.622
 20
267.567
 11
504.034
 21
267.468
  0
LINE
  8
0
 10
504.034
 20
267.468
 11
504.426
 21
267.306
  0
LINE
  8
0
 10
504.426
 20
267.306
 11
504.787
 21
267.084
  0
LINE
  8
0
 10
504.787
 20
267.084
 11
505.109
 21
266.809
  0
LINE
  8
0
 10
505.109
 20
266.809
 11
505.384
 21
266.487
  0
LINE
  8
0
 10
505.384
 20
266.487
 11
505.606
 21
266.126
  0
LINE
  8
0
 10
505.606
 20
266.126
 11
505.768
 21
265.734
  0
LINE
  8
0
 10
505.768
 20
265.734
 11
505.867
 21
265.322
  0
LINE
  8
0
 10
505.867
 20
265.322
 11
505.9
 21
264.9
  0
LINE
  8
0
 10
505.9
 20
264.9
 11
505.867
 21
264.478
  0
LINE
  8
0
 10
505.867
 20
264.478
 11
505.768
 21
264.066
  0
LINE
  8
0
 10
505.768
 20
264.066
 11
505.606
 21
263.674
  0
LINE
  8
0
 10
505.606
 20
263.674
 11
505.384
 21
263.313
  0
LINE
  8
0
 10
505.384
 20
263.313
 11
505.109
 21
262.991
  0
LINE
  8
0
 10
505.109
 20
262.991
 11
504.787
 21
262.716
  0
LINE
  8
0
 10
504.787
 20
262.716
 11
504.426
 21
262.494
  0
LINE
  8
0
 10
504.426
 20
262.494
 11
504.034
 21
262.332
  0
LINE
  8
0
 10
504.034
 20
262.332
 11
503.622
 21
262.233
  0
LINE
  8
0
 10
503.622
 20
262.233
 11
503.2
 21
262.2
  0
LINE
  8
0
 10
503.2
 20
262.2
 11
502.778
 21
262.233
  0
LINE
  8
0
 10
622.8
 20
211.6
 11
622.8
 21
216.8
  0
LINE
  8
0
 10
622.8
 20
216.8
 11
652.4
 21
216.8
  0
LINE
  8
0
 10
652.4
 20
216.8
 11
652.4
 21
246.4
  0
LINE
  8
0
 10
652.4
 20
246.4
 11
657.6
 21
246.4
  0
LINE
  8
0
 10
657.6
 20
246.4
 11
657.6
 21
211.6
  0
LINE
  8
0
 10
657.6
 20
211.6
 11
622.8
 21
211.6
  0
LINE
  8
0
 10
478
 20
211.6
 11
478
 21
246.4
  0
LINE
  8
0
 10
478
 20
246.4
 11
483.2
 21
246.4
  0
LINE
  8
0
 10
483.2
 20
246.4
 11
483.2
 21
216.8
  0
LINE
  8
0
 10
483.2
 20
216.8
 11
512.8
 21
216.8
  0
LINE
  8
0
 10
512.8
 20
216.8
 11
512.8
 21
211.6
  0
LINE
  8
0
 10
512.8
 20
211.6
 11
478
 21
211.6
  0
LINE
  8
0
 10
552.8
 20
224.3
 11
552.8
 21
239.3
  0
LINE
  8
0
 10
552.8
 20
239.3
 11
582.8
 21
239.3
  0
LINE
  8
0
 10
582.8
 20
239.3
 11
582.8
 21
224.3
  0
LINE
  8
0
 10
582.8
 20
224.3
 11
552.8
 21
224.3
  0
LINE
  8
0
 10
489.887
 20
221.825
 11
489.582
 21
221.898
  0
LINE
  8
0
 10
489.582
 20
221.898
 11
489.292
 21
222.018
  0
LINE
  8
0
 10
489.292
 20
222.018
 11
489.024
 21
222.182
  0
LINE
  8
0
 10
489.024
 20
222.182
 11
488.786
 21
222.386
  0
LINE
  8
0
 10
488.786
 20
222.386
 11
488.582
 21
222.624
  0
LINE
  8
0
 10
488.582
 20
222.624
 11
488.418
 21
222.892
  0
LINE
  8
0
 10
488.418
 20
222.892
 11
488.298
 21
223.182
  0
LINE
  8
0
 10
488.298
 20
223.182
 11
488.225
 21
223.487
  0
LINE
  8
0
 10
488.225
 20
223.487
 11
488.2
 21
223.8
  0
LINE
  8
0
 10
488.2
 20
223.8
 11
488.225
 21
224.113
  0
LINE
  8
0
 10
488.225
 20
224.113
 11
488.298
 21
224.418
  0
LINE
  8
0
 10
488.298
 20
224.418
 11
488.418
 21
224.708
  0
LINE
  8
0
 10
488.418
 20
224.708
 11
488.582
 21
224.976
  0
LINE
  8
0
 10
488.582
 20
224.976
 11
488.786
 21
225.214
  0
LINE
  8
0
 10
488.786
 20
225.214
 11
489.024
 21
225.418
  0
LINE
  8
0
 10
489.024
 20
225.418
 11
489.292
 21
225.582
  0
LINE
  8
0
 10
489.292
 20
225.582
 11
489.582
 21
225.702
  0
LINE
  8
0
 10
489.582
 20
225.702
 11
489.887
 21
225.775
  0
LINE
  8
0
 10
489.887
 20
225.775
 11
490.2
 21
225.8
  0
LINE
  8
0
 10
490.2
 20
225.8
 11
490.513
 21
225.775
  0
LINE
  8
0
 10
490.513
 20
225.775
 11
490.818
 21
225.702
  0
LINE
  8
0
 10
490.818
 20
225.702
 11
491.108
 21
225.582
  0
LINE
  8
0
 10
491.108
 20
225.582
 11
491.376
 21
225.418
  0
LINE
  8
0
 10
491.376
 20
225.418
 11
491.614
 21
225.214
  0
LINE
  8
0
 10
491.614
 20
225.214
 11
491.818
 21
224.976
  0
LINE
  8
0
 10
491.818
 20
224.976
 11
491.982
 21
224.708
  0
LINE
  8
0
 10
491.982
 20
224.708
 11
492.102
 21
224.418
  0
LINE
  8
0
 10
492.102
 20
224.418
 11
492.175
 21
224.113
  0
LINE
  8
0
 10
492.175
 20
224.113
 11
492.2
 21
223.8
  0
LINE
  8
0
 10
492.2
 20
223.8
 11
492.175
 21
223.487
  0
LINE
  8
0
 10
492.175
 20
223.487
 11
492.102
 21
223.182
  0
LINE
  8
0
 10
492.102
 20
223.182
 11
491.982
 21
222.892
  0
LINE
  8
0
 10
491.982
 20
222.892
 11
491.818
 21
222.624
  0
LINE
  8
0
 10
491.818
 20
222.624
 11
491.614
 21
222.386
  0
LINE
  8
0
 10
491.614
 20
222.386
 11
491.376
 21
222.182
  0
LINE
  8
0
 10
491.376
 20
222.182
 11
491.108
 21
222.018
  0
LINE
  8
0
 10
491.108
 20
222.018
 11
490.818
 21
221.898
  0
LINE
  8
0
 10
490.818
 20
221.898
 11
490.513
 21
221.825
  0
LINE
  8
0
 10
490.513
 20
221.825
 11
490.2
 21
221.8
  0
LINE
  8
0
 10
490.2
 20
221.8
 11
489.887
 21
221.825
  0
LINE
  8
0
 10
645.087
 20
221.825
 11
644.782
 21
221.898
  0
LINE
  8
0
 10
644.782
 20
221.898
 11
644.492
 21
222.018
  0
LINE
  8
0
 10
644.492
 20
222.018
 11
644.224
 21
222.182
  0
LINE
  8
0
 10
644.224
 20
222.182
 11
643.986
 21
222.386
  0
LINE
  8
0
 10
643.986
 20
222.386
 11
643.782
 21
222.624
  0
LINE
  8
0
 10
643.782
 20
222.624
 11
643.618
 21
222.892
  0
LINE
  8
0
 10
643.618
 20
222.892
 11
643.498
 21
223.182
  0
LINE
  8
0
 10
643.498
 20
223.182
 11
643.425
 21
223.487
  0
LINE
  8
0
 10
643.425
 20
223.487
 11
643.4
 21
223.8
  0
LINE
  8
0
 10
643.4
 20
223.8
 11
643.425
 21
224.113
  0
LINE
  8
0
 10
643.425
 20
224.113
 11
643.498
 21
224.418
  0
LINE
  8
0
 10
643.498
 20
224.418
 11
643.618
 21
224.708
  0
LINE
  8
0
 10
643.618
 20
224.708
 11
643.782
 21
224.976
  0
LINE
  8
0
 10
643.782
 20
224.976
 11
643.986
 21
225.214
  0
LINE
  8
0
 10
643.986
 20
225.214
 11
644.224
 21
225.418
  0
LINE
  8
0
 10
644.224
 20
225.418
 11
644.492
 21
225.582
  0
LINE
  8
0
 10
644.492
 20
225.582
 11
644.782
 21
225.702
  0
LINE
  8
0
 10
644.782
 20
225.702
 11
645.087
 21
225.775
  0
LINE
  8
0
 10
645.087
 20
225.775
 11
645.4
 21
225.8
  0
LINE
  8
0
 10
645.4
 20
225.8
 11
645.713
 21
225.775
  0
LINE
  8
0
 10
645.713
 20
225.775
 11
646.018
 21
225.702
  0
LINE
  8
0
 10
646.018
 20
225.702
 11
646.308
 21
225.582
  0
LINE
  8
0
 10
646.308
 20
225.582
 11
646.576
 21
225.418
  0
LINE
  8
0
 10
646.576
 20
225.418
 11
646.814
 21
225.214
  0
LINE
  8
0
 10
646.814
 20
225.214
 11
647.018
 21
224.976
  0
LINE
  8
0
 10
647.018
 20
224.976
 11
647.182
 21
224.708
  0
LINE
  8
0
 10
647.182
 20
224.708
 11
647.302
 21
224.418
  0
LINE
  8
0
 10
647.302
 20
224.418
 11
647.375
 21
224.113
  0
LINE
  8
0
 10
647.375
 20
224.113
 11
647.4
 21
223.8
  0
LINE
  8
0
 10
647.4
 20
223.8
 11
647.375
 21
223.487
  0
LINE
  8
0
 10
647.375
 20
223.487
 11
647.302
 21
223.182
  0
LINE
  8
0
 10
647.302
 20
223.182
 11
647.182
 21
222.892
  0
LINE
  8
0
 10
647.182
 20
222.892
 11
647.018
 21
222.624
  0
LINE
  8
0
 10
647.018
 20
222.624
 11
646.814
 21
222.386
  0
LINE
  8
0
 10
646.814
 20
222.386
 11
646.576
 21
222.182
  0
LINE
  8
0
 10
646.576
 20
222.182
 11
646.308
 21
222.018
  0
LINE
  8
0
 10
646.308
 20
222.018
 11
646.018
 21
221.898
  0
LINE
  8
0
 10
646.018
 20
221.898
 11
645.713
 21
221.825
  0
LINE
  8
0
 10
645.713
 20
221.825
 11
645.4
 21
221.8
  0
LINE
  8
0
 10
645.4
 20
221.8
 11
645.087
 21
221.825
  0
LINE
  8
0
 10
578.8
 20
211.6
 11
578.8
 21
216.8
  0
LINE
  8
0
 10
578.8
 20
216.8
 11
600.8
 21
216.8
  0
LINE
  8
0
 10
600.8
 20
216.8
 11
600.8
 21
211.6
  0
LINE
  8
0
 10
600.8
 20
211.6
 11
578.8
 21
211.6
  0
LINE
  8
0
 10
534.8
 20
211.6
 11
534.8
 21
216.8
  0
LINE
  8
0
 10
534.8
 20
216.8
 11
556.8
 21
216.8
  0
LINE
  8
0
 10
556.8
 20
216.8
 11
556.8
 21
211.6
  0
LINE
  8
0
 10
556.8
 20
211.6
 11
534.8
 21
211.6
  0
LINE
  8
0
 10
704.4
 20
267.4
 11
726.4
 21
267.4
  0
LINE
  8
0
 10
726.4
 20
267.4
 11
726.4
 21
262.2
  0
LINE
  8
0
 10
726.4
 20
262.2
 11
748.4
 21
262.2
  0
LINE
  8
0
 10
748.4
 20
262.2
 11
748.4
 21
267.4
  0
LINE
  8
0
 10
748.4
 20
267.4
 11
770.4
 21
267.4
  0
LINE
  8
0
 10
770.4
 20
267.4
 11
770.4
 21
262.2
  0
LINE
  8
0
 10
770.4
 20
262.2
 11
792.4
 21
262.2
  0
LINE
  8
0
 10
792.4
 20
262.2
 11
792.4
 21
267.4
  0
LINE
  8
0
 10
792.4
 20
267.4
 11
814.4
 21
267.4
  0
LINE
  8
0
 10
814.4
 20
267.4
 11
814.4
 21
262.2
  0
LINE
  8
0
 10
814.4
 20
262.2
 11
849.2
 21
262.2
  0
LINE
  8
0
 10
849.2
 20
262.2
 11
849.2
 21
293.9
  0
LINE
  8
0
 10
849.2
 20
293.9
 11
844
 21
293.9
  0
LINE
  8
0
 10
844
 20
293.9
 11
844
 21
315.9
  0
LINE
  8
0
 10
844
 20
315.9
 11
849.2
 21
315.9
  0
LINE
  8
0
 10
849.2
 20
315.9
 11
849.2
 21
347.6
  0
LINE
  8
0
 10
849.2
 20
347.6
 11
814.4
 21
347.6
  0
LINE
  8
0
 10
814.4
 20
347.6
 11
814.4
 21
342.4
  0
LINE
  8
0
 10
814.4
 20
342.4
 11
792.4
 21
342.4
  0
LINE
  8
0
 10
792.4
 20
342.4
 11
792.4
 21
347.6
  0
LINE
  8
0
 10
792.4
 20
347.6
 11
770.4
 21
347.6
  0
LINE
  8
0
 10
770.4
 20
347.6
 11
770.4
 21
342.4
  0
LINE
  8
0
 10
770.4
 20
342.4
 11
748.4
 21
342.4
  0
LINE
  8
0
 10
748.4
 20
342.4
 11
748.4
 21
347.6
  0
LINE
  8
0
 10
748.4
 20
347.6
 11
726.4
 21
347.6
  0
LINE
  8
0
 10
726.4
 20
347.6
 11
726.4
 21
342.4
  0
LINE
  8
0
 10
726.4
 20
342.4
 11
704.4
 21
342.4
  0
LINE
  8
0
 10
704.4
 20
342.4
 11
704.4
 21
347.6
  0
LINE
  8
0
 10
704.4
 20
347.6
 11
669.6
 21
347.6
  0
LINE
  8
0
 10
669.6
 20
347.6
 11
669.6
 21
315.9
  0
LINE
  8
0
 10
669.6
 20
315.9
 11
674.8
 21
315.9
  0
LINE
  8
0
 10
674.8
 20
315.9
 11
674.8
 21
293.9
  0
LINE
  8
0
 10
674.8
 20
293.9
 11
669.6
 21
293.9
  0
LINE
  8
0
 10
669.6
 20
293.9
 11
669.6
 21
262.2
  0
LINE
  8
0
 10
669.6
 20
262.2
 11
704.4
 21
262.2
  0
LINE
  8
0
 10
704.4
 20
262.2
 11
704.4
 21
267.4
  0
LINE
  8
0
 10
726.707
 20
317.004
 11
726.459
 21
317.077
  0
LINE
  8
0
 10
726.459
 20
317.077
 11
726.225
 21
317.189
  0
LINE
  8
0
 10
726.225
 20
317.189
 11
726.012
 21
317.335
  0
LINE
  8
0
 10
726.012
 20
317.335
 11
725.824
 21
317.514
  0
LINE
  8
0
 10
725.824
 20
317.514
 11
725.666
 21
317.719
  0
LINE
  8
0
 10
725.666
 20
317.719
 11
725.543
 21
317.946
  0
LINE
  8
0
 10
725.543
 20
317.946
 11
725.456
 21
318.191
  0
LINE
  8
0
 10
725.456
 20
318.191
 11
725.409
 21
318.445
  0
LINE
  8
0
 10
725.409
 20
318.445
 11
725.402
 21
318.704
  0
LINE
  8
0
 10
725.402
 20
318.704
 11
725.436
 21
318.961
  0
LINE
  8
0
 10
725.436
 20
318.961
 11
725.51
 21
319.209
  0
LINE
  8
0
 10
725.51
 20
319.209
 11
725.621
 21
319.443
  0
LINE
  8
0
 10
725.621
 20
319.443
 11
725.768
 21
319.656
  0
LINE
  8
0
 10
725.768
 20
319.656
 11
725.946
 21
319.844
  0
LINE
  8
0
 10
725.946
 20
319.844
 11
726.151
 21
320.001
  0
LINE
  8
0
 10
726.151
 20
320.001
 11
726.379
 21
320.125
  0
LINE
  8
0
 10
726.379
 20
320.125
 11
726.623
 21
320.211
  0
LINE
  8
0
 10
726.623
 20
320.211
 11
726.878
 21
320.259
  0
LINE
  8
0
 10
726.878
 20
320.259
 11
727.136
 21
320.265
  0
LINE
  8
0
 10
727.136
 20
320.265
 11
727.393
 21
320.232
  0
LINE
  8
0
 10
727.393
 20
320.232
 11
727.641
 21
320.158
  0
LINE
  8
0
 10
727.641
 20
320.158
 11
727.875
 21
320.047
  0
LINE
  8
0
 10
727.875
 20
320.047
 11
728.088
 21
319.9
  0
LINE
  8
0
 10
728.088
 20
319.9
 11
728.276
 21
319.722
  0
LINE
  8
0
 10
728.276
 20
319.722
 11
728.434
 21
319.516
  0
LINE
  8
0
 10
728.434
 20
319.516
 11
728.557
 21
319.289
  0
LINE
  8
0
 10
728.557
 20
319.289
 11
728.644
 21
319.045
  0
LINE
  8
0
 10
728.644
 20
319.045
 11
728.691
 21
318.79
  0
LINE
  8
0
 10
728.691
 20
318.79
 11
728.698
 21
318.531
  0
LINE
  8
0
 10
728.698
 20
318.531
 11
728.664
 21
318.275
  0
LINE
  8
0
 10
728.664
 20
318.275
 11
728.59
 21
318.026
  0
LINE
  8
0
 10
728.59
 20
318.026
 11
728.479
 21
317.793
  0
LINE
  8
0
 10
728.479
 20
317.793
 11
728.332
 21
317.579
  0
LINE
  8
0
 10
728.332
 20
317.579
 11
728.154
 21
317.391
  0
LINE
  8
0
 10
728.154
 20
317.391
 11
727.949
 21
317.234
  0
LINE
  8
0
 10
727.949
 20
317.234
 11
727.721
 21
317.11
  0
LINE
  8
0
 10
727.721
 20
317.11
 11
727.477
 21
317.024
  0
LINE
  8
0
 10
727.477
 20
317.024
 11
727.222
 21
316.977
  0
LINE
  8
0
 10
727.222
 20
316.977
 11
726.964
 21
316.97
  0
LINE
  8
0
 10
726.964
 20
316.97
 11
726.707
 21
317.004
  0
LINE
  8
0
 10
711.785
 20
283.217
 11
709.604
 21
283.863
  0
LINE
  8
0
 10
709.604
 20
283.863
 11
707.55
 21
284.843
  0
LINE
  8
0
 10
707.55
 20
284.843
 11
705.675
 21
286.131
  0
LINE
  8
0
 10
705.675
 20
286.131
 11
704.024
 21
287.698
  0
LINE
  8
0
 10
704.024
 20
287.698
 11
702.639
 21
289.503
  0
LINE
  8
0
 10
702.639
 20
289.503
 11
701.554
 21
291.502
  0
LINE
  8
0
 10
701.554
 20
291.502
 11
700.794
 21
293.647
  0
LINE
  8
0
 10
700.794
 20
293.647
 11
700.379
 21
295.884
  0
LINE
  8
0
 10
700.379
 20
295.884
 11
700.32
 21
298.159
  0
LINE
  8
0
 10
700.32
 20
298.159
 11
700.617
 21
300.415
  0
LINE
  8
0
 10
700.617
 20
300.415
 11
701.263
 21
302.596
  0
LINE
  8
0
 10
701.263
 20
302.596
 11
702.243
 21
304.65
  0
LINE
  8
0
 10
702.243
 20
304.65
 11
703.531
 21
306.525
  0
LINE
  8
0
 10
703.531
 20
306.525
 11
705.098
 21
308.176
  0
LINE
  8
0
 10
705.098
 20
308.176
 11
706.903
 21
309.561
  0
LINE
  8
0
 10
706.903
 20
309.561
 11
708.902
 21
310.646
  0
LINE
  8
0
 10
708.902
 20
310.646
 11
711.047
 21
311.406
  0
LINE
  8
0
 10
711.047
 20
311.406
 11
713.284
 21
311.821
  0
LINE
  8
0
 10
713.284
 20
311.821
 11
715.559
 21
311.88
  0
LINE
  8
0
 10
715.559
 20
311.88
 11
717.815
 21
311.583
  0
LINE
  8
0
 10
717.815
 20
311.583
 11
719.996
 21
310.937
  0
LINE
  8
0
 10
719.996
 20
310.937
 11
722.05
 21
309.957
  0
LINE
  8
0
 10
722.05
 20
309.957
 11
723.925
 21
308.669
  0
LINE
  8
0
 10
723.925
 20
308.669
 11
725.576
 21
307.102
  0
LINE
  8
0
 10
725.576
 20
307.102
 11
726.961
 21
305.297
  0
LINE
  8
0
 10
726.961
 20
305.297
 11
728.046
 21
303.298
  0
LINE
  8
0
 10
728.046
 20
303.298
 11
728.806
 21
301.153
  0
LINE
  8
0
 10
728.806
 20
301.153
 11
729.221
 21
298.916
  0
LINE
  8
0
 10
729.221
 20
298.916
 11
729.28
 21
296.641
  0
LINE
  8
0
 10
729.28
 20
296.641
 11
728.983
 21
294.385
  0
LINE
  8
0
 10
728.983
 20
294.385
 11
728.337
 21
292.204
  0
LINE
  8
0
 10
728.337
 20
292.204
 11
727.357
 21
290.15
  0
LINE
  8
0
 10
727.357
 20
290.15
 11
726.069
 21
288.275
  0
LINE
  8
0
 10
726.069
 20
288.275
 11
724.502
 21
286.624
  0
LINE
  8
0
 10
724.502
 20
286.624
 11
722.697
 21
285.239
  0
LINE
  8
0
 10
722.697
 20
285.239
 11
720.698
 21
284.154
  0
LINE
  8
0
 10
720.698
 20
284.154
 11
718.553
 21
283.394
  0
LINE
  8
0
 10
718.553
 20
283.394
 11
716.316
 21
282.979
  0
LINE
  8
0
 10
716.316
 20
282.979
 11
714.041
 21
282.92
  0
LINE
  8
0
 10
714.041
 20
282.92
 11
711.785
 21
283.217
  0
LINE
  8
0
 10
702.207
 20
274.568
 11
701.959
 21
274.642
  0
LINE
  8
0
 10
701.959
 20
274.642
 11
701.725
 21
274.753
  0
LINE
  8
0
 10
701.725
 20
274.753
 11
701.512
 21
274.9
  0
LINE
  8
0
 10
701.512
 20
274.9
 11
701.324
 21
275.078
  0
LINE
  8
0
 10
701.324
 20
275.078
 11
701.166
 21
275.284
  0
LINE
  8
0
 10
701.166
 20
275.284
 11
701.043
 21
275.511
  0
LINE
  8
0
 10
701.043
 20
275.511
 11
700.956
 21
275.755
  0
LINE
  8
0
 10
700.956
 20
275.755
 11
700.909
 21
276.01
  0
LINE
  8
0
 10
700.909
 20
276.01
 11
700.902
 21
276.269
  0
LINE
  8
0
 10
700.902
 20
276.269
 11
700.936
 21
276.525
  0
LINE
  8
0
 10
700.936
 20
276.525
 11
701.01
 21
276.774
  0
LINE
  8
0
 10
701.01
 20
276.774
 11
701.121
 21
277.007
  0
LINE
  8
0
 10
701.121
 20
277.007
 11
701.268
 21
277.221
  0
LINE
  8
0
 10
701.268
 20
277.221
 11
701.446
 21
277.409
  0
LINE
  8
0
 10
701.446
 20
277.409
 11
701.651
 21
277.566
  0
LINE
  8
0
 10
701.651
 20
277.566
 11
701.879
 21
277.69
  0
LINE
  8
0
 10
701.879
 20
277.69
 11
702.123
 21
277.776
  0
LINE
  8
0
 10
702.123
 20
277.776
 11
702.378
 21
277.823
  0
LINE
  8
0
 10
702.378
 20
277.823
 11
702.636
 21
277.83
  0
LINE
  8
0
 10
702.636
 20
277.83
 11
702.893
 21
277.796
  0
LINE
  8
0
 10
702.893
 20
277.796
 11
703.141
 21
277.723
  0
LINE
  8
0
 10
703.141
 20
277.723
 11
703.375
 21
277.611
  0
LINE
  8
0
 10
703.375
 20
277.611
 11
703.588
 21
277.465
  0
LINE
  8
0
 10
703.588
 20
277.465
 11
703.776
 21
277.286
  0
LINE
  8
0
 10
703.776
 20
277.286
 11
703.934
 21
277.081
  0
LINE
  8
0
 10
703.934
 20
277.081
 11
704.057
 21
276.854
  0
LINE
  8
0
 10
704.057
 20
276.854
 11
704.144
 21
276.609
  0
LINE
  8
0
 10
704.144
 20
276.609
 11
704.191
 21
276.355
  0
LINE
  8
0
 10
704.191
 20
276.355
 11
704.198
 21
276.096
  0
LINE
  8
0
 10
704.198
 20
276.096
 11
704.164
 21
275.839
  0
LINE
  8
0
 10
704.164
 20
275.839
 11
704.09
 21
275.591
  0
LINE
  8
0
 10
704.09
 20
275.591
 11
703.979
 21
275.357
  0
LINE
  8
0
 10
703.979
 20
275.357
 11
703.832
 21
275.144
  0
LINE
  8
0
 10
703.832
 20
275.144
 11
703.654
 21
274.956
  0
LINE
  8
0
 10
703.654
 20
274.956
 11
703.449
 21
274.799
  0
LINE
  8
0
 10
703.449
 20
274.799
 11
703.221
 21
274.675
  0
LINE
  8
0
 10
703.221
 20
274.675
 11
702.977
 21
274.589
  0
LINE
  8
0
 10
702.977
 20
274.589
 11
702.722
 21
274.541
  0
LINE
  8
0
 10
702.722
 20
274.541
 11
702.464
 21
274.535
  0
LINE
  8
0
 10
702.464
 20
274.535
 11
702.207
 21
274.568
  0
LINE
  8
0
 10
704.4
 20
180
 11
726.4
 21
180
  0
LINE
  8
0
 10
726.4
 20
180
 11
726.4
 21
174.8
  0
LINE
  8
0
 10
726.4
 20
174.8
 11
748.4
 21
174.8
  0
LINE
  8
0
 10
748.4
 20
174.8
 11
748.4
 21
180
  0
LINE
  8
0
 10
748.4
 20
180
 11
770.4
 21
180
  0
LINE
  8
0
 10
770.4
 20
180
 11
770.4
 21
174.8
  0
LINE
  8
0
 10
770.4
 20
174.8
 11
792.4
 21
174.8
  0
LINE
  8
0
 10
792.4
 20
174.8
 11
792.4
 21
180
  0
LINE
  8
0
 10
792.4
 20
180
 11
814.4
 21
180
  0
LINE
  8
0
 10
814.4
 20
180
 11
814.4
 21
174.8
  0
LINE
  8
0
 10
814.4
 20
174.8
 11
849.2
 21
174.8
  0
LINE
  8
0
 10
849.2
 20
174.8
 11
849.2
 21
206.5
  0
LINE
  8
0
 10
849.2
 20
206.5
 11
844
 21
206.5
  0
LINE
  8
0
 10
844
 20
206.5
 11
844
 21
228.5
  0
LINE
  8
0
 10
844
 20
228.5
 11
849.2
 21
228.5
  0
LINE
  8
0
 10
849.2
 20
228.5
 11
849.2
 21
260.2
  0
LINE
  8
0
 10
849.2
 20
260.2
 11
814.4
 21
260.2
  0
LINE
  8
0
 10
814.4
 20
260.2
 11
814.4
 21
255
  0
LINE
  8
0
 10
814.4
 20
255
 11
792.4
 21
255
  0
LINE
  8
0
 10
792.4
 20
255
 11
792.4
 21
260.2
  0
LINE
  8
0
 10
792.4
 20
260.2
 11
770.4
 21
260.2
  0
LINE
  8
0
 10
770.4
 20
260.2
 11
770.4
 21
255
  0
LINE
  8
0
 10
770.4
 20
255
 11
748.4
 21
255
  0
LINE
  8
0
 10
748.4
 20
255
 11
748.4
 21
260.2
  0
LINE
  8
0
 10
748.4
 20
260.2
 11
726.4
 21
260.2
  0
LINE
  8
0
 10
726.4
 20
260.2
 11
726.4
 21
255
  0
LINE
  8
0
 10
726.4
 20
255
 11
704.4
 21
255
  0
LINE
  8
0
 10
704.4
 20
255
 11
704.4
 21
260.2
  0
LINE
  8
0
 10
704.4
 20
260.2
 11
669.6
 21
260.2
  0
LINE
  8
0
 10
669.6
 20
260.2
 11
669.6
 21
228.5
  0
LINE
  8
0
 10
669.6
 20
228.5
 11
674.8
 21
228.5
  0
LINE
  8
0
 10
674.8
 20
228.5
 11
674.8
 21
206.5
  0
LINE
  8
0
 10
674.8
 20
206.5
 11
669.6
 21
206.5
  0
LINE
  8
0
 10
669.6
 20
206.5
 11
669.6
 21
174.8
  0
LINE
  8
0
 10
669.6
 20
174.8
 11
704.4
 21
174.8
  0
LINE
  8
0
 10
704.4
 20
174.8
 11
704.4
 21
180
  0
LINE
  8
0
 10
790.25
 20
233.75
 11
790.25
 21
239.668
  0
LINE
  8
0
 10
790.25
 20
239.668
 11
790.48
 21
239.723
  0
LINE
  8
0
 10
790.48
 20
239.723
 11
794
 21
240
  0
LINE
  8
0
 10
794
 20
240
 11
797.52
 21
239.723
  0
LINE
  8
0
 10
797.52
 20
239.723
 11
797.75
 21
239.668
  0
LINE
  8
0
 10
797.75
 20
239.668
 11
797.75
 21
233.75
  0
LINE
  8
0
 10
797.75
 20
233.75
 11
790.25
 21
233.75
  0
LINE
  8
0
 10
813.742
 20
235.87
 11
813.49
 21
235.931
  0
LINE
  8
0
 10
813.49
 20
235.931
 11
813.251
 21
236.03
  0
LINE
  8
0
 10
813.251
 20
236.03
 11
813.03
 21
236.165
  0
LINE
  8
0
 10
813.03
 20
236.165
 11
812.833
 21
236.333
  0
LINE
  8
0
 10
812.833
 20
236.333
 11
812.665
 21
236.53
  0
LINE
  8
0
 10
812.665
 20
236.53
 11
812.53
 21
236.751
  0
LINE
  8
0
 10
812.53
 20
236.751
 11
812.431
 21
236.99
  0
LINE
  8
0
 10
812.431
 20
236.99
 11
812.37
 21
237.242
  0
LINE
  8
0
 10
812.37
 20
237.242
 11
812.35
 21
237.5
  0
LINE
  8
0
 10
812.35
 20
237.5
 11
812.37
 21
237.758
  0
LINE
  8
0
 10
812.37
 20
237.758
 11
812.431
 21
238.01
  0
LINE
  8
0
 10
812.431
 20
238.01
 11
812.53
 21
238.249
  0
LINE
  8
0
 10
812.53
 20
238.249
 11
812.665
 21
238.47
  0
LINE
  8
0
 10
812.665
 20
238.47
 11
812.833
 21
238.667
  0
LINE
  8
0
 10
812.833
 20
238.667
 11
813.03
 21
238.835
  0
LINE
  8
0
 10
813.03
 20
238.835
 11
813.251
 21
238.97
  0
LINE
  8
0
 10
813.251
 20
238.97
 11
813.49
 21
239.069
  0
LINE
  8
0
 10
813.49
 20
239.069
 11
813.742
 21
239.13
  0
LINE
  8
0
 10
813.742
 20
239.13
 11
814
 21
239.15
  0
LINE
  8
0
 10
814
 20
239.15
 11
814.258
 21
239.13
  0
LINE
  8
0
 10
814.258
 20
239.13
 11
814.51
 21
239.069
  0
LINE
  8
0
 10
814.51
 20
239.069
 11
814.749
 21
238.97
  0
LINE
  8
0
 10
814.749
 20
238.97
 11
814.97
 21
238.835
  0
LINE
  8
0
 10
814.97
 20
238.835
 11
815.167
 21
238.667
  0
LINE
  8
0
 10
815.167
 20
238.667
 11
815.335
 21
238.47
  0
LINE
  8
0
 10
815.335
 20
238.47
 11
815.47
 21
238.249
  0
LINE
  8
0
 10
815.47
 20
238.249
 11
815.569
 21
238.01
  0
LINE
  8
0
 10
815.569
 20
238.01
 11
815.63
 21
237.758
  0
LINE
  8
0
 10
815.63
 20
237.758
 11
815.65
 21
237.5
  0
LINE
  8
0
 10
815.65
 20
237.5
 11
815.63
 21
237.242
  0
LINE
  8
0
 10
815.63
 20
237.242
 11
815.569
 21
236.99
  0
LINE
  8
0
 10
815.569
 20
236.99
 11
815.47
 21
236.751
  0
LINE
  8
0
 10
815.47
 20
236.751
 11
815.335
 21
236.53
  0
LINE
  8
0
 10
815.335
 20
236.53
 11
815.167
 21
236.333
  0
LINE
  8
0
 10
815.167
 20
236.333
 11
814.97
 21
236.165
  0
LINE
  8
0
 10
814.97
 20
236.165
 11
814.749
 21
236.03
  0
LINE
  8
0
 10
814.749
 20
236.03
 11
814.51
 21
235.931
  0
LINE
  8
0
 10
814.51
 20
235.931
 11
814.258
 21
235.87
  0
LINE
  8
0
 10
814.258
 20
235.87
 11
814
 21
235.85
  0
LINE
  8
0
 10
814
 20
235.85
 11
813.742
 21
235.87
  0
LINE
  8
0
 10
773.742
 20
235.87
 11
773.49
 21
235.931
  0
LINE
  8
0
 10
773.49
 20
235.931
 11
773.251
 21
236.03
  0
LINE
  8
0
 10
773.251
 20
236.03
 11
773.03
 21
236.165
  0
LINE
  8
0
 10
773.03
 20
236.165
 11
772.833
 21
236.333
  0
LINE
  8
0
 10
772.833
 20
236.333
 11
772.665
 21
236.53
  0
LINE
  8
0
 10
772.665
 20
236.53
 11
772.53
 21
236.751
  0
LINE
  8
0
 10
772.53
 20
236.751
 11
772.431
 21
236.99
  0
LINE
  8
0
 10
772.431
 20
236.99
 11
772.37
 21
237.242
  0
LINE
  8
0
 10
772.37
 20
237.242
 11
772.35
 21
237.5
  0
LINE
  8
0
 10
772.35
 20
237.5
 11
772.37
 21
237.758
  0
LINE
  8
0
 10
772.37
 20
237.758
 11
772.431
 21
238.01
  0
LINE
  8
0
 10
772.431
 20
238.01
 11
772.53
 21
238.249
  0
LINE
  8
0
 10
772.53
 20
238.249
 11
772.665
 21
238.47
  0
LINE
  8
0
 10
772.665
 20
238.47
 11
772.833
 21
238.667
  0
LINE
  8
0
 10
772.833
 20
238.667
 11
773.03
 21
238.835
  0
LINE
  8
0
 10
773.03
 20
238.835
 11
773.251
 21
238.97
  0
LINE
  8
0
 10
773.251
 20
238.97
 11
773.49
 21
239.069
  0
LINE
  8
0
 10
773.49
 20
239.069
 11
773.742
 21
239.13
  0
LINE
  8
0
 10
773.742
 20
239.13
 11
774
 21
239.15
  0
LINE
  8
0
 10
774
 20
239.15
 11
774.258
 21
239.13
  0
LINE
  8
0
 10
774.258
 20
239.13
 11
774.51
 21
239.069
  0
LINE
  8
0
 10
774.51
 20
239.069
 11
774.749
 21
238.97
  0
LINE
  8
0
 10
774.749
 20
238.97
 11
774.97
 21
238.835
  0
LINE
  8
0
 10
774.97
 20
238.835
 11
775.167
 21
238.667
  0
LINE
  8
0
 10
775.167
 20
238.667
 11
775.335
 21
238.47
  0
LINE
  8
0
 10
775.335
 20
238.47
 11
775.47
 21
238.249
  0
LINE
  8
0
 10
775.47
 20
238.249
 11
775.569
 21
238.01
  0
LINE
  8
0
 10
775.569
 20
238.01
 11
775.63
 21
237.758
  0
LINE
  8
0
 10
775.63
 20
237.758
 11
775.65
 21
237.5
  0
LINE
  8
0
 10
775.65
 20
237.5
 11
775.63
 21
237.242
  0
LINE
  8
0
 10
775.63
 20
237.242
 11
775.569
 21
236.99
  0
LINE
  8
0
 10
775.569
 20
236.99
 11
775.47
 21
236.751
  0
LINE
  8
0
 10
775.47
 20
236.751
 11
775.335
 21
236.53
  0
LINE
  8
0
 10
775.335
 20
236.53
 11
775.167
 21
236.333
  0
LINE
  8
0
 10
775.167
 20
236.333
 11
774.97
 21
236.165
  0
LINE
  8
0
 10
774.97
 20
236.165
 11
774.749
 21
236.03
  0
LINE
  8
0
 10
774.749
 20
236.03
 11
774.51
 21
235.931
  0
LINE
  8
0
 10
774.51
 20
235.931
 11
774.258
 21
235.87
  0
LINE
  8
0
 10
774.258
 20
235.87
 11
774
 21
235.85
  0
LINE
  8
0
 10
774
 20
235.85
 11
773.742
 21
235.87
  0
LINE
  8
0
 10
780.25
 20
233.75
 11
780.25
 21
235.255
  0
LINE
  8
0
 10
780.25
 20
235.255
 11
780.775
 21
235.703
  0
LINE
  8
0
 10
780.775
 20
235.703
 11
783.785
 21
237.548
  0
LINE
  8
0
 10
783.785
 20
237.548
 11
787.047
 21
238.899
  0
LINE
  8
0
 10
787.047
 20
238.899
 11
787.75
 21
239.067
  0
LINE
  8
0
 10
787.75
 20
239.067
 11
787.75
 21
233.75
  0
LINE
  8
0
 10
787.75
 20
233.75
 11
780.25
 21
233.75
  0
LINE
  8
0
 10
800.25
 20
233.75
 11
800.25
 21
239.067
  0
LINE
  8
0
 10
800.25
 20
239.067
 11
800.953
 21
238.899
  0
LINE
  8
0
 10
800.953
 20
238.899
 11
804.215
 21
237.548
  0
LINE
  8
0
 10
804.215
 20
237.548
 11
807.225
 21
235.703
  0
LINE
  8
0
 10
807.225
 20
235.703
 11
807.75
 21
235.255
  0
LINE
  8
0
 10
807.75
 20
235.255
 11
807.75
 21
233.75
  0
LINE
  8
0
 10
807.75
 20
233.75
 11
800.25
 21
233.75
  0
LINE
  8
0
 10
726.707
 20
229.604
 11
726.459
 21
229.677
  0
LINE
  8
0
 10
726.459
 20
229.677
 11
726.225
 21
229.789
  0
LINE
  8
0
 10
726.225
 20
229.789
 11
726.012
 21
229.935
  0
LINE
  8
0
 10
726.012
 20
229.935
 11
725.824
 21
230.114
  0
LINE
  8
0
 10
725.824
 20
230.114
 11
725.666
 21
230.319
  0
LINE
  8
0
 10
725.666
 20
230.319
 11
725.543
 21
230.546
  0
LINE
  8
0
 10
725.543
 20
230.546
 11
725.456
 21
230.791
  0
LINE
  8
0
 10
725.456
 20
230.791
 11
725.409
 21
231.045
  0
LINE
  8
0
 10
725.409
 20
231.045
 11
725.402
 21
231.304
  0
LINE
  8
0
 10
725.402
 20
231.304
 11
725.436
 21
231.561
  0
LINE
  8
0
 10
725.436
 20
231.561
 11
725.51
 21
231.809
  0
LINE
  8
0
 10
725.51
 20
231.809
 11
725.621
 21
232.043
  0
LINE
  8
0
 10
725.621
 20
232.043
 11
725.768
 21
232.256
  0
LINE
  8
0
 10
725.768
 20
232.256
 11
725.946
 21
232.444
  0
LINE
  8
0
 10
725.946
 20
232.444
 11
726.151
 21
232.601
  0
LINE
  8
0
 10
726.151
 20
232.601
 11
726.379
 21
232.725
  0
LINE
  8
0
 10
726.379
 20
232.725
 11
726.623
 21
232.811
  0
LINE
  8
0
 10
726.623
 20
232.811
 11
726.878
 21
232.859
  0
LINE
  8
0
 10
726.878
 20
232.859
 11
727.136
 21
232.865
  0
LINE
  8
0
 10
727.136
 20
232.865
 11
727.393
 21
232.832
  0
LINE
  8
0
 10
727.393
 20
232.832
 11
727.641
 21
232.758
  0
LINE
  8
0
 10
727.641
 20
232.758
 11
727.875
 21
232.647
  0
LINE
  8
0
 10
727.875
 20
232.647
 11
728.088
 21
232.5
  0
LINE
  8
0
 10
728.088
 20
232.5
 11
728.276
 21
232.322
  0
LINE
  8
0
 10
728.276
 20
232.322
 11
728.434
 21
232.116
  0
LINE
  8
0
 10
728.434
 20
232.116
 11
728.557
 21
231.889
  0
LINE
  8
0
 10
728.557
 20
231.889
 11
728.644
 21
231.645
  0
LINE
  8
0
 10
728.644
 20
231.645
 11
728.691
 21
231.39
  0
LINE
  8
0
 10
728.691
 20
231.39
 11
728.698
 21
231.131
  0
LINE
  8
0
 10
728.698
 20
231.131
 11
728.664
 21
230.875
  0
LINE
  8
0
 10
728.664
 20
230.875
 11
728.59
 21
230.626
  0
LINE
  8
0
 10
728.59
 20
230.626
 11
728.479
 21
230.393
  0
LINE
  8
0
 10
728.479
 20
230.393
 11
728.332
 21
230.179
  0
LINE
  8
0
 10
728.332
 20
230.179
 11
728.154
 21
229.991
  0
LINE
  8
0
 10
728.154
 20
229.991
 11
727.949
 21
229.834
  0
LINE
  8
0
 10
727.949
 20
229.834
 11
727.721
 21
229.71
  0
LINE
  8
0
 10
727.721
 20
229.71
 11
727.477
 21
229.624
  0
LINE
  8
0
 10
727.477
 20
229.624
 11
727.222
 21
229.577
  0
LINE
  8
0
 10
727.222
 20
229.577
 11
726.964
 21
229.57
  0
LINE
  8
0
 10
726.964
 20
229.57
 11
726.707
 21
229.604
  0
LINE
  8
0
 10
800.25
 20
223.75
 11
800.25
 21
231.25
  0
LINE
  8
0
 10
800.25
 20
231.25
 11
807.75
 21
231.25
  0
LINE
  8
0
 10
807.75
 20
231.25
 11
807.75
 21
223.75
  0
LINE
  8
0
 10
807.75
 20
223.75
 11
800.25
 21
223.75
  0
LINE
  8
0
 10
810.25
 20
223.75
 11
810.25
 21
231.25
  0
LINE
  8
0
 10
810.25
 20
231.25
 11
811.755
 21
231.25
  0
LINE
  8
0
 10
811.755
 20
231.25
 11
812.203
 21
230.725
  0
LINE
  8
0
 10
812.203
 20
230.725
 11
814.048
 21
227.715
  0
LINE
  8
0
 10
814.048
 20
227.715
 11
815.399
 21
224.453
  0
LINE
  8
0
 10
815.399
 20
224.453
 11
815.567
 21
223.75
  0
LINE
  8
0
 10
815.567
 20
223.75
 11
810.25
 21
223.75
  0
LINE
  8
0
 10
780.25
 20
223.75
 11
780.25
 21
231.25
  0
LINE
  8
0
 10
780.25
 20
231.25
 11
787.75
 21
231.25
  0
LINE
  8
0
 10
787.75
 20
231.25
 11
787.75
 21
223.75
  0
LINE
  8
0
 10
787.75
 20
223.75
 11
780.25
 21
223.75
  0
LINE
  8
0
 10
790.25
 20
223.75
 11
790.25
 21
231.25
  0
LINE
  8
0
 10
790.25
 20
231.25
 11
797.75
 21
231.25
  0
LINE
  8
0
 10
797.75
 20
231.25
 11
797.75
 21
223.75
  0
LINE
  8
0
 10
797.75
 20
223.75
 11
790.25
 21
223.75
  0
LINE
  8
0
 10
772.432
 20
223.75
 11
772.601
 21
224.453
  0
LINE
  8
0
 10
772.601
 20
224.453
 11
773.952
 21
227.715
  0
LINE
  8
0
 10
773.952
 20
227.715
 11
775.797
 21
230.725
  0
LINE
  8
0
 10
775.797
 20
230.725
 11
776.245
 21
231.25
  0
LINE
  8
0
 10
776.245
 20
231.25
 11
777.75
 21
231.25
  0
LINE
  8
0
 10
777.75
 20
231.25
 11
777.75
 21
223.75
  0
LINE
  8
0
 10
777.75
 20
223.75
 11
772.432
 21
223.75
  0
LINE
  8
0
 10
711.785
 20
195.817
 11
709.604
 21
196.463
  0
LINE
  8
0
 10
709.604
 20
196.463
 11
707.55
 21
197.443
  0
LINE
  8
0
 10
707.55
 20
197.443
 11
705.675
 21
198.731
  0
LINE
  8
0
 10
705.675
 20
198.731
 11
704.024
 21
200.298
  0
LINE
  8
0
 10
704.024
 20
200.298
 11
702.639
 21
202.103
  0
LINE
  8
0
 10
702.639
 20
202.103
 11
701.554
 21
204.102
  0
LINE
  8
0
 10
701.554
 20
204.102
 11
700.794
 21
206.247
  0
LINE
  8
0
 10
700.794
 20
206.247
 11
700.379
 21
208.484
  0
LINE
  8
0
 10
700.379
 20
208.484
 11
700.32
 21
210.759
  0
LINE
  8
0
 10
700.32
 20
210.759
 11
700.617
 21
213.015
  0
LINE
  8
0
 10
700.617
 20
213.015
 11
701.263
 21
215.196
  0
LINE
  8
0
 10
701.263
 20
215.196
 11
702.243
 21
217.25
  0
LINE
  8
0
 10
702.243
 20
217.25
 11
703.531
 21
219.125
  0
LINE
  8
0
 10
703.531
 20
219.125
 11
705.098
 21
220.776
  0
LINE
  8
0
 10
705.098
 20
220.776
 11
706.903
 21
222.161
  0
LINE
  8
0
 10
706.903
 20
222.161
 11
708.902
 21
223.246
  0
LINE
  8
0
 10
708.902
 20
223.246
 11
711.047
 21
224.006
  0
LINE
  8
0
 10
711.047
 20
224.006
 11
713.284
 21
224.421
  0
LINE
  8
0
 10
713.284
 20
224.421
 11
715.559
 21
224.48
  0
LINE
  8
0
 10
715.559
 20
224.48
 11
717.815
 21
224.183
  0
LINE
  8
0
 10
717.815
 20
224.183
 11
719.996
 21
223.537
  0
LINE
  8
0
 10
719.996
 20
223.537
 11
722.05
 21
222.557
  0
LINE
  8
0
 10
722.05
 20
222.557
 11
723.925
 21
221.269
  0
LINE
  8
0
 10
723.925
 20
221.269
 11
725.576
 21
219.702
  0
LINE
  8
0
 10
725.576
 20
219.702
 11
726.961
 21
217.897
  0
LINE
  8
0
 10
726.961
 20
217.897
 11
728.046
 21
215.898
  0
LINE
  8
0
 10
728.046
 20
215.898
 11
728.806
 21
213.753
  0
LINE
  8
0
 10
728.806
 20
213.753
 11
729.221
 21
211.516
  0
LINE
  8
0
 10
729.221
 20
211.516
 11
729.28
 21
209.241
  0
LINE
  8
0
 10
729.28
 20
209.241
 11
728.983
 21
206.985
  0
LINE
  8
0
 10
728.983
 20
206.985
 11
728.337
 21
204.804
  0
LINE
  8
0
 10
728.337
 20
204.804
 11
727.357
 21
202.75
  0
LINE
  8
0
 10
727.357
 20
202.75
 11
726.069
 21
200.875
  0
LINE
  8
0
 10
726.069
 20
200.875
 11
724.502
 21
199.224
  0
LINE
  8
0
 10
724.502
 20
199.224
 11
722.697
 21
197.839
  0
LINE
  8
0
 10
722.697
 20
197.839
 11
720.698
 21
196.754
  0
LINE
  8
0
 10
720.698
 20
196.754
 11
718.553
 21
195.994
  0
LINE
  8
0
 10
718.553
 20
195.994
 11
716.316
 21
195.579
  0
LINE
  8
0
 10
716.316
 20
195.579
 11
714.041
 21
195.52
  0
LINE
  8
0
 10
714.041
 20
195.52
 11
711.785
 21
195.817
  0
LINE
  8
0
 10
810.25
 20
213.75
 11
810.25
 21
221.25
  0
LINE
  8
0
 10
810.25
 20
221.25
 11
816.168
 21
221.25
  0
LINE
  8
0
 10
816.168
 20
221.25
 11
816.223
 21
221.02
  0
LINE
  8
0
 10
816.223
 20
221.02
 11
816.5
 21
217.5
  0
LINE
  8
0
 10
816.5
 20
217.5
 11
816.223
 21
213.98
  0
LINE
  8
0
 10
816.223
 20
213.98
 11
816.168
 21
213.75
  0
LINE
  8
0
 10
816.168
 20
213.75
 11
810.25
 21
213.75
  0
LINE
  8
0
 10
780.25
 20
213.75
 11
780.25
 21
221.25
  0
LINE
  8
0
 10
780.25
 20
221.25
 11
787.75
 21
221.25
  0
LINE
  8
0
 10
787.75
 20
221.25
 11
787.75
 21
213.75
  0
LINE
  8
0
 10
787.75
 20
213.75
 11
780.25
 21
213.75
  0
LINE
  8
0
 10
800.25
 20
213.75
 11
800.25
 21
221.25
  0
LINE
  8
0
 10
800.25
 20
221.25
 11
807.75
 21
221.25
  0
LINE
  8
0
 10
807.75
 20
221.25
 11
807.75
 21
213.75
  0
LINE
  8
0
 10
807.75
 20
213.75
 11
800.25
 21
213.75
  0
LINE
  8
0
 10
790.25
 20
213.75
 11
790.25
 21
221.25
  0
LINE
  8
0
 10
790.25
 20
221.25
 11
797.75
 21
221.25
  0
LINE
  8
0
 10
797.75
 20
221.25
 11
797.75
 21
213.75
  0
LINE
  8
0
 10
797.75
 20
213.75
 11
790.25
 21
213.75
  0
LINE
  8
0
 10
771.832
 20
213.75
 11
771.777
 21
213.98
  0
LINE
  8
0
 10
771.777
 20
213.98
 11
771.5
 21
217.5
  0
LINE
  8
0
 10
771.5
 20
217.5
 11
771.777
 21
221.02
  0
LINE
  8
0
 10
771.777
 20
221.02
 11
771.832
 21
221.25
  0
LINE
  8
0
 10
771.832
 20
221.25
 11
777.75
 21
221.25
  0
LINE
  8
0
 10
777.75
 20
221.25
 11
777.75
 21
213.75
  0
LINE
  8
0
 10
777.75
 20
213.75
 11
771.832
 21
213.75
  0
LINE
  8
0
 10
810.25
 20
203.75
 11
810.25
 21
211.25
  0
LINE
  8
0
 10
810.25
 20
211.25
 11
815.567
 21
211.25
  0
LINE
  8
0
 10
815.567
 20
211.25
 11
815.399
 21
210.547
  0
LINE
  8
0
 10
815.399
 20
210.547
 11
814.048
 21
207.285
  0
LINE
  8
0
 10
814.048
 20
207.285
 11
812.203
 21
204.275
  0
LINE
  8
0
 10
812.203
 20
204.275
 11
811.755
 21
203.75
  0
LINE
  8
0
 10
811.755
 20
203.75
 11
810.25
 21
203.75
  0
LINE
  8
0
 10
776.245
 20
203.75
 11
775.797
 21
204.275
  0
LINE
  8
0
 10
775.797
 20
204.275
 11
773.952
 21
207.285
  0
LINE
  8
0
 10
773.952
 20
207.285
 11
772.601
 21
210.547
  0
LINE
  8
0
 10
772.601
 20
210.547
 11
772.432
 21
211.25
  0
LINE
  8
0
 10
772.432
 20
211.25
 11
777.75
 21
211.25
  0
LINE
  8
0
 10
777.75
 20
211.25
 11
777.75
 21
203.75
  0
LINE
  8
0
 10
777.75
 20
203.75
 11
776.245
 21
203.75
  0
LINE
  8
0
 10
800.25
 20
203.75
 11
800.25
 21
211.25
  0
LINE
  8
0
 10
800.25
 20
211.25
 11
807.75
 21
211.25
  0
LINE
  8
0
 10
807.75
 20
211.25
 11
807.75
 21
203.75
  0
LINE
  8
0
 10
807.75
 20
203.75
 11
800.25
 21
203.75
  0
LINE
  8
0
 10
790.25
 20
203.75
 11
790.25
 21
211.25
  0
LINE
  8
0
 10
790.25
 20
211.25
 11
797.75
 21
211.25
  0
LINE
  8
0
 10
797.75
 20
211.25
 11
797.75
 21
203.75
  0
LINE
  8
0
 10
797.75
 20
203.75
 11
790.25
 21
203.75
  0
LINE
  8
0
 10
780.25
 20
203.75
 11
780.25
 21
211.25
  0
LINE
  8
0
 10
780.25
 20
211.25
 11
787.75
 21
211.25
  0
LINE
  8
0
 10
787.75
 20
211.25
 11
787.75
 21
203.75
  0
LINE
  8
0
 10
787.75
 20
203.75
 11
780.25
 21
203.75
  0
LINE
  8
0
 10
790.48
 20
195.277
 11
790.25
 21
195.332
  0
LINE
  8
0
 10
790.25
 20
195.332
 11
790.25
 21
201.25
  0
LINE
  8
0
 10
790.25
 20
201.25
 11
797.75
 21
201.25
  0
LINE
  8
0
 10
797.75
 20
201.25
 11
797.75
 21
195.332
  0
LINE
  8
0
 10
797.75
 20
195.332
 11
797.52
 21
195.277
  0
LINE
  8
0
 10
797.52
 20
195.277
 11
794
 21
195
  0
LINE
  8
0
 10
794
 20
195
 11
790.48
 21
195.277
  0
LINE
  8
0
 10
787.047
 20
196.101
 11
783.785
 21
197.452
  0
LINE
  8
0
 10
783.785
 20
197.452
 11
780.775
 21
199.297
  0
LINE
  8
0
 10
780.775
 20
199.297
 11
780.25
 21
199.745
  0
LINE
  8
0
 10
780.25
 20
199.745
 11
780.25
 21
201.25
  0
LINE
  8
0
 10
780.25
 20
201.25
 11
787.75
 21
201.25
  0
LINE
  8
0
 10
787.75
 20
201.25
 11
787.75
 21
195.932
  0
LINE
  8
0
 10
787.75
 20
195.932
 11
787.047
 21
196.101
  0
LINE
  8
0
 10
800.25
 20
201.25
 11
807.75
 21
201.25
  0
LINE
  8
0
 10
807.75
 20
201.25
 11
807.75
 21
199.745
  0
LINE
  8
0
 10
807.75
 20
199.745
 11
807.225
 21
199.297
  0
LINE
  8
0
 10
807.225
 20
199.297
 11
804.215
 21
197.452
  0
LINE
  8
0
 10
804.215
 20
197.452
 11
800.953
 21
196.101
  0
LINE
  8
0
 10
800.953
 20
196.101
 11
800.25
 21
195.932
  0
LINE
  8
0
 10
800.25
 20
195.932
 11
800.25
 21
201.25
  0
LINE
  8
0
 10
773.742
 20
195.87
 11
773.49
 21
195.931
  0
LINE
  8
0
 10
773.49
 20
195.931
 11
773.251
 21
196.03
  0
LINE
  8
0
 10
773.251
 20
196.03
 11
773.03
 21
196.165
  0
LINE
  8
0
 10
773.03
 20
196.165
 11
772.833
 21
196.333
  0
LINE
  8
0
 10
772.833
 20
196.333
 11
772.665
 21
196.53
  0
LINE
  8
0
 10
772.665
 20
196.53
 11
772.53
 21
196.751
  0
LINE
  8
0
 10
772.53
 20
196.751
 11
772.431
 21
196.99
  0
LINE
  8
0
 10
772.431
 20
196.99
 11
772.37
 21
197.242
  0
LINE
  8
0
 10
772.37
 20
197.242
 11
772.35
 21
197.5
  0
LINE
  8
0
 10
772.35
 20
197.5
 11
772.37
 21
197.758
  0
LINE
  8
0
 10
772.37
 20
197.758
 11
772.431
 21
198.01
  0
LINE
  8
0
 10
772.431
 20
198.01
 11
772.53
 21
198.249
  0
LINE
  8
0
 10
772.53
 20
198.249
 11
772.665
 21
198.47
  0
LINE
  8
0
 10
772.665
 20
198.47
 11
772.833
 21
198.667
  0
LINE
  8
0
 10
772.833
 20
198.667
 11
773.03
 21
198.835
  0
LINE
  8
0
 10
773.03
 20
198.835
 11
773.251
 21
198.97
  0
LINE
  8
0
 10
773.251
 20
198.97
 11
773.49
 21
199.069
  0
LINE
  8
0
 10
773.49
 20
199.069
 11
773.742
 21
199.13
  0
LINE
  8
0
 10
773.742
 20
199.13
 11
774
 21
199.15
  0
LINE
  8
0
 10
774
 20
199.15
 11
774.258
 21
199.13
  0
LINE
  8
0
 10
774.258
 20
199.13
 11
774.51
 21
199.069
  0
LINE
  8
0
 10
774.51
 20
199.069
 11
774.749
 21
198.97
  0
LINE
  8
0
 10
774.749
 20
198.97
 11
774.97
 21
198.835
  0
LINE
  8
0
 10
774.97
 20
198.835
 11
775.167
 21
198.667
  0
LINE
  8
0
 10
775.167
 20
198.667
 11
775.335
 21
198.47
  0
LINE
  8
0
 10
775.335
 20
198.47
 11
775.47
 21
198.249
  0
LINE
  8
0
 10
775.47
 20
198.249
 11
775.569
 21
198.01
  0
LINE
  8
0
 10
775.569
 20
198.01
 11
775.63
 21
197.758
  0
LINE
  8
0
 10
775.63
 20
197.758
 11
775.65
 21
197.5
  0
LINE
  8
0
 10
775.65
 20
197.5
 11
775.63
 21
197.242
  0
LINE
  8
0
 10
775.63
 20
197.242
 11
775.569
 21
196.99
  0
LINE
  8
0
 10
775.569
 20
196.99
 11
775.47
 21
196.751
  0
LINE
  8
0
 10
775.47
 20
196.751
 11
775.335
 21
196.53
  0
LINE
  8
0
 10
775.335
 20
196.53
 11
775.167
 21
196.333
  0
LINE
  8
0
 10
775.167
 20
196.333
 11
774.97
 21
196.165
  0
LINE
  8
0
 10
774.97
 20
196.165
 11
774.749
 21
196.03
  0
LINE
  8
0
 10
774.749
 20
196.03
 11
774.51
 21
195.931
  0
LINE
  8
0
 10
774.51
 20
195.931
 11
774.258
 21
195.87
  0
LINE
  8
0
 10
774.258
 20
195.87
 11
774
 21
195.85
  0
LINE
  8
0
 10
774
 20
195.85
 11
773.742
 21
195.87
  0
LINE
  8
0
 10
813.742
 20
195.87
 11
813.49
 21
195.931
  0
LINE
  8
0
 10
813.49
 20
195.931
 11
813.251
 21
196.03
  0
LINE
  8
0
 10
813.251
 20
196.03
 11
813.03
 21
196.165
  0
LINE
  8
0
 10
813.03
 20
196.165
 11
812.833
 21
196.333
  0
LINE
  8
0
 10
812.833
 20
196.333
 11
812.665
 21
196.53
  0
LINE
  8
0
 10
812.665
 20
196.53
 11
812.53
 21
196.751
  0
LINE
  8
0
 10
812.53
 20
196.751
 11
812.431
 21
196.99
  0
LINE
  8
0
 10
812.431
 20
196.99
 11
812.37
 21
197.242
  0
LINE
  8
0
 10
812.37
 20
197.242
 11
812.35
 21
197.5
  0
LINE
  8
0
 10
812.35
 20
197.5
 11
812.37
 21
197.758
  0
LINE
  8
0
 10
812.37
 20
197.758
 11
812.431
 21
198.01
  0
LINE
  8
0
 10
812.431
 20
198.01
 11
812.53
 21
198.249
  0
LINE
  8
0
 10
812.53
 20
198.249
 11
812.665
 21
198.47
  0
LINE
  8
0
 10
812.665
 20
198.47
 11
812.833
 21
198.667
  0
LINE
  8
0
 10
812.833
 20
198.667
 11
813.03
 21
198.835
  0
LINE
  8
0
 10
813.03
 20
198.835
 11
813.251
 21
198.97
  0
LINE
  8
0
 10
813.251
 20
198.97
 11
813.49
 21
199.069
  0
LINE
  8
0
 10
813.49
 20
199.069
 11
813.742
 21
199.13
  0
LINE
  8
0
 10
813.742
 20
199.13
 11
814
 21
199.15
  0
LINE
  8
0
 10
814
 20
199.15
 11
814.258
 21
199.13
  0
LINE
  8
0
 10
814.258
 20
199.13
 11
814.51
 21
199.069
  0
LINE
  8
0
 10
814.51
 20
199.069
 11
814.749
 21
198.97
  0
LINE
  8
0
 10
814.749
 20
198.97
 11
814.97
 21
198.835
  0
LINE
  8
0
 10
814.97
 20
198.835
 11
815.167
 21
198.667
  0
LINE
  8
0
 10
815.167
 20
198.667
 11
815.335
 21
198.47
  0
LINE
  8
0
 10
815.335
 20
198.47
 11
815.47
 21
198.249
  0
LINE
  8
0
 10
815.47
 20
198.249
 11
815.569
 21
198.01
  0
LINE
  8
0
 10
815.569
 20
198.01
 11
815.63
 21
197.758
  0
LINE
  8
0
 10
815.63
 20
197.758
 11
815.65
 21
197.5
  0
LINE
  8
0
 10
815.65
 20
197.5
 11
815.63
 21
197.242
  0
LINE
  8
0
 10
815.63
 20
197.242
 11
815.569
 21
196.99
  0
LINE
  8
0
 10
815.569
 20
196.99
 11
815.47
 21
196.751
  0
LINE
  8
0
 10
815.47
 20
196.751
 11
815.335
 21
196.53
  0
LINE
  8
0
 10
815.335
 20
196.53
 11
815.167
 21
196.333
  0
LINE
  8
0
 10
815.167
 20
196.333
 11
814.97
 21
196.165
  0
LINE
  8
0
 10
814.97
 20
196.165
 11
814.749
 21
196.03
  0
LINE
  8
0
 10
814.749
 20
196.03
 11
814.51
 21
195.931
  0
LINE
  8
0
 10
814.51
 20
195.931
 11
814.258
 21
195.87
  0
LINE
  8
0
 10
814.258
 20
195.87
 11
814
 21
195.85
  0
LINE
  8
0
 10
814
 20
195.85
 11
813.742
 21
195.87
  0
LINE
  8
0
 10
702.207
 20
187.168
 11
701.959
 21
187.242
  0
LINE
  8
0
 10
701.959
 20
187.242
 11
701.725
 21
187.353
  0
LINE
  8
0
 10
701.725
 20
187.353
 11
701.512
 21
187.5
  0
LINE
  8
0
 10
701.512
 20
187.5
 11
701.324
 21
187.678
  0
LINE
  8
0
 10
701.324
 20
187.678
 11
701.166
 21
187.884
  0
LINE
  8
0
 10
701.166
 20
187.884
 11
701.043
 21
188.111
  0
LINE
  8
0
 10
701.043
 20
188.111
 11
700.956
 21
188.355
  0
LINE
  8
0
 10
700.956
 20
188.355
 11
700.909
 21
188.61
  0
LINE
  8
0
 10
700.909
 20
188.61
 11
700.902
 21
188.869
  0
LINE
  8
0
 10
700.902
 20
188.869
 11
700.936
 21
189.125
  0
LINE
  8
0
 10
700.936
 20
189.125
 11
701.01
 21
189.374
  0
LINE
  8
0
 10
701.01
 20
189.374
 11
701.121
 21
189.607
  0
LINE
  8
0
 10
701.121
 20
189.607
 11
701.268
 21
189.821
  0
LINE
  8
0
 10
701.268
 20
189.821
 11
701.446
 21
190.009
  0
LINE
  8
0
 10
701.446
 20
190.009
 11
701.651
 21
190.166
  0
LINE
  8
0
 10
701.651
 20
190.166
 11
701.879
 21
190.29
  0
LINE
  8
0
 10
701.879
 20
190.29
 11
702.123
 21
190.376
  0
LINE
  8
0
 10
702.123
 20
190.376
 11
702.378
 21
190.423
  0
LINE
  8
0
 10
702.378
 20
190.423
 11
702.636
 21
190.43
  0
LINE
  8
0
 10
702.636
 20
190.43
 11
702.893
 21
190.396
  0
LINE
  8
0
 10
702.893
 20
190.396
 11
703.141
 21
190.323
  0
LINE
  8
0
 10
703.141
 20
190.323
 11
703.375
 21
190.211
  0
LINE
  8
0
 10
703.375
 20
190.211
 11
703.588
 21
190.065
  0
LINE
  8
0
 10
703.588
 20
190.065
 11
703.776
 21
189.886
  0
LINE
  8
0
 10
703.776
 20
189.886
 11
703.934
 21
189.681
  0
LINE
  8
0
 10
703.934
 20
189.681
 11
704.057
 21
189.453
  0
LINE
  8
0
 10
704.057
 20
189.453
 11
704.144
 21
189.209
  0
LINE
  8
0
 10
704.144
 20
189.209
 11
704.191
 21
188.955
  0
LINE
  8
0
 10
704.191
 20
188.955
 11
704.198
 21
188.696
  0
LINE
  8
0
 10
704.198
 20
188.696
 11
704.164
 21
188.439
  0
LINE
  8
0
 10
704.164
 20
188.439
 11
704.09
 21
188.191
  0
LINE
  8
0
 10
704.09
 20
188.191
 11
703.979
 21
187.957
  0
LINE
  8
0
 10
703.979
 20
187.957
 11
703.832
 21
187.744
  0
LINE
  8
0
 10
703.832
 20
187.744
 11
703.654
 21
187.556
  0
LINE
  8
0
 10
703.654
 20
187.556
 11
703.449
 21
187.399
  0
LINE
  8
0
 10
703.449
 20
187.399
 11
703.221
 21
187.275
  0
LINE
  8
0
 10
703.221
 20
187.275
 11
702.977
 21
187.189
  0
LINE
  8
0
 10
702.977
 20
187.189
 11
702.722
 21
187.141
  0
LINE
  8
0
 10
702.722
 20
187.141
 11
702.464
 21
187.135
  0
LINE
  8
0
 10
702.464
 20
187.135
 11
702.207
 21
187.168
  0
LINE
  8
0
 10
234
 20
234
 11
0
 21
234
  0
LINE
  8
0
 10
0
 20
234
 11
0
 21
0
  0
LINE
  8
0
 10
0
 20
0
 11
234
 21
0
  0
LINE
  8
0
 10
234
 20
0
 11
234
 21
234
  0
LINE
  8
0
 10
10
 20
209.5
 11
10
 21
224
  0
LINE
  8
0
 10
10
 20
224
 11
24.5
 21
224
  0
LINE
  8
0
 10
24.5
 20
224
 11
24.5
 21
218.8
  0
LINE
  8
0
 10
24.5
 20
218.8
 11
15.2
 21
218.8
  0
LINE
  8
0
 10
15.2
 20
218.8
 11
15.2
 21
209.5
  0
LINE
  8
0
 10
15.2
 20
209.5
 11
10
 21
209.5
  0
LINE
  8
0
 10
179.5
 20
218.8
 11
179.5
 21
224
  0
LINE
  8
0
 10
179.5
 20
224
 11
184.5
 21
224
  0
LINE
  8
0
 10
184.5
 20
224
 11
184.5
 21
218.8
  0
LINE
  8
0
 10
184.5
 20
218.8
 11
179.5
 21
218.8
  0
LINE
  8
0
 10
189.5
 20
218.8
 11
189.5
 21
224
  0
LINE
  8
0
 10
189.5
 20
224
 11
194.5
 21
224
  0
LINE
  8
0
 10
194.5
 20
224
 11
194.5
 21
218.8
  0
LINE
  8
0
 10
194.5
 20
218.8
 11
189.5
 21
218.8
  0
LINE
  8
0
 10
89.5
 20
218.8
 11
89.5
 21
224
  0
LINE
  8
0
 10
89.5
 20
224
 11
94.5
 21
224
  0
LINE
  8
0
 10
94.5
 20
224
 11
94.5
 21
218.8
  0
LINE
  8
0
 10
94.5
 20
218.8
 11
89.5
 21
218.8
  0
LINE
  8
0
 10
99.5
 20
218.8
 11
99.5
 21
224
  0
LINE
  8
0
 10
99.5
 20
224
 11
104.5
 21
224
  0
LINE
  8
0
 10
104.5
 20
224
 11
104.5
 21
218.8
  0
LINE
  8
0
 10
104.5
 20
218.8
 11
99.5
 21
218.8
  0
LINE
  8
0
 10
109.5
 20
218.8
 11
109.5
 21
224
  0
LINE
  8
0
 10
109.5
 20
224
 11
114.5
 21
224
  0
LINE
  8
0
 10
114.5
 20
224
 11
114.5
 21
218.8
  0
LINE
  8
0
 10
114.5
 20
218.8
 11
109.5
 21
218.8
  0
LINE
  8
0
 10
119.5
 20
218.8
 11
119.5
 21
224
  0
LINE
  8
0
 10
119.5
 20
224
 11
124.5
 21
224
  0
LINE
  8
0
 10
124.5
 20
224
 11
124.5
 21
218.8
  0
LINE
  8
0
 10
124.5
 20
218.8
 11
119.5
 21
218.8
  0
LINE
  8
0
 10
129.5
 20
218.8
 11
129.5
 21
224
  0
LINE
  8
0
 10
129.5
 20
224
 11
134.5
 21
224
  0
LINE
  8
0
 10
134.5
 20
224
 11
134.5
 21
218.8
  0
LINE
  8
0
 10
134.5
 20
218.8
 11
129.5
 21
218.8
  0
LINE
  8
0
 10
139.5
 20
218.8
 11
139.5
 21
224
  0
LINE
  8
0
 10
139.5
 20
224
 11
144.5
 21
224
  0
LINE
  8
0
 10
144.5
 20
224
 11
144.5
 21
218.8
  0
LINE
  8
0
 10
144.5
 20
218.8
 11
139.5
 21
218.8
  0
LINE
  8
0
 10
149.5
 20
218.8
 11
149.5
 21
224
  0
LINE
  8
0
 10
149.5
 20
224
 11
154.5
 21
224
  0
LINE
  8
0
 10
154.5
 20
224
 11
154.5
 21
218.8
  0
LINE
  8
0
 10
154.5
 20
218.8
 11
149.5
 21
218.8
  0
LINE
  8
0
 10
159.5
 20
218.8
 11
159.5
 21
224
  0
LINE
  8
0
 10
159.5
 20
224
 11
164.5
 21
224
  0
LINE
  8
0
 10
164.5
 20
224
 11
164.5
 21
218.8
  0
LINE
  8
0
 10
164.5
 20
218.8
 11
159.5
 21
218.8
  0
LINE
  8
0
 10
169.5
 20
218.8
 11
169.5
 21
224
  0
LINE
  8
0
 10
169.5
 20
224
 11
174.5
 21
224
  0
LINE
  8
0
 10
174.5
 20
224
 11
174.5
 21
218.8
  0
LINE
  8
0
 10
174.5
 20
218.8
 11
169.5
 21
218.8
  0
LINE
  8
0
 10
199.5
 20
218.8
 11
199.5
 21
224
  0
LINE
  8
0
 10
199.5
 20
224
 11
204.5
 21
224
  0
LINE
  8
0
 10
204.5
 20
224
 11
204.5
 21
218.8
  0
LINE
  8
0
 10
204.5
 20
218.8
 11
199.5
 21
218.8
  0
LINE
  8
0
 10
69.5
 20
218.8
 11
69.5
 21
224
  0
LINE
  8
0
 10
69.5
 20
224
 11
74.5
 21
224
  0
LINE
  8
0
 10
74.5
 20
224
 11
74.5
 21
218.8
  0
LINE
  8
0
 10
74.5
 20
218.8
 11
69.5
 21
218.8
  0
LINE
  8
0
 10
59.5
 20
218.8
 11
59.5
 21
224
  0
LINE
  8
0
 10
59.5
 20
224
 11
64.5
 21
224
  0
LINE
  8
0
 10
64.5
 20
224
 11
64.5
 21
218.8
  0
LINE
  8
0
 10
64.5
 20
218.8
 11
59.5
 21
218.8
  0
LINE
  8
0
 10
49.5
 20
218.8
 11
49.5
 21
224
  0
LINE
  8
0
 10
49.5
 20
224
 11
54.5
 21
224
  0
LINE
  8
0
 10
54.5
 20
224
 11
54.5
 21
218.8
  0
LINE
  8
0
 10
54.5
 20
218.8
 11
49.5
 21
218.8
  0
LINE
  8
0
 10
39.5
 20
218.8
 11
39.5
 21
224
  0
LINE
  8
0
 10
39.5
 20
224
 11
44.5
 21
224
  0
LINE
  8
0
 10
44.5
 20
224
 11
44.5
 21
218.8
  0
LINE
  8
0
 10
44.5
 20
218.8
 11
39.5
 21
218.8
  0
LINE
  8
0
 10
29.5
 20
218.8
 11
29.5
 21
224
  0
LINE
  8
0
 10
29.5
 20
224
 11
34.5
 21
224
  0
LINE
  8
0
 10
34.5
 20
224
 11
34.5
 21
218.8
  0
LINE
  8
0
 10
34.5
 20
218.8
 11
29.5
 21
218.8
  0
LINE
  8
0
 10
79.5
 20
218.8
 11
79.5
 21
224
  0
LINE
  8
0
 10
79.5
 20
224
 11
84.5
 21
224
  0
LINE
  8
0
 10
84.5
 20
224
 11
84.5
 21
218.8
  0
LINE
  8
0
 10
84.5
 20
218.8
 11
79.5
 21
218.8
  0
LINE
  8
0
 10
218.8
 20
209.5
 11
218.8
 21
218.8
  0
LINE
  8
0
 10
218.8
 20
218.8
 11
209.5
 21
218.8
  0
LINE
  8
0
 10
209.5
 20
218.8
 11
209.5
 21
224
  0
LINE
  8
0
 10
209.5
 20
224
 11
224
 21
224
  0
LINE
  8
0
 10
224
 20
224
 11
224
 21
209.5
  0
LINE
  8
0
 10
224
 20
209.5
 11
218.8
 21
209.5
  0
LINE
  8
0
 10
10
 20
199.5
 11
10
 21
204.5
  0
LINE
  8
0
 10
10
 20
204.5
 11
15.2
 21
204.5
  0
LINE
  8
0
 10
15.2
 20
204.5
 11
15.2
 21
199.5
  0
LINE
  8
0
 10
15.2
 20
199.5
 11
10
 21
199.5
  0
LINE
  8
0
 10
218.8
 20
199.5
 11
218.8
 21
204.5
  0
LINE
  8
0
 10
218.8
 20
204.5
 11
224
 21
204.5
  0
LINE
  8
0
 10
224
 20
204.5
 11
224
 21
199.5
  0
LINE
  8
0
 10
224
 20
199.5
 11
218.8
 21
199.5
  0
LINE
  8
0
 10
87
 20
19.7
 11
87
 21
30
  0
LINE
  8
0
 10
87
 20
30
 11
30
 21
30
  0
LINE
  8
0
 10
30
 20
30
 11
30
 21
204
  0
LINE
  8
0
 10
30
 20
204
 11
204
 21
204
  0
LINE
  8
0
 10
204
 20
204
 11
204
 21
30
  0
LINE
  8
0
 10
204
 20
30
 11
147
 21
30
  0
LINE
  8
0
 10
147
 20
30
 11
147
 21
19.7
  0
LINE
  8
0
 10
147
 20
19.7
 11
87
 21
19.7
  0
LINE
  8
0
 10
10
 20
189.5
 11
10
 21
194.5
  0
LINE
  8
0
 10
10
 20
194.5
 11
15.2
 21
194.5
  0
LINE
  8
0
 10
15.2
 20
194.5
 11
15.2
 21
189.5
  0
LINE
  8
0
 10
15.2
 20
189.5
 11
10
 21
189.5
  0
LINE
  8
0
 10
218.8
 20
189.5
 11
218.8
 21
194.5
  0
LINE
  8
0
 10
218.8
 20
194.5
 11
224
 21
194.5
  0
LINE
  8
0
 10
224
 20
194.5
 11
224
 21
189.5
  0
LINE
  8
0
 10
224
 20
189.5
 11
218.8
 21
189.5
  0
LINE
  8
0
 10
218.8
 20
179.5
 11
218.8
 21
184.5
  0
LINE
  8
0
 10
218.8
 20
184.5
 11
224
 21
184.5
  0
LINE
  8
0
 10
224
 20
184.5
 11
224
 21
179.5
  0
LINE
  8
0
 10
224
 20
179.5
 11
218.8
 21
179.5
  0
LINE
  8
0
 10
10
 20
179.5
 11
10
 21
184.5
  0
LINE
  8
0
 10
10
 20
184.5
 11
15.2
 21
184.5
  0
LINE
  8
0
 10
15.2
 20
184.5
 11
15.2
 21
179.5
  0
LINE
  8
0
 10
15.2
 20
179.5
 11
10
 21
179.5
  0
LINE
  8
0
 10
10
 20
169.5
 11
10
 21
174.5
  0
LINE
  8
0
 10
10
 20
174.5
 11
15.2
 21
174.5
  0
LINE
  8
0
 10
15.2
 20
174.5
 11
15.2
 21
169.5
  0
LINE
  8
0
 10
15.2
 20
169.5
 11
10
 21
169.5
  0
LINE
  8
0
 10
218.8
 20
169.5
 11
218.8
 21
174.5
  0
LINE
  8
0
 10
218.8
 20
174.5
 11
224
 21
174.5
  0
LINE
  8
0
 10
224
 20
174.5
 11
224
 21
169.5
  0
LINE
  8
0
 10
224
 20
169.5
 11
218.8
 21
169.5
  0
LINE
  8
0
 10
218.8
 20
159.5
 11
218.8
 21
164.5
  0
LINE
  8
0
 10
218.8
 20
164.5
 11
224
 21
164.5
  0
LINE
  8
0
 10
224
 20
164.5
 11
224
 21
159.5
  0
LINE
  8
0
 10
224
 20
159.5
 11
218.8
 21
159.5
  0
LINE
  8
0
 10
10
 20
159.5
 11
10
 21
164.5
  0
LINE
  8
0
 10
10
 20
164.5
 11
15.2
 21
164.5
  0
LINE
  8
0
 10
15.2
 20
164.5
 11
15.2
 21
159.5
  0
LINE
  8
0
 10
15.2
 20
159.5
 11
10
 21
159.5
  0
LINE
  8
0
 10
218.8
 20
149.5
 11
218.8
 21
154.5
  0
LINE
  8
0
 10
218.8
 20
154.5
 11
224
 21
154.5
  0
LINE
  8
0
 10
224
 20
154.5
 11
224
 21
149.5
  0
LINE
  8
0
 10
224
 20
149.5
 11
218.8
 21
149.5
  0
LINE
  8
0
 10
10
 20
149.5
 11
10
 21
154.5
  0
LINE
  8
0
 10
10
 20
154.5
 11
15.2
 21
154.5
  0
LINE
  8
0
 10
15.2
 20
154.5
 11
15.2
 21
149.5
  0
LINE
  8
0
 10
15.2
 20
149.5
 11
10
 21
149.5
  0
LINE
  8
0
 10
218.8
 20
139.5
 11
218.8
 21
144.5
  0
LINE
  8
0
 10
218.8
 20
144.5
 11
224
 21
144.5
  0
LINE
  8
0
 10
224
 20
144.5
 11
224
 21
139.5
  0
LINE
  8
0
 10
224
 20
139.5
 11
218.8
 21
139.5
  0
LINE
  8
0
 10
10
 20
139.5
 11
10
 21
144.5
  0
LINE
  8
0
 10
10
 20
144.5
 11
15.2
 21
144.5
  0
LINE
  8
0
 10
15.2
 20
144.5
 11
15.2
 21
139.5
  0
LINE
  8
0
 10
15.2
 20
139.5
 11
10
 21
139.5
  0
LINE
  8
0
 10
218.8
 20
129.5
 11
218.8
 21
134.5
  0
LINE
  8
0
 10
218.8
 20
134.5
 11
224
 21
134.5
  0
LINE
  8
0
 10
224
 20
134.5
 11
224
 21
129.5
  0
LINE
  8
0
 10
224
 20
129.5
 11
218.8
 21
129.5
  0
LINE
  8
0
 10
10
 20
129.5
 11
10
 21
134.5
  0
LINE
  8
0
 10
10
 20
134.5
 11
15.2
 21
134.5
  0
LINE
  8
0
 10
15.2
 20
134.5
 11
15.2
 21
129.5
  0
LINE
  8
0
 10
15.2
 20
129.5
 11
10
 21
129.5
  0
LINE
  8
0
 10
218.8
 20
119.5
 11
218.8
 21
124.5
  0
LINE
  8
0
 10
218.8
 20
124.5
 11
224
 21
124.5
  0
LINE
  8
0
 10
224
 20
124.5
 11
224
 21
119.5
  0
LINE
  8
0
 10
224
 20
119.5
 11
218.8
 21
119.5
  0
LINE
  8
0
 10
10
 20
119.5
 11
10
 21
124.5
  0
LINE
  8
0
 10
10
 20
124.5
 11
15.2
 21
124.5
  0
LINE
  8
0
 10
15.2
 20
124.5
 11
15.2
 21
119.5
  0
LINE
  8
0
 10
15.2
 20
119.5
 11
10
 21
119.5
  0
LINE
  8
0
 10
218.8
 20
109.5
 11
218.8
 21
114.5
  0
LINE
  8
0
 10
218.8
 20
114.5
 11
224
 21
114.5
  0
LINE
  8
0
 10
224
 20
114.5
 11
224
 21
109.5
  0
LINE
  8
0
 10
224
 20
109.5
 11
218.8
 21
109.5
  0
LINE
  8
0
 10
10
 20
109.5
 11
10
 21
114.5
  0
LINE
  8
0
 10
10
 20
114.5
 11
15.2
 21
114.5
  0
LINE
  8
0
 10
15.2
 20
114.5
 11
15.2
 21
109.5
  0
LINE
  8
0
 10
15.2
 20
109.5
 11
10
 21
109.5
  0
LINE
  8
0
 10
218.8
 20
99.5
 11
218.8
 21
104.5
  0
LINE
  8
0
 10
218.8
 20
104.5
 11
224
 21
104.5
  0
LINE
  8
0
 10
224
 20
104.5
 11
224
 21
99.5
  0
LINE
  8
0
 10
224
 20
99.5
 11
218.8
 21
99.5
  0
LINE
  8
0
 10
10
 20
99.5
 11
10
 21
104.5
  0
LINE
  8
0
 10
10
 20
104.5
 11
15.2
 21
104.5
  0
LINE
  8
0
 10
15.2
 20
104.5
 11
15.2
 21
99.5
  0
LINE
  8
0
 10
15.2
 20
99.5
 11
10
 21
99.5
  0
LINE
  8
0
 10
218.8
 20
89.5
 11
218.8
 21
94.5
  0
LINE
  8
0
 10
218.8
 20
94.5
 11
224
 21
94.5
  0
LINE
  8
0
 10
224
 20
94.5
 11
224
 21
89.5
  0
LINE
  8
0
 10
224
 20
89.5
 11
218.8
 21
89.5
  0
LINE
  8
0
 10
10
 20
89.5
 11
10
 21
94.5
  0
LINE
  8
0
 10
10
 20
94.5
 11
15.2
 21
94.5
  0
LINE
  8
0
 10
15.2
 20
94.5
 11
15.2
 21
89.5
  0
LINE
  8
0
 10
15.2
 20
89.5
 11
10
 21
89.5
  0
LINE
  8
0
 10
10
 20
79.5
 11
10
 21
84.5
  0
LINE
  8
0
 10
10
 20
84.5
 11
15.2
 21
84.5
  0
LINE
  8
0
 10
15.2
 20
84.5
 11
15.2
 21
79.5
  0
LINE
  8
0
 10
15.2
 20
79.5
 11
10
 21
79.5
  0
LINE
  8
0
 10
218.8
 20
79.5
 11
218.8
 21
84.5
  0
LINE
  8
0
 10
218.8
 20
84.5
 11
224
 21
84.5
  0
LINE
  8
0
 10
224
 20
84.5
 11
224
 21
79.5
  0
LINE
  8
0
 10
224
 20
79.5
 11
218.8
 21
79.5
  0
LINE
  8
0
 10
218.8
 20
69.5
 11
218.8
 21
74.5
  0
LINE
  8
0
 10
218.8
 20
74.5
 11
224
 21
74.5
  0
LINE
  8
0
 10
224
 20
74.5
 11
224
 21
69.5
  0
LINE
  8
0
 10
224
 20
69.5
 11
218.8
 21
69.5
  0
LINE
  8
0
 10
10
 20
69.5
 11
10
 21
74.5
  0
LINE
  8
0
 10
10
 20
74.5
 11
15.2
 21
74.5
  0
LINE
  8
0
 10
15.2
 20
74.5
 11
15.2
 21
69.5
  0
LINE
  8
0
 10
15.2
 20
69.5
 11
10
 21
69.5
  0
LINE
  8
0
 10
10
 20
59.5
 11
10
 21
64.5
  0
LINE
  8
0
 10
10
 20
64.5
 11
15.2
 21
64.5
  0
LINE
  8
0
 10
15.2
 20
64.5
 11
15.2
 21
59.5
  0
LINE
  8
0
 10
15.2
 20
59.5
 11
10
 21
59.5
  0
LINE
  8
0
 10
218.8
 20
59.5
 11
218.8
 21
64.5
  0
LINE
  8
0
 10
218.8
 20
64.5
 11
224
 21
64.5
  0
LINE
  8
0
 10
224
 20
64.5
 11
224
 21
59.5
  0
LINE
  8
0
 10
224
 20
59.5
 11
218.8
 21
59.5
  0
LINE
  8
0
 10
218.8
 20
49.5
 11
218.8
 21
54.5
  0
LINE
  8
0
 10
218.8
 20
54.5
 11
224
 21
54.5
  0
LINE
  8
0
 10
224
 20
54.5
 11
224
 21
49.5
  0
LINE
  8
0
 10
224
 20
49.5
 11
218.8
 21
49.5
  0
LINE
  8
0
 10
10
 20
49.5
 11
10
 21
54.5
  0
LINE
  8
0
 10
10
 20
54.5
 11
15.2
 21
54.5
  0
LINE
  8
0
 10
15.2
 20
54.5
 11
15.2
 21
49.5
  0
LINE
  8
0
 10
15.2
 20
49.5
 11
10
 21
49.5
  0
LINE
  8
0
 10
218.8
 20
39.5
 11
218.8
 21
44.5
  0
LINE
  8
0
 10
218.8
 20
44.5
 11
224
 21
44.5
  0
LINE
  8
0
 10
224
 20
44.5
 11
224
 21
39.5
  0
LINE
  8
0
 10
224
 20
39.5
 11
218.8
 21
39.5
  0
LINE
  8
0
 10
10
 20
39.5
 11
10
 21
44.5
  0
LINE
  8
0
 10
10
 20
44.5
 11
15.2
 21
44.5
  0
LINE
  8
0
 10
15.2
 20
44.5
 11
15.2
 21
39.5
  0
LINE
  8
0
 10
15.2
 20
39.5
 11
10
 21
39.5
  0
LINE
  8
0
 10
218.8
 20
29.5
 11
218.8
 21
34.5
  0
LINE
  8
0
 10
218.8
 20
34.5
 11
224
 21
34.5
  0
LINE
  8
0
 10
224
 20
34.5
 11
224
 21
29.5
  0
LINE
  8
0
 10
224
 20
29.5
 11
218.8
 21
29.5
  0
LINE
  8
0
 10
10
 20
29.5
 11
10
 21
34.5
  0
LINE
  8
0
 10
10
 20
34.5
 11
15.2
 21
34.5
  0
LINE
  8
0
 10
15.2
 20
34.5
 11
15.2
 21
29.5
  0
LINE
  8
0
 10
15.2
 20
29.5
 11
10
 21
29.5
  0
LINE
  8
0
 10
209.5
 20
10
 11
209.5
 21
15.2
  0
LINE
  8
0
 10
209.5
 20
15.2
 11
218.8
 21
15.2
  0
LINE
  8
0
 10
218.8
 20
15.2
 11
218.8
 21
24.5
  0
LINE
  8
0
 10
218.8
 20
24.5
 11
224
 21
24.5
  0
LINE
  8
0
 10
224
 20
24.5
 11
224
 21
10
  0
LINE
  8
0
 10
224
 20
10
 11
209.5
 21
10
  0
LINE
  8
0
 10
10
 20
10
 11
10
 21
24.5
  0
LINE
  8
0
 10
10
 20
24.5
 11
15.2
 21
24.5
  0
LINE
  8
0
 10
15.2
 20
24.5
 11
15.2
 21
15.2
  0
LINE
  8
0
 10
15.2
 20
15.2
 11
24.5
 21
15.2
  0
LINE
  8
0
 10
24.5
 20
15.2
 11
24.5
 21
10
  0
LINE
  8
0
 10
24.5
 20
10
 11
10
 21
10
  0
LINE
  8
0
 10
39.5
 20
10
 11
39.5
 21
15.2
  0
LINE
  8
0
 10
39.5
 20
15.2
 11
44.5
 21
15.2
  0
LINE
  8
0
 10
44.5
 20
15.2
 11
44.5
 21
10
  0
LINE
  8
0
 10
44.5
 20
10
 11
39.5
 21
10
  0
LINE
  8
0
 10
59.5
 20
10
 11
59.5
 21
15.2
  0
LINE
  8
0
 10
59.5
 20
15.2
 11
64.5
 21
15.2
  0
LINE
  8
0
 10
64.5
 20
15.2
 11
64.5
 21
10
  0
LINE
  8
0
 10
64.5
 20
10
 11
59.5
 21
10
  0
LINE
  8
0
 10
49.5
 20
10
 11
49.5
 21
15.2
  0
LINE
  8
0
 10
49.5
 20
15.2
 11
54.5
 21
15.2
  0
LINE
  8
0
 10
54.5
 20
15.2
 11
54.5
 21
10
  0
LINE
  8
0
 10
54.5
 20
10
 11
49.5
 21
10
  0
LINE
  8
0
 10
149.5
 20
10
 11
149.5
 21
15.2
  0
LINE
  8
0
 10
149.5
 20
15.2
 11
154.5
 21
15.2
  0
LINE
  8
0
 10
154.5
 20
15.2
 11
154.5
 21
10
  0
LINE
  8
0
 10
154.5
 20
10
 11
149.5
 21
10
  0
LINE
  8
0
 10
139.5
 20
10
 11
139.5
 21
15.2
  0
LINE
  8
0
 10
139.5
 20
15.2
 11
144.5
 21
15.2
  0
LINE
  8
0
 10
144.5
 20
15.2
 11
144.5
 21
10
  0
LINE
  8
0
 10
144.5
 20
10
 11
139.5
 21
10
  0
LINE
  8
0
 10
29.5
 20
10
 11
29.5
 21
15.2
  0
LINE
  8
0
 10
29.5
 20
15.2
 11
34.5
 21
15.2
  0
LINE
  8
0
 10
34.5
 20
15.2
 11
34.5
 21
10
  0
LINE
  8
0
 10
34.5
 20
10
 11
29.5
 21
10
  0
LINE
  8
0
 10
199.5
 20
10
 11
199.5
 21
15.2
  0
LINE
  8
0
 10
199.5
 20
15.2
 11
204.5
 21
15.2
  0
LINE
  8
0
 10
204.5
 20
15.2
 11
204.5
 21
10
  0
LINE
  8
0
 10
204.5
 20
10
 11
199.5
 21
10
  0
LINE
  8
0
 10
119.5
 20
10
 11
119.5
 21
15.2
  0
LINE
  8
0
 10
119.5
 20
15.2
 11
124.5
 21
15.2
  0
LINE
  8
0
 10
124.5
 20
15.2
 11
124.5
 21
10
  0
LINE
  8
0
 10
124.5
 20
10
 11
119.5
 21
10
  0
LINE
  8
0
 10
109.5
 20
10
 11
109.5
 21
15.2
  0
LINE
  8
0
 10
109.5
 20
15.2
 11
114.5
 21
15.2
  0
LINE
  8
0
 10
114.5
 20
15.2
 11
114.5
 21
10
  0
LINE
  8
0
 10
114.5
 20
10
 11
109.5
 21
10
  0
LINE
  8
0
 10
99.5
 20
10
 11
99.5
 21
15.2
  0
LINE
  8
0
 10
99.5
 20
15.2
 11
104.5
 21
15.2
  0
LINE
  8
0
 10
104.5
 20
15.2
 11
104.5
 21
10
  0
LINE
  8
0
 10
104.5
 20
10
 11
99.5
 21
10
  0
LINE
  8
0
 10
89.5
 20
10
 11
89.5
 21
15.2
  0
LINE
  8
0
 10
89.5
 20
15.2
 11
94.5
 21
15.2
  0
LINE
  8
0
 10
94.5
 20
15.2
 11
94.5
 21
10
  0
LINE
  8
0
 10
94.5
 20
10
 11
89.5
 21
10
  0
LINE
  8
0
 10
79.5
 20
10
 11
79.5
 21
15.2
  0
LINE
  8
0
 10
79.5
 20
15.2
 11
84.5
 21
15.2
  0
LINE
  8
0
 10
84.5
 20
15.2
 11
84.5
 21
10
  0
LINE
  8
0
 10
84.5
 20
10
 11
79.5
 21
10
  0
LINE
  8
0
 10
159.5
 20
10
 11
159.5
 21
15.2
  0
LINE
  8
0
 10
159.5
 20
15.2
 11
164.5
 21
15.2
  0
LINE
  8
0
 10
164.5
 20
15.2
 11
164.5
 21
10
  0
LINE
  8
0
 10
164.5
 20
10
 11
159.5
 21
10
  0
LINE
  8
0
 10
179.5
 20
10
 11
179.5
 21
15.2
  0
LINE
  8
0
 10
179.5
 20
15.2
 11
184.5
 21
15.2
  0
LINE
  8
0
 10
184.5
 20
15.2
 11
184.5
 21
10
  0
LINE
  8
0
 10
184.5
 20
10
 11
179.5
 21
10
  0
LINE
  8
0
 10
189.5
 20
10
 11
189.5
 21
15.2
  0
LINE
  8
0
 10
189.5
 20
15.2
 11
194.5
 21
15.2
  0
LINE
  8
0
 10
194.5
 20
15.2
 11
194.5
 21
10
  0
LINE
  8
0
 10
194.5
 20
10
 11
189.5
 21
10
  0
LINE
  8
0
 10
169.5
 20
10
 11
169.5
 21
15.2
  0
LINE
  8
0
 10
169.5
 20
15.2
 11
174.5
 21
15.2
  0
LINE
  8
0
 10
174.5
 20
15.2
 11
174.5
 21
10
  0
LINE
  8
0
 10
174.5
 20
10
 11
169.5
 21
10
  0
LINE
  8
0
 10
69.5
 20
10
 11
69.5
 21
15.2
  0
LINE
  8
0
 10
69.5
 20
15.2
 11
74.5
 21
15.2
  0
LINE
  8
0
 10
74.5
 20
15.2
 11
74.5
 21
10
  0
LINE
  8
0
 10
74.5
 20
10
 11
69.5
 21
10
  0
LINE
  8
0
 10
129.5
 20
10
 11
129.5
 21
15.2
  0
LINE
  8
0
 10
129.5
 20
15.2
 11
134.5
 21
15.2
  0
LINE
  8
0
 10
134.5
 20
15.2
 11
134.5
 21
10
  0
LINE
  8
0
 10
134.5
 20
10
 11
129.5
 21
10
  0
LINE
  8
0
 10
667.6
 20
199.6
 11
468
 21
199.6
  0
LINE
  8
0
 10
468
 20
199.6
 11
468
 21
0
  0
LINE
  8
0
 10
468
 20
0
 11
667.6
 21
0
  0
LINE
  8
0
 10
667.6
 20
0
 11
667.6
 21
199.6
  0
LINE
  8
0
 10
534.8
 20
184.4
 11
534.8
 21
189.6
  0
LINE
  8
0
 10
534.8
 20
189.6
 11
556.8
 21
189.6
  0
LINE
  8
0
 10
556.8
 20
189.6
 11
556.8
 21
184.4
  0
LINE
  8
0
 10
556.8
 20
184.4
 11
534.8
 21
184.4
  0
LINE
  8
0
 10
478
 20
154.8
 11
478
 21
189.6
  0
LINE
  8
0
 10
478
 20
189.6
 11
512.8
 21
189.6
  0
LINE
  8
0
 10
512.8
 20
189.6
 11
512.8
 21
184.4
  0
LINE
  8
0
 10
512.8
 20
184.4
 11
483.2
 21
184.4
  0
LINE
  8
0
 10
483.2
 20
184.4
 11
483.2
 21
154.8
  0
LINE
  8
0
 10
483.2
 20
154.8
 11
478
 21
154.8
  0
LINE
  8
0
 10
652.4
 20
154.8
 11
652.4
 21
184.4
  0
LINE
  8
0
 10
652.4
 20
184.4
 11
622.8
 21
184.4
  0
LINE
  8
0
 10
622.8
 20
184.4
 11
622.8
 21
189.6
  0
LINE
  8
0
 10
622.8
 20
189.6
 11
657.6
 21
189.6
  0
LINE
  8
0
 10
657.6
 20
189.6
 11
657.6
 21
154.8
  0
LINE
  8
0
 10
657.6
 20
154.8
 11
652.4
 21
154.8
  0
LINE
  8
0
 10
578.8
 20
184.4
 11
578.8
 21
189.6
  0
LINE
  8
0
 10
578.8
 20
189.6
 11
600.8
 21
189.6
  0
LINE
  8
0
 10
600.8
 20
189.6
 11
600.8
 21
184.4
  0
LINE
  8
0
 10
600.8
 20
184.4
 11
578.8
 21
184.4
  0
LINE
  8
0
 10
489.887
 20
175.425
 11
489.582
 21
175.498
  0
LINE
  8
0
 10
489.582
 20
175.498
 11
489.292
 21
175.618
  0
LINE
  8
0
 10
489.292
 20
175.618
 11
489.024
 21
175.782
  0
LINE
  8
0
 10
489.024
 20
175.782
 11
488.786
 21
175.986
  0
LINE
  8
0
 10
488.786
 20
175.986
 11
488.582
 21
176.224
  0
LINE
  8
0
 10
488.582
 20
176.224
 11
488.418
 21
176.492
  0
LINE
  8
0
 10
488.418
 20
176.492
 11
488.298
 21
176.782
  0
LINE
  8
0
 10
488.298
 20
176.782
 11
488.225
 21
177.087
  0
LINE
  8
0
 10
488.225
 20
177.087
 11
488.2
 21
177.4
  0
LINE
  8
0
 10
488.2
 20
177.4
 11
488.225
 21
177.713
  0
LINE
  8
0
 10
488.225
 20
177.713
 11
488.298
 21
178.018
  0
LINE
  8
0
 10
488.298
 20
178.018
 11
488.418
 21
178.308
  0
LINE
  8
0
 10
488.418
 20
178.308
 11
488.582
 21
178.576
  0
LINE
  8
0
 10
488.582
 20
178.576
 11
488.786
 21
178.814
  0
LINE
  8
0
 10
488.786
 20
178.814
 11
489.024
 21
179.018
  0
LINE
  8
0
 10
489.024
 20
179.018
 11
489.292
 21
179.182
  0
LINE
  8
0
 10
489.292
 20
179.182
 11
489.582
 21
179.302
  0
LINE
  8
0
 10
489.582
 20
179.302
 11
489.887
 21
179.375
  0
LINE
  8
0
 10
489.887
 20
179.375
 11
490.2
 21
179.4
  0
LINE
  8
0
 10
490.2
 20
179.4
 11
490.513
 21
179.375
  0
LINE
  8
0
 10
490.513
 20
179.375
 11
490.818
 21
179.302
  0
LINE
  8
0
 10
490.818
 20
179.302
 11
491.108
 21
179.182
  0
LINE
  8
0
 10
491.108
 20
179.182
 11
491.376
 21
179.018
  0
LINE
  8
0
 10
491.376
 20
179.018
 11
491.614
 21
178.814
  0
LINE
  8
0
 10
491.614
 20
178.814
 11
491.818
 21
178.576
  0
LINE
  8
0
 10
491.818
 20
178.576
 11
491.982
 21
178.308
  0
LINE
  8
0
 10
491.982
 20
178.308
 11
492.102
 21
178.018
  0
LINE
  8
0
 10
492.102
 20
178.018
 11
492.175
 21
177.713
  0
LINE
  8
0
 10
492.175
 20
177.713
 11
492.2
 21
177.4
  0
LINE
  8
0
 10
492.2
 20
177.4
 11
492.175
 21
177.087
  0
LINE
  8
0
 10
492.175
 20
177.087
 11
492.102
 21
176.782
  0
LINE
  8
0
 10
492.102
 20
176.782
 11
491.982
 21
176.492
  0
LINE
  8
0
 10
491.982
 20
176.492
 11
491.818
 21
176.224
  0
LINE
  8
0
 10
491.818
 20
176.224
 11
491.614
 21
175.986
  0
LINE
  8
0
 10
491.614
 20
175.986
 11
491.376
 21
175.782
  0
LINE
  8
0
 10
491.376
 20
175.782
 11
491.108
 21
175.618
  0
LINE
  8
0
 10
491.108
 20
175.618
 11
490.818
 21
175.498
  0
LINE
  8
0
 10
490.818
 20
175.498
 11
490.513
 21
175.425
  0
LINE
  8
0
 10
490.513
 20
175.425
 11
490.2
 21
175.4
  0
LINE
  8
0
 10
490.2
 20
175.4
 11
489.887
 21
175.425
  0
LINE
  8
0
 10
645.087
 20
175.425
 11
644.782
 21
175.498
  0
LINE
  8
0
 10
644.782
 20
175.498
 11
644.492
 21
175.618
  0
LINE
  8
0
 10
644.492
 20
175.618
 11
644.224
 21
175.782
  0
LINE
  8
0
 10
644.224
 20
175.782
 11
643.986
 21
175.986
  0
LINE
  8
0
 10
643.986
 20
175.986
 11
643.782
 21
176.224
  0
LINE
  8
0
 10
643.782
 20
176.224
 11
643.618
 21
176.492
  0
LINE
  8
0
 10
643.618
 20
176.492
 11
643.498
 21
176.782
  0
LINE
  8
0
 10
643.498
 20
176.782
 11
643.425
 21
177.087
  0
LINE
  8
0
 10
643.425
 20
177.087
 11
643.4
 21
177.4
  0
LINE
  8
0
 10
643.4
 20
177.4
 11
643.425
 21
177.713
  0
LINE
  8
0
 10
643.425
 20
177.713
 11
643.498
 21
178.018
  0
LINE
  8
0
 10
643.498
 20
178.018
 11
643.618
 21
178.308
  0
LINE
  8
0
 10
643.618
 20
178.308
 11
643.782
 21
178.576
  0
LINE
  8
0
 10
643.782
 20
178.576
 11
643.986
 21
178.814
  0
LINE
  8
0
 10
643.986
 20
178.814
 11
644.224
 21
179.018
  0
LINE
  8
0
 10
644.224
 20
179.018
 11
644.492
 21
179.182
  0
LINE
  8
0
 10
644.492
 20
179.182
 11
644.782
 21
179.302
  0
LINE
  8
0
 10
644.782
 20
179.302
 11
645.087
 21
179.375
  0
LINE
  8
0
 10
645.087
 20
179.375
 11
645.4
 21
179.4
  0
LINE
  8
0
 10
645.4
 20
179.4
 11
645.713
 21
179.375
  0
LINE
  8
0
 10
645.713
 20
179.375
 11
646.018
 21
179.302
  0
LINE
  8
0
 10
646.018
 20
179.302
 11
646.308
 21
179.182
  0
LINE
  8
0
 10
646.308
 20
179.182
 11
646.576
 21
179.018
  0
LINE
  8
0
 10
646.576
 20
179.018
 11
646.814
 21
178.814
  0
LINE
  8
0
 10
646.814
 20
178.814
 11
647.018
 21
178.576
  0
LINE
  8
0
 10
647.018
 20
178.576
 11
647.182
 21
178.308
  0
LINE
  8
0
 10
647.182
 20
178.308
 11
647.302
 21
178.018
  0
LINE
  8
0
 10
647.302
 20
178.018
 11
647.375
 21
177.713
  0
LINE
  8
0
 10
647.375
 20
177.713
 11
647.4
 21
177.4
  0
LINE
  8
0
 10
647.4
 20
177.4
 11
647.375
 21
177.087
  0
LINE
  8
0
 10
647.375
 20
177.087
 11
647.302
 21
176.782
  0
LINE
  8
0
 10
647.302
 20
176.782
 11
647.182
 21
176.492
  0
LINE
  8
0
 10
647.182
 20
176.492
 11
647.018
 21
176.224
  0
LINE
  8
0
 10
647.018
 20
176.224
 11
646.814
 21
175.986
  0
LINE
  8
0
 10
646.814
 20
175.986
 11
646.576
 21
175.782
  0
LINE
  8
0
 10
646.576
 20
175.782
 11
646.308
 21
175.618
  0
LINE
  8
0
 10
646.308
 20
175.618
 11
646.018
 21
175.498
  0
LINE
  8
0
 10
646.018
 20
175.498
 11
645.713
 21
175.425
  0
LINE
  8
0
 10
645.713
 20
175.425
 11
645.4
 21
175.4
  0
LINE
  8
0
 10
645.4
 20
175.4
 11
645.087
 21
175.425
  0
LINE
  8
0
 10
524.042
 20
174.21
 11
523.79
 21
174.271
  0
LINE
  8
0
 10
523.79
 20
174.271
 11
523.551
 21
174.37
  0
LINE
  8
0
 10
523.551
 20
174.37
 11
523.33
 21
174.505
  0
LINE
  8
0
 10
523.33
 20
174.505
 11
523.133
 21
174.673
  0
LINE
  8
0
 10
523.133
 20
174.673
 11
522.965
 21
174.87
  0
LINE
  8
0
 10
522.965
 20
174.87
 11
522.83
 21
175.091
  0
LINE
  8
0
 10
522.83
 20
175.091
 11
522.731
 21
175.33
  0
LINE
  8
0
 10
522.731
 20
175.33
 11
522.67
 21
175.582
  0
LINE
  8
0
 10
522.67
 20
175.582
 11
522.65
 21
175.84
  0
LINE
  8
0
 10
522.65
 20
175.84
 11
522.67
 21
176.098
  0
LINE
  8
0
 10
522.67
 20
176.098
 11
522.731
 21
176.35
  0
LINE
  8
0
 10
522.731
 20
176.35
 11
522.83
 21
176.589
  0
LINE
  8
0
 10
522.83
 20
176.589
 11
522.965
 21
176.81
  0
LINE
  8
0
 10
522.965
 20
176.81
 11
523.133
 21
177.007
  0
LINE
  8
0
 10
523.133
 20
177.007
 11
523.33
 21
177.175
  0
LINE
  8
0
 10
523.33
 20
177.175
 11
523.551
 21
177.31
  0
LINE
  8
0
 10
523.551
 20
177.31
 11
523.79
 21
177.409
  0
LINE
  8
0
 10
523.79
 20
177.409
 11
524.042
 21
177.47
  0
LINE
  8
0
 10
524.042
 20
177.47
 11
524.3
 21
177.49
  0
LINE
  8
0
 10
524.3
 20
177.49
 11
524.558
 21
177.47
  0
LINE
  8
0
 10
524.558
 20
177.47
 11
524.81
 21
177.409
  0
LINE
  8
0
 10
524.81
 20
177.409
 11
525.049
 21
177.31
  0
LINE
  8
0
 10
525.049
 20
177.31
 11
525.27
 21
177.175
  0
LINE
  8
0
 10
525.27
 20
177.175
 11
525.467
 21
177.007
  0
LINE
  8
0
 10
525.467
 20
177.007
 11
525.635
 21
176.81
  0
LINE
  8
0
 10
525.635
 20
176.81
 11
525.77
 21
176.589
  0
LINE
  8
0
 10
525.77
 20
176.589
 11
525.869
 21
176.35
  0
LINE
  8
0
 10
525.869
 20
176.35
 11
525.93
 21
176.098
  0
LINE
  8
0
 10
525.93
 20
176.098
 11
525.95
 21
175.84
  0
LINE
  8
0
 10
525.95
 20
175.84
 11
525.93
 21
175.582
  0
LINE
  8
0
 10
525.93
 20
175.582
 11
525.869
 21
175.33
  0
LINE
  8
0
 10
525.869
 20
175.33
 11
525.77
 21
175.091
  0
LINE
  8
0
 10
525.77
 20
175.091
 11
525.635
 21
174.87
  0
LINE
  8
0
 10
525.635
 20
174.87
 11
525.467
 21
174.673
  0
LINE
  8
0
 10
525.467
 20
174.673
 11
525.27
 21
174.505
  0
LINE
  8
0
 10
525.27
 20
174.505
 11
525.049
 21
174.37
  0
LINE
  8
0
 10
525.049
 20
174.37
 11
524.81
 21
174.271
  0
LINE
  8
0
 10
524.81
 20
174.271
 11
524.558
 21
174.21
  0
LINE
  8
0
 10
524.558
 20
174.21
 11
524.3
 21
174.19
  0
LINE
  8
0
 10
524.3
 20
174.19
 11
524.042
 21
174.21
  0
LINE
  8
0
 10
615.482
 20
174.21
 11
615.23
 21
174.271
  0
LINE
  8
0
 10
615.23
 20
174.271
 11
614.991
 21
174.37
  0
LINE
  8
0
 10
614.991
 20
174.37
 11
614.77
 21
174.505
  0
LINE
  8
0
 10
614.77
 20
174.505
 11
614.573
 21
174.673
  0
LINE
  8
0
 10
614.573
 20
174.673
 11
614.405
 21
174.87
  0
LINE
  8
0
 10
614.405
 20
174.87
 11
614.27
 21
175.091
  0
LINE
  8
0
 10
614.27
 20
175.091
 11
614.171
 21
175.33
  0
LINE
  8
0
 10
614.171
 20
175.33
 11
614.11
 21
175.582
  0
LINE
  8
0
 10
614.11
 20
175.582
 11
614.09
 21
175.84
  0
LINE
  8
0
 10
614.09
 20
175.84
 11
614.11
 21
176.098
  0
LINE
  8
0
 10
614.11
 20
176.098
 11
614.171
 21
176.35
  0
LINE
  8
0
 10
614.171
 20
176.35
 11
614.27
 21
176.589
  0
LINE
  8
0
 10
614.27
 20
176.589
 11
614.405
 21
176.81
  0
LINE
  8
0
 10
614.405
 20
176.81
 11
614.573
 21
177.007
  0
LINE
  8
0
 10
614.573
 20
177.007
 11
614.77
 21
177.175
  0
LINE
  8
0
 10
614.77
 20
177.175
 11
614.991
 21
177.31
  0
LINE
  8
0
 10
614.991
 20
177.31
 11
615.23
 21
177.409
  0
LINE
  8
0
 10
615.23
 20
177.409
 11
615.482
 21
177.47
  0
LINE
  8
0
 10
615.482
 20
177.47
 11
615.74
 21
177.49
  0
LINE
  8
0
 10
615.74
 20
177.49
 11
615.998
 21
177.47
  0
LINE
  8
0
 10
615.998
 20
177.47
 11
616.25
 21
177.409
  0
LINE
  8
0
 10
616.25
 20
177.409
 11
616.489
 21
177.31
  0
LINE
  8
0
 10
616.489
 20
177.31
 11
616.71
 21
177.175
  0
LINE
  8
0
 10
616.71
 20
177.175
 11
616.907
 21
177.007
  0
LINE
  8
0
 10
616.907
 20
177.007
 11
617.075
 21
176.81
  0
LINE
  8
0
 10
617.075
 20
176.81
 11
617.21
 21
176.589
  0
LINE
  8
0
 10
617.21
 20
176.589
 11
617.309
 21
176.35
  0
LINE
  8
0
 10
617.309
 20
176.35
 11
617.37
 21
176.098
  0
LINE
  8
0
 10
617.37
 20
176.098
 11
617.39
 21
175.84
  0
LINE
  8
0
 10
617.39
 20
175.84
 11
617.37
 21
175.582
  0
LINE
  8
0
 10
617.37
 20
175.582
 11
617.309
 21
175.33
  0
LINE
  8
0
 10
617.309
 20
175.33
 11
617.21
 21
175.091
  0
LINE
  8
0
 10
617.21
 20
175.091
 11
617.075
 21
174.87
  0
LINE
  8
0
 10
617.075
 20
174.87
 11
616.907
 21
174.673
  0
LINE
  8
0
 10
616.907
 20
174.673
 11
616.71
 21
174.505
  0
LINE
  8
0
 10
616.71
 20
174.505
 11
616.489
 21
174.37
  0
LINE
  8
0
 10
616.489
 20
174.37
 11
616.25
 21
174.271
  0
LINE
  8
0
 10
616.25
 20
174.271
 11
615.998
 21
174.21
  0
LINE
  8
0
 10
615.998
 20
174.21
 11
615.74
 21
174.19
  0
LINE
  8
0
 10
615.74
 20
174.19
 11
615.482
 21
174.21
  0
LINE
  8
0
 10
652.4
 20
110.8
 11
652.4
 21
132.8
  0
LINE
  8
0
 10
652.4
 20
132.8
 11
657.6
 21
132.8
  0
LINE
  8
0
 10
657.6
 20
132.8
 11
657.6
 21
110.8
  0
LINE
  8
0
 10
657.6
 20
110.8
 11
652.4
 21
110.8
  0
LINE
  8
0
 10
478
 20
110.8
 11
478
 21
132.8
  0
LINE
  8
0
 10
478
 20
132.8
 11
483.2
 21
132.8
  0
LINE
  8
0
 10
483.2
 20
132.8
 11
483.2
 21
110.8
  0
LINE
  8
0
 10
483.2
 20
110.8
 11
478
 21
110.8
  0
LINE
  8
0
 10
615.482
 20
95.7703
 11
615.23
 21
95.8307
  0
LINE
  8
0
 10
615.23
 20
95.8307
 11
614.991
 21
95.9298
  0
LINE
  8
0
 10
614.991
 20
95.9298
 11
614.77
 21
96.0651
  0
LINE
  8
0
 10
614.77
 20
96.0651
 11
614.573
 21
96.2333
  0
LINE
  8
0
 10
614.573
 20
96.2333
 11
614.405
 21
96.4301
  0
LINE
  8
0
 10
614.405
 20
96.4301
 11
614.27
 21
96.6509
  0
LINE
  8
0
 10
614.27
 20
96.6509
 11
614.171
 21
96.8901
  0
LINE
  8
0
 10
614.171
 20
96.8901
 11
614.11
 21
97.1419
  0
LINE
  8
0
 10
614.11
 20
97.1419
 11
614.09
 21
97.4
  0
LINE
  8
0
 10
614.09
 20
97.4
 11
614.11
 21
97.6581
  0
LINE
  8
0
 10
614.11
 20
97.6581
 11
614.171
 21
97.9099
  0
LINE
  8
0
 10
614.171
 20
97.9099
 11
614.27
 21
98.1491
  0
LINE
  8
0
 10
614.27
 20
98.1491
 11
614.405
 21
98.3698
  0
LINE
  8
0
 10
614.405
 20
98.3698
 11
614.573
 21
98.5667
  0
LINE
  8
0
 10
614.573
 20
98.5667
 11
614.77
 21
98.7349
  0
LINE
  8
0
 10
614.77
 20
98.7349
 11
614.991
 21
98.8701
  0
LINE
  8
0
 10
614.991
 20
98.8701
 11
615.23
 21
98.9692
  0
LINE
  8
0
 10
615.23
 20
98.9692
 11
615.482
 21
99.0297
  0
LINE
  8
0
 10
615.482
 20
99.0297
 11
615.74
 21
99.05
  0
LINE
  8
0
 10
615.74
 20
99.05
 11
615.998
 21
99.0297
  0
LINE
  8
0
 10
615.998
 20
99.0297
 11
616.25
 21
98.9692
  0
LINE
  8
0
 10
616.25
 20
98.9692
 11
616.489
 21
98.8701
  0
LINE
  8
0
 10
616.489
 20
98.8701
 11
616.71
 21
98.7349
  0
LINE
  8
0
 10
616.71
 20
98.7349
 11
616.907
 21
98.5667
  0
LINE
  8
0
 10
616.907
 20
98.5667
 11
617.075
 21
98.3698
  0
LINE
  8
0
 10
617.075
 20
98.3698
 11
617.21
 21
98.1491
  0
LINE
  8
0
 10
617.21
 20
98.1491
 11
617.309
 21
97.9099
  0
LINE
  8
0
 10
617.309
 20
97.9099
 11
617.37
 21
97.6581
  0
LINE
  8
0
 10
617.37
 20
97.6581
 11
617.39
 21
97.4
  0
LINE
  8
0
 10
617.39
 20
97.4
 11
617.37
 21
97.1419
  0
LINE
  8
0
 10
617.37
 20
97.1419
 11
617.309
 21
96.8901
  0
LINE
  8
0
 10
617.309
 20
96.8901
 11
617.21
 21
96.6509
  0
LINE
  8
0
 10
617.21
 20
96.6509
 11
617.075
 21
96.4301
  0
LINE
  8
0
 10
617.075
 20
96.4301
 11
616.907
 21
96.2333
  0
LINE
  8
0
 10
616.907
 20
96.2333
 11
616.71
 21
96.0651
  0
LINE
  8
0
 10
616.71
 20
96.0651
 11
616.489
 21
95.9298
  0
LINE
  8
0
 10
616.489
 20
95.9298
 11
616.25
 21
95.8307
  0
LINE
  8
0
 10
616.25
 20
95.8307
 11
615.998
 21
95.7703
  0
LINE
  8
0
 10
615.998
 20
95.7703
 11
615.74
 21
95.75
  0
LINE
  8
0
 10
615.74
 20
95.75
 11
615.482
 21
95.7703
  0
LINE
  8
0
 10
524.042
 20
95.7703
 11
523.79
 21
95.8307
  0
LINE
  8
0
 10
523.79
 20
95.8307
 11
523.551
 21
95.9298
  0
LINE
  8
0
 10
523.551
 20
95.9298
 11
523.33
 21
96.0651
  0
LINE
  8
0
 10
523.33
 20
96.0651
 11
523.133
 21
96.2333
  0
LINE
  8
0
 10
523.133
 20
96.2333
 11
522.965
 21
96.4301
  0
LINE
  8
0
 10
522.965
 20
96.4301
 11
522.83
 21
96.6509
  0
LINE
  8
0
 10
522.83
 20
96.6509
 11
522.731
 21
96.8901
  0
LINE
  8
0
 10
522.731
 20
96.8901
 11
522.67
 21
97.1419
  0
LINE
  8
0
 10
522.67
 20
97.1419
 11
522.65
 21
97.4
  0
LINE
  8
0
 10
522.65
 20
97.4
 11
522.67
 21
97.6581
  0
LINE
  8
0
 10
522.67
 20
97.6581
 11
522.731
 21
97.9099
  0
LINE
  8
0
 10
522.731
 20
97.9099
 11
522.83
 21
98.1491
  0
LINE
  8
0
 10
522.83
 20
98.1491
 11
522.965
 21
98.3698
  0
LINE
  8
0
 10
522.965
 20
98.3698
 11
523.133
 21
98.5667
  0
LINE
  8
0
 10
523.133
 20
98.5667
 11
523.33
 21
98.7349
  0
LINE
  8
0
 10
523.33
 20
98.7349
 11
523.551
 21
98.8701
  0
LINE
  8
0
 10
523.551
 20
98.8701
 11
523.79
 21
98.9692
  0
LINE
  8
0
 10
523.79
 20
98.9692
 11
524.042
 21
99.0297
  0
LINE
  8
0
 10
524.042
 20
99.0297
 11
524.3
 21
99.05
  0
LINE
  8
0
 10
524.3
 20
99.05
 11
524.558
 21
99.0297
  0
LINE
  8
0
 10
524.558
 20
99.0297
 11
524.81
 21
98.9692
  0
LINE
  8
0
 10
524.81
 20
98.9692
 11
525.049
 21
98.8701
  0
LINE
  8
0
 10
525.049
 20
98.8701
 11
525.27
 21
98.7349
  0
LINE
  8
0
 10
525.27
 20
98.7349
 11
525.467
 21
98.5667
  0
LINE
  8
0
 10
525.467
 20
98.5667
 11
525.635
 21
98.3698
  0
LINE
  8
0
 10
525.635
 20
98.3698
 11
525.77
 21
98.1491
  0
LINE
  8
0
 10
525.77
 20
98.1491
 11
525.869
 21
97.9099
  0
LINE
  8
0
 10
525.869
 20
97.9099
 11
525.93
 21
97.6581
  0
LINE
  8
0
 10
525.93
 20
97.6581
 11
525.95
 21
97.4
  0
LINE
  8
0
 10
525.95
 20
97.4
 11
525.93
 21
97.1419
  0
LINE
  8
0
 10
525.93
 20
97.1419
 11
525.869
 21
96.8901
  0
LINE
  8
0
 10
525.869
 20
96.8901
 11
525.77
 21
96.6509
  0
LINE
  8
0
 10
525.77
 20
96.6509
 11
525.635
 21
96.4301
  0
LINE
  8
0
 10
525.635
 20
96.4301
 11
525.467
 21
96.2333
  0
LINE
  8
0
 10
525.467
 20
96.2333
 11
525.27
 21
96.0651
  0
LINE
  8
0
 10
525.27
 20
96.0651
 11
525.049
 21
95.9298
  0
LINE
  8
0
 10
525.049
 20
95.9298
 11
524.81
 21
95.8307
  0
LINE
  8
0
 10
524.81
 20
95.8307
 11
524.558
 21
95.7703
  0
LINE
  8
0
 10
524.558
 20
95.7703
 11
524.3
 21
95.75
  0
LINE
  8
0
 10
524.3
 20
95.75
 11
524.042
 21
95.7703
  0
LINE
  8
0
 10
652.4
 20
66.8
 11
652.4
 21
88.8
  0
LINE
  8
0
 10
652.4
 20
88.8
 11
657.6
 21
88.8
  0
LINE
  8
0
 10
657.6
 20
88.8
 11
657.6
 21
66.8
  0
LINE
  8
0
 10
657.6
 20
66.8
 11
652.4
 21
66.8
  0
LINE
  8
0
 10
478
 20
66.8
 11
478
 21
88.8
  0
LINE
  8
0
 10
478
 20
88.8
 11
483.2
 21
88.8
  0
LINE
  8
0
 10
483.2
 20
88.8
 11
483.2
 21
66.8
  0
LINE
  8
0
 10
483.2
 20
66.8
 11
478
 21
66.8
  0
LINE
  8
0
 10
622.8
 20
10
 11
622.8
 21
15.2
  0
LINE
  8
0
 10
622.8
 20
15.2
 11
652.4
 21
15.2
  0
LINE
  8
0
 10
652.4
 20
15.2
 11
652.4
 21
44.8
  0
LINE
  8
0
 10
652.4
 20
44.8
 11
657.6
 21
44.8
  0
LINE
  8
0
 10
657.6
 20
44.8
 11
657.6
 21
10
  0
LINE
  8
0
 10
657.6
 20
10
 11
622.8
 21
10
  0
LINE
  8
0
 10
478
 20
10
 11
478
 21
44.8
  0
LINE
  8
0
 10
478
 20
44.8
 11
483.2
 21
44.8
  0
LINE
  8
0
 10
483.2
 20
44.8
 11
483.2
 21
15.2
  0
LINE
  8
0
 10
483.2
 20
15.2
 11
512.8
 21
15.2
  0
LINE
  8
0
 10
512.8
 20
15.2
 11
512.8
 21
10
  0
LINE
  8
0
 10
512.8
 20
10
 11
478
 21
10
  0
LINE
  8
0
 10
645.087
 20
20.2246
 11
644.782
 21
20.2979
  0
LINE
  8
0
 10
644.782
 20
20.2979
 11
644.492
 21
20.418
  0
LINE
  8
0
 10
644.492
 20
20.418
 11
644.224
 21
20.582
  0
LINE
  8
0
 10
644.224
 20
20.582
 11
643.986
 21
20.7858
  0
LINE
  8
0
 10
643.986
 20
20.7858
 11
643.782
 21
21.0244
  0
LINE
  8
0
 10
643.782
 20
21.0244
 11
643.618
 21
21.292
  0
LINE
  8
0
 10
643.618
 20
21.292
 11
643.498
 21
21.582
  0
LINE
  8
0
 10
643.498
 20
21.582
 11
643.425
 21
21.8871
  0
LINE
  8
0
 10
643.425
 20
21.8871
 11
643.4
 21
22.2
  0
LINE
  8
0
 10
643.4
 20
22.2
 11
643.425
 21
22.5129
  0
LINE
  8
0
 10
643.425
 20
22.5129
 11
643.498
 21
22.818
  0
LINE
  8
0
 10
643.498
 20
22.818
 11
643.618
 21
23.108
  0
LINE
  8
0
 10
643.618
 20
23.108
 11
643.782
 21
23.3756
  0
LINE
  8
0
 10
643.782
 20
23.3756
 11
643.986
 21
23.6142
  0
LINE
  8
0
 10
643.986
 20
23.6142
 11
644.224
 21
23.818
  0
LINE
  8
0
 10
644.224
 20
23.818
 11
644.492
 21
23.982
  0
LINE
  8
0
 10
644.492
 20
23.982
 11
644.782
 21
24.1021
  0
LINE
  8
0
 10
644.782
 20
24.1021
 11
645.087
 21
24.1754
  0
LINE
  8
0
 10
645.087
 20
24.1754
 11
645.4
 21
24.2
  0
LINE
  8
0
 10
645.4
 20
24.2
 11
645.713
 21
24.1754
  0
LINE
  8
0
 10
645.713
 20
24.1754
 11
646.018
 21
24.1021
  0
LINE
  8
0
 10
646.018
 20
24.1021
 11
646.308
 21
23.982
  0
LINE
  8
0
 10
646.308
 20
23.982
 11
646.576
 21
23.818
  0
LINE
  8
0
 10
646.576
 20
23.818
 11
646.814
 21
23.6142
  0
LINE
  8
0
 10
646.814
 20
23.6142
 11
647.018
 21
23.3756
  0
LINE
  8
0
 10
647.018
 20
23.3756
 11
647.182
 21
23.108
  0
LINE
  8
0
 10
647.182
 20
23.108
 11
647.302
 21
22.818
  0
LINE
  8
0
 10
647.302
 20
22.818
 11
647.375
 21
22.5129
  0
LINE
  8
0
 10
647.375
 20
22.5129
 11
647.4
 21
22.2
  0
LINE
  8
0
 10
647.4
 20
22.2
 11
647.375
 21
21.8871
  0
LINE
  8
0
 10
647.375
 20
21.8871
 11
647.302
 21
21.582
  0
LINE
  8
0
 10
647.302
 20
21.582
 11
647.182
 21
21.292
  0
LINE
  8
0
 10
647.182
 20
21.292
 11
647.018
 21
21.0244
  0
LINE
  8
0
 10
647.018
 20
21.0244
 11
646.814
 21
20.7858
  0
LINE
  8
0
 10
646.814
 20
20.7858
 11
646.576
 21
20.582
  0
LINE
  8
0
 10
646.576
 20
20.582
 11
646.308
 21
20.418
  0
LINE
  8
0
 10
646.308
 20
20.418
 11
646.018
 21
20.2979
  0
LINE
  8
0
 10
646.018
 20
20.2979
 11
645.713
 21
20.2246
  0
LINE
  8
0
 10
645.713
 20
20.2246
 11
645.4
 21
20.2
  0
LINE
  8
0
 10
645.4
 20
20.2
 11
645.087
 21
20.2246
  0
LINE
  8
0
 10
489.887
 20
20.2246
 11
489.582
 21
20.2979
  0
LINE
  8
0
 10
489.582
 20
20.2979
 11
489.292
 21
20.418
  0
LINE
  8
0
 10
489.292
 20
20.418
 11
489.024
 21
20.582
  0
LINE
  8
0
 10
489.024
 20
20.582
 11
488.786
 21
20.7858
  0
LINE
  8
0
 10
488.786
 20
20.7858
 11
488.582
 21
21.0244
  0
LINE
  8
0
 10
488.582
 20
21.0244
 11
488.418
 21
21.292
  0
LINE
  8
0
 10
488.418
 20
21.292
 11
488.298
 21
21.582
  0
LINE
  8
0
 10
488.298
 20
21.582
 11
488.225
 21
21.8871
  0
LINE
  8
0
 10
488.225
 20
21.8871
 11
488.2
 21
22.2
  0
LINE
  8
0
 10
488.2
 20
22.2
 11
488.225
 21
22.5129
  0
LINE
  8
0
 10
488.225
 20
22.5129
 11
488.298
 21
22.818
  0
LINE
  8
0
 10
488.298
 20
22.818
 11
488.418
 21
23.108
  0
LINE
  8
0
 10
488.418
 20
23.108
 11
488.582
 21
23.3756
  0
LINE
  8
0
 10
488.582
 20
23.3756
 11
488.786
 21
23.6142
  0
LINE
  8
0
 10
488.786
 20
23.6142
 11
489.024
 21
23.818
  0
LINE
  8
0
 10
489.024
 20
23.818
 11
489.292
 21
23.982
  0
LINE
  8
0
 10
489.292
 20
23.982
 11
489.582
 21
24.1021
  0
LINE
  8
0
 10
489.582
 20
24.1021
 11
489.887
 21
24.1754
  0
LINE
  8
0
 10
489.887
 20
24.1754
 11
490.2
 21
24.2
  0
LINE
  8
0
 10
490.2
 20
24.2
 11
490.513
 21
24.1754
  0
LINE
  8
0
 10
490.513
 20
24.1754
 11
490.818
 21
24.1021
  0
LINE
  8
0
 10
490.818
 20
24.1021
 11
491.108
 21
23.982
  0
LINE
  8
0
 10
491.108
 20
23.982
 11
491.376
 21
23.818
  0
LINE
  8
0
 10
491.376
 20
23.818
 11
491.614
 21
23.6142
  0
LINE
  8
0
 10
491.614
 20
23.6142
 11
491.818
 21
23.3756
  0
LINE
  8
0
 10
491.818
 20
23.3756
 11
491.982
 21
23.108
  0
LINE
  8
0
 10
491.982
 20
23.108
 11
492.102
 21
22.818
  0
LINE
  8
0
 10
492.102
 20
22.818
 11
492.175
 21
22.5129
  0
LINE
  8
0
 10
492.175
 20
22.5129
 11
492.2
 21
22.2
  0
LINE
  8
0
 10
492.2
 20
22.2
 11
492.175
 21
21.8871
  0
LINE
  8
0
 10
492.175
 20
21.8871
 11
492.102
 21
21.582
  0
LINE
  8
0
 10
492.102
 20
21.582
 11
491.982
 21
21.292
  0
LINE
  8
0
 10
491.982
 20
21.292
 11
491.818
 21
21.0244
  0
LINE
  8
0
 10
491.818
 20
21.0244
 11
491.614
 21
20.7858
  0
LINE
  8
0
 10
491.614
 20
20.7858
 11
491.376
 21
20.582
  0
LINE
  8
0
 10
491.376
 20
20.582
 11
491.108
 21
20.418
  0
LINE
  8
0
 10
491.108
 20
20.418
 11
490.818
 21
20.2979
  0
LINE
  8
0
 10
490.818
 20
20.2979
 11
490.513
 21
20.2246
  0
LINE
  8
0
 10
490.513
 20
20.2246
 11
490.2
 21
20.2
  0
LINE
  8
0
 10
490.2
 20
20.2
 11
489.887
 21
20.2246
  0
LINE
  8
0
 10
578.8
 20
10
 11
578.8
 21
15.2
  0
LINE
  8
0
 10
578.8
 20
15.2
 11
600.8
 21
15.2
  0
LINE
  8
0
 10
600.8
 20
15.2
 11
600.8
 21
10
  0
LINE
  8
0
 10
600.8
 20
10
 11
578.8
 21
10
  0
LINE
  8
0
 10
534.8
 20
10
 11
534.8
 21
15.2
  0
LINE
  8
0
 10
534.8
 20
15.2
 11
556.8
 21
15.2
  0
LINE
  8
0
 10
556.8
 20
15.2
 11
556.8
 21
10
  0
LINE
  8
0
 10
556.8
 20
10
 11
534.8
 21
10
  0
LINE
  8
0
 10
704.4
 20
92.6
 11
726.4
 21
92.6
  0
LINE
  8
0
 10
726.4
 20
92.6
 11
726.4
 21
87.4
  0
LINE
  8
0
 10
726.4
 20
87.4
 11
748.4
 21
87.4
  0
LINE
  8
0
 10
748.4
 20
87.4
 11
748.4
 21
92.6
  0
LINE
  8
0
 10
748.4
 20
92.6
 11
770.4
 21
92.6
  0
LINE
  8
0
 10
770.4
 20
92.6
 11
770.4
 21
87.4
  0
LINE
  8
0
 10
770.4
 20
87.4
 11
792.4
 21
87.4
  0
LINE
  8
0
 10
792.4
 20
87.4
 11
792.4
 21
92.6
  0
LINE
  8
0
 10
792.4
 20
92.6
 11
814.4
 21
92.6
  0
LINE
  8
0
 10
814.4
 20
92.6
 11
814.4
 21
87.4
  0
LINE
  8
0
 10
814.4
 20
87.4
 11
844
 21
87.4
  0
LINE
  8
0
 10
844
 20
87.4
 11
844
 21
119.1
  0
LINE
  8
0
 10
844
 20
119.1
 11
849.2
 21
119.1
  0
LINE
  8
0
 10
849.2
 20
119.1
 11
849.2
 21
141.1
  0
LINE
  8
0
 10
849.2
 20
141.1
 11
844
 21
141.1
  0
LINE
  8
0
 10
844
 20
141.1
 11
844
 21
172.8
  0
LINE
  8
0
 10
844
 20
172.8
 11
814.4
 21
172.8
  0
LINE
  8
0
 10
814.4
 20
172.8
 11
814.4
 21
167.6
  0
LINE
  8
0
 10
814.4
 20
167.6
 11
792.4
 21
167.6
  0
LINE
  8
0
 10
792.4
 20
167.6
 11
792.4
 21
172.8
  0
LINE
  8
0
 10
792.4
 20
172.8
 11
770.4
 21
172.8
  0
LINE
  8
0
 10
770.4
 20
172.8
 11
770.4
 21
167.6
  0
LINE
  8
0
 10
770.4
 20
167.6
 11
748.4
 21
167.6
  0
LINE
  8
0
 10
748.4
 20
167.6
 11
748.4
 21
172.8
  0
LINE
  8
0
 10
748.4
 20
172.8
 11
726.4
 21
172.8
  0
LINE
  8
0
 10
726.4
 20
172.8
 11
726.4
 21
167.6
  0
LINE
  8
0
 10
726.4
 20
167.6
 11
704.4
 21
167.6
  0
LINE
  8
0
 10
704.4
 20
167.6
 11
704.4
 21
172.8
  0
LINE
  8
0
 10
704.4
 20
172.8
 11
674.8
 21
172.8
  0
LINE
  8
0
 10
674.8
 20
172.8
 11
674.8
 21
141.1
  0
LINE
  8
0
 10
674.8
 20
141.1
 11
669.6
 21
141.1
  0
LINE
  8
0
 10
669.6
 20
141.1
 11
669.6
 21
119.1
  0
LINE
  8
0
 10
669.6
 20
119.1
 11
674.8
 21
119.1
  0
LINE
  8
0
 10
674.8
 20
119.1
 11
674.8
 21
87.4
  0
LINE
  8
0
 10
674.8
 20
87.4
 11
704.4
 21
87.4
  0
LINE
  8
0
 10
704.4
 20
87.4
 11
704.4
 21
92.6
  0
LINE
  8
0
 10
713.68
 20
142.6
 11
713.68
 21
158.6
  0
LINE
  8
0
 10
713.68
 20
158.6
 11
798.52
 21
158.6
  0
LINE
  8
0
 10
798.52
 20
158.6
 11
798.52
 21
142.6
  0
LINE
  8
0
 10
798.52
 20
142.6
 11
713.68
 21
142.6
  0
LINE
  8
0
 10
250.5
 20
101.2
 11
255.5
 21
101.2
  0
LINE
  8
0
 10
255.5
 20
101.2
 11
255.5
 21
96
  0
LINE
  8
0
 10
255.5
 20
96
 11
260.5
 21
96
  0
LINE
  8
0
 10
260.5
 20
96
 11
260.5
 21
101.2
  0
LINE
  8
0
 10
260.5
 20
101.2
 11
265.5
 21
101.2
  0
LINE
  8
0
 10
265.5
 20
101.2
 11
265.5
 21
96
  0
LINE
  8
0
 10
265.5
 20
96
 11
270.5
 21
96
  0
LINE
  8
0
 10
270.5
 20
96
 11
270.5
 21
101.2
  0
LINE
  8
0
 10
270.5
 20
101.2
 11
275.5
 21
101.2
  0
LINE
  8
0
 10
275.5
 20
101.2
 11
275.5
 21
96
  0
LINE
  8
0
 10
275.5
 20
96
 11
280.5
 21
96
  0
LINE
  8
0
 10
280.5
 20
96
 11
280.5
 21
101.2
  0
LINE
  8
0
 10
280.5
 20
101.2
 11
285.5
 21
101.2
  0
LINE
  8
0
 10
285.5
 20
101.2
 11
285.5
 21
96
  0
LINE
  8
0
 10
285.5
 20
96
 11
290.5
 21
96
  0
LINE
  8
0
 10
290.5
 20
96
 11
290.5
 21
101.2
  0
LINE
  8
0
 10
290.5
 20
101.2
 11
295.5
 21
101.2
  0
LINE
  8
0
 10
295.5
 20
101.2
 11
295.5
 21
96
  0
LINE
  8
0
 10
295.5
 20
96
 11
300.5
 21
96
  0
LINE
  8
0
 10
300.5
 20
96
 11
300.5
 21
101.2
  0
LINE
  8
0
 10
300.5
 20
101.2
 11
305.5
 21
101.2
  0
LINE
  8
0
 10
305.5
 20
101.2
 11
305.5
 21
96
  0
LINE
  8
0
 10
305.5
 20
96
 11
310.5
 21
96
  0
LINE
  8
0
 10
310.5
 20
96
 11
310.5
 21
101.2
  0
LINE
  8
0
 10
310.5
 20
101.2
 11
315.5
 21
101.2
  0
LINE
  8
0
 10
315.5
 20
101.2
 11
315.5
 21
96
  0
LINE
  8
0
 10
315.5
 20
96
 11
320.5
 21
96
  0
LINE
  8
0
 10
320.5
 20
96
 11
320.5
 21
101.2
  0
LINE
  8
0
 10
320.5
 20
101.2
 11
325.5
 21
101.2
  0
LINE
  8
0
 10
325.5
 20
101.2
 11
325.5
 21
96
  0
LINE
  8
0
 10
325.5
 20
96
 11
330.5
 21
96
  0
LINE
  8
0
 10
330.5
 20
96
 11
330.5
 21
101.2
  0
LINE
  8
0
 10
330.5
 20
101.2
 11
335.5
 21
101.2
  0
LINE
  8
0
 10
335.5
 20
101.2
 11
335.5
 21
96
  0
LINE
  8
0
 10
335.5
 20
96
 11
340.5
 21
96
  0
LINE
  8
0
 10
340.5
 20
96
 11
340.5
 21
101.2
  0
LINE
  8
0
 10
340.5
 20
101.2
 11
345.5
 21
101.2
  0
LINE
  8
0
 10
345.5
 20
101.2
 11
345.5
 21
96
  0
LINE
  8
0
 10
345.5
 20
96
 11
350.5
 21
96
  0
LINE
  8
0
 10
350.5
 20
96
 11
350.5
 21
101.2
  0
LINE
  8
0
 10
350.5
 20
101.2
 11
355.5
 21
101.2
  0
LINE
  8
0
 10
355.5
 20
101.2
 11
355.5
 21
96
  0
LINE
  8
0
 10
355.5
 20
96
 11
360.5
 21
96
  0
LINE
  8
0
 10
360.5
 20
96
 11
360.5
 21
101.2
  0
LINE
  8
0
 10
360.5
 20
101.2
 11
365.5
 21
101.2
  0
LINE
  8
0
 10
365.5
 20
101.2
 11
365.5
 21
96
  0
LINE
  8
0
 10
365.5
 20
96
 11
370.5
 21
96
  0
LINE
  8
0
 10
370.5
 20
96
 11
370.5
 21
101.2
  0
LINE
  8
0
 10
370.5
 20
101.2
 11
375.5
 21
101.2
  0
LINE
  8
0
 10
375.5
 20
101.2
 11
375.5
 21
96
  0
LINE
  8
0
 10
375.5
 20
96
 11
380.5
 21
96
  0
LINE
  8
0
 10
380.5
 20
96
 11
380.5
 21
101.2
  0
LINE
  8
0
 10
380.5
 20
101.2
 11
385.5
 21
101.2
  0
LINE
  8
0
 10
385.5
 20
101.2
 11
385.5
 21
96
  0
LINE
  8
0
 10
385.5
 20
96
 11
390.5
 21
96
  0
LINE
  8
0
 10
390.5
 20
96
 11
390.5
 21
101.2
  0
LINE
  8
0
 10
390.5
 20
101.2
 11
395.5
 21
101.2
  0
LINE
  8
0
 10
395.5
 20
101.2
 11
395.5
 21
96
  0
LINE
  8
0
 10
395.5
 20
96
 11
400.5
 21
96
  0
LINE
  8
0
 10
400.5
 20
96
 11
400.5
 21
101.2
  0
LINE
  8
0
 10
400.5
 20
101.2
 11
405.5
 21
101.2
  0
LINE
  8
0
 10
405.5
 20
101.2
 11
405.5
 21
96
  0
LINE
  8
0
 10
405.5
 20
96
 11
410.5
 21
96
  0
LINE
  8
0
 10
410.5
 20
96
 11
410.5
 21
101.2
  0
LINE
  8
0
 10
410.5
 20
101.2
 11
415.5
 21
101.2
  0
LINE
  8
0
 10
415.5
 20
101.2
 11
415.5
 21
96
  0
LINE
  8
0
 10
415.5
 20
96
 11
420.5
 21
96
  0
LINE
  8
0
 10
420.5
 20
96
 11
420.5
 21
101.2
  0
LINE
  8
0
 10
420.5
 20
101.2
 11
425.5
 21
101.2
  0
LINE
  8
0
 10
425.5
 20
101.2
 11
425.5
 21
96
  0
LINE
  8
0
 10
425.5
 20
96
 11
430.5
 21
96
  0
LINE
  8
0
 10
430.5
 20
96
 11
430.5
 21
101.2
  0
LINE
  8
0
 10
430.5
 20
101.2
 11
435.5
 21
101.2
  0
LINE
  8
0
 10
435.5
 20
101.2
 11
435.5
 21
96
  0
LINE
  8
0
 10
435.5
 20
96
 11
450
 21
96
  0
LINE
  8
0
 10
450
 20
96
 11
450
 21
108.5
  0
LINE
  8
0
 10
450
 20
108.5
 11
444.8
 21
108.5
  0
LINE
  8
0
 10
444.8
 20
108.5
 11
444.8
 21
113.5
  0
LINE
  8
0
 10
444.8
 20
113.5
 11
450
 21
113.5
  0
LINE
  8
0
 10
450
 20
113.5
 11
450
 21
126
  0
LINE
  8
0
 10
450
 20
126
 11
236
 21
126
  0
LINE
  8
0
 10
236
 20
126
 11
236
 21
113.5
  0
LINE
  8
0
 10
236
 20
113.5
 11
241.2
 21
113.5
  0
LINE
  8
0
 10
241.2
 20
113.5
 11
241.2
 21
108.5
  0
LINE
  8
0
 10
241.2
 20
108.5
 11
236
 21
108.5
  0
LINE
  8
0
 10
236
 20
108.5
 11
236
 21
96
  0
LINE
  8
0
 10
236
 20
96
 11
250.5
 21
96
  0
LINE
  8
0
 10
250.5
 20
96
 11
250.5
 21
101.2
  0
LINE
  8
0
 10
450
 20
76.5
 11
444.8
 21
76.5
  0
LINE
  8
0
 10
444.8
 20
76.5
 11
444.8
 21
81.5
  0
LINE
  8
0
 10
444.8
 20
81.5
 11
450
 21
81.5
  0
LINE
  8
0
 10
450
 20
81.5
 11
450
 21
93.9999
  0
LINE
  8
0
 10
450
 20
93.9999
 11
435.5
 21
93.9999
  0
LINE
  8
0
 10
435.5
 20
93.9999
 11
435.5
 21
88.8
  0
LINE
  8
0
 10
435.5
 20
88.8
 11
430.5
 21
88.8
  0
LINE
  8
0
 10
430.5
 20
88.8
 11
430.5
 21
93.9999
  0
LINE
  8
0
 10
430.5
 20
93.9999
 11
425.5
 21
93.9999
  0
LINE
  8
0
 10
425.5
 20
93.9999
 11
425.5
 21
88.8
  0
LINE
  8
0
 10
425.5
 20
88.8
 11
420.5
 21
88.8
  0
LINE
  8
0
 10
420.5
 20
88.8
 11
420.5
 21
93.9999
  0
LINE
  8
0
 10
420.5
 20
93.9999
 11
415.5
 21
93.9999
  0
LINE
  8
0
 10
415.5
 20
93.9999
 11
415.5
 21
88.8
  0
LINE
  8
0
 10
415.5
 20
88.8
 11
410.5
 21
88.8
  0
LINE
  8
0
 10
410.5
 20
88.8
 11
410.5
 21
93.9999
  0
LINE
  8
0
 10
410.5
 20
93.9999
 11
405.5
 21
93.9999
  0
LINE
  8
0
 10
405.5
 20
93.9999
 11
405.5
 21
88.8
  0
LINE
  8
0
 10
405.5
 20
88.8
 11
400.5
 21
88.8
  0
LINE
  8
0
 10
400.5
 20
88.8
 11
400.5
 21
93.9999
  0
LINE
  8
0
 10
400.5
 20
93.9999
 11
395.5
 21
93.9999
  0
LINE
  8
0
 10
395.5
 20
93.9999
 11
395.5
 21
88.8
  0
LINE
  8
0
 10
395.5
 20
88.8
 11
390.5
 21
88.8
  0
LINE
  8
0
 10
390.5
 20
88.8
 11
390.5
 21
93.9999
  0
LINE
  8
0
 10
390.5
 20
93.9999
 11
385.5
 21
93.9999
  0
LINE
  8
0
 10
385.5
 20
93.9999
 11
385.5
 21
88.8
  0
LINE
  8
0
 10
385.5
 20
88.8
 11
380.5
 21
88.8
  0
LINE
  8
0
 10
380.5
 20
88.8
 11
380.5
 21
93.9999
  0
LINE
  8
0
 10
380.5
 20
93.9999
 11
375.5
 21
93.9999
  0
LINE
  8
0
 10
375.5
 20
93.9999
 11
375.5
 21
88.8
  0
LINE
  8
0
 10
375.5
 20
88.8
 11
370.5
 21
88.8
  0
LINE
  8
0
 10
370.5
 20
88.8
 11
370.5
 21
93.9999
  0
LINE
  8
0
 10
370.5
 20
93.9999
 11
365.5
 21
93.9999
  0
LINE
  8
0
 10
365.5
 20
93.9999
 11
365.5
 21
88.8
  0
LINE
  8
0
 10
365.5
 20
88.8
 11
360.5
 21
88.8
  0
LINE
  8
0
 10
360.5
 20
88.8
 11
360.5
 21
93.9999
  0
LINE
  8
0
 10
360.5
 20
93.9999
 11
355.5
 21
93.9999
  0
LINE
  8
0
 10
355.5
 20
93.9999
 11
355.5
 21
88.8
  0
LINE
  8
0
 10
355.5
 20
88.8
 11
350.5
 21
88.8
  0
LINE
  8
0
 10
350.5
 20
88.8
 11
350.5
 21
93.9999
  0
LINE
  8
0
 10
350.5
 20
93.9999
 11
345.5
 21
93.9999
  0
LINE
  8
0
 10
345.5
 20
93.9999
 11
345.5
 21
88.8
  0
LINE
  8
0
 10
345.5
 20
88.8
 11
340.5
 21
88.8
  0
LINE
  8
0
 10
340.5
 20
88.8
 11
340.5
 21
93.9999
  0
LINE
  8
0
 10
340.5
 20
93.9999
 11
335.5
 21
93.9999
  0
LINE
  8
0
 10
335.5
 20
93.9999
 11
335.5
 21
88.8
  0
LINE
  8
0
 10
335.5
 20
88.8
 11
330.5
 21
88.8
  0
LINE
  8
0
 10
330.5
 20
88.8
 11
330.5
 21
93.9999
  0
LINE
  8
0
 10
330.5
 20
93.9999
 11
325.5
 21
93.9999
  0
LINE
  8
0
 10
325.5
 20
93.9999
 11
325.5
 21
88.8
  0
LINE
  8
0
 10
325.5
 20
88.8
 11
320.5
 21
88.8
  0
LINE
  8
0
 10
320.5
 20
88.8
 11
320.5
 21
93.9999
  0
LINE
  8
0
 10
320.5
 20
93.9999
 11
315.5
 21
93.9999
  0
LINE
  8
0
 10
315.5
 20
93.9999
 11
315.5
 21
88.8
  0
LINE
  8
0
 10
315.5
 20
88.8
 11
310.5
 21
88.8
  0
LINE
  8
0
 10
310.5
 20
88.8
 11
310.5
 21
93.9999
  0
LINE
  8
0
 10
310.5
 20
93.9999
 11
305.5
 21
93.9999
  0
LINE
  8
0
 10
305.5
 20
93.9999
 11
305.5
 21
88.8
  0
LINE
  8
0
 10
305.5
 20
88.8
 11
300.5
 21
88.8
  0
LINE
  8
0
 10
300.5
 20
88.8
 11
300.5
 21
93.9999
  0
LINE
  8
0
 10
300.5
 20
93.9999
 11
295.5
 21
93.9999
  0
LINE
  8
0
 10
295.5
 20
93.9999
 11
295.5
 21
88.8
  0
LINE
  8
0
 10
295.5
 20
88.8
 11
290.5
 21
88.8
  0
LINE
  8
0
 10
290.5
 20
88.8
 11
290.5
 21
93.9999
  0
LINE
  8
0
 10
290.5
 20
93.9999
 11
285.5
 21
93.9999
  0
LINE
  8
0
 10
285.5
 20
93.9999
 11
285.5
 21
88.8
  0
LINE
  8
0
 10
285.5
 20
88.8
 11
280.5
 21
88.8
  0
LINE
  8
0
 10
280.5
 20
88.8
 11
280.5
 21
93.9999
  0
LINE
  8
0
 10
280.5
 20
93.9999
 11
275.5
 21
93.9999
  0
LINE
  8
0
 10
275.5
 20
93.9999
 11
275.5
 21
88.8
  0
LINE
  8
0
 10
275.5
 20
88.8
 11
270.5
 21
88.8
  0
LINE
  8
0
 10
270.5
 20
88.8
 11
270.5
 21
93.9999
  0
LINE
  8
0
 10
270.5
 20
93.9999
 11
265.5
 21
93.9999
  0
LINE
  8
0
 10
265.5
 20
93.9999
 11
265.5
 21
88.8
  0
LINE
  8
0
 10
265.5
 20
88.8
 11
260.5
 21
88.8
  0
LINE
  8
0
 10
260.5
 20
88.8
 11
260.5
 21
93.9999
  0
LINE
  8
0
 10
260.5
 20
93.9999
 11
255.5
 21
93.9999
  0
LINE
  8
0
 10
255.5
 20
93.9999
 11
255.5
 21
88.8
  0
LINE
  8
0
 10
255.5
 20
88.8
 11
250.5
 21
88.8
  0
LINE
  8
0
 10
250.5
 20
88.8
 11
250.5
 21
93.9999
  0
LINE
  8
0
 10
250.5
 20
93.9999
 11
236
 21
93.9999
  0
LINE
  8
0
 10
236
 20
93.9999
 11
236
 21
81.5
  0
LINE
  8
0
 10
236
 20
81.5
 11
241.2
 21
81.5
  0
LINE
  8
0
 10
241.2
 20
81.5
 11
241.2
 21
76.5
  0
LINE
  8
0
 10
241.2
 20
76.5
 11
236
 21
76.5
  0
LINE
  8
0
 10
236
 20
76.5
 11
236
 21
64
  0
LINE
  8
0
 10
236
 20
64
 11
450
 21
64
  0
LINE
  8
0
 10
450
 20
64
 11
450
 21
76.5
  0
LINE
  8
0
 10
704.4
 20
5.2
 11
726.4
 21
5.2
  0
LINE
  8
0
 10
726.4
 20
5.2
 11
726.4
 21
0
  0
LINE
  8
0
 10
726.4
 20
0
 11
748.4
 21
0
  0
LINE
  8
0
 10
748.4
 20
0
 11
748.4
 21
5.2
  0
LINE
  8
0
 10
748.4
 20
5.2
 11
770.4
 21
5.2
  0
LINE
  8
0
 10
770.4
 20
5.2
 11
770.4
 21
0
  0
LINE
  8
0
 10
770.4
 20
0
 11
792.4
 21
0
  0
LINE
  8
0
 10
792.4
 20
0
 11
792.4
 21
5.2
  0
LINE
  8
0
 10
792.4
 20
5.2
 11
814.4
 21
5.2
  0
LINE
  8
0
 10
814.4
 20
5.2
 11
814.4
 21
0
  0
LINE
  8
0
 10
814.4
 20
0
 11
844
 21
0
  0
LINE
  8
0
 10
844
 20
0
 11
844
 21
31.7
  0
LINE
  8
0
 10
844
 20
31.7
 11
849.2
 21
31.7
  0
LINE
  8
0
 10
849.2
 20
31.7
 11
849.2
 21
53.7
  0
LINE
  8
0
 10
849.2
 20
53.7
 11
844
 21
53.7
  0
LINE
  8
0
 10
844
 20
53.7
 11
844
 21
85.3999
  0
LINE
  8
0
 10
844
 20
85.3999
 11
814.4
 21
85.3999
  0
LINE
  8
0
 10
814.4
 20
85.3999
 11
814.4
 21
80.2
  0
LINE
  8
0
 10
814.4
 20
80.2
 11
792.4
 21
80.2
  0
LINE
  8
0
 10
792.4
 20
80.2
 11
792.4
 21
85.3999
  0
LINE
  8
0
 10
792.4
 20
85.3999
 11
770.4
 21
85.3999
  0
LINE
  8
0
 10
770.4
 20
85.3999
 11
770.4
 21
80.2
  0
LINE
  8
0
 10
770.4
 20
80.2
 11
748.4
 21
80.2
  0
LINE
  8
0
 10
748.4
 20
80.2
 11
748.4
 21
85.3999
  0
LINE
  8
0
 10
748.4
 20
85.3999
 11
726.4
 21
85.3999
  0
LINE
  8
0
 10
726.4
 20
85.3999
 11
726.4
 21
80.2
  0
LINE
  8
0
 10
726.4
 20
80.2
 11
704.4
 21
80.2
  0
LINE
  8
0
 10
704.4
 20
80.2
 11
704.4
 21
85.3999
  0
LINE
  8
0
 10
704.4
 20
85.3999
 11
674.8
 21
85.3999
  0
LINE
  8
0
 10
674.8
 20
85.3999
 11
674.8
 21
53.7
  0
LINE
  8
0
 10
674.8
 20
53.7
 11
669.6
 21
53.7
  0
LINE
  8
0
 10
669.6
 20
53.7
 11
669.6
 21
31.7
  0
LINE
  8
0
 10
669.6
 20
31.7
 11
674.8
 21
31.7
  0
LINE
  8
0
 10
674.8
 20
31.7
 11
674.8
 21
0
  0
LINE
  8
0
 10
674.8
 20
0
 11
704.4
 21
0
  0
LINE
  8
0
 10
704.4
 20
0
 11
704.4
 21
5.2
  0
LINE
  8
0
 10
444.8
 20
44.5
 11
450
 21
44.5
  0
LINE
  8
0
 10
450
 20
44.5
 11
450
 21
49.5
  0
LINE
  8
0
 10
450
 20
49.5
 11
444.8
 21
49.5
  0
LINE
  8
0
 10
444.8
 20
49.5
 11
444.8
 21
61.9999
  0
LINE
  8
0
 10
444.8
 20
61.9999
 11
435.5
 21
61.9999
  0
LINE
  8
0
 10
435.5
 20
61.9999
 11
435.5
 21
56.8
  0
LINE
  8
0
 10
435.5
 20
56.8
 11
430.5
 21
56.8
  0
LINE
  8
0
 10
430.5
 20
56.8
 11
430.5
 21
61.9999
  0
LINE
  8
0
 10
430.5
 20
61.9999
 11
425.5
 21
61.9999
  0
LINE
  8
0
 10
425.5
 20
61.9999
 11
425.5
 21
56.8
  0
LINE
  8
0
 10
425.5
 20
56.8
 11
420.5
 21
56.8
  0
LINE
  8
0
 10
420.5
 20
56.8
 11
420.5
 21
61.9999
  0
LINE
  8
0
 10
420.5
 20
61.9999
 11
415.5
 21
61.9999
  0
LINE
  8
0
 10
415.5
 20
61.9999
 11
415.5
 21
56.8
  0
LINE
  8
0
 10
415.5
 20
56.8
 11
410.5
 21
56.8
  0
LINE
  8
0
 10
410.5
 20
56.8
 11
410.5
 21
61.9999
  0
LINE
  8
0
 10
410.5
 20
61.9999
 11
405.5
 21
61.9999
  0
LINE
  8
0
 10
405.5
 20
61.9999
 11
405.5
 21
56.8
  0
LINE
  8
0
 10
405.5
 20
56.8
 11
400.5
 21
56.8
  0
LINE
  8
0
 10
400.5
 20
56.8
 11
400.5
 21
61.9999
  0
LINE
  8
0
 10
400.5
 20
61.9999
 11
395.5
 21
61.9999
  0
LINE
  8
0
 10
395.5
 20
61.9999
 11
395.5
 21
56.8
  0
LINE
  8
0
 10
395.5
 20
56.8
 11
390.5
 21
56.8
  0
LINE
  8
0
 10
390.5
 20
56.8
 11
390.5
 21
61.9999
  0
LINE
  8
0
 10
390.5
 20
61.9999
 11
385.5
 21
61.9999
  0
LINE
  8
0
 10
385.5
 20
61.9999
 11
385.5
 21
56.8
  0
LINE
  8
0
 10
385.5
 20
56.8
 11
380.5
 21
56.8
  0
LINE
  8
0
 10
380.5
 20
56.8
 11
380.5
 21
61.9999
  0
LINE
  8
0
 10
380.5
 20
61.9999
 11
375.5
 21
61.9999
  0
LINE
  8
0
 10
375.5
 20
61.9999
 11
375.5
 21
56.8
  0
LINE
  8
0
 10
375.5
 20
56.8
 11
370.5
 21
56.8
  0
LINE
  8
0
 10
370.5
 20
56.8
 11
370.5
 21
61.9999
  0
LINE
  8
0
 10
370.5
 20
61.9999
 11
365.5
 21
61.9999
  0
LINE
  8
0
 10
365.5
 20
61.9999
 11
365.5
 21
56.8
  0
LINE
  8
0
 10
365.5
 20
56.8
 11
360.5
 21
56.8
  0
LINE
  8
0
 10
360.5
 20
56.8
 11
360.5
 21
61.9999
  0
LINE
  8
0
 10
360.5
 20
61.9999
 11
355.5
 21
61.9999
  0
LINE
  8
0
 10
355.5
 20
61.9999
 11
355.5
 21
56.8
  0
LINE
  8
0
 10
355.5
 20
56.8
 11
350.5
 21
56.8
  0
LINE
  8
0
 10
350.5
 20
56.8
 11
350.5
 21
61.9999
  0
LINE
  8
0
 10
350.5
 20
61.9999
 11
345.5
 21
61.9999
  0
LINE
  8
0
 10
345.5
 20
61.9999
 11
345.5
 21
56.8
  0
LINE
  8
0
 10
345.5
 20
56.8
 11
340.5
 21
56.8
  0
LINE
  8
0
 10
340.5
 20
56.8
 11
340.5
 21
61.9999
  0
LINE
  8
0
 10
340.5
 20
61.9999
 11
335.5
 21
61.9999
  0
LINE
  8
0
 10
335.5
 20
61.9999
 11
335.5
 21
56.8
  0
LINE
  8
0
 10
335.5
 20
56.8
 11
330.5
 21
56.8
  0
LINE
  8
0
 10
330.5
 20
56.8
 11
330.5
 21
61.9999
  0
LINE
  8
0
 10
330.5
 20
61.9999
 11
325.5
 21
61.9999
  0
LINE
  8
0
 10
325.5
 20
61.9999
 11
325.5
 21
56.8
  0
LINE
  8
0
 10
325.5
 20
56.8
 11
320.5
 21
56.8
  0
LINE
  8
0
 10
320.5
 20
56.8
 11
320.5
 21
61.9999
  0
LINE
  8
0
 10
320.5
 20
61.9999
 11
315.5
 21
61.9999
  0
LINE
  8
0
 10
315.5
 20
61.9999
 11
315.5
 21
56.8
  0
LINE
  8
0
 10
315.5
 20
56.8
 11
310.5
 21
56.8
  0
LINE
  8
0
 10
310.5
 20
56.8
 11
310.5
 21
61.9999
  0
LINE
  8
0
 10
310.5
 20
61.9999
 11
305.5
 21
61.9999
  0
LINE
  8
0
 10
305.5
 20
61.9999
 11
305.5
 21
56.8
  0
LINE
  8
0
 10
305.5
 20
56.8
 11
300.5
 21
56.8
  0
LINE
  8
0
 10
300.5
 20
56.8
 11
300.5
 21
61.9999
  0
LINE
  8
0
 10
300.5
 20
61.9999
 11
295.5
 21
61.9999
  0
LINE
  8
0
 10
295.5
 20
61.9999
 11
295.5
 21
56.8
  0
LINE
  8
0
 10
295.5
 20
56.8
 11
290.5
 21
56.8
  0
LINE
  8
0
 10
290.5
 20
56.8
 11
290.5
 21
61.9999
  0
LINE
  8
0
 10
290.5
 20
61.9999
 11
285.5
 21
61.9999
  0
LINE
  8
0
 10
285.5
 20
61.9999
 11
285.5
 21
56.8
  0
LINE
  8
0
 10
285.5
 20
56.8
 11
280.5
 21
56.8
  0
LINE
  8
0
 10
280.5
 20
56.8
 11
280.5
 21
61.9999
  0
LINE
  8
0
 10
280.5
 20
61.9999
 11
275.5
 21
61.9999
  0
LINE
  8
0
 10
275.5
 20
61.9999
 11
275.5
 21
56.8
  0
LINE
  8
0
 10
275.5
 20
56.8
 11
270.5
 21
56.8
  0
LINE
  8
0
 10
270.5
 20
56.8
 11
270.5
 21
61.9999
  0
LINE
  8
0
 10
270.5
 20
61.9999
 11
265.5
 21
61.9999
  0
LINE
  8
0
 10
265.5
 20
61.9999
 11
265.5
 21
56.8
  0
LINE
  8
0
 10
265.5
 20
56.8
 11
260.5
 21
56.8
  0
LINE
  8
0
 10
260.5
 20
56.8
 11
260.5
 21
61.9999
  0
LINE
  8
0
 10
260.5
 20
61.9999
 11
255.5
 21
61.9999
  0
LINE
  8
0
 10
255.5
 20
61.9999
 11
255.5
 21
56.8
  0
LINE
  8
0
 10
255.5
 20
56.8
 11
250.5
 21
56.8
  0
LINE
  8
0
 10
250.5
 20
56.8
 11
250.5
 21
61.9999
  0
LINE
  8
0
 10
250.5
 20
61.9999
 11
241.2
 21
61.9999
  0
LINE
  8
0
 10
241.2
 20
61.9999
 11
241.2
 21
49.5
  0
LINE
  8
0
 10
241.2
 20
49.5
 11
236
 21
49.5
  0
LINE
  8
0
 10
236
 20
49.5
 11
236
 21
44.5
  0
LINE
  8
0
 10
236
 20
44.5
 11
241.2
 21
44.5
  0
LINE
  8
0
 10
241.2
 20
44.5
 11
241.2
 21
32
  0
LINE
  8
0
 10
241.2
 20
32
 11
444.8
 21
32
  0
LINE
  8
0
 10
444.8
 20
32
 11
444.8
 21
44.5
  0
LINE
  8
0
 10
250.5
 20
5.2
 11
255.5
 21
5.2
  0
LINE
  8
0
 10
255.5
 20
5.2
 11
255.5
 21
0
  0
LINE
  8
0
 10
255.5
 20
0
 11
260.5
 21
0
  0
LINE
  8
0
 10
260.5
 20
0
 11
260.5
 21
5.2
  0
LINE
  8
0
 10
260.5
 20
5.2
 11
265.5
 21
5.2
  0
LINE
  8
0
 10
265.5
 20
5.2
 11
265.5
 21
0
  0
LINE
  8
0
 10
265.5
 20
0
 11
270.5
 21
0
  0
LINE
  8
0
 10
270.5
 20
0
 11
270.5
 21
5.2
  0
LINE
  8
0
 10
270.5
 20
5.2
 11
275.5
 21
5.2
  0
LINE
  8
0
 10
275.5
 20
5.2
 11
275.5
 21
0
  0
LINE
  8
0
 10
275.5
 20
0
 11
280.5
 21
0
  0
LINE
  8
0
 10
280.5
 20
0
 11
280.5
 21
5.2
  0
LINE
  8
0
 10
280.5
 20
5.2
 11
285.5
 21
5.2
  0
LINE
  8
0
 10
285.5
 20
5.2
 11
285.5
 21
0
  0
LINE
  8
0
 10
285.5
 20
0
 11
290.5
 21
0
  0
LINE
  8
0
 10
290.5
 20
0
 11
290.5
 21
5.2
  0
LINE
  8
0
 10
290.5
 20
5.2
 11
295.5
 21
5.2
  0
LINE
  8
0
 10
295.5
 20
5.2
 11
295.5
 21
0
  0
LINE
  8
0
 10
295.5
 20
0
 11
300.5
 21
0
  0
LINE
  8
0
 10
300.5
 20
0
 11
300.5
 21
5.2
  0
LINE
  8
0
 10
300.5
 20
5.2
 11
305.5
 21
5.2
  0
LINE
  8
0
 10
305.5
 20
5.2
 11
305.5
 21
0
  0
LINE
  8
0
 10
305.5
 20
0
 11
310.5
 21
0
  0
LINE
  8
0
 10
310.5
 20
0
 11
310.5
 21
5.2
  0
LINE
  8
0
 10
310.5
 20
5.2
 11
315.5
 21
5.2
  0
LINE
  8
0
 10
315.5
 20
5.2
 11
315.5
 21
0
  0
LINE
  8
0
 10
315.5
 20
0
 11
320.5
 21
0
  0
LINE
  8
0
 10
320.5
 20
0
 11
320.5
 21
5.2
  0
LINE
  8
0
 10
320.5
 20
5.2
 11
325.5
 21
5.2
  0
LINE
  8
0
 10
325.5
 20
5.2
 11
325.5
 21
0
  0
LINE
  8
0
 10
325.5
 20
0
 11
330.5
 21
0
  0
LINE
  8
0
 10
330.5
 20
0
 11
330.5
 21
5.2
  0
LINE
  8
0
 10
330.5
 20
5.2
 11
335.5
 21
5.2
  0
LINE
  8
0
 10
335.5
 20
5.2
 11
335.5
 21
0
  0
LINE
  8
0
 10
335.5
 20
0
 11
340.5
 21
0
  0
LINE
  8
0
 10
340.5
 20
0
 11
340.5
 21
5.2
  0
LINE
  8
0
 10
340.5
 20
5.2
 11
345.5
 21
5.2
  0
LINE
  8
0
 10
345.5
 20
5.2
 11
345.5
 21
0
  0
LINE
  8
0
 10
345.5
 20
0
 11
350.5
 21
0
  0
LINE
  8
0
 10
350.5
 20
0
 11
350.5
 21
5.2
  0
LINE
  8
0
 10
350.5
 20
5.2
 11
355.5
 21
5.2
  0
LINE
  8
0
 10
355.5
 20
5.2
 11
355.5
 21
0
  0
LINE
  8
0
 10
355.5
 20
0
 11
360.5
 21
0
  0
LINE
  8
0
 10
360.5
 20
0
 11
360.5
 21
5.2
  0
LINE
  8
0
 10
360.5
 20
5.2
 11
365.5
 21
5.2
  0
LINE
  8
0
 10
365.5
 20
5.2
 11
365.5
 21
0
  0
LINE
  8
0
 10
365.5
 20
0
 11
370.5
 21
0
  0
LINE
  8
0
 10
370.5
 20
0
 11
370.5
 21
5.2
  0
LINE
  8
0
 10
370.5
 20
5.2
 11
375.5
 21
5.2
  0
LINE
  8
0
 10
375.5
 20
5.2
 11
375.5
 21
0
  0
LINE
  8
0
 10
375.5
 20
0
 11
380.5
 21
0
  0
LINE
  8
0
 10
380.5
 20
0
 11
380.5
 21
5.2
  0
LINE
  8
0
 10
380.5
 20
5.2
 11
385.5
 21
5.2
  0
LINE
  8
0
 10
385.5
 20
5.2
 11
385.5
 21
0
  0
LINE
  8
0
 10
385.5
 20
0
 11
390.5
 21
0
  0
LINE
  8
0
 10
390.5
 20
0
 11
390.5
 21
5.2
  0
LINE
  8
0
 10
390.5
 20
5.2
 11
395.5
 21
5.2
  0
LINE
  8
0
 10
395.5
 20
5.2
 11
395.5
 21
0
  0
LINE
  8
0
 10
395.5
 20
0
 11
400.5
 21
0
  0
LINE
  8
0
 10
400.5
 20
0
 11
400.5
 21
5.2
  0
LINE
  8
0
 10
400.5
 20
5.2
 11
405.5
 21
5.2
  0
LINE
  8
0
 10
405.5
 20
5.2
 11
405.5
 21
0
  0
LINE
  8
0
 10
405.5
 20
0
 11
410.5
 21
0
  0
LINE
  8
0
 10
410.5
 20
0
 11
410.5
 21
5.2
  0
LINE
  8
0
 10
410.5
 20
5.2
 11
415.5
 21
5.2
  0
LINE
  8
0
 10
415.5
 20
5.2
 11
415.5
 21
0
  0
LINE
  8
0
 10
415.5
 20
0
 11
420.5
 21
0
  0
LINE
  8
0
 10
420.5
 20
0
 11
420.5
 21
5.2
  0
LINE
  8
0
 10
420.5
 20
5.2
 11
425.5
 21
5.2
  0
LINE
  8
0
 10
425.5
 20
5.2
 11
425.5
 21
0
  0
LINE
  8
0
 10
425.5
 20
0
 11
430.5
 21
0
  0
LINE
  8
0
 10
430.5
 20
0
 11
430.5
 21
5.2
  0
LINE
  8
0
 10
430.5
 20
5.2
 11
435.5
 21
5.2
  0
LINE
  8
0
 10
435.5
 20
5.2
 11
435.5
 21
0
  0
LINE
  8
0
 10
435.5
 20
0
 11
444.8
 21
0
  0
LINE
  8
0
 10
444.8
 20
0
 11
444.8
 21
12.5
  0
LINE
  8
0
 10
444.8
 20
12.5
 11
450
 21
12.5
  0
LINE
  8
0
 10
450
 20
12.5
 11
450
 21
17.5
  0
LINE
  8
0
 10
450
 20
17.5
 11
444.8
 21
17.5
  0
LINE
  8
0
 10
444.8
 20
17.5
 11
444.8
 21
29.9999
  0
LINE
  8
0
 10
444.8
 20
29.9999
 11
241.2
 21
29.9999
  0
LINE
  8
0
 10
241.2
 20
29.9999
 11
241.2
 21
17.5
  0
LINE
  8
0
 10
241.2
 20
17.5
 11
236
 21
17.5
  0
LINE
  8
0
 10
236
 20
17.5
 11
236
 21
12.5
  0
LINE
  8
0
 10
236
 20
12.5
 11
241.2
 21
12.5
  0
LINE
  8
0
 10
241.2
 20
12.5
 11
241.2
 21
0
  0
LINE
  8
0
 10
241.2
 20
0
 11
250.5
 21
0
  0
LINE
  8
0
 10
250.5
 20
0
 11
250.5
 21
5.2
  0
ENDSEC
  0
SECTION
  2
OBJECTS
  0
DICTIONARY
  0
ENDSEC
  0
EOF
