  0
SECTION
  2
BLOCKS
  0
ENDSEC
  0
SECTION
  2
ENTITIES
  0
LINE
  8
0
 10
118.95
 20
72
 11
122
 21
72
  0
LINE
  8
0
 10
122
 20
72
 11
122
 21
82
  0
LINE
  8
0
 10
122
 20
82
 11
118.95
 21
82
  0
LINE
  8
0
 10
118.95
 20
82
 11
118.95
 21
102
  0
LINE
  8
0
 10
118.95
 20
102
 11
65.05
 21
102
  0
LINE
  8
0
 10
65.05
 20
102
 11
65.05
 21
82
  0
LINE
  8
0
 10
65.05
 20
82
 11
62
 21
82
  0
LINE
  8
0
 10
62
 20
82
 11
62
 21
72
  0
LINE
  8
0
 10
62
 20
72
 11
65.05
 21
72
  0
LINE
  8
0
 10
65.05
 20
72
 11
65.05
 21
55.05
  0
LINE
  8
0
 10
65.05
 20
55.05
 11
118.95
 21
55.05
  0
LINE
  8
0
 10
118.95
 20
55.05
 11
118.95
 21
72
  0
LINE
  8
0
 10
77
 20
98.95
 11
77
 21
102
  0
LINE
  8
0
 10
77
 20
102
 11
87
 21
102
  0
LINE
  8
0
 10
87
 20
102
 11
87
 21
98.95
  0
LINE
  8
0
 10
87
 20
98.95
 11
77
 21
98.95
  0
LINE
  8
0
 10
97
 20
98.95
 11
97
 21
102
  0
LINE
  8
0
 10
97
 20
102
 11
107
 21
102
  0
LINE
  8
0
 10
107
 20
102
 11
107
 21
98.95
  0
LINE
  8
0
 10
107
 20
98.95
 11
97
 21
98.95
  0
LINE
  8
0
 10
139
 20
55.05
 11
149
 21
55.05
  0
LINE
  8
0
 10
149
 20
55.05
 11
149
 21
52
  0
LINE
  8
0
 10
149
 20
52
 11
159
 21
52
  0
LINE
  8
0
 10
159
 20
52
 11
159
 21
55.05
  0
LINE
  8
0
 10
159
 20
55.05
 11
169
 21
55.05
  0
LINE
  8
0
 10
169
 20
55.05
 11
169
 21
52
  0
LINE
  8
0
 10
169
 20
52
 11
184
 21
52
  0
LINE
  8
0
 10
184
 20
52
 11
184
 21
72
  0
LINE
  8
0
 10
184
 20
72
 11
180.95
 21
72
  0
LINE
  8
0
 10
180.95
 20
72
 11
180.95
 21
82
  0
LINE
  8
0
 10
180.95
 20
82
 11
184
 21
82
  0
LINE
  8
0
 10
184
 20
82
 11
184
 21
98.95
  0
LINE
  8
0
 10
184
 20
98.95
 11
124
 21
98.95
  0
LINE
  8
0
 10
124
 20
98.95
 11
124
 21
82
  0
LINE
  8
0
 10
124
 20
82
 11
127.05
 21
82
  0
LINE
  8
0
 10
127.05
 20
82
 11
127.05
 21
72
  0
LINE
  8
0
 10
127.05
 20
72
 11
124
 21
72
  0
LINE
  8
0
 10
124
 20
72
 11
124
 21
52
  0
LINE
  8
0
 10
124
 20
52
 11
139
 21
52
  0
LINE
  8
0
 10
139
 20
52
 11
139
 21
55.05
  0
LINE
  8
0
 10
56.95
 20
45
 11
56.95
 21
56.95
  0
LINE
  8
0
 10
56.95
 20
56.95
 11
45
 21
56.95
  0
LINE
  8
0
 10
45
 20
56.95
 11
45
 21
60
  0
LINE
  8
0
 10
45
 20
60
 11
35
 21
60
  0
LINE
  8
0
 10
35
 20
60
 11
35
 21
56.95
  0
LINE
  8
0
 10
35
 20
56.95
 11
25
 21
56.95
  0
LINE
  8
0
 10
25
 20
56.95
 11
25
 21
60
  0
LINE
  8
0
 10
25
 20
60
 11
15
 21
60
  0
LINE
  8
0
 10
15
 20
60
 11
15
 21
56.95
  0
LINE
  8
0
 10
15
 20
56.95
 11
3.04999
 21
56.95
  0
LINE
  8
0
 10
3.04999
 20
56.95
 11
3.04999
 21
45
  0
LINE
  8
0
 10
3.04999
 20
45
 11
0
 21
45
  0
LINE
  8
0
 10
0
 20
45
 11
0
 21
35
  0
LINE
  8
0
 10
0
 20
35
 11
3.04999
 21
35
  0
LINE
  8
0
 10
3.04999
 20
35
 11
3.04999
 21
25
  0
LINE
  8
0
 10
3.04999
 20
25
 11
0
 21
25
  0
LINE
  8
0
 10
0
 20
25
 11
0
 21
15
  0
LINE
  8
0
 10
0
 20
15
 11
3.04999
 21
15
  0
LINE
  8
0
 10
3.04999
 20
15
 11
3.04999
 21
3.04999
  0
LINE
  8
0
 10
3.04999
 20
3.04999
 11
15
 21
3.04999
  0
LINE
  8
0
 10
15
 20
3.04999
 11
15
 21
0
  0
LINE
  8
0
 10
15
 20
0
 11
25
 21
0
  0
LINE
  8
0
 10
25
 20
0
 11
25
 21
3.04999
  0
LINE
  8
0
 10
25
 20
3.04999
 11
35
 21
3.04999
  0
LINE
  8
0
 10
35
 20
3.04999
 11
35
 21
0
  0
LINE
  8
0
 10
35
 20
0
 11
45
 21
0
  0
LINE
  8
0
 10
45
 20
0
 11
45
 21
3.04999
  0
LINE
  8
0
 10
45
 20
3.04999
 11
56.95
 21
3.04999
  0
LINE
  8
0
 10
56.95
 20
3.04999
 11
56.95
 21
15
  0
LINE
  8
0
 10
56.95
 20
15
 11
60
 21
15
  0
LINE
  8
0
 10
60
 20
15
 11
60
 21
25
  0
LINE
  8
0
 10
60
 20
25
 11
56.95
 21
25
  0
LINE
  8
0
 10
56.95
 20
25
 11
56.95
 21
35
  0
LINE
  8
0
 10
56.95
 20
35
 11
60
 21
35
  0
LINE
  8
0
 10
60
 20
35
 11
60
 21
45
  0
LINE
  8
0
 10
60
 20
45
 11
56.95
 21
45
  0
LINE
  8
0
 10
184
 20
20
 11
180.95
 21
20
  0
LINE
  8
0
 10
180.95
 20
20
 11
180.95
 21
30
  0
LINE
  8
0
 10
180.95
 20
30
 11
184
 21
30
  0
LINE
  8
0
 10
184
 20
30
 11
184
 21
50
  0
LINE
  8
0
 10
184
 20
50
 11
124
 21
50
  0
LINE
  8
0
 10
124
 20
50
 11
124
 21
30
  0
LINE
  8
0
 10
124
 20
30
 11
127.05
 21
30
  0
LINE
  8
0
 10
127.05
 20
30
 11
127.05
 21
20
  0
LINE
  8
0
 10
127.05
 20
20
 11
124
 21
20
  0
LINE
  8
0
 10
124
 20
20
 11
124
 21
3.04999
  0
LINE
  8
0
 10
124
 20
3.04999
 11
184
 21
3.04999
  0
LINE
  8
0
 10
184
 20
3.04999
 11
184
 21
20
  0
LINE
  8
0
 10
139
 20
46.95
 11
139
 21
50
  0
LINE
  8
0
 10
139
 20
50
 11
149
 21
50
  0
LINE
  8
0
 10
149
 20
50
 11
149
 21
46.95
  0
LINE
  8
0
 10
149
 20
46.95
 11
139
 21
46.95
  0
LINE
  8
0
 10
159
 20
46.95
 11
159
 21
50
  0
LINE
  8
0
 10
159
 20
50
 11
169
 21
50
  0
LINE
  8
0
 10
169
 20
50
 11
169
 21
46.95
  0
LINE
  8
0
 10
169
 20
46.95
 11
159
 21
46.95
  0
LINE
  8
0
 10
77
 20
3.04999
 11
87
 21
3.04999
  0
LINE
  8
0
 10
87
 20
3.04999
 11
87
 21
0
  0
LINE
  8
0
 10
87
 20
0
 11
97
 21
0
  0
LINE
  8
0
 10
97
 20
0
 11
97
 21
3.04999
  0
LINE
  8
0
 10
97
 20
3.04999
 11
107
 21
3.04999
  0
LINE
  8
0
 10
107
 20
3.04999
 11
107
 21
0
  0
LINE
  8
0
 10
107
 20
0
 11
118.95
 21
0
  0
LINE
  8
0
 10
118.95
 20
0
 11
118.95
 21
20
  0
LINE
  8
0
 10
118.95
 20
20
 11
122
 21
20
  0
LINE
  8
0
 10
122
 20
20
 11
122
 21
30
  0
LINE
  8
0
 10
122
 20
30
 11
118.95
 21
30
  0
LINE
  8
0
 10
118.95
 20
30
 11
118.95
 21
46.95
  0
LINE
  8
0
 10
118.95
 20
46.95
 11
65.05
 21
46.95
  0
LINE
  8
0
 10
65.05
 20
46.95
 11
65.05
 21
30
  0
LINE
  8
0
 10
65.05
 20
30
 11
62
 21
30
  0
LINE
  8
0
 10
62
 20
30
 11
62
 21
20
  0
LINE
  8
0
 10
62
 20
20
 11
65.05
 21
20
  0
LINE
  8
0
 10
65.05
 20
20
 11
65.05
 21
0
  0
LINE
  8
0
 10
65.05
 20
0
 11
77
 21
0
  0
LINE
  8
0
 10
77
 20
0
 11
77
 21
3.04999
  0
ENDSEC
  0
SECTION
  2
OBJECTS
  0
DICTIONARY
  0
ENDSEC
  0
EOF
