<?xml version="1.0" standalone="no"?>
<!DOCTYPE svg PUBLIC "-//W3C//DTD SVG 1.1//EN" "http://www.w3.org/Graphics/SVG/1.1/DTD/svg11.dtd">
<svg width="184mm" height="102mm" viewBox="0 -102 184 102" xmlns="http://www.w3.org/2000/svg" version="1.1">
<title>OpenSCAD Model</title>
<path d="
M 118.95,-72 L 122,-72 L 122,-82 L 118.95,-82 L 118.95,-102 L 65.05,-102
 L 65.05,-82 L 62,-82 L 62,-72 L 65.05,-72 L 65.05,-55.05 L 118.95,-55.05
 z
M 77,-98.95 L 77,-102 L 87,-102 L 87,-98.95 z
M 97,-98.95 L 97,-102 L 107,-102 L 107,-98.95 z
M 139,-55.05 L 149,-55.05 L 149,-52 L 159,-52 L 159,-55.05 L 169,-55.05
 L 169,-52 L 184,-52 L 184,-72 L 180.95,-72 L 180.95,-82 L 184,-82
 L 184,-98.95 L 124,-98.95 L 124,-82 L 127.05,-82 L 127.05,-72 L 124,-72
 L 124,-52 L 139,-52 z
M 56.95,-45 L 56.95,-56.95 L 45,-56.95 L 45,-60 L 35,-60 L 35,-56.95
 L 25,-56.95 L 25,-60 L 15,-60 L 15,-56.95 L 3.04999,-56.95 L 3.04999,-45
 L 0,-45 L 0,-35 L 3.04999,-35 L 3.04999,-25 L 0,-25 L 0,-15
 L 3.04999,-15 L 3.04999,-3.04999 L 15,-3.04999 L 15,-0 L 25,-0 L 25,-3.04999
 L 35,-3.04999 L 35,-0 L 45,-0 L 45,-3.04999 L 56.95,-3.04999 L 56.95,-15
 L 60,-15 L 60,-25 L 56.95,-25 L 56.95,-35 L 60,-35 L 60,-45
 z
M 184,-20 L 180.95,-20 L 180.95,-30 L 184,-30 L 184,-50 L 124,-50
 L 124,-30 L 127.05,-30 L 127.05,-20 L 124,-20 L 124,-3.04999 L 184,-3.04999
 z
M 139,-46.95 L 139,-50 L 149,-50 L 149,-46.95 z
M 159,-46.95 L 159,-50 L 169,-50 L 169,-46.95 z
M 77,-3.04999 L 87,-3.04999 L 87,-0 L 97,-0 L 97,-3.04999 L 107,-3.04999
 L 107,-0 L 118.95,-0 L 118.95,-20 L 122,-20 L 122,-30 L 118.95,-30
 L 118.95,-46.95 L 65.05,-46.95 L 65.05,-30 L 62,-30 L 62,-20 L 65.05,-20
 L 65.05,-0 L 77,-0 z
" stroke="black" fill="lightgray" stroke-width="0.5"/>
</svg>
