  0
SECTION
  2
BLOCKS
  0
ENDSEC
  0
SECTION
  2
ENTITIES
  0
LINE
  8
0
 10
178.95
 20
72
 11
182
 21
72
  0
LINE
  8
0
 10
182
 20
72
 11
182
 21
82
  0
LINE
  8
0
 10
182
 20
82
 11
178.95
 21
82
  0
LINE
  8
0
 10
178.95
 20
82
 11
178.95
 21
102
  0
LINE
  8
0
 10
178.95
 20
102
 11
95.05
 21
102
  0
LINE
  8
0
 10
95.05
 20
102
 11
95.05
 21
82
  0
LINE
  8
0
 10
95.05
 20
82
 11
92
 21
82
  0
LINE
  8
0
 10
92
 20
82
 11
92
 21
72
  0
LINE
  8
0
 10
92
 20
72
 11
95.05
 21
72
  0
LINE
  8
0
 10
95.05
 20
72
 11
95.05
 21
55.05
  0
LINE
  8
0
 10
95.05
 20
55.05
 11
178.95
 21
55.05
  0
LINE
  8
0
 10
178.95
 20
55.05
 11
178.95
 21
72
  0
LINE
  8
0
 10
112
 20
98.95
 11
112
 21
102
  0
LINE
  8
0
 10
112
 20
102
 11
122
 21
102
  0
LINE
  8
0
 10
122
 20
102
 11
122
 21
98.95
  0
LINE
  8
0
 10
122
 20
98.95
 11
112
 21
98.95
  0
LINE
  8
0
 10
132
 20
98.95
 11
132
 21
102
  0
LINE
  8
0
 10
132
 20
102
 11
142
 21
102
  0
LINE
  8
0
 10
142
 20
102
 11
142
 21
98.95
  0
LINE
  8
0
 10
142
 20
98.95
 11
132
 21
98.95
  0
LINE
  8
0
 10
152
 20
98.95
 11
152
 21
102
  0
LINE
  8
0
 10
152
 20
102
 11
162
 21
102
  0
LINE
  8
0
 10
162
 20
102
 11
162
 21
98.95
  0
LINE
  8
0
 10
162
 20
98.95
 11
152
 21
98.95
  0
LINE
  8
0
 10
204
 20
55.05
 11
214
 21
55.05
  0
LINE
  8
0
 10
214
 20
55.05
 11
214
 21
52
  0
LINE
  8
0
 10
214
 20
52
 11
224
 21
52
  0
LINE
  8
0
 10
224
 20
52
 11
224
 21
55.05
  0
LINE
  8
0
 10
224
 20
55.05
 11
234
 21
55.05
  0
LINE
  8
0
 10
234
 20
55.05
 11
234
 21
52
  0
LINE
  8
0
 10
234
 20
52
 11
244
 21
52
  0
LINE
  8
0
 10
244
 20
52
 11
244
 21
55.05
  0
LINE
  8
0
 10
244
 20
55.05
 11
254
 21
55.05
  0
LINE
  8
0
 10
254
 20
55.05
 11
254
 21
52
  0
LINE
  8
0
 10
254
 20
52
 11
274
 21
52
  0
LINE
  8
0
 10
274
 20
52
 11
274
 21
72
  0
LINE
  8
0
 10
274
 20
72
 11
270.95
 21
72
  0
LINE
  8
0
 10
270.95
 20
72
 11
270.95
 21
82
  0
LINE
  8
0
 10
270.95
 20
82
 11
274
 21
82
  0
LINE
  8
0
 10
274
 20
82
 11
274
 21
98.95
  0
LINE
  8
0
 10
274
 20
98.95
 11
184
 21
98.95
  0
LINE
  8
0
 10
184
 20
98.95
 11
184
 21
82
  0
LINE
  8
0
 10
184
 20
82
 11
187.05
 21
82
  0
LINE
  8
0
 10
187.05
 20
82
 11
187.05
 21
72
  0
LINE
  8
0
 10
187.05
 20
72
 11
184
 21
72
  0
LINE
  8
0
 10
184
 20
72
 11
184
 21
52
  0
LINE
  8
0
 10
184
 20
52
 11
204
 21
52
  0
LINE
  8
0
 10
204
 20
52
 11
204
 21
55.05
  0
LINE
  8
0
 10
86.95
 20
50
 11
86.95
 21
60
  0
LINE
  8
0
 10
86.95
 20
60
 11
90
 21
60
  0
LINE
  8
0
 10
90
 20
60
 11
90
 21
70
  0
LINE
  8
0
 10
90
 20
70
 11
86.95
 21
70
  0
LINE
  8
0
 10
86.95
 20
70
 11
86.95
 21
86.95
  0
LINE
  8
0
 10
86.95
 20
86.95
 11
70
 21
86.95
  0
LINE
  8
0
 10
70
 20
86.95
 11
70
 21
90
  0
LINE
  8
0
 10
70
 20
90
 11
60
 21
90
  0
LINE
  8
0
 10
60
 20
90
 11
60
 21
86.95
  0
LINE
  8
0
 10
60
 20
86.95
 11
50
 21
86.95
  0
LINE
  8
0
 10
50
 20
86.95
 11
50
 21
90
  0
LINE
  8
0
 10
50
 20
90
 11
40
 21
90
  0
LINE
  8
0
 10
40
 20
90
 11
40
 21
86.95
  0
LINE
  8
0
 10
40
 20
86.95
 11
30
 21
86.95
  0
LINE
  8
0
 10
30
 20
86.95
 11
30
 21
90
  0
LINE
  8
0
 10
30
 20
90
 11
20
 21
90
  0
LINE
  8
0
 10
20
 20
90
 11
20
 21
86.95
  0
LINE
  8
0
 10
20
 20
86.95
 11
3.04999
 21
86.95
  0
LINE
  8
0
 10
3.04999
 20
86.95
 11
3.04999
 21
70
  0
LINE
  8
0
 10
3.04999
 20
70
 11
0
 21
70
  0
LINE
  8
0
 10
0
 20
70
 11
0
 21
60
  0
LINE
  8
0
 10
0
 20
60
 11
3.04999
 21
60
  0
LINE
  8
0
 10
3.04999
 20
60
 11
3.04999
 21
50
  0
LINE
  8
0
 10
3.04999
 20
50
 11
0
 21
50
  0
LINE
  8
0
 10
0
 20
50
 11
0
 21
40
  0
LINE
  8
0
 10
0
 20
40
 11
3.04999
 21
40
  0
LINE
  8
0
 10
3.04999
 20
40
 11
3.04999
 21
30
  0
LINE
  8
0
 10
3.04999
 20
30
 11
0
 21
30
  0
LINE
  8
0
 10
0
 20
30
 11
0
 21
20
  0
LINE
  8
0
 10
0
 20
20
 11
3.04999
 21
20
  0
LINE
  8
0
 10
3.04999
 20
20
 11
3.04999
 21
3.04999
  0
LINE
  8
0
 10
3.04999
 20
3.04999
 11
20
 21
3.04999
  0
LINE
  8
0
 10
20
 20
3.04999
 11
20
 21
0
  0
LINE
  8
0
 10
20
 20
0
 11
30
 21
0
  0
LINE
  8
0
 10
30
 20
0
 11
30
 21
3.04999
  0
LINE
  8
0
 10
30
 20
3.04999
 11
40
 21
3.04999
  0
LINE
  8
0
 10
40
 20
3.04999
 11
40
 21
0
  0
LINE
  8
0
 10
40
 20
0
 11
50
 21
0
  0
LINE
  8
0
 10
50
 20
0
 11
50
 21
3.04999
  0
LINE
  8
0
 10
50
 20
3.04999
 11
60
 21
3.04999
  0
LINE
  8
0
 10
60
 20
3.04999
 11
60
 21
0
  0
LINE
  8
0
 10
60
 20
0
 11
70
 21
0
  0
LINE
  8
0
 10
70
 20
0
 11
70
 21
3.04999
  0
LINE
  8
0
 10
70
 20
3.04999
 11
86.95
 21
3.04999
  0
LINE
  8
0
 10
86.95
 20
3.04999
 11
86.95
 21
20
  0
LINE
  8
0
 10
86.95
 20
20
 11
90
 21
20
  0
LINE
  8
0
 10
90
 20
20
 11
90
 21
30
  0
LINE
  8
0
 10
90
 20
30
 11
86.95
 21
30
  0
LINE
  8
0
 10
86.95
 20
30
 11
86.95
 21
40
  0
LINE
  8
0
 10
86.95
 20
40
 11
90
 21
40
  0
LINE
  8
0
 10
90
 20
40
 11
90
 21
50
  0
LINE
  8
0
 10
90
 20
50
 11
86.95
 21
50
  0
LINE
  8
0
 10
274
 20
20
 11
270.95
 21
20
  0
LINE
  8
0
 10
270.95
 20
20
 11
270.95
 21
30
  0
LINE
  8
0
 10
270.95
 20
30
 11
274
 21
30
  0
LINE
  8
0
 10
274
 20
30
 11
274
 21
50
  0
LINE
  8
0
 10
274
 20
50
 11
184
 21
50
  0
LINE
  8
0
 10
184
 20
50
 11
184
 21
30
  0
LINE
  8
0
 10
184
 20
30
 11
187.05
 21
30
  0
LINE
  8
0
 10
187.05
 20
30
 11
187.05
 21
20
  0
LINE
  8
0
 10
187.05
 20
20
 11
184
 21
20
  0
LINE
  8
0
 10
184
 20
20
 11
184
 21
3.04999
  0
LINE
  8
0
 10
184
 20
3.04999
 11
274
 21
3.04999
  0
LINE
  8
0
 10
274
 20
3.04999
 11
274
 21
20
  0
LINE
  8
0
 10
204
 20
46.95
 11
204
 21
50
  0
LINE
  8
0
 10
204
 20
50
 11
214
 21
50
  0
LINE
  8
0
 10
214
 20
50
 11
214
 21
46.95
  0
LINE
  8
0
 10
214
 20
46.95
 11
204
 21
46.95
  0
LINE
  8
0
 10
224
 20
46.95
 11
224
 21
50
  0
LINE
  8
0
 10
224
 20
50
 11
234
 21
50
  0
LINE
  8
0
 10
234
 20
50
 11
234
 21
46.95
  0
LINE
  8
0
 10
234
 20
46.95
 11
224
 21
46.95
  0
LINE
  8
0
 10
244
 20
46.95
 11
244
 21
50
  0
LINE
  8
0
 10
244
 20
50
 11
254
 21
50
  0
LINE
  8
0
 10
254
 20
50
 11
254
 21
46.95
  0
LINE
  8
0
 10
254
 20
46.95
 11
244
 21
46.95
  0
LINE
  8
0
 10
112
 20
3.04999
 11
122
 21
3.04999
  0
LINE
  8
0
 10
122
 20
3.04999
 11
122
 21
0
  0
LINE
  8
0
 10
122
 20
0
 11
132
 21
0
  0
LINE
  8
0
 10
132
 20
0
 11
132
 21
3.04999
  0
LINE
  8
0
 10
132
 20
3.04999
 11
142
 21
3.04999
  0
LINE
  8
0
 10
142
 20
3.04999
 11
142
 21
0
  0
LINE
  8
0
 10
142
 20
0
 11
152
 21
0
  0
LINE
  8
0
 10
152
 20
0
 11
152
 21
3.04999
  0
LINE
  8
0
 10
152
 20
3.04999
 11
162
 21
3.04999
  0
LINE
  8
0
 10
162
 20
3.04999
 11
162
 21
0
  0
LINE
  8
0
 10
162
 20
0
 11
178.95
 21
0
  0
LINE
  8
0
 10
178.95
 20
0
 11
178.95
 21
20
  0
LINE
  8
0
 10
178.95
 20
20
 11
182
 21
20
  0
LINE
  8
0
 10
182
 20
20
 11
182
 21
30
  0
LINE
  8
0
 10
182
 20
30
 11
178.95
 21
30
  0
LINE
  8
0
 10
178.95
 20
30
 11
178.95
 21
46.95
  0
LINE
  8
0
 10
178.95
 20
46.95
 11
95.05
 21
46.95
  0
LINE
  8
0
 10
95.05
 20
46.95
 11
95.05
 21
30
  0
LINE
  8
0
 10
95.05
 20
30
 11
92
 21
30
  0
LINE
  8
0
 10
92
 20
30
 11
92
 21
20
  0
LINE
  8
0
 10
92
 20
20
 11
95.05
 21
20
  0
LINE
  8
0
 10
95.05
 20
20
 11
95.05
 21
0
  0
LINE
  8
0
 10
95.05
 20
0
 11
112
 21
0
  0
LINE
  8
0
 10
112
 20
0
 11
112
 21
3.04999
  0
ENDSEC
  0
SECTION
  2
OBJECTS
  0
DICTIONARY
  0
ENDSEC
  0
EOF
