  0
SECTION
  2
BLOCKS
  0
ENDSEC
  0
SECTION
  2
ENTITIES
  0
LINE
  8
0
 10
528.95
 20
72
 11
532
 21
72
  0
LINE
  8
0
 10
532
 20
72
 11
532
 21
82
  0
LINE
  8
0
 10
532
 20
82
 11
528.95
 21
82
  0
LINE
  8
0
 10
528.95
 20
82
 11
528.95
 21
102
  0
LINE
  8
0
 10
528.95
 20
102
 11
512
 21
102
  0
LINE
  8
0
 10
512
 20
102
 11
512
 21
98.95
  0
LINE
  8
0
 10
512
 20
98.95
 11
502
 21
98.95
  0
LINE
  8
0
 10
502
 20
98.95
 11
502
 21
102
  0
LINE
  8
0
 10
502
 20
102
 11
492
 21
102
  0
LINE
  8
0
 10
492
 20
102
 11
492
 21
98.95
  0
LINE
  8
0
 10
492
 20
98.95
 11
482
 21
98.95
  0
LINE
  8
0
 10
482
 20
98.95
 11
482
 21
102
  0
LINE
  8
0
 10
482
 20
102
 11
472
 21
102
  0
LINE
  8
0
 10
472
 20
102
 11
472
 21
98.95
  0
LINE
  8
0
 10
472
 20
98.95
 11
462
 21
98.95
  0
LINE
  8
0
 10
462
 20
98.95
 11
462
 21
102
  0
LINE
  8
0
 10
462
 20
102
 11
445.05
 21
102
  0
LINE
  8
0
 10
445.05
 20
102
 11
445.05
 21
82
  0
LINE
  8
0
 10
445.05
 20
82
 11
442
 21
82
  0
LINE
  8
0
 10
442
 20
82
 11
442
 21
72
  0
LINE
  8
0
 10
442
 20
72
 11
445.05
 21
72
  0
LINE
  8
0
 10
445.05
 20
72
 11
445.05
 21
55.05
  0
LINE
  8
0
 10
445.05
 20
55.05
 11
528.95
 21
55.05
  0
LINE
  8
0
 10
528.95
 20
55.05
 11
528.95
 21
72
  0
LINE
  8
0
 10
268.95
 20
72
 11
272
 21
72
  0
LINE
  8
0
 10
272
 20
72
 11
272
 21
82
  0
LINE
  8
0
 10
272
 20
82
 11
268.95
 21
82
  0
LINE
  8
0
 10
268.95
 20
82
 11
268.95
 21
102
  0
LINE
  8
0
 10
268.95
 20
102
 11
257
 21
102
  0
LINE
  8
0
 10
257
 20
102
 11
257
 21
98.95
  0
LINE
  8
0
 10
257
 20
98.95
 11
247
 21
98.95
  0
LINE
  8
0
 10
247
 20
98.95
 11
247
 21
102
  0
LINE
  8
0
 10
247
 20
102
 11
237
 21
102
  0
LINE
  8
0
 10
237
 20
102
 11
237
 21
98.95
  0
LINE
  8
0
 10
237
 20
98.95
 11
227
 21
98.95
  0
LINE
  8
0
 10
227
 20
98.95
 11
227
 21
102
  0
LINE
  8
0
 10
227
 20
102
 11
215.05
 21
102
  0
LINE
  8
0
 10
215.05
 20
102
 11
215.05
 21
82
  0
LINE
  8
0
 10
215.05
 20
82
 11
212
 21
82
  0
LINE
  8
0
 10
212
 20
82
 11
212
 21
72
  0
LINE
  8
0
 10
212
 20
72
 11
215.05
 21
72
  0
LINE
  8
0
 10
215.05
 20
72
 11
215.05
 21
55.05
  0
LINE
  8
0
 10
215.05
 20
55.05
 11
268.95
 21
55.05
  0
LINE
  8
0
 10
268.95
 20
55.05
 11
268.95
 21
72
  0
LINE
  8
0
 10
554
 20
55.05
 11
564
 21
55.05
  0
LINE
  8
0
 10
564
 20
55.05
 11
564
 21
52
  0
LINE
  8
0
 10
564
 20
52
 11
574
 21
52
  0
LINE
  8
0
 10
574
 20
52
 11
574
 21
55.05
  0
LINE
  8
0
 10
574
 20
55.05
 11
584
 21
55.05
  0
LINE
  8
0
 10
584
 20
55.05
 11
584
 21
52
  0
LINE
  8
0
 10
584
 20
52
 11
594
 21
52
  0
LINE
  8
0
 10
594
 20
52
 11
594
 21
55.05
  0
LINE
  8
0
 10
594
 20
55.05
 11
604
 21
55.05
  0
LINE
  8
0
 10
604
 20
55.05
 11
604
 21
52
  0
LINE
  8
0
 10
604
 20
52
 11
624
 21
52
  0
LINE
  8
0
 10
624
 20
52
 11
624
 21
72
  0
LINE
  8
0
 10
624
 20
72
 11
620.95
 21
72
  0
LINE
  8
0
 10
620.95
 20
72
 11
620.95
 21
82
  0
LINE
  8
0
 10
620.95
 20
82
 11
624
 21
82
  0
LINE
  8
0
 10
624
 20
82
 11
624
 21
98.95
  0
LINE
  8
0
 10
624
 20
98.95
 11
534
 21
98.95
  0
LINE
  8
0
 10
534
 20
98.95
 11
534
 21
82
  0
LINE
  8
0
 10
534
 20
82
 11
537.05
 21
82
  0
LINE
  8
0
 10
537.05
 20
82
 11
537.05
 21
72
  0
LINE
  8
0
 10
537.05
 20
72
 11
534
 21
72
  0
LINE
  8
0
 10
534
 20
72
 11
534
 21
52
  0
LINE
  8
0
 10
534
 20
52
 11
554
 21
52
  0
LINE
  8
0
 10
554
 20
52
 11
554
 21
55.05
  0
LINE
  8
0
 10
289
 20
55.05
 11
299
 21
55.05
  0
LINE
  8
0
 10
299
 20
55.05
 11
299
 21
52
  0
LINE
  8
0
 10
299
 20
52
 11
309
 21
52
  0
LINE
  8
0
 10
309
 20
52
 11
309
 21
55.05
  0
LINE
  8
0
 10
309
 20
55.05
 11
319
 21
55.05
  0
LINE
  8
0
 10
319
 20
55.05
 11
319
 21
52
  0
LINE
  8
0
 10
319
 20
52
 11
334
 21
52
  0
LINE
  8
0
 10
334
 20
52
 11
334
 21
72
  0
LINE
  8
0
 10
334
 20
72
 11
330.95
 21
72
  0
LINE
  8
0
 10
330.95
 20
72
 11
330.95
 21
82
  0
LINE
  8
0
 10
330.95
 20
82
 11
334
 21
82
  0
LINE
  8
0
 10
334
 20
82
 11
334
 21
98.95
  0
LINE
  8
0
 10
334
 20
98.95
 11
274
 21
98.95
  0
LINE
  8
0
 10
274
 20
98.95
 11
274
 21
82
  0
LINE
  8
0
 10
274
 20
82
 11
277.05
 21
82
  0
LINE
  8
0
 10
277.05
 20
82
 11
277.05
 21
72
  0
LINE
  8
0
 10
277.05
 20
72
 11
274
 21
72
  0
LINE
  8
0
 10
274
 20
72
 11
274
 21
52
  0
LINE
  8
0
 10
274
 20
52
 11
289
 21
52
  0
LINE
  8
0
 10
289
 20
52
 11
289
 21
55.05
  0
LINE
  8
0
 10
380
 20
3.04999
 11
390
 21
3.04999
  0
LINE
  8
0
 10
390
 20
3.04999
 11
390
 21
0
  0
LINE
  8
0
 10
390
 20
0
 11
400
 21
0
  0
LINE
  8
0
 10
400
 20
0
 11
400
 21
3.04999
  0
LINE
  8
0
 10
400
 20
3.04999
 11
410
 21
3.04999
  0
LINE
  8
0
 10
410
 20
3.04999
 11
410
 21
0
  0
LINE
  8
0
 10
410
 20
0
 11
420
 21
0
  0
LINE
  8
0
 10
420
 20
0
 11
420
 21
3.04999
  0
LINE
  8
0
 10
420
 20
3.04999
 11
436.95
 21
3.04999
  0
LINE
  8
0
 10
436.95
 20
3.04999
 11
436.95
 21
20
  0
LINE
  8
0
 10
436.95
 20
20
 11
440
 21
20
  0
LINE
  8
0
 10
440
 20
20
 11
440
 21
30
  0
LINE
  8
0
 10
440
 20
30
 11
436.95
 21
30
  0
LINE
  8
0
 10
436.95
 20
30
 11
436.95
 21
40
  0
LINE
  8
0
 10
436.95
 20
40
 11
440
 21
40
  0
LINE
  8
0
 10
440
 20
40
 11
440
 21
50
  0
LINE
  8
0
 10
440
 20
50
 11
436.95
 21
50
  0
LINE
  8
0
 10
436.95
 20
50
 11
436.95
 21
60
  0
LINE
  8
0
 10
436.95
 20
60
 11
440
 21
60
  0
LINE
  8
0
 10
440
 20
60
 11
440
 21
70
  0
LINE
  8
0
 10
440
 20
70
 11
436.95
 21
70
  0
LINE
  8
0
 10
436.95
 20
70
 11
436.95
 21
86.95
  0
LINE
  8
0
 10
436.95
 20
86.95
 11
420
 21
86.95
  0
LINE
  8
0
 10
420
 20
86.95
 11
420
 21
89.9999
  0
LINE
  8
0
 10
420
 20
89.9999
 11
410
 21
89.9999
  0
LINE
  8
0
 10
410
 20
89.9999
 11
410
 21
86.95
  0
LINE
  8
0
 10
410
 20
86.95
 11
400
 21
86.95
  0
LINE
  8
0
 10
400
 20
86.95
 11
400
 21
89.9999
  0
LINE
  8
0
 10
400
 20
89.9999
 11
390
 21
89.9999
  0
LINE
  8
0
 10
390
 20
89.9999
 11
390
 21
86.95
  0
LINE
  8
0
 10
390
 20
86.95
 11
380
 21
86.95
  0
LINE
  8
0
 10
380
 20
86.95
 11
380
 21
89.9999
  0
LINE
  8
0
 10
380
 20
89.9999
 11
370
 21
89.9999
  0
LINE
  8
0
 10
370
 20
89.9999
 11
370
 21
86.95
  0
LINE
  8
0
 10
370
 20
86.95
 11
353.05
 21
86.95
  0
LINE
  8
0
 10
353.05
 20
86.95
 11
353.05
 21
70
  0
LINE
  8
0
 10
353.05
 20
70
 11
350
 21
70
  0
LINE
  8
0
 10
350
 20
70
 11
350
 21
60
  0
LINE
  8
0
 10
350
 20
60
 11
353.05
 21
60
  0
LINE
  8
0
 10
353.05
 20
60
 11
353.05
 21
50
  0
LINE
  8
0
 10
353.05
 20
50
 11
350
 21
50
  0
LINE
  8
0
 10
350
 20
50
 11
350
 21
40
  0
LINE
  8
0
 10
350
 20
40
 11
353.05
 21
40
  0
LINE
  8
0
 10
353.05
 20
40
 11
353.05
 21
30
  0
LINE
  8
0
 10
353.05
 20
30
 11
350
 21
30
  0
LINE
  8
0
 10
350
 20
30
 11
350
 21
20
  0
LINE
  8
0
 10
350
 20
20
 11
353.05
 21
20
  0
LINE
  8
0
 10
353.05
 20
20
 11
353.05
 21
3.04999
  0
LINE
  8
0
 10
353.05
 20
3.04999
 11
370
 21
3.04999
  0
LINE
  8
0
 10
370
 20
3.04999
 11
370
 21
0
  0
LINE
  8
0
 10
370
 20
0
 11
380
 21
0
  0
LINE
  8
0
 10
380
 20
0
 11
380
 21
3.04999
  0
LINE
  8
0
 10
88.95
 20
51.5
 11
91.9999
 21
51.5
  0
LINE
  8
0
 10
91.9999
 20
51.5
 11
91.9999
 21
57.5
  0
LINE
  8
0
 10
91.9999
 20
57.5
 11
88.95
 21
57.5
  0
LINE
  8
0
 10
88.95
 20
57.5
 11
88.95
 21
71.9999
  0
LINE
  8
0
 10
88.95
 20
71.9999
 11
78.5
 21
71.9999
  0
LINE
  8
0
 10
78.5
 20
71.9999
 11
78.5
 21
68.95
  0
LINE
  8
0
 10
78.5
 20
68.95
 11
72.5
 21
68.95
  0
LINE
  8
0
 10
72.5
 20
68.95
 11
72.5
 21
71.9999
  0
LINE
  8
0
 10
72.5
 20
71.9999
 11
66.5
 21
71.9999
  0
LINE
  8
0
 10
66.5
 20
71.9999
 11
66.5
 21
68.95
  0
LINE
  8
0
 10
66.5
 20
68.95
 11
60.5
 21
68.95
  0
LINE
  8
0
 10
60.5
 20
68.95
 11
60.5
 21
71.9999
  0
LINE
  8
0
 10
60.5
 20
71.9999
 11
50.05
 21
71.9999
  0
LINE
  8
0
 10
50.05
 20
71.9999
 11
50.05
 21
57.5
  0
LINE
  8
0
 10
50.05
 20
57.5
 11
47
 21
57.5
  0
LINE
  8
0
 10
47
 20
57.5
 11
47
 21
51.5
  0
LINE
  8
0
 10
47
 20
51.5
 11
50.05
 21
51.5
  0
LINE
  8
0
 10
50.05
 20
51.5
 11
50.05
 21
40.05
  0
LINE
  8
0
 10
50.05
 20
40.05
 11
88.95
 21
40.05
  0
LINE
  8
0
 10
88.95
 20
40.05
 11
88.95
 21
51.5
  0
LINE
  8
0
 10
107.5
 20
40.05
 11
113.5
 21
40.05
  0
LINE
  8
0
 10
113.5
 20
40.05
 11
113.5
 21
37
  0
LINE
  8
0
 10
113.5
 20
37
 11
119.5
 21
37
  0
LINE
  8
0
 10
119.5
 20
37
 11
119.5
 21
40.05
  0
LINE
  8
0
 10
119.5
 20
40.05
 11
125.5
 21
40.05
  0
LINE
  8
0
 10
125.5
 20
40.05
 11
125.5
 21
37
  0
LINE
  8
0
 10
125.5
 20
37
 11
139
 21
37
  0
LINE
  8
0
 10
139
 20
37
 11
139
 21
51.5
  0
LINE
  8
0
 10
139
 20
51.5
 11
135.95
 21
51.5
  0
LINE
  8
0
 10
135.95
 20
51.5
 11
135.95
 21
57.5
  0
LINE
  8
0
 10
135.95
 20
57.5
 11
139
 21
57.5
  0
LINE
  8
0
 10
139
 20
57.5
 11
139
 21
68.95
  0
LINE
  8
0
 10
139
 20
68.95
 11
94
 21
68.95
  0
LINE
  8
0
 10
94
 20
68.95
 11
94
 21
57.5
  0
LINE
  8
0
 10
94
 20
57.5
 11
97.05
 21
57.5
  0
LINE
  8
0
 10
97.05
 20
57.5
 11
97.05
 21
51.5
  0
LINE
  8
0
 10
97.05
 20
51.5
 11
94
 21
51.5
  0
LINE
  8
0
 10
94
 20
51.5
 11
94
 21
37
  0
LINE
  8
0
 10
94
 20
37
 11
107.5
 21
37
  0
LINE
  8
0
 10
107.5
 20
37
 11
107.5
 21
40.05
  0
LINE
  8
0
 10
175
 20
3.04999
 11
185
 21
3.04999
  0
LINE
  8
0
 10
185
 20
3.04999
 11
185
 21
0
  0
LINE
  8
0
 10
185
 20
0
 11
195
 21
0
  0
LINE
  8
0
 10
195
 20
0
 11
195
 21
3.04999
  0
LINE
  8
0
 10
195
 20
3.04999
 11
206.95
 21
3.04999
  0
LINE
  8
0
 10
206.95
 20
3.04999
 11
206.95
 21
15
  0
LINE
  8
0
 10
206.95
 20
15
 11
210
 21
15
  0
LINE
  8
0
 10
210
 20
15
 11
210
 21
25
  0
LINE
  8
0
 10
210
 20
25
 11
206.95
 21
25
  0
LINE
  8
0
 10
206.95
 20
25
 11
206.95
 21
35
  0
LINE
  8
0
 10
206.95
 20
35
 11
210
 21
35
  0
LINE
  8
0
 10
210
 20
35
 11
210
 21
45
  0
LINE
  8
0
 10
210
 20
45
 11
206.95
 21
45
  0
LINE
  8
0
 10
206.95
 20
45
 11
206.95
 21
56.95
  0
LINE
  8
0
 10
206.95
 20
56.95
 11
195
 21
56.95
  0
LINE
  8
0
 10
195
 20
56.95
 11
195
 21
59.9999
  0
LINE
  8
0
 10
195
 20
59.9999
 11
185
 21
59.9999
  0
LINE
  8
0
 10
185
 20
59.9999
 11
185
 21
56.95
  0
LINE
  8
0
 10
185
 20
56.95
 11
175
 21
56.95
  0
LINE
  8
0
 10
175
 20
56.95
 11
175
 21
59.9999
  0
LINE
  8
0
 10
175
 20
59.9999
 11
165
 21
59.9999
  0
LINE
  8
0
 10
165
 20
59.9999
 11
165
 21
56.95
  0
LINE
  8
0
 10
165
 20
56.95
 11
153.05
 21
56.95
  0
LINE
  8
0
 10
153.05
 20
56.95
 11
153.05
 21
45
  0
LINE
  8
0
 10
153.05
 20
45
 11
150
 21
45
  0
LINE
  8
0
 10
150
 20
45
 11
150
 21
35
  0
LINE
  8
0
 10
150
 20
35
 11
153.05
 21
35
  0
LINE
  8
0
 10
153.05
 20
35
 11
153.05
 21
25
  0
LINE
  8
0
 10
153.05
 20
25
 11
150
 21
25
  0
LINE
  8
0
 10
150
 20
25
 11
150
 21
15
  0
LINE
  8
0
 10
150
 20
15
 11
153.05
 21
15
  0
LINE
  8
0
 10
153.05
 20
15
 11
153.05
 21
3.04999
  0
LINE
  8
0
 10
153.05
 20
3.04999
 11
165
 21
3.04999
  0
LINE
  8
0
 10
165
 20
3.04999
 11
165
 21
0
  0
LINE
  8
0
 10
165
 20
0
 11
175
 21
0
  0
LINE
  8
0
 10
175
 20
0
 11
175
 21
3.04999
  0
LINE
  8
0
 10
334
 20
20
 11
330.95
 21
20
  0
LINE
  8
0
 10
330.95
 20
20
 11
330.95
 21
30
  0
LINE
  8
0
 10
330.95
 20
30
 11
334
 21
30
  0
LINE
  8
0
 10
334
 20
30
 11
334
 21
49.9999
  0
LINE
  8
0
 10
334
 20
49.9999
 11
319
 21
49.9999
  0
LINE
  8
0
 10
319
 20
49.9999
 11
319
 21
46.95
  0
LINE
  8
0
 10
319
 20
46.95
 11
309
 21
46.95
  0
LINE
  8
0
 10
309
 20
46.95
 11
309
 21
49.9999
  0
LINE
  8
0
 10
309
 20
49.9999
 11
299
 21
49.9999
  0
LINE
  8
0
 10
299
 20
49.9999
 11
299
 21
46.95
  0
LINE
  8
0
 10
299
 20
46.95
 11
289
 21
46.95
  0
LINE
  8
0
 10
289
 20
46.95
 11
289
 21
49.9999
  0
LINE
  8
0
 10
289
 20
49.9999
 11
274
 21
49.9999
  0
LINE
  8
0
 10
274
 20
49.9999
 11
274
 21
30
  0
LINE
  8
0
 10
274
 20
30
 11
277.05
 21
30
  0
LINE
  8
0
 10
277.05
 20
30
 11
277.05
 21
20
  0
LINE
  8
0
 10
277.05
 20
20
 11
274
 21
20
  0
LINE
  8
0
 10
274
 20
20
 11
274
 21
3.04999
  0
LINE
  8
0
 10
274
 20
3.04999
 11
334
 21
3.04999
  0
LINE
  8
0
 10
334
 20
3.04999
 11
334
 21
20
  0
LINE
  8
0
 10
624
 20
20
 11
620.95
 21
20
  0
LINE
  8
0
 10
620.95
 20
20
 11
620.95
 21
30
  0
LINE
  8
0
 10
620.95
 20
30
 11
624
 21
30
  0
LINE
  8
0
 10
624
 20
30
 11
624
 21
49.9999
  0
LINE
  8
0
 10
624
 20
49.9999
 11
604
 21
49.9999
  0
LINE
  8
0
 10
604
 20
49.9999
 11
604
 21
46.95
  0
LINE
  8
0
 10
604
 20
46.95
 11
594
 21
46.95
  0
LINE
  8
0
 10
594
 20
46.95
 11
594
 21
49.9999
  0
LINE
  8
0
 10
594
 20
49.9999
 11
584
 21
49.9999
  0
LINE
  8
0
 10
584
 20
49.9999
 11
584
 21
46.95
  0
LINE
  8
0
 10
584
 20
46.95
 11
574
 21
46.95
  0
LINE
  8
0
 10
574
 20
46.95
 11
574
 21
49.9999
  0
LINE
  8
0
 10
574
 20
49.9999
 11
564
 21
49.9999
  0
LINE
  8
0
 10
564
 20
49.9999
 11
564
 21
46.95
  0
LINE
  8
0
 10
564
 20
46.95
 11
554
 21
46.95
  0
LINE
  8
0
 10
554
 20
46.95
 11
554
 21
49.9999
  0
LINE
  8
0
 10
554
 20
49.9999
 11
534
 21
49.9999
  0
LINE
  8
0
 10
534
 20
49.9999
 11
534
 21
30
  0
LINE
  8
0
 10
534
 20
30
 11
537.05
 21
30
  0
LINE
  8
0
 10
537.05
 20
30
 11
537.05
 21
20
  0
LINE
  8
0
 10
537.05
 20
20
 11
534
 21
20
  0
LINE
  8
0
 10
534
 20
20
 11
534
 21
3.04999
  0
LINE
  8
0
 10
534
 20
3.04999
 11
624
 21
3.04999
  0
LINE
  8
0
 10
624
 20
3.04999
 11
624
 21
20
  0
LINE
  8
0
 10
227
 20
3.04999
 11
237
 21
3.04999
  0
LINE
  8
0
 10
237
 20
3.04999
 11
237
 21
0
  0
LINE
  8
0
 10
237
 20
0
 11
247
 21
0
  0
LINE
  8
0
 10
247
 20
0
 11
247
 21
3.04999
  0
LINE
  8
0
 10
247
 20
3.04999
 11
257
 21
3.04999
  0
LINE
  8
0
 10
257
 20
3.04999
 11
257
 21
0
  0
LINE
  8
0
 10
257
 20
0
 11
268.95
 21
0
  0
LINE
  8
0
 10
268.95
 20
0
 11
268.95
 21
20
  0
LINE
  8
0
 10
268.95
 20
20
 11
272
 21
20
  0
LINE
  8
0
 10
272
 20
20
 11
272
 21
30
  0
LINE
  8
0
 10
272
 20
30
 11
268.95
 21
30
  0
LINE
  8
0
 10
268.95
 20
30
 11
268.95
 21
46.95
  0
LINE
  8
0
 10
268.95
 20
46.95
 11
215.05
 21
46.95
  0
LINE
  8
0
 10
215.05
 20
46.95
 11
215.05
 21
30
  0
LINE
  8
0
 10
215.05
 20
30
 11
212
 21
30
  0
LINE
  8
0
 10
212
 20
30
 11
212
 21
20
  0
LINE
  8
0
 10
212
 20
20
 11
215.05
 21
20
  0
LINE
  8
0
 10
215.05
 20
20
 11
215.05
 21
0
  0
LINE
  8
0
 10
215.05
 20
0
 11
227
 21
0
  0
LINE
  8
0
 10
227
 20
0
 11
227
 21
3.04999
  0
LINE
  8
0
 10
462
 20
3.04999
 11
472
 21
3.04999
  0
LINE
  8
0
 10
472
 20
3.04999
 11
472
 21
0
  0
LINE
  8
0
 10
472
 20
0
 11
482
 21
0
  0
LINE
  8
0
 10
482
 20
0
 11
482
 21
3.04999
  0
LINE
  8
0
 10
482
 20
3.04999
 11
492
 21
3.04999
  0
LINE
  8
0
 10
492
 20
3.04999
 11
492
 21
0
  0
LINE
  8
0
 10
492
 20
0
 11
502
 21
0
  0
LINE
  8
0
 10
502
 20
0
 11
502
 21
3.04999
  0
LINE
  8
0
 10
502
 20
3.04999
 11
512
 21
3.04999
  0
LINE
  8
0
 10
512
 20
3.04999
 11
512
 21
0
  0
LINE
  8
0
 10
512
 20
0
 11
528.95
 21
0
  0
LINE
  8
0
 10
528.95
 20
0
 11
528.95
 21
20
  0
LINE
  8
0
 10
528.95
 20
20
 11
532
 21
20
  0
LINE
  8
0
 10
532
 20
20
 11
532
 21
30
  0
LINE
  8
0
 10
532
 20
30
 11
528.95
 21
30
  0
LINE
  8
0
 10
528.95
 20
30
 11
528.95
 21
46.95
  0
LINE
  8
0
 10
528.95
 20
46.95
 11
445.05
 21
46.95
  0
LINE
  8
0
 10
445.05
 20
46.95
 11
445.05
 21
30
  0
LINE
  8
0
 10
445.05
 20
30
 11
442
 21
30
  0
LINE
  8
0
 10
442
 20
30
 11
442
 21
20
  0
LINE
  8
0
 10
442
 20
20
 11
445.05
 21
20
  0
LINE
  8
0
 10
445.05
 20
20
 11
445.05
 21
0
  0
LINE
  8
0
 10
445.05
 20
0
 11
462
 21
0
  0
LINE
  8
0
 10
462
 20
0
 11
462
 21
3.04999
  0
LINE
  8
0
 10
19.5
 20
3.04999
 11
25.5
 21
3.04999
  0
LINE
  8
0
 10
25.5
 20
3.04999
 11
25.5
 21
0
  0
LINE
  8
0
 10
25.5
 20
0
 11
31.5
 21
0
  0
LINE
  8
0
 10
31.5
 20
0
 11
31.5
 21
3.04999
  0
LINE
  8
0
 10
31.5
 20
3.04999
 11
41.95
 21
3.04999
  0
LINE
  8
0
 10
41.95
 20
3.04999
 11
41.95
 21
13.5
  0
LINE
  8
0
 10
41.95
 20
13.5
 11
44.9999
 21
13.5
  0
LINE
  8
0
 10
44.9999
 20
13.5
 11
44.9999
 21
19.5
  0
LINE
  8
0
 10
44.9999
 20
19.5
 11
41.95
 21
19.5
  0
LINE
  8
0
 10
41.95
 20
19.5
 11
41.95
 21
25.5
  0
LINE
  8
0
 10
41.95
 20
25.5
 11
44.9999
 21
25.5
  0
LINE
  8
0
 10
44.9999
 20
25.5
 11
44.9999
 21
31.5
  0
LINE
  8
0
 10
44.9999
 20
31.5
 11
41.95
 21
31.5
  0
LINE
  8
0
 10
41.95
 20
31.5
 11
41.95
 21
41.95
  0
LINE
  8
0
 10
41.95
 20
41.95
 11
31.5
 21
41.95
  0
LINE
  8
0
 10
31.5
 20
41.95
 11
31.5
 21
44.9999
  0
LINE
  8
0
 10
31.5
 20
44.9999
 11
25.5
 21
44.9999
  0
LINE
  8
0
 10
25.5
 20
44.9999
 11
25.5
 21
41.95
  0
LINE
  8
0
 10
25.5
 20
41.95
 11
19.5
 21
41.95
  0
LINE
  8
0
 10
19.5
 20
41.95
 11
19.5
 21
44.9999
  0
LINE
  8
0
 10
19.5
 20
44.9999
 11
13.5
 21
44.9999
  0
LINE
  8
0
 10
13.5
 20
44.9999
 11
13.5
 21
41.95
  0
LINE
  8
0
 10
13.5
 20
41.95
 11
3.04999
 21
41.95
  0
LINE
  8
0
 10
3.04999
 20
41.95
 11
3.04999
 21
31.5
  0
LINE
  8
0
 10
3.04999
 20
31.5
 11
0
 21
31.5
  0
LINE
  8
0
 10
0
 20
31.5
 11
0
 21
25.5
  0
LINE
  8
0
 10
0
 20
25.5
 11
3.04999
 21
25.5
  0
LINE
  8
0
 10
3.04999
 20
25.5
 11
3.04999
 21
19.5
  0
LINE
  8
0
 10
3.04999
 20
19.5
 11
0
 21
19.5
  0
LINE
  8
0
 10
0
 20
19.5
 11
0
 21
13.5
  0
LINE
  8
0
 10
0
 20
13.5
 11
3.04999
 21
13.5
  0
LINE
  8
0
 10
3.04999
 20
13.5
 11
3.04999
 21
3.04999
  0
LINE
  8
0
 10
3.04999
 20
3.04999
 11
13.5
 21
3.04999
  0
LINE
  8
0
 10
13.5
 20
3.04999
 11
13.5
 21
0
  0
LINE
  8
0
 10
13.5
 20
0
 11
19.5
 21
0
  0
LINE
  8
0
 10
19.5
 20
0
 11
19.5
 21
3.04999
  0
LINE
  8
0
 10
139
 20
14.5
 11
135.95
 21
14.5
  0
LINE
  8
0
 10
135.95
 20
14.5
 11
135.95
 21
20.5
  0
LINE
  8
0
 10
135.95
 20
20.5
 11
139
 21
20.5
  0
LINE
  8
0
 10
139
 20
20.5
 11
139
 21
34.9999
  0
LINE
  8
0
 10
139
 20
34.9999
 11
125.5
 21
34.9999
  0
LINE
  8
0
 10
125.5
 20
34.9999
 11
125.5
 21
31.95
  0
LINE
  8
0
 10
125.5
 20
31.95
 11
119.5
 21
31.95
  0
LINE
  8
0
 10
119.5
 20
31.95
 11
119.5
 21
34.9999
  0
LINE
  8
0
 10
119.5
 20
34.9999
 11
113.5
 21
34.9999
  0
LINE
  8
0
 10
113.5
 20
34.9999
 11
113.5
 21
31.95
  0
LINE
  8
0
 10
113.5
 20
31.95
 11
107.5
 21
31.95
  0
LINE
  8
0
 10
107.5
 20
31.95
 11
107.5
 21
34.9999
  0
LINE
  8
0
 10
107.5
 20
34.9999
 11
94
 21
34.9999
  0
LINE
  8
0
 10
94
 20
34.9999
 11
94
 21
20.5
  0
LINE
  8
0
 10
94
 20
20.5
 11
97.05
 21
20.5
  0
LINE
  8
0
 10
97.05
 20
20.5
 11
97.05
 21
14.5
  0
LINE
  8
0
 10
97.05
 20
14.5
 11
94
 21
14.5
  0
LINE
  8
0
 10
94
 20
14.5
 11
94
 21
3.04999
  0
LINE
  8
0
 10
94
 20
3.04999
 11
139
 21
3.04999
  0
LINE
  8
0
 10
139
 20
3.04999
 11
139
 21
14.5
  0
LINE
  8
0
 10
60.5
 20
3.04999
 11
66.5
 21
3.04999
  0
LINE
  8
0
 10
66.5
 20
3.04999
 11
66.5
 21
0
  0
LINE
  8
0
 10
66.5
 20
0
 11
72.5
 21
0
  0
LINE
  8
0
 10
72.5
 20
0
 11
72.5
 21
3.04999
  0
LINE
  8
0
 10
72.5
 20
3.04999
 11
78.5
 21
3.04999
  0
LINE
  8
0
 10
78.5
 20
3.04999
 11
78.5
 21
0
  0
LINE
  8
0
 10
78.5
 20
0
 11
88.95
 21
0
  0
LINE
  8
0
 10
88.95
 20
0
 11
88.95
 21
14.5
  0
LINE
  8
0
 10
88.95
 20
14.5
 11
91.9999
 21
14.5
  0
LINE
  8
0
 10
91.9999
 20
14.5
 11
91.9999
 21
20.5
  0
LINE
  8
0
 10
91.9999
 20
20.5
 11
88.95
 21
20.5
  0
LINE
  8
0
 10
88.95
 20
20.5
 11
88.95
 21
31.95
  0
LINE
  8
0
 10
88.95
 20
31.95
 11
50.05
 21
31.95
  0
LINE
  8
0
 10
50.05
 20
31.95
 11
50.05
 21
20.5
  0
LINE
  8
0
 10
50.05
 20
20.5
 11
47
 21
20.5
  0
LINE
  8
0
 10
47
 20
20.5
 11
47
 21
14.5
  0
LINE
  8
0
 10
47
 20
14.5
 11
50.05
 21
14.5
  0
LINE
  8
0
 10
50.05
 20
14.5
 11
50.05
 21
0
  0
LINE
  8
0
 10
50.05
 20
0
 11
60.5
 21
0
  0
LINE
  8
0
 10
60.5
 20
0
 11
60.5
 21
3.04999
  0
ENDSEC
  0
SECTION
  2
OBJECTS
  0
DICTIONARY
  0
ENDSEC
  0
EOF
