  0
SECTION
  2
BLOCKS
  0
ENDSEC
  0
SECTION
  2
ENTITIES
  0
LINE
  8
0
 10
113.18
 20
177.36
 11
0
 21
177.36
  0
LINE
  8
0
 10
0
 20
177.36
 11
0
 21
89.68
  0
LINE
  8
0
 10
0
 20
89.68
 11
113.18
 21
89.68
  0
LINE
  8
0
 10
113.18
 20
89.68
 11
113.18
 21
177.36
  0
LINE
  8
0
 10
83.95
 20
171.32
 11
83.95
 21
174.36
  0
LINE
  8
0
 10
83.95
 20
174.36
 11
90.03
 21
174.36
  0
LINE
  8
0
 10
90.03
 20
174.36
 11
90.03
 21
171.32
  0
LINE
  8
0
 10
90.03
 20
171.32
 11
83.95
 21
171.32
  0
LINE
  8
0
 10
71.79
 20
171.32
 11
71.79
 21
174.36
  0
LINE
  8
0
 10
71.79
 20
174.36
 11
77.87
 21
174.36
  0
LINE
  8
0
 10
77.87
 20
174.36
 11
77.87
 21
171.32
  0
LINE
  8
0
 10
77.87
 20
171.32
 11
71.79
 21
171.32
  0
LINE
  8
0
 10
59.63
 20
171.32
 11
59.63
 21
174.36
  0
LINE
  8
0
 10
59.63
 20
174.36
 11
65.71
 21
174.36
  0
LINE
  8
0
 10
65.71
 20
174.36
 11
65.71
 21
171.32
  0
LINE
  8
0
 10
65.71
 20
171.32
 11
59.63
 21
171.32
  0
LINE
  8
0
 10
47.47
 20
171.32
 11
47.47
 21
174.36
  0
LINE
  8
0
 10
47.47
 20
174.36
 11
53.55
 21
174.36
  0
LINE
  8
0
 10
53.55
 20
174.36
 11
53.55
 21
171.32
  0
LINE
  8
0
 10
53.55
 20
171.32
 11
47.47
 21
171.32
  0
LINE
  8
0
 10
35.31
 20
171.32
 11
35.31
 21
174.36
  0
LINE
  8
0
 10
35.31
 20
174.36
 11
41.39
 21
174.36
  0
LINE
  8
0
 10
41.39
 20
174.36
 11
41.39
 21
171.32
  0
LINE
  8
0
 10
41.39
 20
171.32
 11
35.31
 21
171.32
  0
LINE
  8
0
 10
23.15
 20
171.32
 11
23.15
 21
174.36
  0
LINE
  8
0
 10
23.15
 20
174.36
 11
29.23
 21
174.36
  0
LINE
  8
0
 10
29.23
 20
174.36
 11
29.23
 21
171.32
  0
LINE
  8
0
 10
29.23
 20
171.32
 11
23.15
 21
171.32
  0
LINE
  8
0
 10
3
 20
160.88
 11
3
 21
174.36
  0
LINE
  8
0
 10
3
 20
174.36
 11
17.07
 21
174.36
  0
LINE
  8
0
 10
17.07
 20
174.36
 11
17.07
 21
171.32
  0
LINE
  8
0
 10
17.07
 20
171.32
 11
6.03999
 21
171.32
  0
LINE
  8
0
 10
6.03999
 20
171.32
 11
6.03999
 21
160.88
  0
LINE
  8
0
 10
6.03999
 20
160.88
 11
3
 21
160.88
  0
LINE
  8
0
 10
107.14
 20
160.88
 11
107.14
 21
171.32
  0
LINE
  8
0
 10
107.14
 20
171.32
 11
96.11
 21
171.32
  0
LINE
  8
0
 10
96.11
 20
171.32
 11
96.11
 21
174.36
  0
LINE
  8
0
 10
96.11
 20
174.36
 11
110.18
 21
174.36
  0
LINE
  8
0
 10
110.18
 20
174.36
 11
110.18
 21
160.88
  0
LINE
  8
0
 10
110.18
 20
160.88
 11
107.14
 21
160.88
  0
LINE
  8
0
 10
10.5997
 20
164.99
 11
10.3556
 21
165.048
  0
LINE
  8
0
 10
10.3556
 20
165.048
 11
10.1236
 21
165.144
  0
LINE
  8
0
 10
10.1236
 20
165.144
 11
9.90953
 21
165.276
  0
LINE
  8
0
 10
9.90953
 20
165.276
 11
9.71863
 21
165.439
  0
LINE
  8
0
 10
9.71863
 20
165.439
 11
9.55557
 21
165.63
  0
LINE
  8
0
 10
9.55557
 20
165.63
 11
9.42438
 21
165.844
  0
LINE
  8
0
 10
9.42438
 20
165.844
 11
9.32831
 21
166.076
  0
LINE
  8
0
 10
9.32831
 20
166.076
 11
9.26968
 21
166.32
  0
LINE
  8
0
 10
9.26968
 20
166.32
 11
9.25
 21
166.57
  0
LINE
  8
0
 10
9.25
 20
166.57
 11
9.26968
 21
166.82
  0
LINE
  8
0
 10
9.26968
 20
166.82
 11
9.32831
 21
167.064
  0
LINE
  8
0
 10
9.32831
 20
167.064
 11
9.42438
 21
167.296
  0
LINE
  8
0
 10
9.42438
 20
167.296
 11
9.55557
 21
167.51
  0
LINE
  8
0
 10
9.55557
 20
167.51
 11
9.71863
 21
167.701
  0
LINE
  8
0
 10
9.71863
 20
167.701
 11
9.90953
 21
167.864
  0
LINE
  8
0
 10
9.90953
 20
167.864
 11
10.1236
 21
167.996
  0
LINE
  8
0
 10
10.1236
 20
167.996
 11
10.3556
 21
168.092
  0
LINE
  8
0
 10
10.3556
 20
168.092
 11
10.5997
 21
168.15
  0
LINE
  8
0
 10
10.5997
 20
168.15
 11
10.85
 21
168.17
  0
LINE
  8
0
 10
10.85
 20
168.17
 11
11.1003
 21
168.15
  0
LINE
  8
0
 10
11.1003
 20
168.15
 11
11.3444
 21
168.092
  0
LINE
  8
0
 10
11.3444
 20
168.092
 11
11.5764
 21
167.996
  0
LINE
  8
0
 10
11.5764
 20
167.996
 11
11.7905
 21
167.864
  0
LINE
  8
0
 10
11.7905
 20
167.864
 11
11.9814
 21
167.701
  0
LINE
  8
0
 10
11.9814
 20
167.701
 11
12.1444
 21
167.51
  0
LINE
  8
0
 10
12.1444
 20
167.51
 11
12.2756
 21
167.296
  0
LINE
  8
0
 10
12.2756
 20
167.296
 11
12.3717
 21
167.064
  0
LINE
  8
0
 10
12.3717
 20
167.064
 11
12.4303
 21
166.82
  0
LINE
  8
0
 10
12.4303
 20
166.82
 11
12.45
 21
166.57
  0
LINE
  8
0
 10
12.45
 20
166.57
 11
12.4303
 21
166.32
  0
LINE
  8
0
 10
12.4303
 20
166.32
 11
12.3717
 21
166.076
  0
LINE
  8
0
 10
12.3717
 20
166.076
 11
12.2756
 21
165.844
  0
LINE
  8
0
 10
12.2756
 20
165.844
 11
12.1444
 21
165.63
  0
LINE
  8
0
 10
12.1444
 20
165.63
 11
11.9814
 21
165.439
  0
LINE
  8
0
 10
11.9814
 20
165.439
 11
11.7905
 21
165.276
  0
LINE
  8
0
 10
11.7905
 20
165.276
 11
11.5764
 21
165.144
  0
LINE
  8
0
 10
11.5764
 20
165.144
 11
11.3444
 21
165.048
  0
LINE
  8
0
 10
11.3444
 20
165.048
 11
11.1003
 21
164.99
  0
LINE
  8
0
 10
11.1003
 20
164.99
 11
10.85
 21
164.97
  0
LINE
  8
0
 10
10.85
 20
164.97
 11
10.5997
 21
164.99
  0
LINE
  8
0
 10
102.04
 20
164.99
 11
101.796
 21
165.048
  0
LINE
  8
0
 10
101.796
 20
165.048
 11
101.564
 21
165.144
  0
LINE
  8
0
 10
101.564
 20
165.144
 11
101.35
 21
165.276
  0
LINE
  8
0
 10
101.35
 20
165.276
 11
101.159
 21
165.439
  0
LINE
  8
0
 10
101.159
 20
165.439
 11
100.996
 21
165.63
  0
LINE
  8
0
 10
100.996
 20
165.63
 11
100.864
 21
165.844
  0
LINE
  8
0
 10
100.864
 20
165.844
 11
100.768
 21
166.076
  0
LINE
  8
0
 10
100.768
 20
166.076
 11
100.71
 21
166.32
  0
LINE
  8
0
 10
100.71
 20
166.32
 11
100.69
 21
166.57
  0
LINE
  8
0
 10
100.69
 20
166.57
 11
100.71
 21
166.82
  0
LINE
  8
0
 10
100.71
 20
166.82
 11
100.768
 21
167.064
  0
LINE
  8
0
 10
100.768
 20
167.064
 11
100.864
 21
167.296
  0
LINE
  8
0
 10
100.864
 20
167.296
 11
100.996
 21
167.51
  0
LINE
  8
0
 10
100.996
 20
167.51
 11
101.159
 21
167.701
  0
LINE
  8
0
 10
101.159
 20
167.701
 11
101.35
 21
167.864
  0
LINE
  8
0
 10
101.35
 20
167.864
 11
101.564
 21
167.996
  0
LINE
  8
0
 10
101.564
 20
167.996
 11
101.796
 21
168.092
  0
LINE
  8
0
 10
101.796
 20
168.092
 11
102.04
 21
168.15
  0
LINE
  8
0
 10
102.04
 20
168.15
 11
102.29
 21
168.17
  0
LINE
  8
0
 10
102.29
 20
168.17
 11
102.54
 21
168.15
  0
LINE
  8
0
 10
102.54
 20
168.15
 11
102.784
 21
168.092
  0
LINE
  8
0
 10
102.784
 20
168.092
 11
103.016
 21
167.996
  0
LINE
  8
0
 10
103.016
 20
167.996
 11
103.23
 21
167.864
  0
LINE
  8
0
 10
103.23
 20
167.864
 11
103.421
 21
167.701
  0
LINE
  8
0
 10
103.421
 20
167.701
 11
103.584
 21
167.51
  0
LINE
  8
0
 10
103.584
 20
167.51
 11
103.716
 21
167.296
  0
LINE
  8
0
 10
103.716
 20
167.296
 11
103.812
 21
167.064
  0
LINE
  8
0
 10
103.812
 20
167.064
 11
103.87
 21
166.82
  0
LINE
  8
0
 10
103.87
 20
166.82
 11
103.89
 21
166.57
  0
LINE
  8
0
 10
103.89
 20
166.57
 11
103.87
 21
166.32
  0
LINE
  8
0
 10
103.87
 20
166.32
 11
103.812
 21
166.076
  0
LINE
  8
0
 10
103.812
 20
166.076
 11
103.716
 21
165.844
  0
LINE
  8
0
 10
103.716
 20
165.844
 11
103.584
 21
165.63
  0
LINE
  8
0
 10
103.584
 20
165.63
 11
103.421
 21
165.439
  0
LINE
  8
0
 10
103.421
 20
165.439
 11
103.23
 21
165.276
  0
LINE
  8
0
 10
103.23
 20
165.276
 11
103.016
 21
165.144
  0
LINE
  8
0
 10
103.016
 20
165.144
 11
102.784
 21
165.048
  0
LINE
  8
0
 10
102.784
 20
165.048
 11
102.54
 21
164.99
  0
LINE
  8
0
 10
102.54
 20
164.99
 11
102.29
 21
164.97
  0
LINE
  8
0
 10
102.29
 20
164.97
 11
102.04
 21
164.99
  0
LINE
  8
0
 10
20.44
 20
137.22
 11
20.44
 21
162.32
  0
LINE
  8
0
 10
20.44
 20
162.32
 11
92.04
 21
162.32
  0
LINE
  8
0
 10
92.04
 20
162.32
 11
92.04
 21
137.22
  0
LINE
  8
0
 10
92.04
 20
137.22
 11
20.44
 21
137.22
  0
LINE
  8
0
 10
107.14
 20
148.72
 11
107.14
 21
154.8
  0
LINE
  8
0
 10
107.14
 20
154.8
 11
110.18
 21
154.8
  0
LINE
  8
0
 10
110.18
 20
154.8
 11
110.18
 21
148.72
  0
LINE
  8
0
 10
110.18
 20
148.72
 11
107.14
 21
148.72
  0
LINE
  8
0
 10
3
 20
148.72
 11
3
 21
154.8
  0
LINE
  8
0
 10
3
 20
154.8
 11
6.03999
 21
154.8
  0
LINE
  8
0
 10
6.03999
 20
154.8
 11
6.03999
 21
148.72
  0
LINE
  8
0
 10
6.03999
 20
148.72
 11
3
 21
148.72
  0
LINE
  8
0
 10
107.14
 20
136.56
 11
107.14
 21
142.64
  0
LINE
  8
0
 10
107.14
 20
142.64
 11
110.18
 21
142.64
  0
LINE
  8
0
 10
110.18
 20
142.64
 11
110.18
 21
136.56
  0
LINE
  8
0
 10
110.18
 20
136.56
 11
107.14
 21
136.56
  0
LINE
  8
0
 10
3
 20
136.56
 11
3
 21
142.64
  0
LINE
  8
0
 10
3
 20
142.64
 11
6.03999
 21
142.64
  0
LINE
  8
0
 10
6.03999
 20
142.64
 11
6.03999
 21
136.56
  0
LINE
  8
0
 10
6.03999
 20
136.56
 11
3
 21
136.56
  0
LINE
  8
0
 10
107.14
 20
124.4
 11
107.14
 21
130.48
  0
LINE
  8
0
 10
107.14
 20
130.48
 11
110.18
 21
130.48
  0
LINE
  8
0
 10
110.18
 20
130.48
 11
110.18
 21
124.4
  0
LINE
  8
0
 10
110.18
 20
124.4
 11
107.14
 21
124.4
  0
LINE
  8
0
 10
3
 20
124.4
 11
3
 21
130.48
  0
LINE
  8
0
 10
3
 20
130.48
 11
6.03999
 21
130.48
  0
LINE
  8
0
 10
6.03999
 20
130.48
 11
6.03999
 21
124.4
  0
LINE
  8
0
 10
6.03999
 20
124.4
 11
3
 21
124.4
  0
LINE
  8
0
 10
41.3325
 20
99.7625
 11
41.3325
 21
107.102
  0
LINE
  8
0
 10
41.3325
 20
107.102
 11
44.3725
 21
107.102
  0
LINE
  8
0
 10
44.3725
 20
107.102
 11
44.3725
 21
111.102
  0
LINE
  8
0
 10
44.3725
 20
111.102
 11
41.3325
 21
111.102
  0
LINE
  8
0
 10
41.3325
 20
111.102
 11
41.3325
 21
118.442
  0
LINE
  8
0
 10
41.3325
 20
118.442
 11
48.6725
 21
118.442
  0
LINE
  8
0
 10
48.6725
 20
118.442
 11
48.6725
 21
115.402
  0
LINE
  8
0
 10
48.6725
 20
115.402
 11
52.6725
 21
115.402
  0
LINE
  8
0
 10
52.6725
 20
115.402
 11
52.6725
 21
118.442
  0
LINE
  8
0
 10
52.6725
 20
118.442
 11
60.0125
 21
118.442
  0
LINE
  8
0
 10
60.0125
 20
118.442
 11
60.0125
 21
111.102
  0
LINE
  8
0
 10
60.0125
 20
111.102
 11
56.9725
 21
111.102
  0
LINE
  8
0
 10
56.9725
 20
111.102
 11
56.9725
 21
107.102
  0
LINE
  8
0
 10
56.9725
 20
107.102
 11
60.0125
 21
107.102
  0
LINE
  8
0
 10
60.0125
 20
107.102
 11
60.0125
 21
99.7625
  0
LINE
  8
0
 10
60.0125
 20
99.7625
 11
52.6725
 21
99.7625
  0
LINE
  8
0
 10
52.6725
 20
99.7625
 11
52.6725
 21
102.802
  0
LINE
  8
0
 10
52.6725
 20
102.802
 11
48.6725
 21
102.802
  0
LINE
  8
0
 10
48.6725
 20
102.802
 11
48.6725
 21
99.7625
  0
LINE
  8
0
 10
48.6725
 20
99.7625
 11
41.3325
 21
99.7625
  0
LINE
  8
0
 10
107.14
 20
112.24
 11
107.14
 21
118.32
  0
LINE
  8
0
 10
107.14
 20
118.32
 11
110.18
 21
118.32
  0
LINE
  8
0
 10
110.18
 20
118.32
 11
110.18
 21
112.24
  0
LINE
  8
0
 10
110.18
 20
112.24
 11
107.14
 21
112.24
  0
LINE
  8
0
 10
3
 20
112.24
 11
3
 21
118.32
  0
LINE
  8
0
 10
3
 20
118.32
 11
6.03999
 21
118.32
  0
LINE
  8
0
 10
6.03999
 20
118.32
 11
6.03999
 21
112.24
  0
LINE
  8
0
 10
6.03999
 20
112.24
 11
3
 21
112.24
  0
LINE
  8
0
 10
91.4642
 20
105.379
 11
90.8539
 21
105.526
  0
LINE
  8
0
 10
90.8539
 20
105.526
 11
90.274
 21
105.766
  0
LINE
  8
0
 10
90.274
 20
105.766
 11
89.7388
 21
106.094
  0
LINE
  8
0
 10
89.7388
 20
106.094
 11
89.2616
 21
106.502
  0
LINE
  8
0
 10
89.2616
 20
106.502
 11
88.8539
 21
106.979
  0
LINE
  8
0
 10
88.8539
 20
106.979
 11
88.526
 21
107.514
  0
LINE
  8
0
 10
88.526
 20
107.514
 11
88.2858
 21
108.094
  0
LINE
  8
0
 10
88.2858
 20
108.094
 11
88.1392
 21
108.704
  0
LINE
  8
0
 10
88.1392
 20
108.704
 11
88.09
 21
109.33
  0
LINE
  8
0
 10
88.09
 20
109.33
 11
88.1392
 21
109.956
  0
LINE
  8
0
 10
88.1392
 20
109.956
 11
88.2858
 21
110.566
  0
LINE
  8
0
 10
88.2858
 20
110.566
 11
88.526
 21
111.146
  0
LINE
  8
0
 10
88.526
 20
111.146
 11
88.8539
 21
111.681
  0
LINE
  8
0
 10
88.8539
 20
111.681
 11
89.2616
 21
112.158
  0
LINE
  8
0
 10
89.2616
 20
112.158
 11
89.7388
 21
112.566
  0
LINE
  8
0
 10
89.7388
 20
112.566
 11
90.274
 21
112.894
  0
LINE
  8
0
 10
90.274
 20
112.894
 11
90.8539
 21
113.134
  0
LINE
  8
0
 10
90.8539
 20
113.134
 11
91.4642
 21
113.281
  0
LINE
  8
0
 10
91.4642
 20
113.281
 11
92.09
 21
113.33
  0
LINE
  8
0
 10
92.09
 20
113.33
 11
92.7157
 21
113.281
  0
LINE
  8
0
 10
92.7157
 20
113.281
 11
93.3261
 21
113.134
  0
LINE
  8
0
 10
93.3261
 20
113.134
 11
93.906
 21
112.894
  0
LINE
  8
0
 10
93.906
 20
112.894
 11
94.4411
 21
112.566
  0
LINE
  8
0
 10
94.4411
 20
112.566
 11
94.9184
 21
112.158
  0
LINE
  8
0
 10
94.9184
 20
112.158
 11
95.3261
 21
111.681
  0
LINE
  8
0
 10
95.3261
 20
111.681
 11
95.654
 21
111.146
  0
LINE
  8
0
 10
95.654
 20
111.146
 11
95.8942
 21
110.566
  0
LINE
  8
0
 10
95.8942
 20
110.566
 11
96.0407
 21
109.956
  0
LINE
  8
0
 10
96.0407
 20
109.956
 11
96.09
 21
109.33
  0
LINE
  8
0
 10
96.09
 20
109.33
 11
96.0407
 21
108.704
  0
LINE
  8
0
 10
96.0407
 20
108.704
 11
95.8942
 21
108.094
  0
LINE
  8
0
 10
95.8942
 20
108.094
 11
95.654
 21
107.514
  0
LINE
  8
0
 10
95.654
 20
107.514
 11
95.3261
 21
106.979
  0
LINE
  8
0
 10
95.3261
 20
106.979
 11
94.9184
 21
106.502
  0
LINE
  8
0
 10
94.9184
 20
106.502
 11
94.4411
 21
106.094
  0
LINE
  8
0
 10
94.4411
 20
106.094
 11
93.906
 21
105.766
  0
LINE
  8
0
 10
93.906
 20
105.766
 11
93.3261
 21
105.526
  0
LINE
  8
0
 10
93.3261
 20
105.526
 11
92.7157
 21
105.379
  0
LINE
  8
0
 10
92.7157
 20
105.379
 11
92.09
 21
105.33
  0
LINE
  8
0
 10
92.09
 20
105.33
 11
91.4642
 21
105.379
  0
LINE
  8
0
 10
96.11
 20
92.68
 11
96.11
 21
95.72
  0
LINE
  8
0
 10
96.11
 20
95.72
 11
107.14
 21
95.72
  0
LINE
  8
0
 10
107.14
 20
95.72
 11
107.14
 21
106.16
  0
LINE
  8
0
 10
107.14
 20
106.16
 11
110.18
 21
106.16
  0
LINE
  8
0
 10
110.18
 20
106.16
 11
110.18
 21
92.68
  0
LINE
  8
0
 10
110.18
 20
92.68
 11
96.11
 21
92.68
  0
LINE
  8
0
 10
3
 20
92.68
 11
3
 21
106.16
  0
LINE
  8
0
 10
3
 20
106.16
 11
6.03999
 21
106.16
  0
LINE
  8
0
 10
6.03999
 20
106.16
 11
6.03999
 21
95.72
  0
LINE
  8
0
 10
6.03999
 20
95.72
 11
17.07
 21
95.72
  0
LINE
  8
0
 10
17.07
 20
95.72
 11
17.07
 21
92.68
  0
LINE
  8
0
 10
17.07
 20
92.68
 11
3
 21
92.68
  0
LINE
  8
0
 10
10.5997
 20
98.9497
 11
10.3556
 21
99.0083
  0
LINE
  8
0
 10
10.3556
 20
99.0083
 11
10.1236
 21
99.1044
  0
LINE
  8
0
 10
10.1236
 20
99.1044
 11
9.90953
 21
99.2356
  0
LINE
  8
0
 10
9.90953
 20
99.2356
 11
9.71863
 21
99.3986
  0
LINE
  8
0
 10
9.71863
 20
99.3986
 11
9.55557
 21
99.5895
  0
LINE
  8
0
 10
9.55557
 20
99.5895
 11
9.42438
 21
99.8036
  0
LINE
  8
0
 10
9.42438
 20
99.8036
 11
9.32831
 21
100.036
  0
LINE
  8
0
 10
9.32831
 20
100.036
 11
9.26968
 21
100.28
  0
LINE
  8
0
 10
9.26968
 20
100.28
 11
9.25
 21
100.53
  0
LINE
  8
0
 10
9.25
 20
100.53
 11
9.26968
 21
100.78
  0
LINE
  8
0
 10
9.26968
 20
100.78
 11
9.32831
 21
101.024
  0
LINE
  8
0
 10
9.32831
 20
101.024
 11
9.42438
 21
101.256
  0
LINE
  8
0
 10
9.42438
 20
101.256
 11
9.55557
 21
101.47
  0
LINE
  8
0
 10
9.55557
 20
101.47
 11
9.71863
 21
101.661
  0
LINE
  8
0
 10
9.71863
 20
101.661
 11
9.90953
 21
101.824
  0
LINE
  8
0
 10
9.90953
 20
101.824
 11
10.1236
 21
101.956
  0
LINE
  8
0
 10
10.1236
 20
101.956
 11
10.3556
 21
102.052
  0
LINE
  8
0
 10
10.3556
 20
102.052
 11
10.5997
 21
102.11
  0
LINE
  8
0
 10
10.5997
 20
102.11
 11
10.85
 21
102.13
  0
LINE
  8
0
 10
10.85
 20
102.13
 11
11.1003
 21
102.11
  0
LINE
  8
0
 10
11.1003
 20
102.11
 11
11.3444
 21
102.052
  0
LINE
  8
0
 10
11.3444
 20
102.052
 11
11.5764
 21
101.956
  0
LINE
  8
0
 10
11.5764
 20
101.956
 11
11.7905
 21
101.824
  0
LINE
  8
0
 10
11.7905
 20
101.824
 11
11.9814
 21
101.661
  0
LINE
  8
0
 10
11.9814
 20
101.661
 11
12.1444
 21
101.47
  0
LINE
  8
0
 10
12.1444
 20
101.47
 11
12.2756
 21
101.256
  0
LINE
  8
0
 10
12.2756
 20
101.256
 11
12.3717
 21
101.024
  0
LINE
  8
0
 10
12.3717
 20
101.024
 11
12.4303
 21
100.78
  0
LINE
  8
0
 10
12.4303
 20
100.78
 11
12.45
 21
100.53
  0
LINE
  8
0
 10
12.45
 20
100.53
 11
12.4303
 21
100.28
  0
LINE
  8
0
 10
12.4303
 20
100.28
 11
12.3717
 21
100.036
  0
LINE
  8
0
 10
12.3717
 20
100.036
 11
12.2756
 21
99.8036
  0
LINE
  8
0
 10
12.2756
 20
99.8036
 11
12.1444
 21
99.5895
  0
LINE
  8
0
 10
12.1444
 20
99.5895
 11
11.9814
 21
99.3986
  0
LINE
  8
0
 10
11.9814
 20
99.3986
 11
11.7905
 21
99.2356
  0
LINE
  8
0
 10
11.7905
 20
99.2356
 11
11.5764
 21
99.1044
  0
LINE
  8
0
 10
11.5764
 20
99.1044
 11
11.3444
 21
99.0083
  0
LINE
  8
0
 10
11.3444
 20
99.0083
 11
11.1003
 21
98.9497
  0
LINE
  8
0
 10
11.1003
 20
98.9497
 11
10.85
 21
98.93
  0
LINE
  8
0
 10
10.85
 20
98.93
 11
10.5997
 21
98.9497
  0
LINE
  8
0
 10
102.04
 20
98.9497
 11
101.796
 21
99.0083
  0
LINE
  8
0
 10
101.796
 20
99.0083
 11
101.564
 21
99.1044
  0
LINE
  8
0
 10
101.564
 20
99.1044
 11
101.35
 21
99.2356
  0
LINE
  8
0
 10
101.35
 20
99.2356
 11
101.159
 21
99.3986
  0
LINE
  8
0
 10
101.159
 20
99.3986
 11
100.996
 21
99.5895
  0
LINE
  8
0
 10
100.996
 20
99.5895
 11
100.864
 21
99.8036
  0
LINE
  8
0
 10
100.864
 20
99.8036
 11
100.768
 21
100.036
  0
LINE
  8
0
 10
100.768
 20
100.036
 11
100.71
 21
100.28
  0
LINE
  8
0
 10
100.71
 20
100.28
 11
100.69
 21
100.53
  0
LINE
  8
0
 10
100.69
 20
100.53
 11
100.71
 21
100.78
  0
LINE
  8
0
 10
100.71
 20
100.78
 11
100.768
 21
101.024
  0
LINE
  8
0
 10
100.768
 20
101.024
 11
100.864
 21
101.256
  0
LINE
  8
0
 10
100.864
 20
101.256
 11
100.996
 21
101.47
  0
LINE
  8
0
 10
100.996
 20
101.47
 11
101.159
 21
101.661
  0
LINE
  8
0
 10
101.159
 20
101.661
 11
101.35
 21
101.824
  0
LINE
  8
0
 10
101.35
 20
101.824
 11
101.564
 21
101.956
  0
LINE
  8
0
 10
101.564
 20
101.956
 11
101.796
 21
102.052
  0
LINE
  8
0
 10
101.796
 20
102.052
 11
102.04
 21
102.11
  0
LINE
  8
0
 10
102.04
 20
102.11
 11
102.29
 21
102.13
  0
LINE
  8
0
 10
102.29
 20
102.13
 11
102.54
 21
102.11
  0
LINE
  8
0
 10
102.54
 20
102.11
 11
102.784
 21
102.052
  0
LINE
  8
0
 10
102.784
 20
102.052
 11
103.016
 21
101.956
  0
LINE
  8
0
 10
103.016
 20
101.956
 11
103.23
 21
101.824
  0
LINE
  8
0
 10
103.23
 20
101.824
 11
103.421
 21
101.661
  0
LINE
  8
0
 10
103.421
 20
101.661
 11
103.584
 21
101.47
  0
LINE
  8
0
 10
103.584
 20
101.47
 11
103.716
 21
101.256
  0
LINE
  8
0
 10
103.716
 20
101.256
 11
103.812
 21
101.024
  0
LINE
  8
0
 10
103.812
 20
101.024
 11
103.87
 21
100.78
  0
LINE
  8
0
 10
103.87
 20
100.78
 11
103.89
 21
100.53
  0
LINE
  8
0
 10
103.89
 20
100.53
 11
103.87
 21
100.28
  0
LINE
  8
0
 10
103.87
 20
100.28
 11
103.812
 21
100.036
  0
LINE
  8
0
 10
103.812
 20
100.036
 11
103.716
 21
99.8036
  0
LINE
  8
0
 10
103.716
 20
99.8036
 11
103.584
 21
99.5895
  0
LINE
  8
0
 10
103.584
 20
99.5895
 11
103.421
 21
99.3986
  0
LINE
  8
0
 10
103.421
 20
99.3986
 11
103.23
 21
99.2356
  0
LINE
  8
0
 10
103.23
 20
99.2356
 11
103.016
 21
99.1044
  0
LINE
  8
0
 10
103.016
 20
99.1044
 11
102.784
 21
99.0083
  0
LINE
  8
0
 10
102.784
 20
99.0083
 11
102.54
 21
98.9497
  0
LINE
  8
0
 10
102.54
 20
98.9497
 11
102.29
 21
98.93
  0
LINE
  8
0
 10
102.29
 20
98.93
 11
102.04
 21
98.9497
  0
LINE
  8
0
 10
83.95
 20
92.68
 11
83.95
 21
95.72
  0
LINE
  8
0
 10
83.95
 20
95.72
 11
90.03
 21
95.72
  0
LINE
  8
0
 10
90.03
 20
95.72
 11
90.03
 21
92.68
  0
LINE
  8
0
 10
90.03
 20
92.68
 11
83.95
 21
92.68
  0
LINE
  8
0
 10
71.79
 20
92.68
 11
71.79
 21
95.72
  0
LINE
  8
0
 10
71.79
 20
95.72
 11
77.87
 21
95.72
  0
LINE
  8
0
 10
77.87
 20
95.72
 11
77.87
 21
92.68
  0
LINE
  8
0
 10
77.87
 20
92.68
 11
71.79
 21
92.68
  0
LINE
  8
0
 10
59.63
 20
92.68
 11
59.63
 21
95.72
  0
LINE
  8
0
 10
59.63
 20
95.72
 11
65.71
 21
95.72
  0
LINE
  8
0
 10
65.71
 20
95.72
 11
65.71
 21
92.68
  0
LINE
  8
0
 10
65.71
 20
92.68
 11
59.63
 21
92.68
  0
LINE
  8
0
 10
47.47
 20
92.68
 11
47.47
 21
95.72
  0
LINE
  8
0
 10
47.47
 20
95.72
 11
53.55
 21
95.72
  0
LINE
  8
0
 10
53.55
 20
95.72
 11
53.55
 21
92.68
  0
LINE
  8
0
 10
53.55
 20
92.68
 11
47.47
 21
92.68
  0
LINE
  8
0
 10
35.31
 20
92.68
 11
35.31
 21
95.72
  0
LINE
  8
0
 10
35.31
 20
95.72
 11
41.39
 21
95.72
  0
LINE
  8
0
 10
41.39
 20
95.72
 11
41.39
 21
92.68
  0
LINE
  8
0
 10
41.39
 20
92.68
 11
35.31
 21
92.68
  0
LINE
  8
0
 10
23.15
 20
92.68
 11
23.15
 21
95.72
  0
LINE
  8
0
 10
23.15
 20
95.72
 11
29.23
 21
95.72
  0
LINE
  8
0
 10
29.23
 20
95.72
 11
29.23
 21
92.68
  0
LINE
  8
0
 10
29.23
 20
92.68
 11
23.15
 21
92.68
  0
LINE
  8
0
 10
128.66
 20
109.84
 11
134.74
 21
109.84
  0
LINE
  8
0
 10
134.74
 20
109.84
 11
134.74
 21
106.8
  0
LINE
  8
0
 10
134.74
 20
106.8
 11
140.82
 21
106.8
  0
LINE
  8
0
 10
140.82
 20
106.8
 11
140.82
 21
109.84
  0
LINE
  8
0
 10
140.82
 20
109.84
 11
146.9
 21
109.84
  0
LINE
  8
0
 10
146.9
 20
109.84
 11
146.9
 21
106.8
  0
LINE
  8
0
 10
146.9
 20
106.8
 11
152.98
 21
106.8
  0
LINE
  8
0
 10
152.98
 20
106.8
 11
152.98
 21
109.84
  0
LINE
  8
0
 10
152.98
 20
109.84
 11
159.06
 21
109.84
  0
LINE
  8
0
 10
159.06
 20
109.84
 11
159.06
 21
106.8
  0
LINE
  8
0
 10
159.06
 20
106.8
 11
165.14
 21
106.8
  0
LINE
  8
0
 10
165.14
 20
106.8
 11
165.14
 21
109.84
  0
LINE
  8
0
 10
165.14
 20
109.84
 11
171.22
 21
109.84
  0
LINE
  8
0
 10
171.22
 20
109.84
 11
171.22
 21
106.8
  0
LINE
  8
0
 10
171.22
 20
106.8
 11
177.3
 21
106.8
  0
LINE
  8
0
 10
177.3
 20
106.8
 11
177.3
 21
109.84
  0
LINE
  8
0
 10
177.3
 20
109.84
 11
183.38
 21
109.84
  0
LINE
  8
0
 10
183.38
 20
109.84
 11
183.38
 21
106.8
  0
LINE
  8
0
 10
183.38
 20
106.8
 11
196.86
 21
106.8
  0
LINE
  8
0
 10
196.86
 20
106.8
 11
196.86
 21
120.56
  0
LINE
  8
0
 10
196.86
 20
120.56
 11
193.82
 21
120.56
  0
LINE
  8
0
 10
193.82
 20
120.56
 11
193.82
 21
126.64
  0
LINE
  8
0
 10
193.82
 20
126.64
 11
196.86
 21
126.64
  0
LINE
  8
0
 10
196.86
 20
126.64
 11
196.86
 21
140.4
  0
LINE
  8
0
 10
196.86
 20
140.4
 11
183.38
 21
140.4
  0
LINE
  8
0
 10
183.38
 20
140.4
 11
183.38
 21
137.36
  0
LINE
  8
0
 10
183.38
 20
137.36
 11
177.3
 21
137.36
  0
LINE
  8
0
 10
177.3
 20
137.36
 11
177.3
 21
140.4
  0
LINE
  8
0
 10
177.3
 20
140.4
 11
171.22
 21
140.4
  0
LINE
  8
0
 10
171.22
 20
140.4
 11
171.22
 21
137.36
  0
LINE
  8
0
 10
171.22
 20
137.36
 11
165.14
 21
137.36
  0
LINE
  8
0
 10
165.14
 20
137.36
 11
165.14
 21
140.4
  0
LINE
  8
0
 10
165.14
 20
140.4
 11
159.06
 21
140.4
  0
LINE
  8
0
 10
159.06
 20
140.4
 11
159.06
 21
137.36
  0
LINE
  8
0
 10
159.06
 20
137.36
 11
152.98
 21
137.36
  0
LINE
  8
0
 10
152.98
 20
137.36
 11
152.98
 21
140.4
  0
LINE
  8
0
 10
152.98
 20
140.4
 11
146.9
 21
140.4
  0
LINE
  8
0
 10
146.9
 20
140.4
 11
146.9
 21
137.36
  0
LINE
  8
0
 10
146.9
 20
137.36
 11
140.82
 21
137.36
  0
LINE
  8
0
 10
140.82
 20
137.36
 11
140.82
 21
140.4
  0
LINE
  8
0
 10
140.82
 20
140.4
 11
134.74
 21
140.4
  0
LINE
  8
0
 10
134.74
 20
140.4
 11
134.74
 21
137.36
  0
LINE
  8
0
 10
134.74
 20
137.36
 11
128.66
 21
137.36
  0
LINE
  8
0
 10
128.66
 20
137.36
 11
128.66
 21
140.4
  0
LINE
  8
0
 10
128.66
 20
140.4
 11
115.18
 21
140.4
  0
LINE
  8
0
 10
115.18
 20
140.4
 11
115.18
 21
126.64
  0
LINE
  8
0
 10
115.18
 20
126.64
 11
118.22
 21
126.64
  0
LINE
  8
0
 10
118.22
 20
126.64
 11
118.22
 21
120.56
  0
LINE
  8
0
 10
118.22
 20
120.56
 11
115.18
 21
120.56
  0
LINE
  8
0
 10
115.18
 20
120.56
 11
115.18
 21
106.8
  0
LINE
  8
0
 10
115.18
 20
106.8
 11
128.66
 21
106.8
  0
LINE
  8
0
 10
128.66
 20
106.8
 11
128.66
 21
109.84
  0
LINE
  8
0
 10
156.6
 20
119.8
 11
156.6
 21
129.3
  0
LINE
  8
0
 10
156.6
 20
129.3
 11
168.2
 21
129.3
  0
LINE
  8
0
 10
168.2
 20
129.3
 11
168.2
 21
119.8
  0
LINE
  8
0
 10
168.2
 20
119.8
 11
156.6
 21
119.8
  0
LINE
  8
0
 10
128.66
 20
74.24
 11
134.74
 21
74.24
  0
LINE
  8
0
 10
134.74
 20
74.24
 11
134.74
 21
71.2
  0
LINE
  8
0
 10
134.74
 20
71.2
 11
140.82
 21
71.2
  0
LINE
  8
0
 10
140.82
 20
71.2
 11
140.82
 21
74.24
  0
LINE
  8
0
 10
140.82
 20
74.24
 11
146.9
 21
74.24
  0
LINE
  8
0
 10
146.9
 20
74.24
 11
146.9
 21
71.2
  0
LINE
  8
0
 10
146.9
 20
71.2
 11
152.98
 21
71.2
  0
LINE
  8
0
 10
152.98
 20
71.2
 11
152.98
 21
74.24
  0
LINE
  8
0
 10
152.98
 20
74.24
 11
159.06
 21
74.24
  0
LINE
  8
0
 10
159.06
 20
74.24
 11
159.06
 21
71.2
  0
LINE
  8
0
 10
159.06
 20
71.2
 11
165.14
 21
71.2
  0
LINE
  8
0
 10
165.14
 20
71.2
 11
165.14
 21
74.24
  0
LINE
  8
0
 10
165.14
 20
74.24
 11
171.22
 21
74.24
  0
LINE
  8
0
 10
171.22
 20
74.24
 11
171.22
 21
71.2
  0
LINE
  8
0
 10
171.22
 20
71.2
 11
177.3
 21
71.2
  0
LINE
  8
0
 10
177.3
 20
71.2
 11
177.3
 21
74.24
  0
LINE
  8
0
 10
177.3
 20
74.24
 11
183.38
 21
74.24
  0
LINE
  8
0
 10
183.38
 20
74.24
 11
183.38
 21
71.2
  0
LINE
  8
0
 10
183.38
 20
71.2
 11
196.86
 21
71.2
  0
LINE
  8
0
 10
196.86
 20
71.2
 11
196.86
 21
84.96
  0
LINE
  8
0
 10
196.86
 20
84.96
 11
193.82
 21
84.96
  0
LINE
  8
0
 10
193.82
 20
84.96
 11
193.82
 21
91.04
  0
LINE
  8
0
 10
193.82
 20
91.04
 11
196.86
 21
91.04
  0
LINE
  8
0
 10
196.86
 20
91.04
 11
196.86
 21
104.8
  0
LINE
  8
0
 10
196.86
 20
104.8
 11
183.38
 21
104.8
  0
LINE
  8
0
 10
183.38
 20
104.8
 11
183.38
 21
101.76
  0
LINE
  8
0
 10
183.38
 20
101.76
 11
177.3
 21
101.76
  0
LINE
  8
0
 10
177.3
 20
101.76
 11
177.3
 21
104.8
  0
LINE
  8
0
 10
177.3
 20
104.8
 11
171.22
 21
104.8
  0
LINE
  8
0
 10
171.22
 20
104.8
 11
171.22
 21
101.76
  0
LINE
  8
0
 10
171.22
 20
101.76
 11
165.14
 21
101.76
  0
LINE
  8
0
 10
165.14
 20
101.76
 11
165.14
 21
104.8
  0
LINE
  8
0
 10
165.14
 20
104.8
 11
159.06
 21
104.8
  0
LINE
  8
0
 10
159.06
 20
104.8
 11
159.06
 21
101.76
  0
LINE
  8
0
 10
159.06
 20
101.76
 11
152.98
 21
101.76
  0
LINE
  8
0
 10
152.98
 20
101.76
 11
152.98
 21
104.8
  0
LINE
  8
0
 10
152.98
 20
104.8
 11
146.9
 21
104.8
  0
LINE
  8
0
 10
146.9
 20
104.8
 11
146.9
 21
101.76
  0
LINE
  8
0
 10
146.9
 20
101.76
 11
140.82
 21
101.76
  0
LINE
  8
0
 10
140.82
 20
101.76
 11
140.82
 21
104.8
  0
LINE
  8
0
 10
140.82
 20
104.8
 11
134.74
 21
104.8
  0
LINE
  8
0
 10
134.74
 20
104.8
 11
134.74
 21
101.76
  0
LINE
  8
0
 10
134.74
 20
101.76
 11
128.66
 21
101.76
  0
LINE
  8
0
 10
128.66
 20
101.76
 11
128.66
 21
104.8
  0
LINE
  8
0
 10
128.66
 20
104.8
 11
115.18
 21
104.8
  0
LINE
  8
0
 10
115.18
 20
104.8
 11
115.18
 21
91.04
  0
LINE
  8
0
 10
115.18
 20
91.04
 11
118.22
 21
91.04
  0
LINE
  8
0
 10
118.22
 20
91.04
 11
118.22
 21
84.96
  0
LINE
  8
0
 10
118.22
 20
84.96
 11
115.18
 21
84.96
  0
LINE
  8
0
 10
115.18
 20
84.96
 11
115.18
 21
71.2
  0
LINE
  8
0
 10
115.18
 20
71.2
 11
128.66
 21
71.2
  0
LINE
  8
0
 10
128.66
 20
71.2
 11
128.66
 21
74.24
  0
LINE
  8
0
 10
113.18
 20
87.68
 11
0
 21
87.68
  0
LINE
  8
0
 10
0
 20
87.68
 11
0
 21
0
  0
LINE
  8
0
 10
0
 20
0
 11
113.18
 21
0
  0
LINE
  8
0
 10
113.18
 20
0
 11
113.18
 21
87.68
  0
LINE
  8
0
 10
107.14
 20
71.2
 11
107.14
 21
81.64
  0
LINE
  8
0
 10
107.14
 20
81.64
 11
96.11
 21
81.64
  0
LINE
  8
0
 10
96.11
 20
81.64
 11
96.11
 21
84.68
  0
LINE
  8
0
 10
96.11
 20
84.68
 11
110.18
 21
84.68
  0
LINE
  8
0
 10
110.18
 20
84.68
 11
110.18
 21
71.2
  0
LINE
  8
0
 10
110.18
 20
71.2
 11
107.14
 21
71.2
  0
LINE
  8
0
 10
3
 20
71.2
 11
3
 21
84.68
  0
LINE
  8
0
 10
3
 20
84.68
 11
17.07
 21
84.68
  0
LINE
  8
0
 10
17.07
 20
84.68
 11
17.07
 21
81.64
  0
LINE
  8
0
 10
17.07
 20
81.64
 11
6.03999
 21
81.64
  0
LINE
  8
0
 10
6.03999
 20
81.64
 11
6.03999
 21
71.2
  0
LINE
  8
0
 10
6.03999
 20
71.2
 11
3
 21
71.2
  0
LINE
  8
0
 10
23.15
 20
81.64
 11
23.15
 21
84.68
  0
LINE
  8
0
 10
23.15
 20
84.68
 11
29.23
 21
84.68
  0
LINE
  8
0
 10
29.23
 20
84.68
 11
29.23
 21
81.64
  0
LINE
  8
0
 10
29.23
 20
81.64
 11
23.15
 21
81.64
  0
LINE
  8
0
 10
35.31
 20
81.64
 11
35.31
 21
84.68
  0
LINE
  8
0
 10
35.31
 20
84.68
 11
41.39
 21
84.68
  0
LINE
  8
0
 10
41.39
 20
84.68
 11
41.39
 21
81.64
  0
LINE
  8
0
 10
41.39
 20
81.64
 11
35.31
 21
81.64
  0
LINE
  8
0
 10
47.47
 20
81.64
 11
47.47
 21
84.68
  0
LINE
  8
0
 10
47.47
 20
84.68
 11
53.55
 21
84.68
  0
LINE
  8
0
 10
53.55
 20
84.68
 11
53.55
 21
81.64
  0
LINE
  8
0
 10
53.55
 20
81.64
 11
47.47
 21
81.64
  0
LINE
  8
0
 10
59.63
 20
81.64
 11
59.63
 21
84.68
  0
LINE
  8
0
 10
59.63
 20
84.68
 11
65.71
 21
84.68
  0
LINE
  8
0
 10
65.71
 20
84.68
 11
65.71
 21
81.64
  0
LINE
  8
0
 10
65.71
 20
81.64
 11
59.63
 21
81.64
  0
LINE
  8
0
 10
71.79
 20
81.64
 11
71.79
 21
84.68
  0
LINE
  8
0
 10
71.79
 20
84.68
 11
77.87
 21
84.68
  0
LINE
  8
0
 10
77.87
 20
84.68
 11
77.87
 21
81.64
  0
LINE
  8
0
 10
77.87
 20
81.64
 11
71.79
 21
81.64
  0
LINE
  8
0
 10
83.95
 20
81.64
 11
83.95
 21
84.68
  0
LINE
  8
0
 10
83.95
 20
84.68
 11
90.03
 21
84.68
  0
LINE
  8
0
 10
90.03
 20
84.68
 11
90.03
 21
81.64
  0
LINE
  8
0
 10
90.03
 20
81.64
 11
83.95
 21
81.64
  0
LINE
  8
0
 10
10.6397
 20
75.3097
 11
10.3956
 21
75.3683
  0
LINE
  8
0
 10
10.3956
 20
75.3683
 11
10.1636
 21
75.4644
  0
LINE
  8
0
 10
10.1636
 20
75.4644
 11
9.94954
 21
75.5956
  0
LINE
  8
0
 10
9.94954
 20
75.5956
 11
9.75862
 21
75.7586
  0
LINE
  8
0
 10
9.75862
 20
75.7586
 11
9.59557
 21
75.9495
  0
LINE
  8
0
 10
9.59557
 20
75.9495
 11
9.46439
 21
76.1636
  0
LINE
  8
0
 10
9.46439
 20
76.1636
 11
9.3683
 21
76.3956
  0
LINE
  8
0
 10
9.3683
 20
76.3956
 11
9.30969
 21
76.6397
  0
LINE
  8
0
 10
9.30969
 20
76.6397
 11
9.28999
 21
76.89
  0
LINE
  8
0
 10
9.28999
 20
76.89
 11
9.30969
 21
77.1403
  0
LINE
  8
0
 10
9.30969
 20
77.1403
 11
9.3683
 21
77.3844
  0
LINE
  8
0
 10
9.3683
 20
77.3844
 11
9.46439
 21
77.6164
  0
LINE
  8
0
 10
9.46439
 20
77.6164
 11
9.59557
 21
77.8304
  0
LINE
  8
0
 10
9.59557
 20
77.8304
 11
9.75862
 21
78.0214
  0
LINE
  8
0
 10
9.75862
 20
78.0214
 11
9.94954
 21
78.1844
  0
LINE
  8
0
 10
9.94954
 20
78.1844
 11
10.1636
 21
78.3156
  0
LINE
  8
0
 10
10.1636
 20
78.3156
 11
10.3956
 21
78.4117
  0
LINE
  8
0
 10
10.3956
 20
78.4117
 11
10.6397
 21
78.4703
  0
LINE
  8
0
 10
10.6397
 20
78.4703
 11
10.89
 21
78.49
  0
LINE
  8
0
 10
10.89
 20
78.49
 11
11.1403
 21
78.4703
  0
LINE
  8
0
 10
11.1403
 20
78.4703
 11
11.3844
 21
78.4117
  0
LINE
  8
0
 10
11.3844
 20
78.4117
 11
11.6164
 21
78.3156
  0
LINE
  8
0
 10
11.6164
 20
78.3156
 11
11.8304
 21
78.1844
  0
LINE
  8
0
 10
11.8304
 20
78.1844
 11
12.0214
 21
78.0214
  0
LINE
  8
0
 10
12.0214
 20
78.0214
 11
12.1844
 21
77.8304
  0
LINE
  8
0
 10
12.1844
 20
77.8304
 11
12.3156
 21
77.6164
  0
LINE
  8
0
 10
12.3156
 20
77.6164
 11
12.4117
 21
77.3844
  0
LINE
  8
0
 10
12.4117
 20
77.3844
 11
12.4703
 21
77.1403
  0
LINE
  8
0
 10
12.4703
 20
77.1403
 11
12.49
 21
76.89
  0
LINE
  8
0
 10
12.49
 20
76.89
 11
12.4703
 21
76.6397
  0
LINE
  8
0
 10
12.4703
 20
76.6397
 11
12.4117
 21
76.3956
  0
LINE
  8
0
 10
12.4117
 20
76.3956
 11
12.3156
 21
76.1636
  0
LINE
  8
0
 10
12.3156
 20
76.1636
 11
12.1844
 21
75.9495
  0
LINE
  8
0
 10
12.1844
 20
75.9495
 11
12.0214
 21
75.7586
  0
LINE
  8
0
 10
12.0214
 20
75.7586
 11
11.8304
 21
75.5956
  0
LINE
  8
0
 10
11.8304
 20
75.5956
 11
11.6164
 21
75.4644
  0
LINE
  8
0
 10
11.6164
 20
75.4644
 11
11.3844
 21
75.3683
  0
LINE
  8
0
 10
11.3844
 20
75.3683
 11
11.1403
 21
75.3097
  0
LINE
  8
0
 10
11.1403
 20
75.3097
 11
10.89
 21
75.29
  0
LINE
  8
0
 10
10.89
 20
75.29
 11
10.6397
 21
75.3097
  0
LINE
  8
0
 10
102.08
 20
75.3097
 11
101.836
 21
75.3683
  0
LINE
  8
0
 10
101.836
 20
75.3683
 11
101.604
 21
75.4644
  0
LINE
  8
0
 10
101.604
 20
75.4644
 11
101.39
 21
75.5956
  0
LINE
  8
0
 10
101.39
 20
75.5956
 11
101.199
 21
75.7586
  0
LINE
  8
0
 10
101.199
 20
75.7586
 11
101.036
 21
75.9495
  0
LINE
  8
0
 10
101.036
 20
75.9495
 11
100.904
 21
76.1636
  0
LINE
  8
0
 10
100.904
 20
76.1636
 11
100.808
 21
76.3956
  0
LINE
  8
0
 10
100.808
 20
76.3956
 11
100.75
 21
76.6397
  0
LINE
  8
0
 10
100.75
 20
76.6397
 11
100.73
 21
76.89
  0
LINE
  8
0
 10
100.73
 20
76.89
 11
100.75
 21
77.1403
  0
LINE
  8
0
 10
100.75
 20
77.1403
 11
100.808
 21
77.3844
  0
LINE
  8
0
 10
100.808
 20
77.3844
 11
100.904
 21
77.6164
  0
LINE
  8
0
 10
100.904
 20
77.6164
 11
101.036
 21
77.8304
  0
LINE
  8
0
 10
101.036
 20
77.8304
 11
101.199
 21
78.0214
  0
LINE
  8
0
 10
101.199
 20
78.0214
 11
101.39
 21
78.1844
  0
LINE
  8
0
 10
101.39
 20
78.1844
 11
101.604
 21
78.3156
  0
LINE
  8
0
 10
101.604
 20
78.3156
 11
101.836
 21
78.4117
  0
LINE
  8
0
 10
101.836
 20
78.4117
 11
102.08
 21
78.4703
  0
LINE
  8
0
 10
102.08
 20
78.4703
 11
102.33
 21
78.49
  0
LINE
  8
0
 10
102.33
 20
78.49
 11
102.58
 21
78.4703
  0
LINE
  8
0
 10
102.58
 20
78.4703
 11
102.824
 21
78.4117
  0
LINE
  8
0
 10
102.824
 20
78.4117
 11
103.056
 21
78.3156
  0
LINE
  8
0
 10
103.056
 20
78.3156
 11
103.27
 21
78.1844
  0
LINE
  8
0
 10
103.27
 20
78.1844
 11
103.461
 21
78.0214
  0
LINE
  8
0
 10
103.461
 20
78.0214
 11
103.624
 21
77.8304
  0
LINE
  8
0
 10
103.624
 20
77.8304
 11
103.756
 21
77.6164
  0
LINE
  8
0
 10
103.756
 20
77.6164
 11
103.852
 21
77.3844
  0
LINE
  8
0
 10
103.852
 20
77.3844
 11
103.91
 21
77.1403
  0
LINE
  8
0
 10
103.91
 20
77.1403
 11
103.93
 21
76.89
  0
LINE
  8
0
 10
103.93
 20
76.89
 11
103.91
 21
76.6397
  0
LINE
  8
0
 10
103.91
 20
76.6397
 11
103.852
 21
76.3956
  0
LINE
  8
0
 10
103.852
 20
76.3956
 11
103.756
 21
76.1636
  0
LINE
  8
0
 10
103.756
 20
76.1636
 11
103.624
 21
75.9495
  0
LINE
  8
0
 10
103.624
 20
75.9495
 11
103.461
 21
75.7586
  0
LINE
  8
0
 10
103.461
 20
75.7586
 11
103.27
 21
75.5956
  0
LINE
  8
0
 10
103.27
 20
75.5956
 11
103.056
 21
75.4644
  0
LINE
  8
0
 10
103.056
 20
75.4644
 11
102.824
 21
75.3683
  0
LINE
  8
0
 10
102.824
 20
75.3683
 11
102.58
 21
75.3097
  0
LINE
  8
0
 10
102.58
 20
75.3097
 11
102.33
 21
75.29
  0
LINE
  8
0
 10
102.33
 20
75.29
 11
102.08
 21
75.3097
  0
LINE
  8
0
 10
107.14
 20
59.04
 11
107.14
 21
65.12
  0
LINE
  8
0
 10
107.14
 20
65.12
 11
110.18
 21
65.12
  0
LINE
  8
0
 10
110.18
 20
65.12
 11
110.18
 21
59.04
  0
LINE
  8
0
 10
110.18
 20
59.04
 11
107.14
 21
59.04
  0
LINE
  8
0
 10
3
 20
59.04
 11
3
 21
65.12
  0
LINE
  8
0
 10
3
 20
65.12
 11
6.03999
 21
65.12
  0
LINE
  8
0
 10
6.03999
 20
65.12
 11
6.03999
 21
59.04
  0
LINE
  8
0
 10
6.03999
 20
59.04
 11
3
 21
59.04
  0
LINE
  8
0
 10
107.14
 20
46.88
 11
107.14
 21
52.96
  0
LINE
  8
0
 10
107.14
 20
52.96
 11
110.18
 21
52.96
  0
LINE
  8
0
 10
110.18
 20
52.96
 11
110.18
 21
46.88
  0
LINE
  8
0
 10
110.18
 20
46.88
 11
107.14
 21
46.88
  0
LINE
  8
0
 10
3
 20
46.88
 11
3
 21
52.96
  0
LINE
  8
0
 10
3
 20
52.96
 11
6.03999
 21
52.96
  0
LINE
  8
0
 10
6.03999
 20
52.96
 11
6.03999
 21
46.88
  0
LINE
  8
0
 10
6.03999
 20
46.88
 11
3
 21
46.88
  0
LINE
  8
0
 10
107.14
 20
34.72
 11
107.14
 21
40.8
  0
LINE
  8
0
 10
107.14
 20
40.8
 11
110.18
 21
40.8
  0
LINE
  8
0
 10
110.18
 20
40.8
 11
110.18
 21
34.72
  0
LINE
  8
0
 10
110.18
 20
34.72
 11
107.14
 21
34.72
  0
LINE
  8
0
 10
3
 20
34.72
 11
3
 21
40.8
  0
LINE
  8
0
 10
3
 20
40.8
 11
6.03999
 21
40.8
  0
LINE
  8
0
 10
6.03999
 20
40.8
 11
6.03999
 21
34.72
  0
LINE
  8
0
 10
6.03999
 20
34.72
 11
3
 21
34.72
  0
LINE
  8
0
 10
53.1675
 20
10.0825
 11
53.1675
 21
17.4225
  0
LINE
  8
0
 10
53.1675
 20
17.4225
 11
56.2075
 21
17.4225
  0
LINE
  8
0
 10
56.2075
 20
17.4225
 11
56.2075
 21
21.4225
  0
LINE
  8
0
 10
56.2075
 20
21.4225
 11
53.1675
 21
21.4225
  0
LINE
  8
0
 10
53.1675
 20
21.4225
 11
53.1675
 21
28.7625
  0
LINE
  8
0
 10
53.1675
 20
28.7625
 11
60.5075
 21
28.7625
  0
LINE
  8
0
 10
60.5075
 20
28.7625
 11
60.5075
 21
25.7225
  0
LINE
  8
0
 10
60.5075
 20
25.7225
 11
56.2075
 21
25.7225
  0
LINE
  8
0
 10
56.2075
 20
25.7225
 11
56.2075
 21
13.1225
  0
LINE
  8
0
 10
56.2075
 20
13.1225
 11
68.8075
 21
13.1225
  0
LINE
  8
0
 10
68.8075
 20
13.1225
 11
68.8075
 21
17.4225
  0
LINE
  8
0
 10
68.8075
 20
17.4225
 11
71.8475
 21
17.4225
  0
LINE
  8
0
 10
71.8475
 20
17.4225
 11
71.8475
 21
10.0825
  0
LINE
  8
0
 10
71.8475
 20
10.0825
 11
64.5075
 21
10.0825
  0
LINE
  8
0
 10
64.5075
 20
10.0825
 11
64.5075
 21
13.1225
  0
LINE
  8
0
 10
64.5075
 20
13.1225
 11
60.5075
 21
13.1225
  0
LINE
  8
0
 10
60.5075
 20
13.1225
 11
60.5075
 21
10.0825
  0
LINE
  8
0
 10
60.5075
 20
10.0825
 11
53.1675
 21
10.0825
  0
LINE
  8
0
 10
68.8075
 20
21.4225
 11
68.8075
 21
25.7225
  0
LINE
  8
0
 10
68.8075
 20
25.7225
 11
64.5075
 21
25.7225
  0
LINE
  8
0
 10
64.5075
 20
25.7225
 11
64.5075
 21
28.7625
  0
LINE
  8
0
 10
64.5075
 20
28.7625
 11
71.8475
 21
28.7625
  0
LINE
  8
0
 10
71.8475
 20
28.7625
 11
71.8475
 21
21.4225
  0
LINE
  8
0
 10
71.8475
 20
21.4225
 11
68.8075
 21
21.4225
  0
LINE
  8
0
 10
107.14
 20
22.56
 11
107.14
 21
28.64
  0
LINE
  8
0
 10
107.14
 20
28.64
 11
110.18
 21
28.64
  0
LINE
  8
0
 10
110.18
 20
28.64
 11
110.18
 21
22.56
  0
LINE
  8
0
 10
110.18
 20
22.56
 11
107.14
 21
22.56
  0
LINE
  8
0
 10
3
 20
22.56
 11
3
 21
28.64
  0
LINE
  8
0
 10
3
 20
28.64
 11
6.03999
 21
28.64
  0
LINE
  8
0
 10
6.03999
 20
28.64
 11
6.03999
 21
22.56
  0
LINE
  8
0
 10
6.03999
 20
22.56
 11
3
 21
22.56
  0
LINE
  8
0
 10
96.11
 20
3
 11
96.11
 21
6.03999
  0
LINE
  8
0
 10
96.11
 20
6.03999
 11
107.14
 21
6.03999
  0
LINE
  8
0
 10
107.14
 20
6.03999
 11
107.14
 21
16.48
  0
LINE
  8
0
 10
107.14
 20
16.48
 11
110.18
 21
16.48
  0
LINE
  8
0
 10
110.18
 20
16.48
 11
110.18
 21
3
  0
LINE
  8
0
 10
110.18
 20
3
 11
96.11
 21
3
  0
LINE
  8
0
 10
3
 20
3
 11
3
 21
16.48
  0
LINE
  8
0
 10
3
 20
16.48
 11
6.03999
 21
16.48
  0
LINE
  8
0
 10
6.03999
 20
16.48
 11
6.03999
 21
6.03999
  0
LINE
  8
0
 10
6.03999
 20
6.03999
 11
17.07
 21
6.03999
  0
LINE
  8
0
 10
17.07
 20
6.03999
 11
17.07
 21
3
  0
LINE
  8
0
 10
17.07
 20
3
 11
3
 21
3
  0
LINE
  8
0
 10
102.08
 20
9.26968
 11
101.836
 21
9.32831
  0
LINE
  8
0
 10
101.836
 20
9.32831
 11
101.604
 21
9.42438
  0
LINE
  8
0
 10
101.604
 20
9.42438
 11
101.39
 21
9.55557
  0
LINE
  8
0
 10
101.39
 20
9.55557
 11
101.199
 21
9.71863
  0
LINE
  8
0
 10
101.199
 20
9.71863
 11
101.036
 21
9.90953
  0
LINE
  8
0
 10
101.036
 20
9.90953
 11
100.904
 21
10.1236
  0
LINE
  8
0
 10
100.904
 20
10.1236
 11
100.808
 21
10.3556
  0
LINE
  8
0
 10
100.808
 20
10.3556
 11
100.75
 21
10.5997
  0
LINE
  8
0
 10
100.75
 20
10.5997
 11
100.73
 21
10.85
  0
LINE
  8
0
 10
100.73
 20
10.85
 11
100.75
 21
11.1003
  0
LINE
  8
0
 10
100.75
 20
11.1003
 11
100.808
 21
11.3444
  0
LINE
  8
0
 10
100.808
 20
11.3444
 11
100.904
 21
11.5764
  0
LINE
  8
0
 10
100.904
 20
11.5764
 11
101.036
 21
11.7905
  0
LINE
  8
0
 10
101.036
 20
11.7905
 11
101.199
 21
11.9814
  0
LINE
  8
0
 10
101.199
 20
11.9814
 11
101.39
 21
12.1444
  0
LINE
  8
0
 10
101.39
 20
12.1444
 11
101.604
 21
12.2756
  0
LINE
  8
0
 10
101.604
 20
12.2756
 11
101.836
 21
12.3717
  0
LINE
  8
0
 10
101.836
 20
12.3717
 11
102.08
 21
12.4303
  0
LINE
  8
0
 10
102.08
 20
12.4303
 11
102.33
 21
12.45
  0
LINE
  8
0
 10
102.33
 20
12.45
 11
102.58
 21
12.4303
  0
LINE
  8
0
 10
102.58
 20
12.4303
 11
102.824
 21
12.3717
  0
LINE
  8
0
 10
102.824
 20
12.3717
 11
103.056
 21
12.2756
  0
LINE
  8
0
 10
103.056
 20
12.2756
 11
103.27
 21
12.1444
  0
LINE
  8
0
 10
103.27
 20
12.1444
 11
103.461
 21
11.9814
  0
LINE
  8
0
 10
103.461
 20
11.9814
 11
103.624
 21
11.7905
  0
LINE
  8
0
 10
103.624
 20
11.7905
 11
103.756
 21
11.5764
  0
LINE
  8
0
 10
103.756
 20
11.5764
 11
103.852
 21
11.3444
  0
LINE
  8
0
 10
103.852
 20
11.3444
 11
103.91
 21
11.1003
  0
LINE
  8
0
 10
103.91
 20
11.1003
 11
103.93
 21
10.85
  0
LINE
  8
0
 10
103.93
 20
10.85
 11
103.91
 21
10.5997
  0
LINE
  8
0
 10
103.91
 20
10.5997
 11
103.852
 21
10.3556
  0
LINE
  8
0
 10
103.852
 20
10.3556
 11
103.756
 21
10.1236
  0
LINE
  8
0
 10
103.756
 20
10.1236
 11
103.624
 21
9.90953
  0
LINE
  8
0
 10
103.624
 20
9.90953
 11
103.461
 21
9.71863
  0
LINE
  8
0
 10
103.461
 20
9.71863
 11
103.27
 21
9.55557
  0
LINE
  8
0
 10
103.27
 20
9.55557
 11
103.056
 21
9.42438
  0
LINE
  8
0
 10
103.056
 20
9.42438
 11
102.824
 21
9.32831
  0
LINE
  8
0
 10
102.824
 20
9.32831
 11
102.58
 21
9.26968
  0
LINE
  8
0
 10
102.58
 20
9.26968
 11
102.33
 21
9.25
  0
LINE
  8
0
 10
102.33
 20
9.25
 11
102.08
 21
9.26968
  0
LINE
  8
0
 10
10.6397
 20
9.26968
 11
10.3956
 21
9.32831
  0
LINE
  8
0
 10
10.3956
 20
9.32831
 11
10.1636
 21
9.42438
  0
LINE
  8
0
 10
10.1636
 20
9.42438
 11
9.94954
 21
9.55557
  0
LINE
  8
0
 10
9.94954
 20
9.55557
 11
9.75862
 21
9.71863
  0
LINE
  8
0
 10
9.75862
 20
9.71863
 11
9.59557
 21
9.90953
  0
LINE
  8
0
 10
9.59557
 20
9.90953
 11
9.46439
 21
10.1236
  0
LINE
  8
0
 10
9.46439
 20
10.1236
 11
9.3683
 21
10.3556
  0
LINE
  8
0
 10
9.3683
 20
10.3556
 11
9.30969
 21
10.5997
  0
LINE
  8
0
 10
9.30969
 20
10.5997
 11
9.28999
 21
10.85
  0
LINE
  8
0
 10
9.28999
 20
10.85
 11
9.30969
 21
11.1003
  0
LINE
  8
0
 10
9.30969
 20
11.1003
 11
9.3683
 21
11.3444
  0
LINE
  8
0
 10
9.3683
 20
11.3444
 11
9.46439
 21
11.5764
  0
LINE
  8
0
 10
9.46439
 20
11.5764
 11
9.59557
 21
11.7905
  0
LINE
  8
0
 10
9.59557
 20
11.7905
 11
9.75862
 21
11.9814
  0
LINE
  8
0
 10
9.75862
 20
11.9814
 11
9.94954
 21
12.1444
  0
LINE
  8
0
 10
9.94954
 20
12.1444
 11
10.1636
 21
12.2756
  0
LINE
  8
0
 10
10.1636
 20
12.2756
 11
10.3956
 21
12.3717
  0
LINE
  8
0
 10
10.3956
 20
12.3717
 11
10.6397
 21
12.4303
  0
LINE
  8
0
 10
10.6397
 20
12.4303
 11
10.89
 21
12.45
  0
LINE
  8
0
 10
10.89
 20
12.45
 11
11.1403
 21
12.4303
  0
LINE
  8
0
 10
11.1403
 20
12.4303
 11
11.3844
 21
12.3717
  0
LINE
  8
0
 10
11.3844
 20
12.3717
 11
11.6164
 21
12.2756
  0
LINE
  8
0
 10
11.6164
 20
12.2756
 11
11.8304
 21
12.1444
  0
LINE
  8
0
 10
11.8304
 20
12.1444
 11
12.0214
 21
11.9814
  0
LINE
  8
0
 10
12.0214
 20
11.9814
 11
12.1844
 21
11.7905
  0
LINE
  8
0
 10
12.1844
 20
11.7905
 11
12.3156
 21
11.5764
  0
LINE
  8
0
 10
12.3156
 20
11.5764
 11
12.4117
 21
11.3444
  0
LINE
  8
0
 10
12.4117
 20
11.3444
 11
12.4703
 21
11.1003
  0
LINE
  8
0
 10
12.4703
 20
11.1003
 11
12.49
 21
10.85
  0
LINE
  8
0
 10
12.49
 20
10.85
 11
12.4703
 21
10.5997
  0
LINE
  8
0
 10
12.4703
 20
10.5997
 11
12.4117
 21
10.3556
  0
LINE
  8
0
 10
12.4117
 20
10.3556
 11
12.3156
 21
10.1236
  0
LINE
  8
0
 10
12.3156
 20
10.1236
 11
12.1844
 21
9.90953
  0
LINE
  8
0
 10
12.1844
 20
9.90953
 11
12.0214
 21
9.71863
  0
LINE
  8
0
 10
12.0214
 20
9.71863
 11
11.8304
 21
9.55557
  0
LINE
  8
0
 10
11.8304
 20
9.55557
 11
11.6164
 21
9.42438
  0
LINE
  8
0
 10
11.6164
 20
9.42438
 11
11.3844
 21
9.32831
  0
LINE
  8
0
 10
11.3844
 20
9.32831
 11
11.1403
 21
9.26968
  0
LINE
  8
0
 10
11.1403
 20
9.26968
 11
10.89
 21
9.25
  0
LINE
  8
0
 10
10.89
 20
9.25
 11
10.6397
 21
9.26968
  0
LINE
  8
0
 10
83.95
 20
3
 11
83.95
 21
6.03999
  0
LINE
  8
0
 10
83.95
 20
6.03999
 11
90.03
 21
6.03999
  0
LINE
  8
0
 10
90.03
 20
6.03999
 11
90.03
 21
3
  0
LINE
  8
0
 10
90.03
 20
3
 11
83.95
 21
3
  0
LINE
  8
0
 10
71.79
 20
3
 11
71.79
 21
6.03999
  0
LINE
  8
0
 10
71.79
 20
6.03999
 11
77.87
 21
6.03999
  0
LINE
  8
0
 10
77.87
 20
6.03999
 11
77.87
 21
3
  0
LINE
  8
0
 10
77.87
 20
3
 11
71.79
 21
3
  0
LINE
  8
0
 10
23.15
 20
3
 11
23.15
 21
6.03999
  0
LINE
  8
0
 10
23.15
 20
6.03999
 11
29.23
 21
6.03999
  0
LINE
  8
0
 10
29.23
 20
6.03999
 11
29.23
 21
3
  0
LINE
  8
0
 10
29.23
 20
3
 11
23.15
 21
3
  0
LINE
  8
0
 10
35.31
 20
3
 11
35.31
 21
6.03999
  0
LINE
  8
0
 10
35.31
 20
6.03999
 11
41.39
 21
6.03999
  0
LINE
  8
0
 10
41.39
 20
6.03999
 11
41.39
 21
3
  0
LINE
  8
0
 10
41.39
 20
3
 11
35.31
 21
3
  0
LINE
  8
0
 10
47.47
 20
3
 11
47.47
 21
6.03999
  0
LINE
  8
0
 10
47.47
 20
6.03999
 11
53.55
 21
6.03999
  0
LINE
  8
0
 10
53.55
 20
6.03999
 11
53.55
 21
3
  0
LINE
  8
0
 10
53.55
 20
3
 11
47.47
 21
3
  0
LINE
  8
0
 10
59.63
 20
3
 11
59.63
 21
6.03999
  0
LINE
  8
0
 10
59.63
 20
6.03999
 11
65.71
 21
6.03999
  0
LINE
  8
0
 10
65.71
 20
6.03999
 11
65.71
 21
3
  0
LINE
  8
0
 10
65.71
 20
3
 11
59.63
 21
3
  0
LINE
  8
0
 10
129.25
 20
38.64
 11
135.33
 21
38.64
  0
LINE
  8
0
 10
135.33
 20
38.64
 11
135.33
 21
35.6
  0
LINE
  8
0
 10
135.33
 20
35.6
 11
141.41
 21
35.6
  0
LINE
  8
0
 10
141.41
 20
35.6
 11
141.41
 21
38.64
  0
LINE
  8
0
 10
141.41
 20
38.64
 11
147.49
 21
38.64
  0
LINE
  8
0
 10
147.49
 20
38.64
 11
147.49
 21
35.6
  0
LINE
  8
0
 10
147.49
 20
35.6
 11
153.57
 21
35.6
  0
LINE
  8
0
 10
153.57
 20
35.6
 11
153.57
 21
38.64
  0
LINE
  8
0
 10
153.57
 20
38.64
 11
159.65
 21
38.64
  0
LINE
  8
0
 10
159.65
 20
38.64
 11
159.65
 21
35.6
  0
LINE
  8
0
 10
159.65
 20
35.6
 11
165.73
 21
35.6
  0
LINE
  8
0
 10
165.73
 20
35.6
 11
165.73
 21
38.64
  0
LINE
  8
0
 10
165.73
 20
38.64
 11
171.81
 21
38.64
  0
LINE
  8
0
 10
171.81
 20
38.64
 11
171.81
 21
35.6
  0
LINE
  8
0
 10
171.81
 20
35.6
 11
177.89
 21
35.6
  0
LINE
  8
0
 10
177.89
 20
35.6
 11
177.89
 21
38.64
  0
LINE
  8
0
 10
177.89
 20
38.64
 11
183.97
 21
38.64
  0
LINE
  8
0
 10
183.97
 20
38.64
 11
183.97
 21
35.6
  0
LINE
  8
0
 10
183.97
 20
35.6
 11
190.05
 21
35.6
  0
LINE
  8
0
 10
190.05
 20
35.6
 11
190.05
 21
38.64
  0
LINE
  8
0
 10
190.05
 20
38.64
 11
196.13
 21
38.64
  0
LINE
  8
0
 10
196.13
 20
38.64
 11
196.13
 21
35.6
  0
LINE
  8
0
 10
196.13
 20
35.6
 11
202.21
 21
35.6
  0
LINE
  8
0
 10
202.21
 20
35.6
 11
202.21
 21
38.64
  0
LINE
  8
0
 10
202.21
 20
38.64
 11
208.29
 21
38.64
  0
LINE
  8
0
 10
208.29
 20
38.64
 11
208.29
 21
35.6
  0
LINE
  8
0
 10
208.29
 20
35.6
 11
219.32
 21
35.6
  0
LINE
  8
0
 10
219.32
 20
35.6
 11
219.32
 21
49.36
  0
LINE
  8
0
 10
219.32
 20
49.36
 11
222.36
 21
49.36
  0
LINE
  8
0
 10
222.36
 20
49.36
 11
222.36
 21
55.44
  0
LINE
  8
0
 10
222.36
 20
55.44
 11
219.32
 21
55.44
  0
LINE
  8
0
 10
219.32
 20
55.44
 11
219.32
 21
69.2
  0
LINE
  8
0
 10
219.32
 20
69.2
 11
208.29
 21
69.2
  0
LINE
  8
0
 10
208.29
 20
69.2
 11
208.29
 21
66.16
  0
LINE
  8
0
 10
208.29
 20
66.16
 11
202.21
 21
66.16
  0
LINE
  8
0
 10
202.21
 20
66.16
 11
202.21
 21
69.2
  0
LINE
  8
0
 10
202.21
 20
69.2
 11
196.13
 21
69.2
  0
LINE
  8
0
 10
196.13
 20
69.2
 11
196.13
 21
66.16
  0
LINE
  8
0
 10
196.13
 20
66.16
 11
190.05
 21
66.16
  0
LINE
  8
0
 10
190.05
 20
66.16
 11
190.05
 21
69.2
  0
LINE
  8
0
 10
190.05
 20
69.2
 11
183.97
 21
69.2
  0
LINE
  8
0
 10
183.97
 20
69.2
 11
183.97
 21
66.16
  0
LINE
  8
0
 10
183.97
 20
66.16
 11
177.89
 21
66.16
  0
LINE
  8
0
 10
177.89
 20
66.16
 11
177.89
 21
69.2
  0
LINE
  8
0
 10
177.89
 20
69.2
 11
171.81
 21
69.2
  0
LINE
  8
0
 10
171.81
 20
69.2
 11
171.81
 21
66.16
  0
LINE
  8
0
 10
171.81
 20
66.16
 11
165.73
 21
66.16
  0
LINE
  8
0
 10
165.73
 20
66.16
 11
165.73
 21
69.2
  0
LINE
  8
0
 10
165.73
 20
69.2
 11
159.65
 21
69.2
  0
LINE
  8
0
 10
159.65
 20
69.2
 11
159.65
 21
66.16
  0
LINE
  8
0
 10
159.65
 20
66.16
 11
153.57
 21
66.16
  0
LINE
  8
0
 10
153.57
 20
66.16
 11
153.57
 21
69.2
  0
LINE
  8
0
 10
153.57
 20
69.2
 11
147.49
 21
69.2
  0
LINE
  8
0
 10
147.49
 20
69.2
 11
147.49
 21
66.16
  0
LINE
  8
0
 10
147.49
 20
66.16
 11
141.41
 21
66.16
  0
LINE
  8
0
 10
141.41
 20
66.16
 11
141.41
 21
69.2
  0
LINE
  8
0
 10
141.41
 20
69.2
 11
135.33
 21
69.2
  0
LINE
  8
0
 10
135.33
 20
69.2
 11
135.33
 21
66.16
  0
LINE
  8
0
 10
135.33
 20
66.16
 11
129.25
 21
66.16
  0
LINE
  8
0
 10
129.25
 20
66.16
 11
129.25
 21
69.2
  0
LINE
  8
0
 10
129.25
 20
69.2
 11
118.22
 21
69.2
  0
LINE
  8
0
 10
118.22
 20
69.2
 11
118.22
 21
55.44
  0
LINE
  8
0
 10
118.22
 20
55.44
 11
115.18
 21
55.44
  0
LINE
  8
0
 10
115.18
 20
55.44
 11
115.18
 21
49.36
  0
LINE
  8
0
 10
115.18
 20
49.36
 11
118.22
 21
49.36
  0
LINE
  8
0
 10
118.22
 20
49.36
 11
118.22
 21
35.6
  0
LINE
  8
0
 10
118.22
 20
35.6
 11
129.25
 21
35.6
  0
LINE
  8
0
 10
129.25
 20
35.6
 11
129.25
 21
38.64
  0
LINE
  8
0
 10
-37.36
 20
38.64
 11
-33.36
 21
38.64
  0
LINE
  8
0
 10
-33.36
 20
38.64
 11
-33.36
 21
35.6
  0
LINE
  8
0
 10
-33.36
 20
35.6
 11
-29.06
 21
35.6
  0
LINE
  8
0
 10
-29.06
 20
35.6
 11
-29.06
 21
46.4
  0
LINE
  8
0
 10
-29.06
 20
46.4
 11
-26.02
 21
46.4
  0
LINE
  8
0
 10
-26.02
 20
46.4
 11
-26.02
 21
50.4
  0
LINE
  8
0
 10
-26.02
 20
50.4
 11
-29.06
 21
50.4
  0
LINE
  8
0
 10
-29.06
 20
50.4
 11
-29.06
 21
54.4
  0
LINE
  8
0
 10
-29.06
 20
54.4
 11
-26.02
 21
54.4
  0
LINE
  8
0
 10
-26.02
 20
54.4
 11
-26.02
 21
58.4
  0
LINE
  8
0
 10
-26.02
 20
58.4
 11
-29.06
 21
58.4
  0
LINE
  8
0
 10
-29.06
 20
58.4
 11
-29.06
 21
69.2
  0
LINE
  8
0
 10
-29.06
 20
69.2
 11
-33.36
 21
69.2
  0
LINE
  8
0
 10
-33.36
 20
69.2
 11
-33.36
 21
66.16
  0
LINE
  8
0
 10
-33.36
 20
66.16
 11
-37.36
 21
66.16
  0
LINE
  8
0
 10
-37.36
 20
66.16
 11
-37.36
 21
69.2
  0
LINE
  8
0
 10
-37.36
 20
69.2
 11
-41.66
 21
69.2
  0
LINE
  8
0
 10
-41.66
 20
69.2
 11
-41.66
 21
58.4
  0
LINE
  8
0
 10
-41.66
 20
58.4
 11
-44.7
 21
58.4
  0
LINE
  8
0
 10
-44.7
 20
58.4
 11
-44.7
 21
54.4
  0
LINE
  8
0
 10
-44.7
 20
54.4
 11
-41.66
 21
54.4
  0
LINE
  8
0
 10
-41.66
 20
54.4
 11
-41.66
 21
50.4
  0
LINE
  8
0
 10
-41.66
 20
50.4
 11
-44.7
 21
50.4
  0
LINE
  8
0
 10
-44.7
 20
50.4
 11
-44.7
 21
46.4
  0
LINE
  8
0
 10
-44.7
 20
46.4
 11
-41.66
 21
46.4
  0
LINE
  8
0
 10
-41.66
 20
46.4
 11
-41.66
 21
35.6
  0
LINE
  8
0
 10
-41.66
 20
35.6
 11
-37.36
 21
35.6
  0
LINE
  8
0
 10
-37.36
 20
35.6
 11
-37.36
 21
38.64
  0
LINE
  8
0
 10
-37.86
 20
49.2
 11
-37.86
 21
54.2
  0
LINE
  8
0
 10
-37.86
 20
54.2
 11
-32.86
 21
54.2
  0
LINE
  8
0
 10
-32.86
 20
54.2
 11
-32.86
 21
49.2
  0
LINE
  8
0
 10
-32.86
 20
49.2
 11
-37.86
 21
49.2
  0
LINE
  8
0
 10
-16.68
 20
38.64
 11
-12.68
 21
38.64
  0
LINE
  8
0
 10
-12.68
 20
38.64
 11
-12.68
 21
35.6
  0
LINE
  8
0
 10
-12.68
 20
35.6
 11
-5.34001
 21
35.6
  0
LINE
  8
0
 10
-5.34001
 20
35.6
 11
-5.34001
 21
46.4
  0
LINE
  8
0
 10
-5.34001
 20
46.4
 11
-8.38
 21
46.4
  0
LINE
  8
0
 10
-8.38
 20
46.4
 11
-8.38
 21
50.4
  0
LINE
  8
0
 10
-8.38
 20
50.4
 11
-5.34001
 21
50.4
  0
LINE
  8
0
 10
-5.34001
 20
50.4
 11
-5.34001
 21
54.4
  0
LINE
  8
0
 10
-5.34001
 20
54.4
 11
-8.38
 21
54.4
  0
LINE
  8
0
 10
-8.38
 20
54.4
 11
-8.38
 21
58.4
  0
LINE
  8
0
 10
-8.38
 20
58.4
 11
-5.34001
 21
58.4
  0
LINE
  8
0
 10
-5.34001
 20
58.4
 11
-5.34001
 21
69.2
  0
LINE
  8
0
 10
-5.34001
 20
69.2
 11
-12.68
 21
69.2
  0
LINE
  8
0
 10
-12.68
 20
69.2
 11
-12.68
 21
66.16
  0
LINE
  8
0
 10
-12.68
 20
66.16
 11
-16.68
 21
66.16
  0
LINE
  8
0
 10
-16.68
 20
66.16
 11
-16.68
 21
69.2
  0
LINE
  8
0
 10
-16.68
 20
69.2
 11
-24.02
 21
69.2
  0
LINE
  8
0
 10
-24.02
 20
69.2
 11
-24.02
 21
58.4
  0
LINE
  8
0
 10
-24.02
 20
58.4
 11
-20.98
 21
58.4
  0
LINE
  8
0
 10
-20.98
 20
58.4
 11
-20.98
 21
54.4
  0
LINE
  8
0
 10
-20.98
 20
54.4
 11
-24.02
 21
54.4
  0
LINE
  8
0
 10
-24.02
 20
54.4
 11
-24.02
 21
50.4
  0
LINE
  8
0
 10
-24.02
 20
50.4
 11
-20.98
 21
50.4
  0
LINE
  8
0
 10
-20.98
 20
50.4
 11
-20.98
 21
46.4
  0
LINE
  8
0
 10
-20.98
 20
46.4
 11
-24.02
 21
46.4
  0
LINE
  8
0
 10
-24.02
 20
46.4
 11
-24.02
 21
35.6
  0
LINE
  8
0
 10
-24.02
 20
35.6
 11
-16.68
 21
35.6
  0
LINE
  8
0
 10
-16.68
 20
35.6
 11
-16.68
 21
38.64
  0
LINE
  8
0
 10
-15.93
 20
50.6
 11
-15.93
 21
55.6
  0
LINE
  8
0
 10
-15.93
 20
55.6
 11
-13.43
 21
55.6
  0
LINE
  8
0
 10
-13.43
 20
55.6
 11
-13.43
 21
50.6
  0
LINE
  8
0
 10
-13.43
 20
50.6
 11
-15.93
 21
50.6
  0
LINE
  8
0
 10
129.25
 20
3.03999
 11
135.33
 21
3.03999
  0
LINE
  8
0
 10
135.33
 20
3.03999
 11
135.33
 21
0
  0
LINE
  8
0
 10
135.33
 20
0
 11
141.41
 21
0
  0
LINE
  8
0
 10
141.41
 20
0
 11
141.41
 21
3.03999
  0
LINE
  8
0
 10
141.41
 20
3.03999
 11
147.49
 21
3.03999
  0
LINE
  8
0
 10
147.49
 20
3.03999
 11
147.49
 21
0
  0
LINE
  8
0
 10
147.49
 20
0
 11
153.57
 21
0
  0
LINE
  8
0
 10
153.57
 20
0
 11
153.57
 21
3.03999
  0
LINE
  8
0
 10
153.57
 20
3.03999
 11
159.65
 21
3.03999
  0
LINE
  8
0
 10
159.65
 20
3.03999
 11
159.65
 21
0
  0
LINE
  8
0
 10
159.65
 20
0
 11
165.73
 21
0
  0
LINE
  8
0
 10
165.73
 20
0
 11
165.73
 21
3.03999
  0
LINE
  8
0
 10
165.73
 20
3.03999
 11
171.81
 21
3.03999
  0
LINE
  8
0
 10
171.81
 20
3.03999
 11
171.81
 21
0
  0
LINE
  8
0
 10
171.81
 20
0
 11
177.89
 21
0
  0
LINE
  8
0
 10
177.89
 20
0
 11
177.89
 21
3.03999
  0
LINE
  8
0
 10
177.89
 20
3.03999
 11
183.97
 21
3.03999
  0
LINE
  8
0
 10
183.97
 20
3.03999
 11
183.97
 21
0
  0
LINE
  8
0
 10
183.97
 20
0
 11
190.05
 21
0
  0
LINE
  8
0
 10
190.05
 20
0
 11
190.05
 21
3.03999
  0
LINE
  8
0
 10
190.05
 20
3.03999
 11
196.13
 21
3.03999
  0
LINE
  8
0
 10
196.13
 20
3.03999
 11
196.13
 21
0
  0
LINE
  8
0
 10
196.13
 20
0
 11
202.21
 21
0
  0
LINE
  8
0
 10
202.21
 20
0
 11
202.21
 21
3.03999
  0
LINE
  8
0
 10
202.21
 20
3.03999
 11
208.29
 21
3.03999
  0
LINE
  8
0
 10
208.29
 20
3.03999
 11
208.29
 21
0
  0
LINE
  8
0
 10
208.29
 20
0
 11
219.32
 21
0
  0
LINE
  8
0
 10
219.32
 20
0
 11
219.32
 21
13.76
  0
LINE
  8
0
 10
219.32
 20
13.76
 11
222.36
 21
13.76
  0
LINE
  8
0
 10
222.36
 20
13.76
 11
222.36
 21
19.84
  0
LINE
  8
0
 10
222.36
 20
19.84
 11
219.32
 21
19.84
  0
LINE
  8
0
 10
219.32
 20
19.84
 11
219.32
 21
33.6
  0
LINE
  8
0
 10
219.32
 20
33.6
 11
208.29
 21
33.6
  0
LINE
  8
0
 10
208.29
 20
33.6
 11
208.29
 21
30.56
  0
LINE
  8
0
 10
208.29
 20
30.56
 11
202.21
 21
30.56
  0
LINE
  8
0
 10
202.21
 20
30.56
 11
202.21
 21
33.6
  0
LINE
  8
0
 10
202.21
 20
33.6
 11
196.13
 21
33.6
  0
LINE
  8
0
 10
196.13
 20
33.6
 11
196.13
 21
30.56
  0
LINE
  8
0
 10
196.13
 20
30.56
 11
190.05
 21
30.56
  0
LINE
  8
0
 10
190.05
 20
30.56
 11
190.05
 21
33.6
  0
LINE
  8
0
 10
190.05
 20
33.6
 11
183.97
 21
33.6
  0
LINE
  8
0
 10
183.97
 20
33.6
 11
183.97
 21
30.56
  0
LINE
  8
0
 10
183.97
 20
30.56
 11
177.89
 21
30.56
  0
LINE
  8
0
 10
177.89
 20
30.56
 11
177.89
 21
33.6
  0
LINE
  8
0
 10
177.89
 20
33.6
 11
171.81
 21
33.6
  0
LINE
  8
0
 10
171.81
 20
33.6
 11
171.81
 21
30.56
  0
LINE
  8
0
 10
171.81
 20
30.56
 11
165.73
 21
30.56
  0
LINE
  8
0
 10
165.73
 20
30.56
 11
165.73
 21
33.6
  0
LINE
  8
0
 10
165.73
 20
33.6
 11
159.65
 21
33.6
  0
LINE
  8
0
 10
159.65
 20
33.6
 11
159.65
 21
30.56
  0
LINE
  8
0
 10
159.65
 20
30.56
 11
153.57
 21
30.56
  0
LINE
  8
0
 10
153.57
 20
30.56
 11
153.57
 21
33.6
  0
LINE
  8
0
 10
153.57
 20
33.6
 11
147.49
 21
33.6
  0
LINE
  8
0
 10
147.49
 20
33.6
 11
147.49
 21
30.56
  0
LINE
  8
0
 10
147.49
 20
30.56
 11
141.41
 21
30.56
  0
LINE
  8
0
 10
141.41
 20
30.56
 11
141.41
 21
33.6
  0
LINE
  8
0
 10
141.41
 20
33.6
 11
135.33
 21
33.6
  0
LINE
  8
0
 10
135.33
 20
33.6
 11
135.33
 21
30.56
  0
LINE
  8
0
 10
135.33
 20
30.56
 11
129.25
 21
30.56
  0
LINE
  8
0
 10
129.25
 20
30.56
 11
129.25
 21
33.6
  0
LINE
  8
0
 10
129.25
 20
33.6
 11
118.22
 21
33.6
  0
LINE
  8
0
 10
118.22
 20
33.6
 11
118.22
 21
19.84
  0
LINE
  8
0
 10
118.22
 20
19.84
 11
115.18
 21
19.84
  0
LINE
  8
0
 10
115.18
 20
19.84
 11
115.18
 21
13.76
  0
LINE
  8
0
 10
115.18
 20
13.76
 11
118.22
 21
13.76
  0
LINE
  8
0
 10
118.22
 20
13.76
 11
118.22
 21
0
  0
LINE
  8
0
 10
118.22
 20
0
 11
129.25
 21
0
  0
LINE
  8
0
 10
129.25
 20
0
 11
129.25
 21
3.03999
  0
LINE
  8
0
 10
-16.68
 20
3.03999
 11
-12.68
 21
3.03999
  0
LINE
  8
0
 10
-12.68
 20
3.03999
 11
-12.68
 21
0
  0
LINE
  8
0
 10
-12.68
 20
0
 11
-5.34001
 21
0
  0
LINE
  8
0
 10
-5.34001
 20
0
 11
-5.34001
 21
10.8
  0
LINE
  8
0
 10
-5.34001
 20
10.8
 11
-8.38
 21
10.8
  0
LINE
  8
0
 10
-8.38
 20
10.8
 11
-8.38
 21
14.8
  0
LINE
  8
0
 10
-8.38
 20
14.8
 11
-5.34001
 21
14.8
  0
LINE
  8
0
 10
-5.34001
 20
14.8
 11
-5.34001
 21
18.8
  0
LINE
  8
0
 10
-5.34001
 20
18.8
 11
-8.38
 21
18.8
  0
LINE
  8
0
 10
-8.38
 20
18.8
 11
-8.38
 21
22.8
  0
LINE
  8
0
 10
-8.38
 20
22.8
 11
-5.34001
 21
22.8
  0
LINE
  8
0
 10
-5.34001
 20
22.8
 11
-5.34001
 21
33.6
  0
LINE
  8
0
 10
-5.34001
 20
33.6
 11
-12.68
 21
33.6
  0
LINE
  8
0
 10
-12.68
 20
33.6
 11
-12.68
 21
30.56
  0
LINE
  8
0
 10
-12.68
 20
30.56
 11
-16.68
 21
30.56
  0
LINE
  8
0
 10
-16.68
 20
30.56
 11
-16.68
 21
33.6
  0
LINE
  8
0
 10
-16.68
 20
33.6
 11
-24.02
 21
33.6
  0
LINE
  8
0
 10
-24.02
 20
33.6
 11
-24.02
 21
22.8
  0
LINE
  8
0
 10
-24.02
 20
22.8
 11
-20.98
 21
22.8
  0
LINE
  8
0
 10
-20.98
 20
22.8
 11
-20.98
 21
18.8
  0
LINE
  8
0
 10
-20.98
 20
18.8
 11
-24.02
 21
18.8
  0
LINE
  8
0
 10
-24.02
 20
18.8
 11
-24.02
 21
14.8
  0
LINE
  8
0
 10
-24.02
 20
14.8
 11
-20.98
 21
14.8
  0
LINE
  8
0
 10
-20.98
 20
14.8
 11
-20.98
 21
10.8
  0
LINE
  8
0
 10
-20.98
 20
10.8
 11
-24.02
 21
10.8
  0
LINE
  8
0
 10
-24.02
 20
10.8
 11
-24.02
 21
0
  0
LINE
  8
0
 10
-24.02
 20
0
 11
-16.68
 21
0
  0
LINE
  8
0
 10
-16.68
 20
0
 11
-16.68
 21
3.03999
  0
LINE
  8
0
 10
-15.93
 20
13.6
 11
-15.93
 21
18.6
  0
LINE
  8
0
 10
-15.93
 20
18.6
 11
-13.43
 21
18.6
  0
LINE
  8
0
 10
-13.43
 20
18.6
 11
-13.43
 21
13.6
  0
LINE
  8
0
 10
-13.43
 20
13.6
 11
-15.93
 21
13.6
  0
LINE
  8
0
 10
-37.36
 20
3.03999
 11
-33.36
 21
3.03999
  0
LINE
  8
0
 10
-33.36
 20
3.03999
 11
-33.36
 21
0
  0
LINE
  8
0
 10
-33.36
 20
0
 11
-29.06
 21
0
  0
LINE
  8
0
 10
-29.06
 20
0
 11
-29.06
 21
10.8
  0
LINE
  8
0
 10
-29.06
 20
10.8
 11
-26.02
 21
10.8
  0
LINE
  8
0
 10
-26.02
 20
10.8
 11
-26.02
 21
14.8
  0
LINE
  8
0
 10
-26.02
 20
14.8
 11
-29.06
 21
14.8
  0
LINE
  8
0
 10
-29.06
 20
14.8
 11
-29.06
 21
18.8
  0
LINE
  8
0
 10
-29.06
 20
18.8
 11
-26.02
 21
18.8
  0
LINE
  8
0
 10
-26.02
 20
18.8
 11
-26.02
 21
22.8
  0
LINE
  8
0
 10
-26.02
 20
22.8
 11
-29.06
 21
22.8
  0
LINE
  8
0
 10
-29.06
 20
22.8
 11
-29.06
 21
33.6
  0
LINE
  8
0
 10
-29.06
 20
33.6
 11
-33.36
 21
33.6
  0
LINE
  8
0
 10
-33.36
 20
33.6
 11
-33.36
 21
30.56
  0
LINE
  8
0
 10
-33.36
 20
30.56
 11
-37.36
 21
30.56
  0
LINE
  8
0
 10
-37.36
 20
30.56
 11
-37.36
 21
33.6
  0
LINE
  8
0
 10
-37.36
 20
33.6
 11
-41.66
 21
33.6
  0
LINE
  8
0
 10
-41.66
 20
33.6
 11
-41.66
 21
22.8
  0
LINE
  8
0
 10
-41.66
 20
22.8
 11
-44.7
 21
22.8
  0
LINE
  8
0
 10
-44.7
 20
22.8
 11
-44.7
 21
18.8
  0
LINE
  8
0
 10
-44.7
 20
18.8
 11
-41.66
 21
18.8
  0
LINE
  8
0
 10
-41.66
 20
18.8
 11
-41.66
 21
14.8
  0
LINE
  8
0
 10
-41.66
 20
14.8
 11
-44.7
 21
14.8
  0
LINE
  8
0
 10
-44.7
 20
14.8
 11
-44.7
 21
10.8
  0
LINE
  8
0
 10
-44.7
 20
10.8
 11
-41.66
 21
10.8
  0
LINE
  8
0
 10
-41.66
 20
10.8
 11
-41.66
 21
0
  0
LINE
  8
0
 10
-41.66
 20
0
 11
-37.36
 21
0
  0
LINE
  8
0
 10
-37.36
 20
0
 11
-37.36
 21
3.03999
  0
ENDSEC
  0
SECTION
  2
OBJECTS
  0
DICTIONARY
  0
ENDSEC
  0
EOF
